<?xml version="1.0" standalone="no"?>
<!DOCTYPE svg PUBLIC "-//W3C//DTD SVG 1.1//EN" "http://www.w3.org/Graphics/SVG/1.1/DTD/svg11.dtd" >
<svg xmlns="http://www.w3.org/2000/svg">
<metadata></metadata>
<defs>
<font id="no._seven_boldregular" horiz-adv-x="968" >
<font-face units-per-em="2048" ascent="1536" descent="-512" />
<missing-glyph horiz-adv-x="382" />
<glyph unicode="&#xfb01;" horiz-adv-x="1165" d="M-134 217q6 46 41.5 84.5t92.5 52.5q59 341 134.5 605.5t165.5 445.5t196 260.5t221 42.5q78 -26 114.5 -95.5t24.5 -178t-68 -242.5t-170.5 -299.5t-273.5 -337.5l-39 -201q-1 -4 -6 -24.5t-6 -32.5q87 -41 166 -111q109 80 180 203q-3 128 27 242q21 91 71 155.5 t111 92.5t128.5 22.5t125.5 -47.5q-10 -16 -25.5 -45.5t-50.5 -121t-55 -183.5q-24 -109 -33.5 -195t-1.5 -144.5t37 -64.5q41 -12 93.5 38.5t94 123.5t70.5 150h2q31 10 46 -10.5t-1 -69.5q-32 -77 -78 -146t-101.5 -121t-121.5 -75.5t-129 -7.5q-66 19 -116 88.5 t-75 175.5q-58 -92 -118 -146q114 -137 131 -299q8 -75 -11 -151.5t-58 -140t-94 -113.5t-114.5 -76t-125 -23t-120.5 41q-103 69 -154 249.5t-34 447.5q-52 36 -75.5 86t-17.5 96zM211 -532q19 -57 60 -18q47 45 78 164q21 82 22 163q0 124 -17 217q-63 -20 -116 -23 q-63 -395 -27 -503zM254 86q42 11 68 20q-22 49 -50 84zM385 737q60 80 111.5 161t87 149t61 129.5t36.5 106.5t10.5 76t-13.5 42q-65 57 -139 -120q-67 -161 -154 -544zM840 1180q19 92 101 134t179 11q46 -16 78 -45.5t45 -64.5t11.5 -73t-19.5 -73q-29 -59 -99 -90 t-145 -18q-82 16 -124.5 84t-26.5 135z" />
<glyph unicode="&#xfb02;" horiz-adv-x="1296" d="M-133.5 233q5.5 37 32 67t70.5 44q79 454 195 777t260.5 479t298.5 108q55 -18 87 -72.5t36.5 -137.5t-13 -187t-64 -227.5t-114 -253t-166 -269.5t-215.5 -270q122 -62 211 -162q125 64 248 193q-27 144 -6 329q16 137 58 289.5t104 291t133 246t153 159t156 24.5 q57 -22 72 -109.5t-18.5 -234t-114.5 -322.5q-139 -283 -250 -456q-15 -111 -17 -200t15 -155t55 -80q44 -16 102 63t99 195q0 3 4 3q30 10 45.5 -12t-2.5 -68q-29 -74 -72 -138t-94 -107t-105.5 -59t-105.5 7q-127 56 -184 223q-104 -104 -209 -164q76 -116 90 -246 q8 -75 -11.5 -151.5t-58 -140t-93.5 -113.5t-114.5 -76t-124.5 -23t-120 41q-107 73 -158.5 264t-28.5 474q-38 37 -54.5 78.5t-11 78.5zM180 -532q19 -57 60 -18q48 45 80 164q21 82 22 163q0 103 -12 192q-58 -11 -125 -2q-62 -400 -25 -499zM223 76q36 -5 80 -2 q-22 68 -59 116q-3 -19 -11 -57.5t-10 -56.5zM295 457q134 193 237 412t140.5 363.5t9.5 168.5q-79 68 -179 -179q-97 -240 -208 -765zM1061 788q57 103 125 254q45 103 66 177.5t20.5 109.5t-15.5 49q-41 36 -93 -128q-49 -153 -103 -462z" />
<glyph unicode="&#xfb03;" horiz-adv-x="1929" d="M-130 177.5q-15 59.5 15.5 107t96.5 65.5q78 453 190.5 769.5t254 468t294.5 102.5q59 -19 97 -57t52.5 -95t5.5 -129.5t-47.5 -164t-103.5 -194t-165.5 -225t-229.5 -252.5l-45 -219q-1 -13 -6.5 -33.5t-6.5 -25.5q132 -68 226 -193q59 16 86 25q-11 49 -3.5 93.5 t40.5 80.5t84 51q80 452 192 768t253 467.5t294 102.5q80 -26 116 -117t18 -231.5t-81.5 -306t-192.5 -357.5t-303 -367q0 -2 -1 -6t-1 -6q105 -54 191 -143q129 95 211 239q-3 105 26 236q22 91 72 155.5t111 92.5t128.5 22.5t125.5 -47.5q-9 -16 -24.5 -45.5t-50 -121 t-54.5 -183.5q-24 -108 -34 -195t-2 -145t36 -64q42 -12 94.5 39t93.5 123.5t70 149.5h2q32 10 46.5 -10.5t-1.5 -69.5q-32 -77 -78 -146t-101.5 -121t-121.5 -75.5t-129 -7.5q-66 19 -117 91t-74 181q-66 -110 -157 -188q74 -115 88 -246q7 -63 -10.5 -132t-52.5 -129.5 t-86 -109.5t-107.5 -75.5t-120.5 -24t-121 40.5q-211 144 -188 610q-22 18 -33 35q-67 -27 -74 -29q48 -101 59 -205q9 -75 -8 -152.5t-51.5 -143t-84.5 -117.5t-106 -80t-118.5 -26.5t-118.5 38.5q-106 72 -156.5 268t-27.5 480q-60 50 -75 109.5zM190 -551q19 -56 60 -14 q48 51 80 178q21 83 22 164q0 103 -12 188q-70 -3 -123 4q-62 -414 -27 -520zM236 78q48 0 77 2q-26 66 -59 110zM367 729q73 87 132.5 172t99 155t66 132.5t37 108t8.5 76.5t-16 44q-76 65 -174 -173q-72 -177 -153 -515zM915 -481q21 -63 58 -38q43 30 69 141 q16 73 17 155q0 106 -8 182q-47 -15 -117 -22q-50 -317 -19 -418zM954 55q29 5 74 19q-20 68 -51 110zM1036 483q63 82 120 173.5t99 176t76.5 168t56 153t33 125.5t11 92t-12.5 46q-76 65 -175 -174q-98 -240 -208 -760zM1602 1180q20 92 102 134t178 11q47 -16 79 -45.5 t45.5 -64.5t12 -73t-19.5 -73q-31 -59 -101.5 -90t-144.5 -18q-81 16 -123 84t-28 135z" />
<glyph unicode="&#xfb04;" horiz-adv-x="2002" d="M-132 222q8 61 56 97v5q78 460 194 788t262 486.5t302 109.5q59 -19 96.5 -58t51 -97.5t3.5 -132.5t-49.5 -167.5t-105.5 -198t-167 -227.5t-230 -254q-27 -116 -45 -219q-11 -36 -13 -59q129 -68 223 -193q70 15 144 45q-32 59 -15.5 117t76.5 82q80 456 195 785 t261 494.5t300 117.5q80 -26 114 -122.5t13.5 -244t-85.5 -319.5t-195.5 -370t-303.5 -374l-4 -18q127 -65 209 -184q143 48 281 196q-29 160 -6 344q19 171 83 360.5t149 342t190.5 237.5t197.5 51q87 -33 56 -218t-169 -470q-132 -270 -215 -405q-15 -114 -17 -205 t15.5 -158.5t55.5 -81.5q44 -16 100.5 61.5t99.5 196.5l2 3q31 10 47 -12.5t0 -67.5q-41 -100 -102.5 -178t-136 -113t-139.5 -6q-124 52 -185 221q-120 -120 -260 -180q51 -100 62 -209q7 -63 -8 -132t-46 -129.5t-77.5 -109t-98.5 -75.5t-113 -24.5t-118 40.5 q-107 72 -158 237t-31 424q-70 -32 -110 -45q50 -98 61 -205q8 -75 -9 -152.5t-51.5 -143t-85 -117.5t-106 -80t-118 -26.5t-117.5 38.5q-110 74 -160.5 278.5t-21.5 503.5q-36 59 -28 120zM141 -551q19 -57 60 -13q48 52 79 182q20 81 21 159q0 103 -12 188q-71 -4 -123 4 q-64 -411 -25 -520zM182 78q51 0 78 2q-19 55 -57 110q-3 -14 -9.5 -53t-11.5 -59zM317 731q73 87 134.5 172t102.5 155.5t70 132.5t41.5 107.5t11.5 76.5t-15 44q-69 59 -160 -124q-90 -179 -185 -564zM864 -481q21 -63 58 -38q42 30 68 143q17 71 18 153q0 119 -11 203 q-40 -5 -49 -5q-11 0 -61 5q-56 -361 -23 -461zM907 84q40 -8 70 -8q-14 51 -51 108zM985 487q56 73 108.5 155t93.5 159.5t76 155.5t60 146.5t42.5 129.5t25 106.5t6.5 75.5t-11 39q-65 56 -155 -126q-121 -246 -246 -841zM1763 797q40 81 101 213q49 109 76.5 195t30 130 t-10.5 62q-23 19 -48.5 -22t-51.5 -134t-49 -199.5t-48 -244.5z" />
<glyph horiz-adv-x="2048" />
<glyph horiz-adv-x="2048" />
<glyph unicode="&#xd;" horiz-adv-x="2048" />
<glyph unicode=" "  horiz-adv-x="382" />
<glyph unicode="&#x09;" horiz-adv-x="382" />
<glyph unicode="&#xa0;" horiz-adv-x="382" />
<glyph unicode="!" horiz-adv-x="751" d="M57 154q20 91 103 133t178 10q47 -15 79 -44.5t45.5 -64.5t12 -73.5t-19.5 -73.5q-31 -59 -101.5 -90.5t-144.5 -16.5q-81 16 -123.5 84t-28.5 136zM266 444q1 54 1 157t0.5 160t3 148t6.5 146.5t13 129t21 123t31 99.5t43 86q32 47 77 71t91.5 24t95.5 -10.5t92 -30.5 t77 -38.5t54 -32.5l19 -14q-8 -5 -21 -14.5t-54 -47.5t-80.5 -85.5t-93 -130.5t-98.5 -178.5t-90.5 -234t-76.5 -294.5q-6 -34 -20 -50t-29 -14t-29.5 8t-23.5 15z" />
<glyph unicode="&#x22;" horiz-adv-x="587" d="M16 950q131 112 62 412q-11 49 -23 61q0 2 2 2q43 36 102 42.5t108.5 -11t82 -56t27.5 -85.5q-14 -110 -96 -209t-197 -160q-25 -13 -40 -12t-22 8zM209 903q103 67 176 217t55 279q-1 6 -16 67v2q60 51 139 53t133 -49.5t45 -138.5q-8 -63 -62.5 -138.5t-127 -136.5 t-149 -108t-130.5 -63q-27 -6 -41 -2.5t-18 11.5z" />
<glyph unicode="#" horiz-adv-x="1339" d="M17.5 498.5q-0.5 18.5 11.5 25.5l12 8q59 -36 149 -77q31 193 56 319q-39 22 -86 60q-27 21 -28.5 40t10.5 28l12 9q62 -34 108 -51q95 454 184 619q21 37 64 48t89 0.5t89 -26t70 -30.5l28 -15q-18 -29 -47 -76q-149 -258 -278 -575q195 -34 407 2q64 225 132.5 404.5 t121.5 269.5q22 37 65 47.5t89 -0.5t88.5 -27t69.5 -31l28 -16q-20 -31 -49 -78q-171 -272 -295 -512q14 4 129 45q61 23 82 39l4 -2q44 -51 46 -124.5t-46 -135t-135 -72.5q-122 -12 -207 -12q-52 -113 -90 -215q55 9 141 35q71 22 86 33l2 -2q30 -41 36.5 -95t-10.5 -103 t-63 -84.5t-112 -39.5q-52 -5 -160 6q-33 -131 -43 -192q-4 -27 -14.5 -39.5t-22 -12t-22.5 5.5t-18 11.5t-7 7.5q11 104 31 236q-244 47 -438 141q-56 -196 -80 -350q-4 -27 -14.5 -39.5t-22 -12t-22.5 5.5t-18 11.5t-7 7.5q18 191 53 438q-80 50 -133 101 q-25 23 -25.5 41.5zM319 410q214 -59 443 -41q37 170 55 239q-234 21 -399 84q-45 -118 -99 -282z" />
<glyph unicode="$" horiz-adv-x="1193" d="M-2.5 346q-0.5 99 44.5 194.5t130 161.5q67 50 137.5 54t122.5 -26t93 -68.5t61.5 -70.5t15.5 -34q-83 -20 -151.5 -57.5t-113 -83.5t-74.5 -98t-36.5 -104t2.5 -99t39.5 -85.5t77.5 -60.5q79 -38 153.5 -44t136.5 18.5t109.5 85t71.5 151.5q8 31 9 62.5t-7 64.5 t-18.5 63t-32.5 67.5t-41 67.5t-52.5 74t-59 76t-66.5 83q-19 24 -29 36q-84 106 -118 228.5t-18 240t77 219.5q85 142 266 203q1 13 1.5 35t1 33t1.5 27.5t2.5 26.5t4 21t5.5 19t7 14q37 52 99 68t124.5 1.5t120 -36.5t93.5 -43l36 -21q-62 -64 -125 -168 q83 -47 138.5 -119.5t74.5 -149.5t14.5 -153t-36.5 -138t-83 -97q-72 -44 -135 -41.5t-115.5 38t-90 77t-58.5 75.5l-21 35q92 22 160 64t99 90t38.5 97t-15.5 90t-69 63q-75 32 -149 26t-136 -51.5t-85 -113.5q-32 -97 23.5 -212.5t178.5 -271.5q144 -178 197.5 -336 t15.5 -342q-35 -162 -132.5 -271.5t-231 -150t-283.5 -10.5q-21 -89 -26 -125q-7 -33 -21 -49t-29.5 -14.5t-30 8t-23.5 14.5t-9 9q0 70 16 192l-2 2q-84 34 -148.5 107.5t-95 168t-31 193.5z" />
<glyph unicode="%" horiz-adv-x="2164" d="M6 877q13 100 64.5 188t125 147.5t162.5 94t177 34.5q24 35 57 52q39 23 85.5 17.5t89 -39t74.5 -94.5t43.5 -150t-3.5 -205q81 18 150.5 93.5t135.5 186.5q5 11 47 92q21 38 67.5 50t97.5 2t99 -25t80 -30l31 -15q-18 -29 -47 -78q-45 -75 -127.5 -199.5t-141.5 -219 t-126 -219.5t-115.5 -264.5t-75.5 -289.5q-4 -26 -14.5 -38.5t-21.5 -11t-21.5 7t-17.5 12.5l-7 6q49 516 189 952q-91 -95 -205 -111q-26 -88 -71.5 -169.5t-107 -147.5t-143 -102t-167.5 -27q-79 7 -150 45t-124 100.5t-78 155t-11 199.5zM342 922q-21 -161 11.5 -252 t119.5 -97q85 -6 160 63t115 191q-59 11 -109 44.5t-81.5 78.5t-52 99.5t-21.5 108t10 102.5q-54 -28 -94.5 -117t-57.5 -221zM645.5 1000q6.5 -25 38.5 -46.5t86 -29.5q20 132 -27 172q-29 25 -63 -2q-23 -18 -32 -43.5t-2.5 -50.5zM1204 422q29 220 182.5 350.5 t354.5 110.5q86 -9 157 -40.5t122.5 -85.5t75 -135.5t11.5 -183.5q-13 -124 -67.5 -227.5t-131 -167.5t-165 -96.5t-172.5 -24.5q-79 6 -151 44t-125.5 100.5t-79 155.5t-11.5 200zM1510.5 158.5q1.5 -40.5 8 -76t23 -55.5t41.5 -23q38 -4 68 25.5t52 88t37 125.5t29 158 q10 64 15.5 105t10 93t2.5 85t-9 64.5t-23 47.5t-41 19q-65 9 -110.5 -83t-71.5 -263q-10 -62 -16.5 -109.5t-11.5 -104t-3.5 -97z" />
<glyph unicode="&#x26;" horiz-adv-x="1304" d="M-8 412q23 152 127.5 277t251.5 188q-72 69 -105 160t-12 190q14 71 56.5 137.5t101.5 117.5t133.5 89t151.5 57.5t157.5 18.5t149.5 -25q90 -30 145.5 -107t67.5 -166t-19 -181.5t-102 -153.5q-48 -42 -103 -48t-98.5 15.5t-80 49t-56.5 51.5l-21 24q63 19 120 66 t91.5 104t52 113.5t4.5 102t-55 62.5q-60 26 -111 17t-92 -37t-73 -75.5t-53 -99t-33 -106.5q-47 -231 4 -321q91 3 186 -25q58 -19 59 -63q0 -42 -53 -71q-49 -26 -120 -23q-73 3 -134 26q-72 -60 -119.5 -154.5t-62.5 -207.5q-14 -84 -3 -159.5t39.5 -132.5t89.5 -90.5 t147 -33.5q85 0 151.5 35.5t107.5 98t64.5 138.5t30.5 166q-173 40 -320 129q-29 18 -38.5 43t-4.5 40l6 16q130 -43 298 -8.5t307 126.5q21 16 67 62h4q53 -34 77 -85.5t18.5 -104t-28 -101t-63 -83t-86.5 -44.5q-33 -8 -82 -8q-20 -108 -74.5 -205.5t-135 -171.5 t-191.5 -118t-235 -44q-165 0 -288.5 70.5t-180 192.5t-33.5 270z" />
<glyph unicode="'" horiz-adv-x="290" d="M16 950q42 36 68 90.5t34 113t6.5 111.5t-11.5 97q-11 49 -23 61q0 2 2 2q43 36 102 42.5t108.5 -11t82 -56t27.5 -85.5q-14 -106 -109 -204.5t-219 -164.5q-25 -13 -40 -12t-22 8z" />
<glyph unicode="(" horiz-adv-x="983" d="M-11 382.5q4 143.5 40 289.5q37 149 95.5 280t129.5 228.5t152.5 174.5t165.5 124t167 71t159 20.5t140 -32.5q68 -30 -12 -61l-43 -13q-158 80 -328.5 -116.5t-275.5 -626.5q-31 -131 -50.5 -258t-22 -251t16 -216.5t68.5 -147t129 -49.5q3 0 7.5 -12t4 -29t-9 -33.5 t-37 -27t-73.5 -8.5q-101 4 -184 60t-135.5 151t-80 217t-23.5 265.5z" />
<glyph unicode=")" horiz-adv-x="983" d="M49 -281q-69 32 14 64q32 12 41 12q158 -80 329 117t276 627q31 131 50 258t21.5 251t-16 216t-68.5 146.5t-129 49.5q-8 -2 -13.5 28t23 58t101.5 25q101 -4 183 -60t134.5 -151t80 -217.5t23.5 -266.5t-40 -290q-37 -148 -96.5 -279t-130.5 -228.5t-152.5 -174.5 t-165.5 -124.5t-167 -71.5t-159 -20.5t-139 31.5z" />
<glyph unicode="*" horiz-adv-x="483" d="M17.5 858q-2.5 27 17.5 47q32 35 100 54.5t137 19.5q-65 55 -176 39q-16 -2 -41 -10q-14 31 -13 67.5t23.5 64t55.5 21.5q47 -9 97 -57t81 -107q14 90 -61 193q-4 4 -10 9.5t-10 9.5l-5 5v3q18 29 55.5 40t71.5 -2t43 -45q12 -50 -2.5 -110t-50.5 -115q32 13 59.5 40.5 t40 49t29.5 55.5q3 7 6 16t4 14.5t2 6.5q0 2 2 2q34 1 62.5 -23.5t33.5 -56t-18 -61.5q-35 -36 -95 -56t-126 -18q71 -63 178 -43q18 4 41 15l2 -2q15 -30 10.5 -63t-31 -57t-59.5 -18q-46 9 -92 50t-76 98q-16 -98 49 -182q4 -6 9.5 -13t10 -10.5t5.5 -3.5v-2 q-17 -29 -52 -40t-67.5 0.5t-42.5 43.5q-12 45 4.5 104t52.5 115q-32 -15 -61.5 -47.5t-42.5 -54.5t-31 -58q-12 -28 -12 -38h-2q-25 0 -50.5 17t-39 41.5t-16 51.5z" />
<glyph unicode="+" horiz-adv-x="999" d="M19 505.5q-1 7.5 0.5 16t7.5 14.5t19 8.5t32 0.5q194 -23 385 -13q-5 144 -43 334l-21 90q6 2 17 5.5t43.5 10t62 10t66.5 1t65 -13t49.5 -36t26.5 -63.5q11 -110 -49 -313q130 20 299 61l86 23q3 -6 7 -16.5t13 -41t14 -59t4.5 -65t-10.5 -65t-35.5 -53t-66.5 -34.5 q-108 -26 -383 23q-4 -11 -46.5 -136t-63.5 -190l-6 -2q-5 -2 -12 -4t-16 -3.5t-16.5 1t-14 8.5t-8 18.5t0.5 32.5q29 168 35 305q-185 43 -432 113l-2.5 5t-4 11.5t-3.5 16z" />
<glyph unicode="," horiz-adv-x="544" d="M76 188q19 91 101 133.5t177 10.5q61 -19 96.5 -62t41.5 -96q11 -99 -73.5 -192t-223.5 -164q-45 -22 -67.5 -8.5t-14.5 45.5l2 2q102 51 159 108q-33 0 -49 4q-81 17 -123 84t-26 135z" />
<glyph unicode="-" horiz-adv-x="774" d="M55 495q-5 24 1 35l7 11q115 -62 256 -58t281 64q70 29 82 41l4 -2q35 -38 46.5 -100.5t-1.5 -122.5t-63 -104t-127 -44q-118 0 -242.5 67.5t-214.5 163.5q-24 25 -29 49z" />
<glyph unicode="." horiz-adv-x="509" d="M57 188q20 91 103 133.5t178 10.5q47 -15 79 -44.5t45.5 -64.5t12 -73.5t-19.5 -73.5q-31 -59 -101.5 -90.5t-144.5 -16.5q-81 16 -123.5 83.5t-28.5 135.5z" />
<glyph unicode="/" horiz-adv-x="610" d="M16 16q45 459 161.5 921.5t215.5 637.5q21 38 67.5 50t97.5 2t99 -25.5t79 -30.5l32 -15q-20 -30 -47 -77q-76 -127 -135 -231.5t-143 -267.5t-144.5 -304.5t-116.5 -312.5t-82 -322q-7 -42 -28 -48t-38 9z" />
<glyph unicode="0" horiz-adv-x="1171" d="M-6 750q18 137 71.5 260t126.5 212.5t160 157t173.5 104t164.5 44.5q47 5 105 -10q35 31 71 45q143 58 243 -9t133.5 -244.5t-11.5 -457.5q-31 -179 -100.5 -339.5t-165.5 -281t-222.5 -186.5t-261.5 -55q-117 10 -214 62.5t-167 144.5t-99.5 235t-6.5 318zM330 797 q-45 -297 23.5 -457.5t232.5 -169.5q121 -7 236 87.5t193.5 251.5t104.5 337q37 260 -16 378t-164 105q-47 -6 -91 -43.5t-68.5 -76t-39.5 -76.5q-8 -22 -44 -16q-46 8 -67 54q-12 25 -12 56q0 44 32.5 108.5t82.5 120.5q-23 5 -49 2q-40 -5 -90.5 -54t-101.5 -131.5 t-95 -208.5t-67 -267z" />
<glyph unicode="1" horiz-adv-x="624" d="M-18 72q9 13 23.5 38t58 116t83 196.5t88 281.5t84.5 369q31 158 35 275q-86 -97 -198 -179q-2 0 -4 2q-51 16 -2 89q32 46 57.5 81t53 70t51.5 59.5t49.5 46.5t49 34.5t49 20t51 6.5t52.5 -9q78 -26 62 -342q-12 -276 -92 -670.5t-166 -515.5q-37 -52 -90 -68 t-102.5 -1.5t-94 36.5t-71.5 43z" />
<glyph unicode="2" horiz-adv-x="1128" d="M6 68q25 66 122.5 119t240.5 87q197 203 330.5 385t183.5 349q48 172 -8 284.5t-203 112.5q-140 0 -230 -81.5t-112 -217.5q-12 -77 13.5 -117t70 -40.5t94.5 21t88 58.5q3 -6 8 -17t16 -43.5t18 -63.5t8 -71.5t-8.5 -73.5t-36.5 -63.5t-71 -46.5q-50 -19 -104 -18 t-103 20t-92 55.5t-71 88.5t-39 118.5t4 145.5q20 115 86 214.5t156.5 165t193 103.5t199.5 41q114 3 214.5 -36.5t166 -110.5t94 -168t-1.5 -209q-13 -51 -34.5 -101t-43.5 -92t-58.5 -90t-63.5 -81.5t-76 -81t-77.5 -74.5t-87 -76t-86 -71t-90.5 -73q116 11 197 13h16 q83 -1 145 -25.5t94 -62.5t47 -85.5t10 -95.5t-23 -92t-47 -75q-2 -3 -5.5 -4.5t-6.5 -1.5l-3 -1q-17 9 -50 24t-140 50t-221 57q-224 45 -273 50q-80 -119 -194 -136q-81 -12 -131 33q-48 42 -25 101z" />
<glyph unicode="3" horiz-adv-x="1128" d="M5 196q-21 83 2 170t93 148q36 31 79 40t84 -0.5t82.5 -28.5t75.5 -44t61 -47t42 -38l15 -15q-131 -37 -224 -140q-80 -88 -76 -162q3 -49 46 -73q100 -53 188.5 -15.5t152.5 129.5t87 206q52 229 -49 323q-119 -18 -191 4q-59 19 -59 62q-1 43 51 72q49 27 121 24 q85 -8 127 -18q138 102 184 284q19 74 19 138.5t-19.5 115t-65.5 80t-114 29.5q-102 0 -170 -43t-88 -127q-16 -62 14.5 -99t90 -25.5t114.5 75.5q3 -5 8.5 -13.5t17.5 -34t19 -51t8.5 -59t-8.5 -62.5t-38.5 -58.5t-74.5 -49.5q-64 -30 -128.5 -15.5t-107.5 65t-61 128 t11 174.5q48 162 175 247t308 91q87 2 164.5 -21t132.5 -66t93 -103t46.5 -131.5t-8.5 -151.5q-31 -129 -124 -227t-222 -158q110 -62 165.5 -155.5t30.5 -217.5q-24 -114 -91.5 -207t-160 -149t-198.5 -85t-212.5 -23t-195.5 44q-83 35 -142 108t-80 156z" />
<glyph unicode="4" horiz-adv-x="983" d="M14 399q-26 38 2 88q46 84 177 134q43 92 73 219.5t42 222.5t24.5 220t17.5 163q9 66 2 100l2 2q42 11 91.5 4.5t93.5 -28.5t78 -58.5t45.5 -84.5t-3.5 -107q-24 -80 -111.5 -269.5t-178.5 -347.5q107 13 229 13q81 230 127 473q6 33 19.5 49t29 15t30.5 -7.5t24.5 -14.5 t9.5 -9q-13 -231 -60 -510q24 0 74 -4q38 -3 69.5 3.5t50 18t31.5 23t18 19.5l5 9q10 -2 12 -10q24 -41 29.5 -91t-6 -98t-39.5 -93t-67 -76t-91.5 -45t-109.5 -3l-41 9q-56 -226 -101 -287q-37 -53 -90 -69t-102.5 -1.5t-94 36.5t-71.5 43l-27 22q5 4 13.5 11.5t35 35.5 t53.5 61t65 89t73 118q-136 40 -201 70q-73 -90 -161 -95q-64 -4 -91 37z" />
<glyph unicode="5" horiz-adv-x="1275" d="M-21 335q20 122 121 195q49 35 99 46t92 0t81 -32.5t68.5 -49.5t51.5 -53t34 -43l11 -17q-85 -12 -152.5 -47.5t-103 -81.5t-50 -94t-0.5 -89.5t52 -62.5q48 -28 104 -29t109.5 24.5t99.5 69.5t77.5 112t39.5 147q22 171 -39.5 274.5t-220.5 102.5q-55 -64 -86 -54 q-69 25 -61 69t83 71q59 92 131 438q-65 35 -101.5 75.5t-41.5 79.5q-6 69 72.5 109t161.5 12t89 -123q35 3 72.5 10.5t82 22t77 25.5t86 34.5t77.5 34t84.5 38t75.5 34.5l37 16q7 0 13 -4q29 -32 43.5 -79t13.5 -98.5t-22.5 -103.5t-60 -94t-104.5 -69t-149 -29h-16 q-206 6 -365 56q-50 -218 -125 -365q83 1 162.5 -11t158.5 -43.5t135.5 -79.5t86.5 -125t18 -173q-12 -97 -59.5 -180t-116.5 -140.5t-156 -97.5t-177 -55.5t-180 -10t-165 34.5q-133 51 -200.5 166t-47.5 237z" />
<glyph unicode="6" horiz-adv-x="1105" d="M-9.5 417.5q-0.5 145.5 40.5 309.5q38 152 96 281t125 220.5t144 161t154 108.5t153 57t143 13t123 -30q109 -49 149.5 -152.5t5.5 -216.5t-133 -194q-43 -36 -86.5 -49t-78.5 -5t-67.5 25.5t-56 42t-41.5 46t-27 37.5l-9 15q133 40 237 144q92 91 93 164q1 47 -42 69 q-35 18 -71.5 20.5t-77 -13.5t-80 -49.5t-80.5 -91t-79.5 -134.5t-75.5 -184t-68 -236l-21 -86q88 68 185 107t185 46t166 -15.5t132.5 -71t80 -128t11.5 -179.5q-11 -80 -43.5 -154t-80 -131.5t-107.5 -106.5t-127 -81t-138.5 -54.5t-142.5 -26.5t-139 3q-114 14 -194 84 t-118.5 180t-39 255.5zM338 580q-97 -521 113 -553q112 -19 197 86t118 270q11 48 7.5 90t-13.5 79.5t-32 65t-50 47t-66 24t-79.5 -3.5t-92 -35t-102.5 -70z" />
<glyph unicode="7" horiz-adv-x="970" d="M86 18q50 274 204.5 568.5t366.5 550.5q-108 -11 -186 -11h-16q-83 0 -148.5 26t-103 68t-59.5 94.5t-23 105t13.5 99.5t43.5 78q2 4 5 6t5 3h2q17 -10 49.5 -27t140.5 -57.5t224 -65.5q178 -42 289 -45q82 81 194 89q88 7 127 -35q28 -30 11 -74q-26 -70 -133 -130 t-263 -96q-268 -396 -327 -1079q-6 -64 -50.5 -94.5t-105 -28.5t-119.5 13.5t-100 26.5z" />
<glyph unicode="8" horiz-adv-x="1087" d="M-14 323q4 90 43 178.5t130.5 178t225.5 160.5q101 53 160 88q-56 118 -77 200.5t-11 167.5q19 144 134 223t310 64q62 -5 118.5 -31t98.5 -69t59.5 -108.5t0.5 -141.5q-49 -205 -260 -367q104 -136 146.5 -265t8.5 -267q-30 -125 -95 -218t-149 -143.5t-182.5 -72.5 t-198 -13t-194.5 45q-83 31 -144.5 90.5t-94.5 135t-29 165.5zM216 122q21 -75 91 -116q75 -43 151 -32t140.5 57t111.5 120t64 156q8 39 10 74.5t-5.5 72.5t-13.5 62t-25 66.5t-28.5 60.5t-35.5 68l-123 -74q-131 -75 -217 -170.5t-113.5 -182.5t-6.5 -162zM666 1335 q-2 -43 25.5 -119.5t74.5 -160.5q120 95 170 196q20 50 21 105.5t-30.5 101t-84.5 49.5q-68 5 -120 -43.5t-56 -128.5z" />
<glyph unicode="9" horiz-adv-x="1097" d="M-3 214.5q-14 68.5 8.5 136.5t80.5 118q49 43 106 46.5t104.5 -21.5t87.5 -56t62 -58l23 -26q-68 -20 -120.5 -60t-76.5 -86t-29 -91.5t18.5 -81.5t68.5 -51q154 -47 271 119.5t216 580.5l17 64q-81 -81 -173.5 -124t-175 -46.5t-157.5 26t-126 85.5t-75 141t-10 184 q20 139 96 253.5t182.5 183.5t232.5 99.5t249 14.5q113 -15 190 -85t112 -180.5t32.5 -255t-44.5 -309.5q-30 -124 -72.5 -233t-92 -193.5t-106.5 -155.5t-116.5 -118.5t-123 -83t-125.5 -49t-124 -16t-118 15.5q-76 20 -139.5 68.5t-101 112t-51.5 132zM469 883 q13 -70 48.5 -109t86 -47t119 30.5t141.5 121.5q25 119 36 206.5t7.5 167.5t-35 126.5t-90.5 56.5q-116 20 -201.5 -86.5t-111.5 -309.5q-13 -87 0 -157z" />
<glyph unicode=":" horiz-adv-x="595" d="M57 188q20 91 103 133.5t178 10.5q47 -15 79 -44.5t45.5 -64.5t12 -73.5t-19.5 -73.5q-31 -59 -101.5 -90.5t-144.5 -16.5q-81 16 -123.5 83.5t-28.5 135.5zM143 768q19 91 101.5 133t179.5 10q46 -15 78 -44.5t45 -64.5t11.5 -73.5t-19.5 -73.5q-30 -59 -100 -90 t-144 -16q-83 17 -125.5 84t-26.5 135z" />
<glyph unicode=";" horiz-adv-x="632" d="M57 188q20 91 103 133.5t178 10.5q62 -19 96 -62t39 -96q13 -99 -71 -192t-224 -164q-45 -22 -67.5 -8.5t-14.5 45.5l2 2q103 54 160 108q-33 0 -49 4q-81 16 -123.5 83.5t-28.5 135.5zM180 780q19 91 101.5 133.5t177.5 10.5q47 -15 79 -44.5t45 -64.5t11.5 -73.5 t-19.5 -73.5q-30 -59 -99.5 -90.5t-145.5 -16.5q-81 17 -123.5 84t-26.5 135z" />
<glyph unicode="&#x3c;" horiz-adv-x="382" d="M16 457q0 3 2 7.5t13 12.5t28 10q48 20 84.5 50t59.5 68t36 73t23 78q5 19 6.5 42t-0.5 25q2 0 4 2q41 8 89.5 -4.5t82 -39t49 -62.5t-9.5 -74q-35 -60 -124.5 -107.5t-194.5 -70.5q83 -32 149 -92.5t88 -122.5q16 -42 -12 -84.5t-87.5 -66.5t-125.5 -15l-2 2l1 16 q1 16 1 35t-2 35q-10 108 -21 145q-31 101 -137 138z" />
<glyph unicode="=" horiz-adv-x="632" d="M18.5 426.5q-2.5 24.5 3.5 33.5l5 9q79 -61 169 -101t168 -54.5t144 -13t110 18.5q5 2 23 11l2 -2q13 -18 16 -56.5t-9.5 -84t-36.5 -86t-71 -65.5t-108 -20q-104 10 -221 122.5t-176 232.5q-16 31 -18.5 55.5zM43 641.5q-5 23.5 1 34.5l7 12q70 -43 163.5 -54.5t188 4.5 t185.5 54q70 29 84 43q0 -2 2 -4q34 -36 41.5 -95t-9.5 -114.5t-64.5 -97t-113.5 -45.5q-106 -4 -239 60t-217 155q-24 24 -29 47.5z" />
<glyph unicode="&#x3e;" horiz-adv-x="382" d="M-5.5 196q-15.5 36 9.5 74q35 60 124.5 108t193.5 71q-82 31 -149 91.5t-87 123.5q-16 42 12 84t87.5 66t125.5 15l2 -2l-1 -16q-1 -16 -1 -35t2 -35q10 -108 21 -145q31 -100 135 -137q0 -3 -1.5 -8t-12.5 -13.5t-29 -9.5q-161 -68 -201 -268q-5 -19 -6.5 -42.5 t0.5 -25.5q-2 0 -4 -2q-41 -8 -89.5 4.5t-82 39t-49 62.5z" />
<glyph unicode="?" horiz-adv-x="886" d="M57 172q20 92 102.5 134t178.5 11q47 -16 79 -45.5t45.5 -64.5t12 -73t-19.5 -73q-31 -60 -101 -91t-145 -17q-81 16 -123.5 83.5t-28.5 135.5zM90 1079.5q1 59.5 10 120.5q19 98 71.5 174t125 120t156 64t170.5 15q76 -5 139.5 -27.5t108 -57t75.5 -79t44.5 -94 t12.5 -101.5t-18 -102q-25 -71 -68.5 -134.5t-93.5 -109t-105.5 -87t-107.5 -77t-95 -70t-72.5 -74.5t-36.5 -83q-6 -34 -19.5 -50t-29 -14t-30.5 8t-25 15l-9 8q8 63 35.5 126.5t64 113.5t80 104t81.5 99t70.5 97.5t45.5 100.5q85 312 -150 336q-101 9 -170.5 -41 t-79.5 -145q-5 -41 7 -74.5t34.5 -53.5t50.5 -30.5t57.5 -6t53.5 21.5q-1 -1 0.5 -14.5t-2 -37.5t-7 -52t-15.5 -58t-28 -54.5t-44 -42.5t-64 -22q-55 -8 -98.5 10t-69 56.5t-41 90.5t-14.5 111.5z" />
<glyph unicode="@" horiz-adv-x="1968" d="M-9.5 181q-14.5 145 15.5 313q52 268 171 474.5t289.5 337t382 197t456.5 66.5q114 0 218.5 -26.5t189 -74t155.5 -113t117 -144t75 -167.5t28.5 -182.5t-22.5 -189.5q-44 -170 -139 -314t-209.5 -232t-241 -124.5t-233.5 -3.5q-138 45 -170 266q-36 -108 -92.5 -177.5 t-151.5 -76.5q-86 -6 -154 57.5t-97.5 181t-4.5 255.5q28 146 111 255t195.5 153t224.5 10q44 -13 74 -43q75 74 166 73t155 -65q-9 -18 -24.5 -51.5t-49.5 -138.5t-53 -212q-16 -88 -23 -135t-12 -106t3.5 -89t29.5 -38q90 -35 188 104t160 402q33 141 35.5 265t-30.5 229 t-98.5 180.5t-175.5 118t-255 42.5q-108 0 -212.5 -35t-203 -108.5t-181 -179.5t-146 -258t-97.5 -334q-27 -164 -21 -304t48 -249.5t106 -190t153 -126.5t188.5 -59t213 12.5t226.5 88.5q4 4 14 -13q27 -44 -12 -87q-24 -25 -72 -45q-130 -56 -268.5 -74t-265.5 3t-244 75 t-205 141.5t-149 204t-75.5 261.5zM882.5 373q-8.5 -81 0.5 -142.5t39 -70.5q41 -11 68.5 58.5t80.5 285.5q2 66 21 176q8 70 38 131q-12 6 -43 10q-24 1 -44.5 -8.5t-37 -32.5t-29 -45.5t-25.5 -62t-20.5 -65.5t-19.5 -72q-20 -81 -28.5 -162z" />
<glyph unicode="A" horiz-adv-x="1947" d="M-12 38q6 60 41 118q56 91 156 159t215 103q114 35 230 48q65 7 127 8q47 0 91 -5q139 214 334 586q136 260 239 379q37 140 76 196q27 38 63 56q35 18 68 19l2 -1q34 0 69.5 -9t65.5 -26t54 -33t37 -28l14 -11q-11 -26 -31 -81t-77 -268t-109 -476q-27 -133 -35 -197 q97 46 170 95q3 -11 7.5 -29.5t11.5 -68.5q6 -42 6 -78q-1 -8 -1 -16q-2 -42 -18.5 -87t-50.5 -67q-52 -34 -146 -50q16 -156 99 -165q8 -1 16 -1q68 0 142 78q84 86 124 195h2q30 11 46 -11q8 -11 7 -27q0 -17 -8 -40q-17 -43 -35.5 -80.5t-44 -77.5t-53 -69.5t-62.5 -56 t-73 -38t-84 -15.5q-8 -1 -16 0q-39 0 -80 14q-78 21 -142 96.5t-100 193.5q-120 7 -387 49q-274 -450 -536 -546q-65 -25 -123 -25h-15q-65 4 -120.5 25t-94 63t-58.5 92q-15 37 -15 80q0 15 2 30zM258 112v-8q0 -34 18 -54q20 -22 57 -32q11 -3 23 -2q28 0 62 13 q154 52 346 315q-47 5 -92 5q-104 0 -196 -26q-132 -37 -187 -124q-29 -47 -31 -87zM1030 459q151 0 268 20q-2 34 -2 68q0 106 17 211q19 133 51 354q-39 -73 -70 -139q-136 -289 -264 -514z" />
<glyph unicode="B" horiz-adv-x="1738" d="M-32 886q-2 18 -2 36q0 104 59 233q60 122 163.5 218.5t233 158t275.5 95t302 38.5h34q167 -1 301 -45q148 -50 230 -148q76 -92 77 -211q0 -9 -1 -18q-6 -107 -55 -200.5t-129 -159.5q120 -61 186 -163q53 -82 53 -196q0 -28 -3 -57q-8 -80 -42 -150t-86.5 -123 t-121.5 -98t-147 -74t-163 -51.5t-169 -30.5t-166 -12q-23 -1 -45 0q-57 0 -109 6q-158 15 -289.5 66.5t-211.5 139.5q-70 78 -69 170q0 13 1 26q11 103 81.5 170.5t170.5 89.5q53 11 109 11q50 0 102 -9q7 93 14.5 209t11.5 171t11 123.5t16.5 104.5t26 74t40.5 70 q37 48 87 68q40 16 77 16q9 0 19 -1q46 -5 86.5 -22t65 -43.5t24.5 -50.5q-3 -2 -8.5 -7.5t-20.5 -31.5t-28.5 -61.5t-30 -103.5t-28 -151.5t-18.5 -212.5q-5 -100 -5 -214v-66q-2 -240 -112 -329q-50 -41 -114 -41q-75 0 -168 57q17 32 23 102l14 145q-50 26 -93 27h-3 q-41 0 -71 -28q-31 -29 -40 -87q-2 -15 -2 -30q0 -35 13 -67q19 -46 56.5 -79t88.5 -57.5t105.5 -38.5t109.5 -18q25 -2 52 -2q32 0 64 3q60 6 125 22t125 48t111 75t88.5 107t53.5 140q13 70 13 129q0 144 -79 225q-55 -15 -109 -15q-69 0 -137 25q-65 26 -67 74 q-3 47 55 77q43 23 108 25q33 0 115 -4q78 83 96 240q3 22 3 43q-1 118 -87 194q-102 89 -303 89q-248 0 -419.5 -103.5t-210.5 -251.5q-19 -57 -19 -99q0 -15 2 -28q10 -50 44 -72t80 -22h2q47 0 97 21q2 -7 5 -19q4 -12 8 -46q4 -28 3 -54v-12q-1 -32 -12.5 -70 t-34.5 -65.5t-68.5 -47t-108.5 -20.5h-11q-122 0 -203 67q-85 70 -97 188z" />
<glyph unicode="C" horiz-adv-x="993" d="M-12 514q-3 32 -3 66q0 105 27 227q21 97 54 186.5t74 163.5t89.5 140t101.5 117.5t110 94.5t114 73.5t114 51.5t111 30.5t103 9.5t92 -11q61 -15 108.5 -62t74 -111t32.5 -141q1 -20 1 -39q0 -57 -12 -112q-16 -74 -61 -143t-114 -115q-61 -40 -118 -58q-43 -13 -78 -14 q-10 0 -20 2q-42 6 -78.5 21.5t-61 40t-42 46.5t-25.5 38l-8 16q184 55 310 201q99 114 111 220q1 12 1 22q0 78 -65 104l-10 4q-25 8 -50 8q-120 -1 -248 -167q-156 -202 -255 -586q-44 -183 -44 -333q1 -22 1 -44q8 -167 68.5 -276.5t160.5 -129.5q27 -6 55 -6 q106 0 220 80q144 101 196 248q2 0 2 2q30 11 46 -11q8 -11 9 -29q0 -17 -8 -40q-48 -120 -147 -213q-100 -94 -233 -136q-79 -25 -158 -25q-54 0 -107 12q-78 17 -149.5 59.5t-137 114.5t-103.5 171.5t-50 231.5z" />
<glyph unicode="D" horiz-adv-x="1699" d="M-27 970q-3 23 -3 45q0 67 24 140q36 122 139.5 222t240 161t285 94t287.5 33q137 0 258.5 -30.5t225 -97.5t174 -165t100.5 -242q18 -86 19 -183q0 -67 -9 -138q-17 -139 -70.5 -263.5t-133 -221t-182 -173.5t-216.5 -126t-236 -73q-105 -21 -209 -21q-17 0 -34 1 q-159 6 -286 53.5t-203 138.5q-69 82 -69 189q0 11 1 23q4 70 43.5 123t101 79.5t139.5 34.5q22 2 45 2q56 0 113 -14q9 122 15.5 259t9.5 201.5t12 135t25.5 112.5t46.5 81q37 48 88 68q41 16 80 16q9 0 19 -1q48 -5 91.5 -22t69.5 -43.5t26 -50.5q-5 -2 -14 -10.5 t-31.5 -60t-40.5 -131.5t-33.5 -245.5t-17.5 -382.5q-4 -400 -199 -400q-81 0 -196 69q17 32 25 102l12 145q-47 23 -86 23q-26 0 -50 -11q-56 -27 -71 -100q-2 -16 -3 -31q0 -36 14 -68q18 -46 55.5 -80t88 -59t105.5 -38t109 -14q7 0 14 -1q228 0 404 198q182 202 231 538 q19 127 19 234q0 208 -72 334q-108 190 -400 190q-143 0 -269 -39.5t-219.5 -121t-125.5 -192.5q-13 -47 -13 -85q-1 -14 1 -26q6 -48 32.5 -79t62.5 -47q35 -15 75 -14h3q42 0 81 16q1 -6 2.5 -15.5t2.5 -37t-2 -53t-14 -56t-29.5 -52.5t-53.5 -36q-33 -14 -75 -14h-6 q-98 1 -174.5 41t-117.5 107.5t-52 155.5z" />
<glyph unicode="E" horiz-adv-x="1079" d="M-8 451q23 149 123 274t241 195q-66 72 -94 162q-16 52 -17 106q0 40 9 80q15 71 57.5 137t101.5 116.5t133 88.5t152 58q76 19 153 19q3 1 5 1q80 0 150 -25q89 -31 144.5 -100t67.5 -149q3 -22 4 -44q0 -58 -23 -119q-31 -84 -103 -145q-48 -42 -103 -48q-12 -1 -23 -1 q-42 1 -76 17q-44 22 -80 49t-56 51l-21 24q122 36 206 142q67 84 67 158q0 7 -1 14q-4 60 -59 83q-34 13 -68 13q-73 0 -146 -60q-106 -88 -146 -254q-17 -70 -17 -139q1 -15 1 -29q4 -83 34 -139q9 0 18 1q75 0 152 -23q56 -18 59 -70v-6q0 -48 -47 -84q-45 -33 -110 -33 h-14q-76 3 -148 35q-69 -61 -112.5 -153t-55.5 -199q-7 -58 -7 -111q1 -10 1 -20q2 -62 20.5 -114t50 -90t84.5 -59.5t122 -21.5q139 0 287.5 99t199.5 239l2 2q30 11 46 -10q8 -10 7 -27q0 -18 -8 -43q-46 -116 -150.5 -203.5t-237 -131.5t-273.5 -44q-164 0 -287.5 70 t-180.5 192q-41 87 -41 186q0 40 7 83z" />
<glyph unicode="F" horiz-adv-x="1390" d="M10 149q8 78 53 155.5t121 137.5q53 42 117.5 70.5t145.5 45t145.5 24t163.5 14.5v2q37 281 81 430t121 223q67 65 203 70h21q97 0 150 -34q34 -22 28 -50l-2 1q-7 3 -13 3q-39 0 -83 -99q-61 -140 -119 -456l-13 -49q123 26 218 68q3 -8 7 -21.5t10 -51.5q5 -30 5 -58 v-13q-2 -33 -19 -71t-51 -62q-58 -40 -237 -43q-45 -130 -106.5 -238t-130.5 -183t-145 -127t-153 -75q-69 -21 -138 -21q-7 1 -15 1q-76 2 -146 31q-78 33 -132 92t-74 133q-15 53 -15 109q0 21 2 42zM174 1062q-11 33 -10 65q0 34 12 65q64 135 299.5 205.5t702.5 83.5 q184 7 415.5 80.5t407.5 175.5q5 -6 12.5 -17t25.5 -45t30 -67q11 -32 17 -76q2 -17 3 -34q1 -25 -5 -49q-8 -38 -40.5 -76.5t-87.5 -65.5q-69 -33 -174 -33t-197 19t-205 41.5t-174 25.5q-30 2 -60 2q-219 0 -385 -92q-188 -104 -335 -309q-21 -28 -36 -55.5t-20 -41.5 l-5 -14q-59 22 -114 82.5t-77 129.5zM175 -33q28 -86 114 -119q38 -15 75 -15q96 0 178 102q113 140 179 452q-315 -4 -424 -82q-81 -61 -115 -157q-19 -53 -20 -102q0 -40 13 -79z" />
<glyph unicode="G" horiz-adv-x="1198" d="M23 807q23 108 61 206t85 177t103.5 149t116.5 120.5t124.5 93t127 66.5t123.5 41q55 14 105 14h11q55 -2 103 -11q73 -18 126 -79t73 -145q14 -63 14 -130q0 -22 -2 -45q-6 -90 -53 -177.5t-127 -146.5q-56 -41 -110 -58q-42 -14 -76 -14q-11 0 -20 2q-42 5 -79 21 t-63 40.5t-45 46.5t-28 38l-9 16q184 55 310 202q98 114 109 220q1 12 1 22q0 78 -65 104q-4 2 -9 3q-25 8 -50 8q-119 0 -246 -166q-155 -201 -257 -587q-41 -158 -57 -291q-12 -90 -12 -167q0 -37 3 -72q8 -106 50 -172t116 -81q29 -6 57 -6q86 0 159 61q97 81 155 228 q24 82 52 138t55.5 83.5t59.5 36.5t60 4t62 -20q3 -14 3 -38.5t-3 -60.5q-2 -27 -5 -81q-12 -201 -20 -293.5t-25.5 -209.5t-47 -172.5t-74.5 -80.5q-42 -23 -83 -32q-29 -6 -54 -6q-11 0 -22 1q-33 4 -63.5 14.5t-52.5 25t-38.5 28t-25.5 23.5l-8 9q4 2 12 7.5t30 32.5 t42.5 65.5t46.5 114t46 171.5q-82 -100 -195 -144q-70 -28 -148 -28q-49 0 -102 11q-76 17 -140.5 59t-115 115.5t-78.5 170.5q-28 96 -28 228q0 138 35 297z" />
<glyph unicode="H" horiz-adv-x="1267" d="M-16 430q-1 8 -1 14q1 22 11 42q14 26 49 40q27 12 62 12q11 0 24 -1h4q4 50 10 142.5t10 144.5t10 134t12 133t14.5 117.5t17.5 110t21 89.5t27 77.5t32 52.5q42 50 98 73q45 19 88 19q10 0 20 -2q52 -6 97 -23.5t72.5 -45.5t27.5 -54q-3 -2 -9 -6.5t-23.5 -29.5 t-35 -62.5t-41.5 -113.5t-45 -173.5t-43.5 -250.5t-39.5 -337q88 5 215 19q0 89 16 207q43 295 120 515.5t148 321.5q27 38 62.5 56.5t70 18.5t70.5 -9.5t66.5 -26.5t54.5 -32.5t38 -27.5l13 -11q-7 -8 -20.5 -25t-51.5 -83.5t-73.5 -148t-80 -225t-77.5 -309.5 q-23 -115 -33 -164q89 20 152 45q3 -9 7 -25q6 -16 12 -60q5 -36 5 -68q-1 -7 -1 -14q-2 -38 -19 -79.5t-51 -64.5q-29 -20 -133 -20v-12q0 -174 88 -193q10 -3 20 -3q53 0 113 70q72 84 114 197h2q31 11 47 -11q8 -10 8 -26q0 -17 -9 -41q-24 -59 -54.5 -110t-71 -97 t-86.5 -72q-47 -26 -103 -34q-15 -2 -30 -2q-42 0 -86 18q-85 30 -145 114t-86 218q-95 7 -250 27q-17 -104 -48 -183.5t-68.5 -124.5t-81.5 -67q-38 -19 -74 -19q-6 1 -12 1q-42 4 -82 28q12 30 22 100q10 75 31 285l-107 -8q-26 23 -30 53z" />
<glyph unicode="I" horiz-adv-x="1171" d="M2 247q-4 32 -5 64q-1 42 7 83q12 72 54.5 142t109.5 121q46 35 95 48q32 8 60 8q15 0 30 -2q41 -7 79.5 -24t68 -41t52 -45.5t33.5 -36.5l12 -15q-187 -55 -301 -199q-89 -114 -89 -222q0 -97 77 -130l6 -2q38 -15 75 -15q122 0 232 156q144 203 197 608 q21 160 34 251.5t35 206.5t45 188q-89 -70 -198 -179q-52 -52 -94.5 -108t-66.5 -98.5t-40 -77.5t-22 -54l-5 -18q-47 17 -89 60.5t-66 101.5q-24 59 -26 121v8q0 58 34 115q36 61 110 102q241 134 601 231q64 33 124 33q13 0 27 -2q72 -10 122 -47q43 -33 43 -64 q0 -5 -1 -10q-7 -3 -15.5 -10t-32.5 -48.5t-47.5 -106t-57.5 -198.5t-66 -311q-29 -160 -76 -298t-105.5 -241.5t-128 -183t-144 -128t-152.5 -72.5q-67 -20 -133 -20q-10 0 -22 1q-78 4 -151 33q-61 24 -110.5 74t-79 113t-39.5 138z" />
<glyph unicode="J" horiz-adv-x="1200" d="M-2 -96q2 89 45.5 175.5t124.5 147.5q46 35 94 47q27 7 51 7q19 0 35 -4q40 -9 77 -28t65 -45t49 -49t32 -39l11 -16q-188 -55 -297 -195q-81 -103 -81 -202v-11q4 -95 84 -127q2 -1 3 -1q32 -12 62 -12q78 0 147 76q96 104 168.5 332t126.5 575q34 234 50.5 340t49 274 t61.5 260q-70 -60 -200 -197q-52 -52 -94.5 -108t-66.5 -98.5t-40 -77.5t-21 -54l-6 -18q-47 17 -87.5 62t-61.5 106t-21 124q0 66 40 130q38 63 112 104q255 140 637 238l20 6q6 2 21 2q13 1 26 1q43 0 85 -15q55 -19 85 -50q24 -27 24 -50q0 -4 -1 -9q-5 -2 -18.5 -26.5 t-39 -90.5t-55 -160t-69.5 -255.5t-80 -356.5q-38 -189 -88 -351t-107.5 -287.5t-124 -225t-137 -162t-146.5 -97.5q-74 -34 -149 -34q-3 0 -6 1q-78 1 -158 30q-73 29 -128.5 94t-80.5 148q-23 76 -23 156q0 8 1 16z" />
<glyph unicode="K" horiz-adv-x="1746" d="M2 247q-4 32 -5 64q-1 42 7 83q12 72 54.5 142t109.5 121q46 35 95 48q32 8 60 8q15 0 30 -2q41 -7 79.5 -24t68 -41t52 -45.5t33.5 -36.5l12 -15q-187 -55 -301 -199q-89 -114 -89 -222q0 -97 77 -130l6 -2q38 -15 75 -14q122 0 232 155q144 203 197 608q26 201 43 314 t46.5 242t63.5 192q-149 -53 -311 -139q-65 -33 -122.5 -73.5t-93 -74t-61 -62t-36.5 -44.5l-11 -17q-44 33 -73.5 83t-35.5 108q-2 14 -2 29q0 43 14 85q18 56 76.5 102.5t151.5 70.5q268 69 713 69h27q8 0 12 -2q72 -7 124 -47q44 -34 43 -65q0 -5 -1 -11q-7 -3 -15.5 -10 t-32.5 -48.5t-47.5 -106t-57.5 -198.5t-66 -311q-23 -130 -62 -253q137 83 251 215t182 271q68 140 104 276q31 119 32 214q0 14 -1 27q7 0 18 0.5t44.5 -0.5t64.5 -4t70 -11.5t69 -21.5t54 -35t32 -51q5 -19 5 -41q0 -59 -35 -139q-48 -110 -139.5 -229t-222 -240.5 t-268.5 -210.5q14 -49 33.5 -127t33 -130.5t31 -106t38 -82t43.5 -31.5h9q59 1 133 75q80 80 120 187h2q30 11 46 -11q7 -10 7 -25q0 -18 -10 -42q-58 -147 -179 -241q-107 -83 -203 -83q-12 0 -24 1q-108 15 -210 144.5t-164 328.5l-9 -2q-47 -117 -107 -212.5t-126 -162.5 t-138 -112q-71 -44 -145 -62q-59 -15 -119 -15l-29 1q-74 4 -143 32q-61 24 -110.5 74t-79 113t-39.5 138z" />
<glyph unicode="L" horiz-adv-x="1126" d="M-52 20q10 54 46 101q50 65 133 98t178 33t203 -23q5 22 10 45.5t10 52.5t9 51t9 58.5t8 57t8 64t7.5 62t8.5 69t8 67.5q23 199 83 370t144 291.5t185 200.5q102 80 210 108q59 15 116 16q49 0 97 -11q72 -17 126 -79t76 -148q18 -71 18 -148q-1 -16 -1 -32 q-4 -94 -49 -183.5t-123 -149.5q-46 -35 -94 -46q-25 -6 -47 -6q-21 -1 -41 5q-40 10 -76.5 31t-64 49t-48 52.5t-31.5 41.5l-11 17q186 56 301 194q90 107 90 206q1 90 -78 117l-4 1q-30 9 -58 9q-36 0 -69 -15q-58 -27 -103.5 -95t-84.5 -182.5t-68.5 -256t-56.5 -327.5 q-57 -399 -181 -639q61 -25 117 -61q190 -115 335 -170q142 -54 243 -54h4q102 1 178 46q3 -6 7.5 -16.5t14.5 -43t14 -64.5q3 -19 3 -41q0 -15 -1 -33q-3 -42 -17.5 -78t-49.5 -73t-88 -63q-42 -20 -89 -21h-5q-45 -1 -89 15q-46 16 -93.5 43.5t-95 66t-91.5 79t-88.5 86 t-82 84t-75.5 76t-65 59.5q-6 5 -57 45q-128 -178 -314 -250q-73 -29 -143 -29h-3q-68 0 -118 22q-52 22 -89 60t-52 86q-9 29 -9 61q0 20 4 41zM248 70q-2 -9 -2 -17q0 -19 9 -31q13 -20 41 -28q11 -4 25 -5q20 0 44 9q66 20 112 133q-61 20 -108 20q-55 0 -88 -28 q-27 -25 -33 -53z" />
<glyph unicode="M" horiz-adv-x="1705" d="M-16 10q2 0 7.5 8.5t18.5 39t29 78t41 138.5t53 207q56 230 89 359t72 266.5t68.5 211.5t64 135t73.5 95q48 44 104 60q39 11 74 11q16 -1 30 -3q47 -8 87 -27t63 -46t23 -52v-4q-25 -273 -34.5 -378t-20.5 -281.5t-11 -297.5q65 278 184 563t256 478q2 2 5 2v4 q40 51 98 67q34 10 66 9q23 -1 45 -5q54 -12 102 -30.5t77 -37.5l29 -19q-35 -87 -90 -308q-59 -234 -96 -425.5t-51 -319.5q-11 -108 -11 -188q1 -14 1 -28q2 -90 17.5 -132t41.5 -49q9 -2 17 -2q52 1 116 73q74 84 113 195h4q29 11 45 -10q7 -10 8 -25q0 -18 -10 -45 q-23 -58 -53 -109t-70.5 -96.5t-87.5 -71.5t-103 -34q-15 -2 -30 -3q-42 0 -86 17q-130 48 -168 282q-17 109 -17 274q0 190 23 454q-122 -235 -206.5 -477t-106.5 -443v-12q0 -1 -2 -2.5t-3 -3.5q-3 -6 -8 -11q-17 -18 -38.5 -31.5t-49 -13.5t-43.5 27q-75 129 -111 379 q-27 186 -27 414q0 77 3 159q-78 -228 -141 -526q-30 -143 -73.5 -244.5t-91.5 -154.5q-48 -54 -102 -76q-43 -18 -83 -17q-11 0 -21 1q-50 6 -102 32z" />
<glyph unicode="N" horiz-adv-x="1153" d="M-18 0q12 30 24 100q23 160 42 416t31 439.5t43 353t81 229.5q51 62 123 81q38 10 72 10q30 1 58 -7q59 -16 102.5 -49t45.5 -66v-2q51 -855 178 -1290q40 690 81.5 993t101.5 387q37 52 91 68q28 8 56 8q26 -1 50 -7q52 -14 98 -36t74 -44l28 -21q-10 -16 -27.5 -46.5 t-64 -135.5t-85 -222.5t-77.5 -305t-55 -384.5q-11 -135 -35 -235t-56 -158q-32 -56 -72 -84q-35 -24 -73 -25q-5 1 -9 1q-42 4 -85 32q-23 13 -43 49q-84 141 -155 382t-101 536q-35 -180 -59 -480q-11 -134 -40.5 -236.5t-69 -161.5t-87.5 -89q-46 -29 -91 -29h-3 q-48 1 -92 29z" />
<glyph unicode="O" horiz-adv-x="1464" d="M-9 474q-8 60 -8 125q0 77 11 163q20 149 75.5 282t130 228t163.5 166.5t176.5 110t167.5 46.5l53 2q42 36 106 66q76 31 151 31h5q78 -1 145 -32t127 -86t101.5 -131.5t69 -168.5t29.5 -196v-20q0 -95 -17 -196q-47 -219 -166 -407q97 43 170 105.5t104 135.5l2 2 q31 6 44 -16q5 -9 5 -22q0 -19 -12 -46q-43 -85 -151 -160t-238 -110q-157 -200 -357 -314q-177 -101 -338 -102q-21 0 -42 2q-91 8 -173.5 45t-152.5 104.5t-116.5 165.5t-64.5 227zM329 416q32 -164 110 -256.5t184 -98.5q9 -1 18 -1q179 0 328 270q-101 19 -176 69 q-106 73 -174 216.5t-85 303.5q-5 51 -5 103q0 110 24 222q36 164 125 276q-95 -34 -197.5 -228t-148.5 -483q-18 -120 -18 -222q0 -92 15 -171zM664 1050q-1 -24 -1 -49q0 -100 17 -193q21 -115 68.5 -210.5t113.5 -140.5q53 -40 142 -54q87 194 135 459q25 150 27 282 q0 14 1 28q-1 115 -19 207q-20 103 -74 155q-40 38 -94 38q-20 0 -42 -5q-86 -21 -148 -99.5t-91.5 -185t-34.5 -232.5z" />
<glyph unicode="P" horiz-adv-x="1775" d="M2 261q-4 32 -5 64q-1 42 7 83q12 72 54.5 142t109.5 122q46 34 95 48q34 9 64 10q13 0 26 -2q41 -6 79.5 -21t68 -37t52 -42t33.5 -34l12 -14q-185 -56 -299 -204q-92 -119 -92 -231q0 -100 76 -134q4 -1 8 -3q35 -13 70 -12q43 0 89 20q80 36 151 128.5t126.5 252 t81.5 361.5q37 278 82.5 428.5t122.5 224.5q54 53 148 67q33 5 63 5q55 0 97 -16q57 -21 58 -56q0 -6 -2 -12l-2 1q-7 3 -13 3q-39 0 -83 -99q-61 -140 -119 -458q-29 -147 -63 -254q116 11 212.5 54.5t164.5 112t114 152.5t72 183q17 62 17 114q0 28 -5 54q-14 74 -54 127 t-106 87t-143.5 50t-167.5 16q-273 0 -471 -89t-246 -230q-12 -40 -11 -70q0 -29 10 -49q22 -42 74 -55q33 -8 69 -8q21 0 43 3q59 7 110 29q1 -7 2.5 -19t3.5 -48v-23q0 -23 -2 -43q-3 -32 -13.5 -71t-29.5 -67t-53.5 -46.5t-81.5 -18.5q-84 2 -168 34.5t-150 93.5 q-64 61 -84 149q-6 26 -6 55q0 66 31 143q46 105 159 194.5t261 148t314.5 92.5t328.5 39q20 1 41 1q81 0 157 -10q96 -12 184.5 -39.5t157.5 -71.5t116.5 -105t61.5 -141q6 -32 6 -66q0 -52 -13 -111q-35 -149 -127.5 -272.5t-222 -206t-282 -132.5t-316.5 -63 q-48 -117 -109.5 -213t-129 -163t-142 -112.5t-149.5 -64.5q-61 -15 -121 -15q-14 1 -28 1q-74 4 -145 32q-61 25 -110.5 75t-79 113.5t-39.5 138.5z" />
<glyph unicode="Q" horiz-adv-x="1247" d="M-9 474q-8 60 -8 125q0 77 11 163q20 149 75.5 282t130 228t163.5 166.5t176.5 110t167.5 46.5h22q69 75 137 103q74 29 135 29q31 0 59 -7q82 -22 136.5 -100t79.5 -194q24 -108 24 -240v-21q-2 -145 -32 -301q-48 -241 -142.5 -442.5t-222.5 -325.5q43 -37 78 -59 q309 -216 534 -216q115 0 207 56q1 -7 3 -18.5t5 -47t3 -69.5t-6.5 -78t-19 -80t-38 -69.5t-61.5 -51.5q-52 -26 -114 -26q-247 0 -644 409q-64 67 -111 134q-100 -50 -203 -50q-19 0 -38 2q-91 8 -173.5 45t-152.5 104.5t-116.5 165.5t-64.5 227zM324 429 q29 -153 102 -231.5t180 -84.5q11 -1 22.5 -1t24.5 1q-103 185 -150 389q-33 146 -33 282q0 55 5 109q15 171 66.5 337t128.5 286q-95 -42 -194.5 -234t-143.5 -473q-20 -127 -20 -230q0 -82 12 -150zM612 736q4 -101 19.5 -193t61.5 -186t120 -177q122 92 213.5 275 t128.5 407q26 158 26 277q0 27 -1 53q-8 135 -70 198q-43 45 -111 45q-29 0 -61 -8q-85 -21 -156 -100t-111.5 -182.5t-49.5 -210.5q-9 -74 -9 -152v-46z" />
<glyph unicode="R" horiz-adv-x="1830" d="M2 261q-4 32 -5 64q-1 42 7 83q12 72 54.5 142t109.5 122q46 34 95 48q34 9 64 10q13 0 26 -2q41 -6 79.5 -21t68 -37t52 -42t33.5 -34l12 -14q-185 -56 -299 -204q-92 -119 -92 -231q0 -100 76 -134q4 -1 8 -3q35 -13 70 -13q43 1 89 21q80 36 151 128.5t126.5 252 t81.5 361.5q37 278 82.5 428.5t122.5 224.5q54 53 148 67q33 5 63 5q55 0 97 -16q57 -21 58 -56q0 -6 -2 -12l-2 1q-7 3 -13 3q-39 0 -83 -99q-61 -140 -119 -458l-18 -94q168 37 290 155.5t158 257.5q15 59 15 109q0 110 -73 174q-107 94 -329 94q-268 0 -456 -89 t-244 -230q-10 -28 -11 -52q-1 -25 11 -46q22 -41 68 -57q44 -16 98 -16h6q57 1 106 21q1 -7 2.5 -19t2.5 -47v-17q0 -26 -2 -50q-3 -32 -13.5 -70t-29.5 -66t-53.5 -46.5t-80.5 -18.5q-83 1 -162.5 33.5t-137.5 93t-73 148.5q-4 22 -4 44q0 70 35 154q61 140 226.5 248 t374 164t427.5 62q23 1 46 1q94 1 178 -13q106 -16 192.5 -52.5t144 -94t79.5 -135.5q11 -38 11 -82q0 -46 -12 -98q-38 -163 -173 -290t-328 -205q22 -75 50 -235t54.5 -254.5t62.5 -98.5q4 0 9 -1q58 0 133 75q81 80 121 186h2q30 11 46 -9q8 -10 7 -27q0 -17 -8 -42 q-59 -147 -179 -241q-105 -82 -199 -82q-14 0 -28 2q-54 7 -109 68t-105.5 164.5t-88 197.5t-78.5 215q-8 0 -12 -2q-43 -147 -105 -269.5t-133 -208t-152 -145t-164 -85.5q-77 -24 -154 -24h-12q-82 2 -159 33q-61 25 -110.5 75t-79 113.5t-39.5 138.5z" />
<glyph unicode="S" horiz-adv-x="1142" d="M-3 348q0 98 45 192q45 96 130 162q68 50 138 54h16q60 0 106 -26q52 -30 93 -68.5t61.5 -70.5t15.5 -34q-83 -20 -151.5 -57.5t-113 -83.5t-74.5 -98q-31 -52 -37 -104q-3 -22 -3 -43q0 -29 6 -56q9 -47 39.5 -85.5t77.5 -60.5q80 -38 154 -44q15 -1 28 -1q58 0 108 20 q62 24 109.5 84.5t71.5 151.5q8 30 9 62v8q0 28 -7 57q-8 33 -18.5 63t-32.5 67.5t-41 67.5t-52.5 74t-59 76t-66.5 83q-19 24 -29 36q-84 106 -118 228q-23 83 -23 165q0 37 5 75q16 118 77 220q48 79 127 134q79 54 163 76q74 19 147 19h20q84 -3 147 -32 q115 -53 182 -151q67 -96 77 -196q3 -25 3 -50q0 -72 -23 -140q-31 -90 -98 -137q-68 -42 -128 -42q-3 1 -7 1q-63 2 -115.5 37.5t-90 77t-58.5 75.5l-21 35q92 22 160 64t99 90t39 97q2 12 1 24q0 35 -17 66q-23 41 -69 63q-63 27 -126 27q-12 0 -23 -1q-74 -6 -136 -51.5 t-85 -113.5q-12 -35 -12 -73q-1 -65 35 -139q56 -116 179 -272q143 -178 197 -336q31 -92 32 -194q0 -72 -16 -148q-24 -111 -78 -199.5t-129.5 -143.5t-166.5 -82q-70 -21 -147 -21q-23 0 -47 2q-102 8 -204 49q-84 34 -148 107q-66 74 -96 168q-32 96 -31 196z" />
<glyph unicode="T" horiz-adv-x="1177" d="M-12 346q0 88 42 174q42 88 122 148q46 34 94 48q33 9 63 10q14 0 27 -2q41 -6 80 -22t69 -38t52.5 -42.5t34.5 -34.5l12 -14q-185 -53 -295 -199q-84 -114 -85 -224q0 -1 1 -3q0 -102 75 -138q6 -3 11 -5q39 -15 76 -15q119 0 221 151q132 198 172 612q24 266 73 421.5 t128 233.5q68 66 205 69h21q96 0 148 -33q35 -22 29 -50l-2 1q-7 3 -14 3q-42 0 -87 -104q-61 -140 -118 -451q-29 -160 -76 -298.5t-105 -242t-127.5 -183.5t-144 -129t-152.5 -73q-67 -21 -135 -22q-11 0 -21 1q-78 4 -151 33q-74 29 -131 94t-84 149q-28 86 -28 175z M197 1382q35 133 271.5 198t711.5 73q241 6 460.5 77.5t380.5 178.5q2 -5 4.5 -13.5t10 -35.5t13 -54t10.5 -64.5t5 -71t-5.5 -70t-18.5 -65.5t-37.5 -53.5t-58.5 -37.5q-60 -21 -136 -23h-19q-67 -1 -137 11q-80 14 -155 30.5t-155.5 32t-133.5 18.5q-24 1 -47 1 q-123 0 -235 -35q-134 -42 -293 -127q-58 -31 -111.5 -72t-89 -77t-62 -67.5t-38.5 -49.5l-13 -19q-55 39 -97 147q-30 77 -30 129q0 21 5 39z" />
<glyph unicode="U" horiz-adv-x="1193" d="M-18 467q0 308 66.5 640t166.5 466q39 52 93 75q42 18 82 18q10 0 20 -1q50 -6 93 -24.5t69 -47t26 -53.5q-7 -13 -20 -38t-48.5 -118t-67 -202.5t-67 -294t-57.5 -389.5q-6 -54 -9 -84.5t-7 -81.5q-3 -37 -3 -64q1 -10 1 -18q2 -32 5.5 -66t15 -53t28.5 -25q6 -2 12 -2 l48 29q30 36 59 112t54.5 165.5t53.5 207.5v5q2 37 14 133q45 296 122 516.5t147 322.5q37 52 89 68q27 8 53 8q24 -1 47 -7q48 -14 90 -36t68 -44l25 -21q-7 -8 -20 -25t-51 -83.5t-73 -148t-79.5 -225t-77.5 -309.5q-62 -291 -62 -455v-15q3 -166 89 -187q9 -2 18 -2 q55 0 117 72q74 84 113 194l2 2q30 11 46 -11q8 -11 8 -28t-9 -41q-23 -58 -53.5 -109t-71 -96.5t-87 -71.5t-102.5 -34q-15 -2 -30 -3q-42 0 -86 17q-101 36 -167 149t-79 291l-6 -20q-5 -18 -15.5 -65.5t-21 -86t-27 -90t-38 -90.5t-49 -73.5t-66.5 -52.5q-35 -16 -75 -15 h-9q-74 4 -134 51.5t-97 121.5t-56.5 162.5t-19.5 180.5z" />
<glyph unicode="V" horiz-adv-x="976" d="M-6 877q28 316 90 499.5t129 245.5q35 35 113 43q22 2 43 2q55 0 109 -15q74 -21 100 -61q-5 -7 -14.5 -22t-37.5 -75t-54.5 -134t-60.5 -205t-61 -283q-31 -176 -49.5 -302t-30.5 -253q-6 -64 -6 -113t6 -84q12 -70 47 -77q4 -1 8 -1q25 0 57 32q38 36 82.5 111.5 t90.5 180t89 244.5t77.5 295t57.5 342t28 375q0 2 2 2q37 17 95 20q11 1 21 1q47 0 96 -11q60 -13 111.5 -38t81.5 -68q23 -34 23 -74q0 -11 -2 -22q-28 -182 -99 -377t-163.5 -363t-203 -317t-215.5 -249q-104 -100 -202 -146q-63 -30 -114 -30q-27 0 -50 9 q-98 39 -160 303q-43 181 -43 401q0 103 9 214z" />
<glyph unicode="W" horiz-adv-x="1656" d="M-18 467q0 310 66 641t167 465q39 52 93 75q42 18 82 18q10 0 20 -1q50 -6 93 -24.5t69 -47t26 -53.5q-7 -13 -20 -38t-49 -118t-67.5 -202.5t-67 -294t-56.5 -389.5q-8 -85 -8 -167.5t19 -148t54 -76.5q5 -2 10 -2q38 0 98 86q68 98 128 248q-12 104 -12 220 q0 105 10 219q24 262 70.5 409t134.5 217q50 43 136 51q19 2 38 2q65 0 123 -22q75 -28 98 -82q-6 -10 -16 -28t-38.5 -77t-53.5 -122.5t-54.5 -160t-48.5 -192.5q-29 -153 -49 -287q-21 -135 -31 -259q-5 -59 -5 -107q1 -53 7 -93q12 -76 45 -83q10 -2 20 -2q56 0 113 62 q68 73 128.5 220t110 343t81 445.5t37.5 510.5q2 2 4 2q37 17 95 20q11 1 21 1q47 0 97 -11q60 -13 112 -38q52 -24 82 -68q23 -34 23 -74q0 -11 -2 -22q-27 -175 -91 -367t-150 -365t-191.5 -325t-211 -255.5t-213.5 -149.5q-62 -26 -116 -26q-41 0 -78 15 q-71 28 -125.5 121t-83.5 239q-21 -56 -44 -105t-56 -100t-68.5 -86.5t-82.5 -57.5q-43 -20 -89 -19h-8q-91 6 -157 52.5t-101.5 122t-51 159.5t-15.5 182z" />
<glyph unicode="X" horiz-adv-x="1218" d="M16 -90q246 137 471 434q-141 204 -237 436q-43 102 -80.5 221t-63.5 240q-24 112 -23 208v15q2 102 38 150q27 34 91 50q50 12 100 13q15 1 30 -1q66 -4 111 -23q-4 -22 -8 -61q-2 -22 -2 -68q0 -34 1 -81q3 -110 25 -208q69 -298 195 -623q255 442 368 949q8 41 8 92h4 q42 8 87 8q25 0 49 -2q70 -7 129 -35t84 -82q12 -26 12 -57q0 -34 -14 -76q-94 -270 -256.5 -539.5t-366.5 -492.5q142 -288 238 -299h9q45 0 91 42q52 46 89.5 113t64.5 144h2q31 9 46 -11q7 -10 7 -26q0 -18 -8 -43q-43 -111 -110.5 -196.5t-153.5 -126.5q-48 -23 -95 -23 q-36 0 -71 14q-130 52 -285 240q-233 -207 -490 -322q-23 -8 -39 -8q-9 0 -15 2q-20 6 -26 19z" />
<glyph unicode="Y" horiz-adv-x="1251" d="M22 -530q10 75 54.5 148t120.5 124q78 55 174 78q85 20 165 20h20q90 -3 194 -8q11 62 55 352q-82 -229 -226 -229h-12q-74 4 -134 51t-97 121t-56.5 162t-19.5 180q0 309 66.5 640.5t167.5 463.5q39 52 92 75q44 20 85 20q9 0 19 -2q49 -5 92 -23.5t69 -46.5t26 -54 q-8 -13 -20.5 -38t-48.5 -118t-67.5 -202t-67.5 -293t-57 -389q-10 -87 -13.5 -130.5t-4.5 -113.5q-1 -7 -1 -14q0 -59 11 -91q13 -36 39 -44q27 -8 55.5 23.5t56 100t51.5 149t52 191.5l27 187q45 296 122 517t146 318q37 52 89 68q28 9 54 9q24 0 46 -7q48 -14 90.5 -36 t67.5 -43l26 -21q-7 -8 -20 -25t-50 -83.5t-72 -148.5t-80 -225.5t-79 -308.5q-134 -654 -225 -952q190 10 335 86q2 -12 4 -31.5t3 -73.5v-18q0 -44 -4 -83q-5 -46 -24.5 -95.5t-51.5 -75.5q-35 -27 -96 -33q-25 -2 -50 -2q-35 0 -72 4q-61 9 -147 29q-100 -243 -230 -363 q-126 -116 -299 -116h-12q-85 2 -155.5 40t-113.5 96.5t-61 133.5q-12 48 -12 96q0 27 4 54zM194 -714q13 -61 64.5 -103t130.5 -43q114 0 185 104.5t124 331.5q-91 20 -156 27q-27 3 -53 3l-79 -6q-65 -11 -105 -46q-68 -59 -96 -132q-19 -51 -19 -95q0 -21 4 -41z" />
<glyph unicode="Z" horiz-adv-x="1202" d="M-30 166q6 54 45.5 102.5t105.5 65.5q36 10 86 10q82 0 201 -27q124 181 298 466t300 509q-144 -48 -336 -73l-17 -2q-23 -2 -45 -2q-62 0 -114 17q-70 23 -110 64.5t-65 93.5t-29 104q-2 21 -2 41q0 27 4 53q6 42 23 65q2 4 5.5 6t6.5 2h3q5 -3 15 -8t46 -18t77 -23 q42 -8 109 -16q59 -7 123 -7h17q301 0 461 6q71 98 184 121q28 6 52 6q53 0 88 -27q30 -23 30 -58q0 -13 -4 -27q-11 -43 -71.5 -96t-160.5 -105q-101 -174 -334.5 -541t-392.5 -594q39 -11 116 -33.5t118.5 -34t92.5 -22.5t83 -12q5 0 9 -1q78 -1 142 49q68 52 105 157l2 2 q29 11 45 -10q8 -10 8 -27q0 -18 -8 -43q-28 -72 -54.5 -130t-56 -110t-58.5 -88.5t-61.5 -66t-66 -42t-71.5 -15.5q-6 -1 -13 -1q-32 0 -65 13q-34 12 -85.5 43.5t-91.5 60.5t-108 80.5t-98 73.5l-25 -27q-74 -79 -184 -110q-47 -13 -91 -13q-57 0 -106 23q-44 22 -64 72 q-15 38 -15 78q0 13 2 26zM225 179q3 -24 25 -29q4 -1 9 -1q16 0 32 17q13 13 31 37q-33 14 -53 14q-8 0 -15 -2q-29 -8 -29 -30v-6z" />
<glyph unicode="[" horiz-adv-x="1169" d="M49 -7q-27 128 2 300q54 321 75.5 432t72.5 336q28 127 94 231t156.5 171t195.5 102t219.5 28t220.5 -55q70 -33 -15 -65l-38 -11q-108 56 -192.5 56.5t-147 -54.5t-105.5 -156.5t-71 -254.5l-129 -756q-26 -133 -24 -239.5t26 -177t80 -98.5t139 -5q3 1 10 -8.5 t10 -24.5t-2 -31.5t-31 -31.5t-71 -23q-114 -19 -212.5 13.5t-167 113t-95.5 208.5z" />
<glyph unicode="\" horiz-adv-x="794" d="M37 1458q-5 31 8.5 56.5t39 41t57.5 27t65 17t60.5 8.5t44.5 4h18q4 -37 12 -92q20 -155 35.5 -260.5t50 -284.5t72 -318.5t98 -305t133.5 -300.5q17 -39 6 -54.5t-34 -14.5h-23q-165 256 -311.5 567t-228.5 544.5t-103 364.5z" />
<glyph unicode="]" horiz-adv-x="1169" d="M66 -227q-70 31 16 62l39 11q87 -45 158.5 -53.5t127.5 17t100 86t75.5 149.5t54.5 211l129 756q26 133 24 239.5t-26 177t-80 98.5t-139 5q-3 -1 -10 8.5t-10 25t2 32t31 32t71 23.5q114 18 212 -14.5t166.5 -113.5t95.5 -209t-1 -300q-8 -47 -23.5 -136t-20.5 -116.5 t-15.5 -88t-15.5 -84.5t-14 -70.5t-17 -81.5t-18.5 -82.5t-23.5 -106.5q-29 -127 -95 -231.5t-156.5 -172t-195.5 -102t-219.5 -27.5t-221.5 56z" />
<glyph unicode="^" horiz-adv-x="575" d="M19.5 1127.5q-0.5 36.5 7.5 70.5l2 2q25 -8 67 0q128 26 194 59q80 40 126 101q4 25 14.5 37.5t19.5 12.5l9 -1q11 -108 41 -152.5t88 -60.5q16 -4 30.5 -4t25.5 2l11 2q2 0 2 -2q8 -40 3.5 -80t-18 -69.5t-33.5 -51.5t-43.5 -25.5t-47.5 9.5q-51 30 -77.5 105t-28.5 167 q-47 -84 -112.5 -159.5t-125.5 -104.5q-32 -15 -61 -8.5t-47.5 29t-32 54t-14 68z" />
<glyph unicode="_" horiz-adv-x="1130" d="M20 -27.5q-5 23.5 2 34.5l7 11q64 -38 203 -73t295 -54.5t313 -14t247 43.5q70 29 82 41l5 -2q34 -37 41.5 -82.5t-10 -84.5t-64 -67t-113.5 -32q-126 -5 -321 18.5t-391.5 81t-266.5 131.5q-24 25 -29 48.5z" />
<glyph unicode="`" horiz-adv-x="645" d="M24 1368.5q14 44.5 49 78t81 42.5h2q18 -46 39 -80q86 -132 198 -216t234 -99q-1 0 0.5 -5t-2 -13t-9 -15.5t-19.5 -14t-34 -8.5q-122 -9 -255 30.5t-218 109.5q-48 41 -64 93.5t-2 97z" />
<glyph unicode="a" d="M-2 504q27 145 114.5 254.5t204.5 153.5q66 25 130 25q50 0 98 -15q32 -8 63 -35q72 66 158 66h5q89 -2 151 -64q-9 -18 -23.5 -51.5t-48 -138.5t-53.5 -212q-16 -89 -23 -137q-6 -48 -12 -108q-2 -24 -3 -43q-1 -29 5 -47q8 -29 31 -33q6 -1 11 -1q43 0 94 67 q57 76 97 192h4q31 9 47 -11q8 -10 7 -27q0 -18 -8 -42q-63 -157 -163 -241q-75 -63 -158 -63q-29 0 -58 7q-146 39 -172 293q-14 -46 -25 -77.5t-32.5 -72.5t-45 -66t-60.5 -44.5t-81 -22.5q-7 -1 -15 -1q-76 1 -138 59q-68 64 -97 180q-16 63 -16 133q0 59 12 123z M306 376q-2 -29 -2 -56q0 -42 6 -77q10 -57 42 -65q6 -2 13 -2q31 0 54 54q28 66 75 262q7 110 22 190q11 74 41 135q-4 0 -14 2t-15 2h-7q-124 0 -189 -286q-20 -83 -26 -159z" />
<glyph unicode="b" horiz-adv-x="831" d="M-18 365v45q0 252 51 562q56 338 143 462q26 38 62 56q35 18 70 19l2 -1q36 0 72.5 -9.5t68 -26.5t56.5 -32.5t39 -27.5l15 -11q-6 -7 -15.5 -21.5t-38 -71.5t-55.5 -127.5t-60.5 -194t-59.5 -265.5q38 91 91.5 148.5t137.5 68.5q14 2 27 2q68 0 124 -44q66 -52 90 -154 q11 -44 11 -97q0 -68 -18 -149q-25 -109 -73 -198.5t-107 -147.5t-126 -96t-131 -50q-37 -7 -72 -8q-25 0 -50 4q-114 18 -183.5 114.5t-70.5 250.5zM255 186q-1 -13 0 -23q1 -27 5 -41q8 -20 25 -22q3 0 6 -1q41 1 87 93q48 98 83 254q18 73 28 127q9 54 15 107q2 22 3 39 q0 25 -5 43q-8 30 -31 33h-3q-43 0 -90 -98q-49 -101 -89 -273q-3 -20 -10 -60q-12 -68 -16.5 -101t-7.5 -77z" />
<glyph unicode="c" horiz-adv-x="817" d="M-6 504q27 145 122 257.5t216 160.5q78 31 152 31q40 0 77 -9q73 -18 127 -65t78 -107q16 -42 16 -90q0 -21 -4 -43q-10 -72 -59 -135q-29 -38 -63 -56t-65 -19l-1 1q-32 0 -65.5 9t-61 25.5t-49 32t-33.5 27.5l-12 11q97 47 153 145q35 61 35 105q0 16 -5 29 q-8 24 -30 30q-10 3 -20 3q-48 0 -90 -74q-52 -90 -82 -238q-15 -84 -15 -163v-26q3 -92 39 -162t97 -82q18 -4 37 -4q40 0 88 16q70 23 130.5 65.5t109 96t65.5 101.5h4q31 9 45 -11q7 -9 7 -24q0 -18 -9 -45q-26 -66 -92.5 -131t-151.5 -112q-84 -48 -186 -70 q-54 -11 -105 -11q-45 0 -86 9q-61 14 -122.5 56.5t-112.5 107.5q-50 66 -74 160q-13 52 -12 107q0 45 8 91z" />
<glyph unicode="d" d="M-2 504q26 142 110 249.5t197 153.5q71 29 141 29q41 0 82 -10q62 388 148 508q26 38 62 56q35 18 70 19l2 -1q36 0 72.5 -9.5t68 -26.5t56.5 -32.5t39 -27.5l15 -11q-7 -9 -19.5 -28t-48 -94t-67.5 -169t-69 -261t-62 -362q-4 -31 -10.5 -77t-10.5 -75t-8.5 -65.5 t-4.5 -59.5t2.5 -44.5t10.5 -32.5t21 -14q5 -1 11 -1q42 0 93 68q58 77 98 191h4q31 9 45 -11q7 -9 7 -24q0 -18 -9 -45q-60 -156 -160 -241q-75 -63 -158 -63q-28 0 -58 7q-79 21 -130 101t-57 198q-9 -35 -13 -49t-14 -47t-18.5 -48.5t-22 -42t-28.5 -40.5t-35 -29.5 t-44.5 -23t-53.5 -9.5q-7 -1 -15 -1q-76 1 -138 59q-68 64 -97 180q-16 63 -16 133q0 59 12 123zM296 230q6 -62 36 -70q5 -1 10 -1q35 -1 63 65q32 76 82 282q10 167 29 315q-107 -9 -180 -286q-22 -84 -34 -163q-8 -53 -8 -99q0 -23 2 -43z" />
<glyph unicode="e" horiz-adv-x="870" d="M-6 504q43 217 216 346q136 101 287 102q41 0 83 -8q197 -37 236 -147q9 -25 9 -52q0 -89 -99 -197q-127 -136 -378 -259q-2 -1 -16 -6q42 -167 137 -183q30 -6 60 -6q40 0 81 10q71 18 127 60t99 97.5t63 115.5h4q31 9 45 -11q7 -9 7 -24q0 -18 -9 -45 q-26 -64 -82 -126.5t-133 -112.5t-181 -72q-58 -12 -115 -12q-46 0 -93 8q-48 9 -101 37t-104 76t-88.5 107.5t-53.5 139.5q-8 41 -8 82q0 40 7 80zM319 377q61 50 109 116.5t74 129.5t38 119q8 38 9 67q0 13 -2 25q-6 36 -27 43q-6 2 -13 2q-24 0 -46 -24 q-29 -30 -53.5 -90t-41.5 -112t-34 -118q-14 -59 -14 -119q0 -20 1 -39z" />
<glyph unicode="f" horiz-adv-x="534" d="M-133 241q6 40 39 71t88 42q79 452 195 773t261 475q109 118 224 118q37 0 74 -12q82 -27 122 -92q32 -52 32 -128q0 -19 -2 -40q-10 -102 -68.5 -231.5t-183.5 -295.5t-304 -348l-45 -219q-2 -10 -6 -29.5t-6 -29.5q79 -39 155 -115q85 88 125 197h4q31 10 45 -11 q7 -9 7 -24q0 -19 -9 -45q-49 -124 -104 -193q102 -140 121 -301q3 -24 3 -48q0 -52 -12 -104q-17 -77 -52 -140t-85 -113t-106 -76q-50 -22 -105 -22h-14q-62 3 -117 41q-107 71 -157 259q-34 130 -34 301q0 79 7 167q-51 40 -75 86q-18 38 -18 70q0 9 1 17zM205 -530 q12 -34 29 -34q12 0 27 16q45 49 71 179q15 74 16 148q0 127 -10 203q-44 -13 -91 -13h-18q-37 -251 -37 -384q0 -78 13 -115zM248 78q28 0 63 14q-11 40 -45 94zM379 727q85 103 151 202.5t103.5 176t56.5 139.5q19 59 19 96q0 3 -1 6q-1 39 -18 54t-35 15q-61 0 -132 -182 q-66 -170 -144 -507z" />
<glyph unicode="g" horiz-adv-x="899" d="M-130 -500q-9 28 -9 58q0 41 16 88q21 63 63.5 111t118.5 85.5t129.5 57t161.5 53.5q4 1 6.5 2t6 2t6.5 2q16 88 30 186q-62 -127 -178 -135h-12q-56 0 -107 32q-55 37 -90.5 104t-49.5 159q-6 37 -6 76q0 59 13 123q27 146 114 255t203 153q65 25 130 25q49 0 98 -15 q32 -8 66 -35q71 66 157 66h5q89 -2 151 -64q-3 -4 -9 -11.5t-22 -40t-31 -73.5t-33.5 -115t-31.5 -162q-37 -234 -86 -403q185 111 250 293h4q29 10 44 -11q8 -10 8 -26q0 -18 -9 -43q-49 -121 -129.5 -199.5t-204.5 -130.5q-83 -247 -197 -402.5t-245 -199.5 q-55 -19 -108 -19q-19 0 -39 2q-71 10 -117.5 49.5t-66.5 102.5zM153 -558q8 -6 19 -6q8 0 18 3q27 10 49 43t50.5 124.5t58.5 246.5q-113 -70 -172 -215q-39 -100 -39 -151q0 -33 16 -45zM264 232q5 -62 35 -70q4 -1 8 -1q65 0 139 265l39 256q12 77 43 135q-20 4 -28 4h-6 q-32 0 -61 -21q-31 -24 -54.5 -68t-40 -91t-31.5 -106q-23 -86 -35 -163q-9 -56 -9 -104q0 -18 1 -36z" />
<glyph unicode="h" horiz-adv-x="983" d="M-18 115q4 503 63 844t164 475q29 37 65 55t71 18q1 -1 2 -1q36 0 72.5 -9.5t67.5 -26t55 -31.5t38 -27l14 -11q-7 -8 -18 -23.5t-43.5 -78t-62 -139.5t-64 -213t-58.5 -294q84 169 192 247q85 61 154 60q19 0 37 -4q45 -13 75 -69q28 -57 34 -157q1 -14 1 -28 q0 -92 -30 -215q-6 -25 -17 -73q-18 -77 -26 -113.5t-14 -84.5q-3 -22 -3 -38q1 -20 5 -33q8 -22 28 -26q6 -1 11 -2q47 0 109 71q70 79 110 189h2q31 9 46 -11q7 -10 7 -26q0 -18 -8 -43q-61 -149 -173 -242q-99 -82 -190 -82q-13 0 -26 2q-115 15 -177 145q-34 71 -34 162 q0 76 24 164q28 105 40.5 155t20.5 94.5t3 59t-21 17.5q-3 1 -6 1q-29 -1 -69 -73q-45 -80 -134 -301q-16 -112 -41 -192t-55 -125q-31 -46 -69 -66q-37 -20 -73 -19h-4q-39 1 -85 19q-10 29 -10 99z" />
<glyph unicode="i" horiz-adv-x="518" d="M-4 326q-5 42 -5 88q0 101 25 217q22 91 72 155.5t111 92.5q51 23 107 23h22q68 -6 127 -48q-10 -16 -25.5 -45.5t-50.5 -121t-55 -183.5q-24 -109 -34 -195q-5 -47 -5 -85q0 -32 4 -60q8 -58 37 -64q8 -2 16 -2q36 0 78 41q52 51 93 123t71 150h2q31 10 46 -10 q7 -10 7 -27q0 -18 -8 -43q-32 -77 -78 -146t-101 -121q-56 -51 -122 -75q-39 -14 -77 -14q-26 0 -52 6q-77 21 -133 113.5t-72 230.5zM190 1180q20 92 102 134q47 24 100 24q38 0 79 -13q47 -16 79 -45.5t46 -64.5q12 -32 12 -65v-8q-2 -38 -20 -73q-30 -59 -100 -90 q-50 -22 -102 -22q-22 0 -44 4q-82 16 -124 84q-32 51 -31 102q0 16 3 33z" />
<glyph unicode="j" horiz-adv-x="481" d="M-550 -463q-2 14 -2 28q0 39 11 81q10 32 26 60.5t41 52.5t48 43t60.5 38t64 32t74 29.5t75 25.5t80.5 26q33 216 76 649q8 89 41.5 154t80.5 97t102 43q24 5 49 5q30 0 59 -7q53 -13 96 -44q-72 -72 -119 -363q-46 -268 -86 -413q233 134 308 350h4q31 10 46 -10 q7 -10 7 -27q0 -18 -8 -43q-105 -260 -389 -387q-156 -505 -414 -592q-51 -18 -100 -18q-10 0 -20 1q-59 4 -101.5 29.5t-73.5 66.5t-36 93zM-268 -538q9 -24 31 -24q4 0 8 1q74 17 139 397q-106 -80 -152 -198q-32 -84 -32 -137q0 -22 6 -39zM156 1180q20 92 102 134 q47 24 99 24q38 0 79 -13q47 -16 79 -45.5t45 -64.5q13 -31 13 -65q0 -4 -1 -8q-1 -38 -19 -73q-29 -59 -99 -90q-50 -22 -103 -22q-22 0 -44 4q-81 16 -123 84q-32 51 -32 101q0 17 4 34z" />
<glyph unicode="k" horiz-adv-x="983" d="M-18 115q4 503 63 844t164 475q29 37 65 55t71 18q1 -1 2 -1q36 0 72.5 -9.5t67.5 -26t55 -31.5t38 -27l14 -11q-7 -8 -18.5 -24t-45 -80.5t-63.5 -144.5t-65 -221.5t-58 -305.5q73 124 162 219q88 94 182 138q52 24 98 24q35 0 66 -15q69 -33 91 -113q11 -38 11 -80 q0 -44 -12 -90q-24 -90 -103 -180.5t-198 -140.5l-14 -6q49 -153 71 -203t52 -61q11 -4 24 -4q50 0 116 68q83 85 124 196h2q31 9 46 -11q7 -10 7 -26q0 -18 -8 -43q-59 -147 -179 -241q-105 -82 -199 -83q-14 0 -28 2q-109 14 -187 107.5t-136 294.5q107 39 162 76 q71 47 111 110q39 61 39 111q0 54 -40 74q-15 8 -30 8q-44 0 -94 -60q-68 -82 -163 -299q-16 -112 -41 -191.5t-55 -123.5q-30 -46 -68 -66q-36 -20 -73 -19h-4q-38 1 -84 19q-10 29 -10 99z" />
<glyph unicode="l" horiz-adv-x="458" d="M-6 385q-7 70 -8 139q0 71 8 142q27 245 77.5 463t110.5 305q38 52 92 69q31 10 61 10q21 0 42 -5q50 -12 94 -31t71 -39l27 -19q-6 -7 -17.5 -22.5t-43.5 -75.5t-62 -134.5t-66.5 -205.5t-62.5 -283q-15 -88 -27 -174t-22 -180q-6 -64 -7 -114q-1 -22 1 -42 q4 -62 25 -69q8 -3 17 -3q38 0 85 64q57 78 100 197h3q31 9 46 -11q7 -10 7 -26q0 -18 -8 -43q-62 -155 -171 -247q-75 -63 -145 -63q-32 0 -63 13q-63 27 -106.5 135t-57.5 250z" />
<glyph unicode="m" horiz-adv-x="1480" d="M2 115v164q0 261 5 346q14 234 80 312q15 16 32 28q37 25 85 29l26 2q33 0 62 -8q41 -12 77.5 -28t57.5 -29.5t22 -15.5q-41 -41 -80 -262q91 173 195 251q78 58 143 59q21 0 41 -7q116 -44 116 -270q42 81 92.5 140t99.5 89q48 31 92 41q23 5 44 5q20 0 39 -5 q45 -13 74 -69q29 -57 35 -157q1 -14 0 -28q0 -92 -29 -215q-50 -208 -56 -258q-3 -25 -3 -44q0 -59 30 -66q6 -1 12 -1q47 0 108 70q69 78 109 189h2q31 10 47 -12q8 -11 9 -29q0 -17 -8 -39q-59 -149 -173 -243q-99 -81 -190 -81q-14 0 -27 2q-73 9 -127 69 q-56 59 -76 161q-8 38 -7 80q0 73 22 161q28 105 40.5 155t20.5 94.5t3 59t-21 17.5h-5q-27 0 -63 -60q-40 -66 -118 -253q-32 -166 -88 -332q-15 -48 -55.5 -79.5t-89.5 -41.5q-39 -8 -79 -8h-20q-50 2 -88 18q33 152 84 396q10 51 28 136q32 153 32 192v6q-3 23 -17 26 q-3 1 -6 1q-29 -1 -69 -71q-44 -78 -138 -303q-16 -112 -41 -192t-55 -125q-30 -46 -68 -66q-36 -20 -73 -19h-4q-39 1 -85 19q-6 29 -6 99z" />
<glyph unicode="n" horiz-adv-x="1001" d="M2 115v164q0 261 5 346q14 234 80 312q15 16 32 28q37 25 85 29q13 1 27 2q33 0 62 -8q41 -12 77.5 -28t57 -29.5t21.5 -15.5q-41 -41 -80 -260q87 165 193 243q85 63 152 62q17 0 34 -4q47 -13 76 -69q30 -57 35 -157q1 -13 1 -25q0 -93 -31 -218q-49 -205 -55 -256 q-3 -24 -3 -43q0 -62 32 -69l12 -2q45 1 107 71q70 80 108 189h4q31 9 46 -11q7 -10 7 -26q0 -18 -8 -43q-57 -149 -171 -243q-99 -81 -191 -81q-14 0 -27 2q-114 15 -176 146q-34 71 -34 161q0 75 24 164q61 236 63 282q2 40 -20 44q-3 1 -6 1q-29 -1 -69 -71 q-44 -78 -138 -303q-20 -140 -53 -229.5t-75 -127.5q-42 -37 -92 -44q-11 -2 -22 -2q-40 0 -84 20q-6 29 -6 99z" />
<glyph unicode="o" horiz-adv-x="942" d="M-10 473q26 196 177.5 328.5t350.5 140.5q30 37 57 49q32 19 69 19q10 0 18 -2q46 -6 88.5 -39t74.5 -95q31 -62 43 -152q5 -37 6 -79q0 -59 -10 -127q-5 -45 -22 -104q77 16 145 100t107 190h2q30 11 46 -10q8 -10 7 -27q0 -17 -8 -40q-120 -301 -336 -312 q-43 -98 -106 -173.5t-155 -123.5q-83 -43 -176 -43h-20q-174 9 -280 148q-84 110 -84 266q0 41 6 86zM328 520q-8 -65 -8 -119q0 -238 149 -245q8 -1 15 0q57 0 109 40q59 46 101 132q-58 17 -105 58t-75 96q-29 54 -44 118q-14 60 -14 120v8q1 64 17 118q-57 -40 -96 -127 t-49 -199zM608 560q5 -40 37 -79t86 -57q19 69 23 92q6 35 6 65q0 39 -10 67q-16 51 -46 55q-6 1 -13 1q-23 0 -44 -12q-23 -18 -33 -55q-7 -25 -8 -52q0 -12 2 -25z" />
<glyph unicode="p" horiz-adv-x="884" d="M-301 -465l14 14t34.5 45.5t49.5 80.5t53.5 121.5t52 166.5t39.5 217t21 271q3 113 18 203t40 148.5t56.5 98t68.5 55.5t75.5 16t79.5 -16q1 -3 2 -9.5t3 -31.5t1 -57q0 -111 -2 -164q67 229 242 242q9 1 17 1q76 0 138 -49q69 -55 101 -166q16 -54 16 -121 q0 -71 -18 -157l-6 -22q78 22 129.5 60t76.5 104h3q31 10 46 -10q7 -10 7 -27q0 -18 -8 -43q-28 -70 -100 -110.5t-185 -69.5q-34 -87 -87 -157.5t-110 -110t-117 -56.5q-27 -7 -52 -7q-30 0 -56 11q-43 16 -56 60q-6 20 -6 41q0 25 8 51q15 50 57.5 99t100.5 75q14 7 23 10 q9 23 12 53q24 121 24 211q0 24 -2 46q-8 105 -54 118q-6 2 -12 2q-34 0 -65 -56q-36 -66 -75 -233q-20 -363 -75 -617.5t-138 -359.5q-39 -51 -94 -66q-29 -9 -56 -9q-24 0 -47 7q-49 13 -92.5 34.5t-69.5 41.5zM356 125h4q36 0 82 119q-51 -22 -82 -72q-14 -22 -14 -34 q0 -10 10 -13z" />
<glyph unicode="q" horiz-adv-x="913" d="M-2 504q27 145 119 254.5t213 153.5q68 25 134 25q50 0 99 -15q45 -13 92 -60q50 25 101 25q18 0 36 -3q70 -12 121 -63q-3 -4 -8.5 -11.5t-21 -39.5t-30 -73t-33 -115t-32.5 -162q-15 -90 -43.5 -329t-57.5 -377.5t-75 -207.5q-26 -38 -61 -57q-34 -19 -69 -19h-2 q-36 1 -73 10.5t-68.5 26.5t-57 32.5t-39.5 27.5l-15 12q74 101 122.5 250.5t86.5 362.5q-62 -134 -184 -142q-7 -1 -15 -1q-76 0 -138 59q-68 63 -97 180q-16 64 -16 133q0 59 12 123zM296 231q7 -63 38 -71q4 -1 9 -1q65 0 140 296l23 159q16 119 84 197q-15 7 -43 10h-7 q-126 0 -204 -286q-22 -85 -34 -163q-8 -51 -8 -95q0 -24 2 -46z" />
<glyph unicode="r" horiz-adv-x="688" d="M-31 244q50 80 84 205.5t47 250.5q-41 61 -41 144t39 135q2 3 5 4.5t5 1.5h3q2 -4 7 -11t25 -24.5t45.5 -30t71.5 -20.5q30 -5 64 -6q17 0 34 2q81 7 137 7q4 0 7 1q52 1 88 -7q40 -8 60.5 -22t27 -39t0.5 -56.5t-23 -76.5q-57 -151 -93 -254q-34 -102 -56 -183 q-21 -77 -22 -117q0 -43 24 -48q5 -1 10 -1q42 1 94 75q58 84 101 203h2q31 9 46 -11q7 -10 7 -26q0 -18 -8 -43q-64 -160 -164 -252q-76 -70 -160 -70q-26 0 -53 7q-59 15 -97 67q-40 51 -54 133q-7 39 -7 87q1 51 9 111q16 116 61 251l-19 -4q-14 -2 -28 -2q-25 0 -51 6 q-44 -202 -134 -377q-16 -29 -36.5 -38.5t-35.5 -2t-20 26.5z" />
<glyph unicode="s" horiz-adv-x="794" d="M-33 238q44 84 87.5 219.5t64.5 247.5q-93 87 -93 172q0 16 3 32q8 39 61 90t112 78q33 15 54 15q16 0 25 -9q23 -23 31 -96q3 -31 3 -60q0 -39 -6 -73l-2 -2l27 -12q71 -39 126.5 -76.5t110 -87.5t89 -111t45.5 -129q57 24 94.5 58.5t58.5 91.5h4q30 12 46 -10 q7 -10 7 -26q0 -18 -10 -42q-52 -128 -198 -186q0 -2 -1 -8.5t-1 -8.5q-16 -94 -66 -164t-115.5 -104.5t-137.5 -47.5q-39 -7 -77 -7q-31 0 -61 5q-64 11 -109 40q-54 36 -54 96q0 55 43 107q45 56 122 89q10 3 45.5 16t54.5 19q3 23 3 45q0 143 -115 219 q-24 -57 -54 -117.5t-69.5 -133.5t-59.5 -113q-15 -29 -33 -39.5t-32.5 -4t-20.5 25.5zM173 135q4 -26 26 -37q14 -7 27 -7q24 0 44 22q32 35 60 137q-56 -10 -92 -23q-34 -12 -52 -39q-14 -22 -14 -43q0 -5 1 -10z" />
<glyph unicode="t" horiz-adv-x="454" d="M-77 1059q-1 8 -1 16q0 23 10 41q14 26 48 40q25 11 59 11q13 0 27 -2h6q37 105 84 150q43 39 95 55q37 11 70 10q13 0 25 -1q43 -6 79.5 -18t57.5 -25l21 -13q-29 -41 -64 -123q29 11 91.5 39.5t99.5 42.5q4 -9 11 -24q6 -16 16 -58q9 -40 9 -76q-1 -40 -21 -84 q-20 -43 -62 -69q-46 -29 -106 -29h-3q-58 0 -110 16q-35 -126 -58 -294q-18 -113 -26 -173q-8 -61 -19 -161q-8 -69 -7 -115q0 -21 1 -37q5 -52 25 -59q8 -3 17 -3q37 0 83 64q57 78 100 197h2q31 9 46 -11q7 -10 7 -26q0 -18 -8 -43q-62 -155 -170 -247q-74 -63 -144 -63 q-32 0 -62 13q-64 27 -110 134q-44 108 -60 251q-8 70 -8 140q0 71 8 141q20 202 47 338h-76q-25 24 -30 55z" />
<glyph unicode="u" horiz-adv-x="950" d="M2 151q-24 70 -23 154q0 91 27 199q36 138 47 236q7 64 7 99q0 19 -2 29l-7 29q81 27 142 27q89 0 135 -58q41 -53 40 -145q0 -79 -30 -186q-5 -17 -14 -50q-28 -101 -40 -146t-22 -99q-6 -34 -6 -56q0 -14 2 -22q6 -22 27 -27q21 -6 42.5 18.5t44 79t45 129t48.5 177.5 q8 94 16 143q17 106 69 174q52 69 116 88q37 11 74 11q27 0 55 -6q65 -14 110 -60q-10 -20 -25.5 -55.5t-50.5 -141t-53 -205.5q-16 -78 -25 -136t-13 -115q-1 -14 0 -27q0 -37 8 -61q10 -32 34 -35h5q47 0 99 72q56 76 97 192h2q31 9 46 -11q7 -10 7 -26q0 -18 -8 -43 q-68 -171 -173 -254q-71 -56 -139 -56q-33 0 -65 13q-75 30 -125 116t-63 232q-13 -43 -23.5 -75t-29.5 -80t-41 -81.5t-50 -65.5q-27 -31 -63 -45q-26 -10 -55 -10q-10 0 -21 1q-128 15 -178 159z" />
<glyph unicode="v" horiz-adv-x="944" d="M-8 404q-3 36 -3 75q0 92 15 203q13 86 52.5 147.5t90.5 89.5t107 35q16 2 31 2q39 0 77 -13q52 -18 87 -54q-9 -17 -24 -48.5t-49.5 -136t-56.5 -217.5q-11 -56 -18 -97.5t-13 -89.5t-6 -82t5 -64t18.5 -47t34.5 -21q8 -2 15 -1q27 0 53 21q33 28 62 93.5t51.5 164 t37.5 241t19 315.5l2 2q38 16 88 18q8 0 15 1l85 -11q50 -14 92 -39q44 -25 66 -68q17 -32 16 -69q0 -13 -2 -27q-11 -73 -40 -149.5t-69.5 -144.5t-91.5 -134t-106 -117.5t-113 -94.5t-113 -66t-105 -31q-16 -2 -31 -2q-33 0 -60 12q-47 18 -90.5 66t-81 134t-47.5 204z " />
<glyph unicode="w" horiz-adv-x="1411" d="M14 151q-25 71 -24 158q0 89 26 195q23 87 36.5 159.5t15.5 114.5q2 30 2 52v18q-1 28 -4 38l-3 11q81 27 142 27q89 0 134 -58q41 -53 41 -145q0 -79 -30 -186q-68 -244 -77 -300q-4 -25 -4 -44q0 -49 26 -56q5 -1 10 -1q78 0 172 360q4 77 12 118q13 79 55.5 135.5 t97 82t112.5 33.5q22 3 43 3q33 0 63 -8q48 -12 74 -39q-3 -3 -9 -10t-22.5 -34t-31.5 -61t-33.5 -95t-32.5 -132q-10 -52 -17 -93q-6 -40 -12 -88q-6 -44 -6 -78v-5q0 -35 5 -65.5t18 -48.5t34 -21q4 -1 8 0q25 0 51 26q30 31 58 96t53 171t43 244q15 116 15 196 q0 59 -8 99l4 2q36 16 86 18q8 0 16 1l84 -11q50 -14 92 -39t65 -68q17 -32 17 -69q0 -13 -2 -27q-15 -102 -72 -218.5t-138.5 -216.5t-172.5 -177t-184 -109q-51 -18 -95 -18q-37 0 -69 12q-64 25 -121 118.5t-76 227.5q-13 -48 -27 -90t-40.5 -96t-55.5 -90 q-30 -36 -74 -60q-35 -19 -72 -19q-10 0 -19 1q-129 15 -179 159z" />
<glyph unicode="x" horiz-adv-x="882" d="M-53 -111q195 125 329 349q-68 85 -131 188q-31 -67 -86 -172q-15 -28 -33.5 -38t-33.5 -2.5t-21 26.5v4q59 113 113 297l-27 51q-41 82 -49 166q-2 25 -3 47q1 55 15 101q20 64 72 101q43 30 100 30q12 0 25 -1q47 -5 73 -58q13 -26 13 -58q0 -33 -14 -72q0 -7 4.5 -30 t29.5 -95t66 -160q7 -20 23 -51q48 105 133 354q18 58 18 90h2q10 1 21 1q61 0 126 -30q76 -35 114 -97q19 -31 18 -68q0 -37 -19 -80q-106 -208 -280 -408q101 -156 147 -161h5q47 0 109 74q64 78 105 190h2q31 9 46 -11q7 -10 7 -26q0 -18 -8 -43q-67 -169 -180 -253 q-77 -57 -148 -57q-34 0 -67 13q-92 36 -176 115q-186 -165 -352 -248q-25 -10 -42 -10q-5 0 -11 1q-20 5 -28 18z" />
<glyph unicode="y" horiz-adv-x="917" d="M-112 -500q-8 27 -8 57q0 41 16 89q14 42 39 78.5t63.5 67t76.5 54t94 47.5t99 40t109 38q34 187 41 230q-84 -176 -212 -176q-12 0 -24 2q-125 15 -175 149q-25 68 -25 151q0 81 24 177q36 138 48 236q7 65 7 100q0 18 -2 28l-6 29q81 27 142 27q90 0 135 -58 q40 -53 40 -145q0 -79 -30 -186q-64 -228 -70 -255q-8 -37 -8 -62q0 -40 20 -47q2 -1 3 -1q6 -2 12 -2q40 0 78 68q44 78 90 251l29 195q13 86 49 147.5t83 89.5t100 35q14 2 29 2q37 0 71 -13q49 -18 85 -54q-3 -3 -9 -10t-22.5 -37t-31.5 -70.5t-33.5 -116.5t-32.5 -168 q-29 -211 -80 -393q180 99 244 283h4q31 10 46 -11q7 -9 7 -26q0 -18 -8 -43q-46 -118 -125 -192t-202 -123q-85 -253 -202 -413t-249 -204q-55 -19 -108 -19q-19 0 -38 2q-71 10 -117 49.5t-66 102.5zM165 -536q7 -27 29 -27q6 0 13 2q37 11 71 102.5t78 315.5 q-106 -76 -161 -219q-34 -87 -34 -141q0 -19 4 -33z" />
<glyph unicode="z" horiz-adv-x="921" d="M-27 258v2q49 80 88.5 199.5t59.5 234.5q-39 48 -55 111q-11 44 -10 82q0 16 2 31q6 50 26 77q2 4 5.5 6t6.5 3h2q5 -3 15 -8.5t46 -18.5t77.5 -23t108.5 -18q59 -7 123 -6h17q149 0 215 4q67 93 156 123q28 9 50 9q34 0 52 -22q14 -16 14 -42q0 -15 -5 -33 q-15 -59 -85.5 -133t-168.5 -134q-107 -228 -215 -417q27 -13 72.5 -37.5t73 -38.5t60 -26t54.5 -13h5q53 0 105 56q54 59 93 167h4q29 11 45 -11q7 -10 8 -25q0 -18 -10 -42q-34 -84 -78 -157.5t-96 -132.5q-54 -59 -116 -87q-40 -18 -79 -17q-21 0 -43 5q-95 26 -231 156 q-37 -45 -74 -73.5t-65.5 -36.5t-49 -6.5t-31.5 9.5q-47 38 -55 112q-1 14 -1 27q-1 60 27 118q34 72 97 100q33 15 74 16q51 0 114 -24q72 133 146 297q-69 -22 -109 -27h-16q-29 -3 -55 -3q-94 0 -156 34q-52 -180 -145 -353q-15 -29 -35 -39t-36 -2.5t-22 27.5z" />
<glyph unicode="{" horiz-adv-x="1110" d="M-28 684q-12 51 35 94q58 53 147 39q25 -3 59 -16q4 23 6.5 60t4.5 96t5 104q9 110 53 203.5t112.5 158t156.5 108t183 58t195 2t189 -52.5q70 -33 -17 -65l-38 -11q-108 56 -192.5 56.5t-147 -54.5t-105.5 -156.5t-71 -254.5q-53 -269 -185 -385q94 -154 56 -371 q-26 -133 -24 -239.5t26 -177t80 -98.5t139 -5q3 1 10 -8.5t10 -24.5t-2 -31.5t-31 -31.5t-71 -23q-114 -19 -216.5 14.5t-174.5 115t-97.5 209t15.5 296.5q11 46 37.5 152t34.5 147q-24 0 -70 8q-97 22 -112 84z" />
<glyph unicode="|" horiz-adv-x="651" d="M16 -465q32 329 99 760.5t147 801.5t137 474q21 37 63.5 48t88 0.5t88.5 -26t71 -30.5l27 -15q-18 -28 -47 -75q-142 -244 -330 -866t-262 -1045q-6 -42 -26.5 -48.5t-37.5 7.5z" />
<glyph unicode="}" horiz-adv-x="1124" d="M-20.5 -247.5q42.5 32.5 61.5 32.5q107 -56 193.5 -57t151.5 53.5t111 157t76 254.5q52 275 183 409q-111 138 -70 365q29 179 20 302t-70.5 177t-172.5 22q-8 0 -18.5 19t12 44t94.5 38q115 19 216 -9t173 -102.5t96 -196t-16 -290.5q-55 -227 -62 -269q33 3 78 -4 q95 -22 111.5 -81t-39.5 -104t-139 -32q-21 0 -60 13q-8 -37 -12.5 -146t-9.5 -162q-9 -111 -54 -206t-113.5 -162t-158 -113t-185.5 -62.5t-197 -5.5t-191 52q-51 31 -8.5 63.5z" />
<glyph unicode="~" horiz-adv-x="675" d="M16 1143q79 88 159 127.5t171 11.5q96 -29 191 -0.5t141 88.5l12 16q44 -19 60.5 -75.5t6.5 -117t-49 -112t-96 -61.5q-16 -2 -32.5 -2.5t-30.5 0.5t-31.5 5t-29 6.5t-30 9.5t-27 10t-28 12.5t-25.5 12.5t-26 13.5t-24 12.5q-43 20 -75.5 29.5t-77.5 7t-89 -24.5 q-25 -14 -40.5 -5.5t-22.5 19.5t-7 17z" />
<glyph unicode="&#xa0;" horiz-adv-x="1560" d="M20.5 60.5q8.5 48.5 42.5 91.5q75 95 201 125.5t264 -1.5q22 72 29 107q-74 54 -102 115q-16 31 -18.5 55t2.5 33l5 8q66 -51 140 -86q4 22 11 66t11 65q-66 37 -100 74q-24 25 -29.5 48.5t0.5 34.5l6 11q52 -32 138 -55q14 119 41.5 224.5t64.5 188.5t84 153.5t99 119 t109.5 85.5t116 52.5t117.5 20.5t115 -11q56 -13 100 -55.5t68.5 -100.5t28 -129.5t-15 -139.5t-67.5 -132t-122 -106q-68 -41 -127.5 -41.5t-96 27t-63 61.5t-37.5 62l-10 28q204 32 312 154q78 88 70 178q-7 81 -82 111q-6 3 -13 5q-142 44 -254.5 -135.5t-171.5 -589.5 l-8 -63q132 3 227 41q37 14 82 41l2 -2q34 -36 40 -81.5t-13.5 -84.5t-68 -67t-114.5 -31q-65 -5 -184 16q-7 -32 -29 -115q177 -25 318 27l22 8l2 -2q13 -18 16 -49t-9 -65.5t-36 -64.5t-71 -47t-109 -12q-82 6 -182 41l-27 -65q79 -37 132 -70q191 -116 336 -171t246 -53 t179 46q1 -5 3 -14.5t5 -37.5t2.5 -55t-6.5 -63t-19 -66t-39 -59t-62 -47q-41 -21 -92 -20.5t-100 16.5t-107 47.5t-107 66.5t-105.5 81t-98 83t-90 79.5t-74.5 64.5l-68 49q-111 -175 -287 -242q-65 -24 -127.5 -24t-109.5 20t-81 55t-48.5 77t-6 90.5zM247.5 101.5 q-6.5 -28.5 7.5 -48t41.5 -29t68.5 4.5q66 17 124 143q-71 20 -124.5 14.5t-83.5 -32.5q-27 -24 -33.5 -52.5z" />
<glyph unicode="&#xa1;" horiz-adv-x="677" d="M-197 10q8 5 21 14.5t54 47.5t80.5 85.5t93 130.5t98.5 178.5t90.5 234t76.5 294.5q6 34 20 50t29 14t29.5 -8t23.5 -15l9 -8q-1 -54 -1 -157t-0.5 -159.5t-3 -147.5t-6.5 -147t-13 -129t-21 -122.5t-31 -99.5t-43 -86q-32 -47 -77 -71t-91.5 -24.5t-95.5 10t-92 30.5 t-77 38.5t-54 32.5zM220.5 1358.5q1.5 38.5 19.5 73.5q31 59 101 90t144 16q81 -16 123.5 -83.5t28.5 -135.5q-20 -91 -103 -133t-178 -10q-47 15 -79 44.5t-45 64.5t-11.5 73.5z" />
<glyph unicode="&#xa2;" horiz-adv-x="782" d="M-6 504q30 160 140 277.5t247 154.5q13 152 41 192q26 38 58.5 57.5t63 21t61 -6t56 -22.5t45.5 -29t31 -25l11 -10q-58 -75 -121 -194q57 -29 95.5 -76.5t53 -103t0.5 -118t-57 -118.5q-28 -38 -62.5 -56.5t-67 -18t-65.5 9.5t-60.5 25.5t-49 32t-33.5 27.5l-12 11 q97 47 153 145q47 83 30 134q-8 24 -30 30q-59 19 -110.5 -71t-81.5 -238q-18 -98 -15 -189.5t39 -161.5t97 -82q55 -11 125 12t130.5 65.5t109 96t65.5 101.5h4q31 10 45.5 -10.5t-2.5 -69.5q-32 -78 -115 -153t-198 -123.5t-224 -47.5q-31 -131 -37 -170q-7 -34 -21.5 -50 t-30 -14.5t-29.5 8.5t-23.5 15t-9.5 9q0 60 22 225q-58 22 -111 66.5t-95.5 107.5t-60.5 151t-1 183z" />
<glyph unicode="&#xa3;" horiz-adv-x="1560" d="M-52.5 19.5q9.5 53.5 46.5 101.5q50 65 133 98t178 33t203 -23q24 110 35 187q-90 53 -131 96q-23 24 -28 47.5t1 34.5l6 12q61 -39 172 -49l23 199q13 112 38 211t58.5 179t76.5 147.5t92 118t103.5 88.5t112 61.5t117 35t119 9.5t118.5 -15q72 -17 126 -79t76 -148 t17.5 -179t-49.5 -183t-123 -150q-46 -35 -94 -46t-87.5 -1t-76.5 31t-64.5 48.5t-48 52t-31.5 41.5l-11 17q186 56 301 194q90 107 90 206q1 90 -78 117l-4 1q-175 54 -275 -112t-165 -615q-9 -65 -35 -200q72 19 127 43q45 16 82 41l4 -2q34 -37 41.5 -98.5t-9.5 -120.5 t-64.5 -103.5t-113.5 -48.5q-57 -3 -141 16q-28 -83 -72 -166q61 -25 117 -61q190 -115 335 -170t246.5 -54t178.5 46q3 -6 7.5 -16.5t14.5 -43t14.5 -64t1.5 -74t-17.5 -78.5t-49.5 -73t-88 -63q-42 -20 -89 -21t-93.5 15.5t-94 43.5t-95 65.5t-91.5 79t-88.5 86t-82 84 t-75.5 76t-65 59.5q-6 5 -57 45q-128 -178 -314 -250q-73 -28 -143 -28.5t-121.5 21.5t-88.5 60.5t-52 86t-5.5 101zM247.5 70.5q-6.5 -28.5 7.5 -48t41.5 -29t68.5 4.5q66 20 112 133q-134 44 -196 -8q-27 -24 -33.5 -52.5z" />
<glyph unicode="&#xa4;" horiz-adv-x="536" d="M37.5 903q-11.5 10 15.5 39l58 55q-55 64 -35 150q8 44 43 84l-43 43q-24 24 -17 37q7 14 32 -6l7 -7l43 -47q45 34 103 42t112 -13l45 -23l39 37q25 25 39 18q14 -8 -8 -32l-6 -6l-37 -37q101 -82 21 -209q-24 -32 -39 -45l53 -53q25 -24 17 -38q-8 -13 -34 9l-6 6 l-57 58q-40 -25 -86.5 -33.5t-83.5 2.5q-47 11 -80 41l-57 -55q-27 -27 -38.5 -17zM198.5 1050q7.5 -42 34.5 -53t58 17t51 69q10 25 15 53t-1 54.5t-26 34.5q-38 16 -74 -15.5t-53 -79.5q-12 -38 -4.5 -80z" />
<glyph unicode="&#xa5;" horiz-adv-x="1251" d="M-37 1229q-9 46 6.5 85.5t47.5 66t73 48t84 34t78.5 20.5t58.5 11l23 3q-3 -10 -6.5 -29.5t-4 -86t12.5 -140.5q46 -265 233 -569q82 189 191 381q168 297 282 374q58 35 118 29.5t116.5 -38.5t100.5 -70.5t71 -67.5l27 -31q-7 -2 -20.5 -6t-58 -22.5t-90.5 -43.5 t-115 -74t-136.5 -109t-150 -151.5t-159.5 -199.5q38 10 64 23q13 4 27.5 10.5t24.5 12t19.5 10.5t10.5 6l2 -3q34 -36 41.5 -92t-9 -108t-63 -91t-112.5 -42q-42 -4 -134 10l-26 -78q161 -19 248 18l22 9l2 -2q13 -19 16 -54t-9 -75t-36 -75t-71 -56t-109 -15 q-52 3 -121 33q-15 -66 -22 -111q-7 -33 -21 -49t-29.5 -14.5t-30 8t-23.5 14.5t-9 9q0 107 6 221q-108 80 -165 190q-16 31 -18.5 54.5t2.5 31.5l5 8q85 -63 189 -102l10 90q-156 61 -221 131q-24 24 -29.5 47.5t0.5 35.5l6 11q80 -50 238 -57q-127 142 -213 245 t-158.5 211t-85.5 171z" />
<glyph unicode="&#xa6;" horiz-adv-x="647" d="M16 -465q3 43 10 148.5t10.5 152t10.5 133.5t13 136.5t15 114.5t20 114.5t24 91.5q13 41 52 56t86.5 7t93 -22t75.5 -29l31 -14q-21 -29 -54 -74q-81 -118 -169.5 -333t-133.5 -455q-7 -42 -28 -48.5t-38 7.5zM291 635q51 478 77 637q31 183 68 289q14 40 54 54t86 5 t90.5 -23.5t73.5 -29.5l30 -15q-18 -30 -45 -79q-2 -4 -32 -61t-36.5 -69.5t-35 -68.5t-39 -79t-36 -77.5t-38.5 -87t-35 -86t-36 -95t-30.5 -93t-29.5 -101.5q-7 -26 -18.5 -37.5t-23 -10t-21.5 7.5t-16.5 12.5t-6.5 7.5z" />
<glyph unicode="&#xa7;" horiz-adv-x="1431" d="M-2.5 -179q-0.5 92 44.5 181.5t130 153.5q160 123 319 -15q45 -38 95 -110q-111 -33 -195 -95.5t-123 -133.5t-49 -140.5t20 -124.5t91 -78q145 -54 270.5 16.5t161.5 211.5q10 38 10.5 76t-6 73t-25 76.5t-38.5 76.5t-55 84.5t-66 89.5t-80 101q-67 84 -100.5 183 t-33 190.5t19.5 171.5t54 143q50 96 191 164q-24 87 -18.5 179t26.5 166t55 138q43 78 118 130.5t157.5 72t165 15t145.5 -34.5q90 -42 150.5 -111.5t83 -146.5t19.5 -154.5t-36 -142.5t-88 -103q-71 -43 -131 -40.5t-108 37.5t-81 76.5t-51 75.5l-18 34q92 22 158 64 t94.5 90t33.5 97t-19.5 90.5t-71.5 63.5q-75 31 -148.5 25t-135.5 -51.5t-85 -114.5q-33 -96 22.5 -211t180.5 -273q133 -163 167.5 -317.5t-8.5 -343.5q-22 -95 -80.5 -181.5t-142.5 -148.5q23 -138 -14 -315q-30 -141 -137 -255t-254 -157t-314 17q-83 33 -146.5 101 t-93.5 155t-30.5 179zM598.5 861.5q-0.5 -32.5 6 -64t21.5 -67.5t33.5 -69.5t45 -72t52 -72.5t58.5 -74q92 -117 133 -217q35 47 51 109q10 39 10 77t-6 72.5t-25.5 76.5t-38.5 76t-55.5 84.5t-66.5 89t-80 101.5q-40 52 -67 107q-47 -47 -62 -94q-9 -30 -9.5 -62.5z" />
<glyph unicode="&#xa8;" horiz-adv-x="657" d="M-53 1233q20 91 102.5 133t177.5 10q47 -15 79 -44.5t45.5 -64.5t12 -73.5t-19.5 -73.5q-30 -59 -100 -90t-146 -16q-81 16 -123 83.5t-28 135.5zM399 1233q20 91 103 133t178 10q47 -15 79 -44.5t45.5 -64.5t12 -73.5t-19.5 -73.5q-30 -59 -100 -90t-146 -16 q-81 16 -123.5 83.5t-28.5 135.5z" />
<glyph unicode="&#xa9;" horiz-adv-x="677" d="M35 352q0 123 86 211t209 88h2q122 0 207.5 -87.5t85.5 -211.5q0 -128 -85.5 -215.5t-209.5 -87.5q-123 0 -209 88t-86 215zM84 348q0 -109 71 -183.5t175 -76.5q104 0 174.5 76t70.5 188q0 108 -70.5 183t-174.5 75t-175 -76t-71 -186zM168 344q0 82 54 133t132 51 q47 0 97 -20q1 -1 1 -2.5t-0.5 -4t-1 -5.5t-1.5 -6.5t-2 -6.5t-2 -5.5t-2.5 -4.5t-2.5 -3t-2 -1q-33 14 -84 14q-67 0 -101 -37t-34 -98q0 -60 35 -98.5t100 -38.5q49 0 90 18q3 3 14 -33l1 -3q-55 -25 -115 -25q-82 0 -129 50.5t-47 125.5z" />
<glyph unicode="&#xaa;" d="M-2 504q27 145 114.5 254.5t204.5 153.5t228 10q32 -8 63 -35q74 68 163 66t151 -64q-9 -18 -23.5 -51.5t-48 -138.5t-53.5 -212q-16 -89 -23 -137t-12.5 -108.5t3 -89.5t30.5 -33q48 -10 105 66t97 192h4q31 10 46.5 -10.5t-0.5 -69.5q-62 -157 -162.5 -241.5 t-216.5 -55.5q-146 39 -172 293q-14 -46 -25 -77.5t-32.5 -72.5t-45 -66t-60.5 -44.5t-81 -22.5q-85 -6 -153 57.5t-97 181t-4 255.5zM306.5 375.5q-6.5 -75.5 4 -132.5t41.5 -65q39 -13 67 52.5t75 261.5q7 110 22 190q11 74 41 135q-4 0 -14 2t-15 2q-129 8 -196 -286 q-19 -84 -25.5 -159.5z" />
<glyph unicode="&#xab;" horiz-adv-x="645" d="M-25 449q0 3 1.5 8t12 13.5t27.5 10.5q94 38 148.5 109.5t73.5 157.5q6 31 6 69h2q41 9 86.5 -3t76.5 -38.5t44 -62.5t-11 -74q-37 -61 -126 -108t-195 -72q82 -30 148.5 -90.5t88.5 -122.5q15 -43 -12.5 -85.5t-86.5 -66t-126 -14.5l-2 2q0 1 1 17t1.5 31.5t-0.5 37.5 q-1 5 -3.5 33t-3.5 35t-5 32t-7 33.5t-10 29.5t-14.5 30.5t-19 25.5t-25 25t-31.5 19.5t-39 17.5zM291 434q0 3 1 7t9 12.5t23 11.5q45 18 80.5 46.5t56 56.5t36 67t22 66t13.5 65q4 20 5.5 42.5t-0.5 25.5q2 0 2 2q42 9 88 -8.5t77 -50.5t44 -75t-11 -81 q-39 -61 -121 -107.5t-182 -69.5q81 -29 145 -85.5t89 -118.5q16 -41 -14 -87.5t-92 -74.5t-128 -19q0 1 1 18.5t1.5 34.5t-0.5 38q-7 126 -35 190.5t-110 93.5z" />
<glyph unicode="&#xad;" horiz-adv-x="774" d="M55 495q-5 24 1 35l7 11q115 -62 256 -58t281 64q70 29 82 41l4 -2q35 -38 46.5 -100.5t-1.5 -122.5t-63 -104t-127 -44q-118 0 -242.5 67.5t-214.5 163.5q-24 25 -29 49z" />
<glyph unicode="&#xae;" horiz-adv-x="415" d="M35 526q0 66 48.5 113t117.5 47t116.5 -47t47.5 -113q0 -69 -47.5 -115t-116.5 -46t-117.5 46t-48.5 115zM76 526q0 -54 35.5 -90.5t89.5 -36.5q52 -1 86.5 35.5t34.5 91.5q0 53 -34.5 90t-86.5 37h-2q-52 0 -87.5 -37t-35.5 -90zM137 442v160q42 6 62 6q31 0 51 -11.5 t20 -35.5q0 -28 -32 -39v-2q19 -6 28 -39q6 -35 10 -39h-38q-6 10 -13 39q-6 25 -35 25h-16v-64h-37zM176 532h17q36 0 36 23q0 25 -34 25q-15 0 -19 -2v-46z" />
<glyph unicode="&#xaf;" horiz-adv-x="681" d="M21 1270q-5 22 3 32l7 11q77 -45 186 -49.5t211 19t229 69.5q46 14 82 41l2 -2q28 -29 43 -76t11 -97.5t-24.5 -95t-69.5 -73.5t-119 -29q-120 -4 -276.5 57t-254.5 148q-25 23 -30 45z" />
<glyph unicode="&#xb0;" horiz-adv-x="501" d="M41 1147q14 61 60.5 101t102.5 46.5t115 -14.5q68 -28 100 -69t29.5 -87t-34.5 -96q-36 -57 -107.5 -84.5t-128.5 -9.5q-80 21 -117.5 82.5t-19.5 130.5zM163.5 1050q7.5 -42 35.5 -53q27 -11 57.5 17t50.5 69q16 33 16 81.5t-28 60.5q-38 16 -75 -15.5t-52 -79.5 q-12 -38 -4.5 -80z" />
<glyph unicode="&#xb1;" horiz-adv-x="999" d="M19 157.5q-1 7.5 0.5 16t7.5 14.5t19 8.5t32 0.5q106 -13 212 -15t191 3.5t181 20.5t162 29t155 35l86 23q3 -6 7 -16.5t13 -41t14 -59t4.5 -65t-10.5 -65t-35.5 -53t-66.5 -34.5q-196 -48 -962 166l-2.5 5t-4 11.5t-3.5 16zM19 766.5q-1 7.5 0.5 16t7.5 14.5t19 9t32 1 q191 -25 385 -12q-5 143 -43 333l-21 89q6 2 17 5.5t43.5 10t62 9.5t66.5 0.5t65 -13t49.5 -36t26.5 -63.5q11 -107 -49 -313q119 18 299 62l86 22q3 -6 7 -16t13 -40.5t14 -59t4.5 -65t-10.5 -65t-35.5 -52.5t-66.5 -34q-108 -26 -383 23q-11 -34 -50.5 -149t-59.5 -179 l-6 -2q-5 -2 -11.5 -4t-16 -3t-17 1.5t-14 9t-8 19t0.5 32.5q29 169 35 304q-225 55 -432 114l-2.5 5t-4 11t-3.5 15.5z" />
<glyph unicode="&#xb4;" horiz-adv-x="507" d="M18 1049q61 16 112.5 49.5t94 84t76.5 107.5t68 131q19 37 28 82h2q48 -1 98.5 -29.5t82 -72t35.5 -96t-42 -101.5q-71 -78 -213.5 -135t-267.5 -65q-34 -3 -52.5 8.5t-19.5 23.5z" />
<glyph unicode="&#xb6;" horiz-adv-x="1669" d="M8 1057q17 98 57.5 184t100 153t135.5 122.5t163 94t183 65t196.5 38.5t201.5 11.5t200 -13.5q282 -36 285 -78q2 -16 -47 -28q-117 -32 -326 -4q-326 40 -541 -84.5t-264 -395.5q-33 -186 54 -301.5t262 -130.5q5 24 12.5 71.5t9.5 61.5q37 280 81.5 430t121.5 224 q54 53 143.5 66t152.5 -11.5t52 -67.5l-2 1q-45 19 -95 -95q-62 -139 -120 -459q-56 -309 -170.5 -520.5t-267.5 -318.5q79 -25 158.5 13.5t148.5 131.5t123 250t80 356q37 279 82 429.5t122 224.5q54 53 144 66t153 -11.5t52 -67.5l-2 1q-45 19 -95 -95q-62 -139 -120 -459 q-29 -160 -76 -298.5t-105.5 -241.5t-128 -183t-144 -128.5t-153 -72.5t-156 -20t-151.5 33q-19 8 -22 16q-198 -91 -385 -16q-53 22 15 58q33 18 44 18q128 -48 254.5 70.5t202.5 373.5q-140 -6 -262.5 29.5t-208.5 104t-127 173.5t-21 230z" />
<glyph unicode="&#xb8;" horiz-adv-x="409" d="M-16.5 -321.5q12.5 57.5 62.5 107.5t130 69q-2 -12 -4 -32t7.5 -63.5t35.5 -66.5q52 -42 91.5 -33.5t62.5 57.5q25 56 -5 95.5t-114 40.5q0 2 -2 2q-16 20 -10 39l94 204h102l-92 -174q115 -8 162 -110.5t-15 -225.5q-32 -62 -89.5 -106t-121 -61.5t-130 -4.5t-115.5 58 q-36 35 -49 91t-0.5 113.5z" />
<glyph unicode="&#xba;" horiz-adv-x="501" d="M41 1147q14 61 60.5 101t102.5 46.5t115 -14.5q68 -28 100 -69t29.5 -87t-34.5 -96q-36 -57 -107.5 -84.5t-128.5 -9.5q-80 21 -117.5 82.5t-19.5 130.5zM163.5 1050q7.5 -42 35.5 -53q27 -11 57.5 17t50.5 69q16 33 16 81.5t-28 60.5q-38 16 -75 -15.5t-52 -79.5 q-12 -38 -4.5 -80z" />
<glyph unicode="&#xbb;" horiz-adv-x="643" d="M-6 200.5q-13 41.5 12 80.5q35 60 116.5 105.5t182.5 70.5q-81 27 -144 84t-87 121q-16 42 13.5 88.5t91 74t128.5 17.5q0 -1 -1 -18.5t-1.5 -34t0.5 -37.5q3 -62 10 -103t22 -79t43 -62.5t71 -38.5q0 -3 -1.5 -7.5t-10 -13.5t-23.5 -12q-56 -22 -96 -57.5t-61.5 -80 t-32 -80.5t-17.5 -83q-9 -45 -4 -67q-2 0 -2 -2q-42 -9 -88.5 8.5t-77 51t-43.5 75zM297.5 165.5q-24.5 43.5 1.5 96.5q37 61 126 108t196 72q-82 29 -149 89.5t-89 123.5q-15 43 12.5 86t86.5 66.5t126 13.5l2 -2q0 -1 -1 -16.5t-1.5 -31t0.5 -36.5q11 -108 21 -141 q32 -103 137 -141q0 -3 -1.5 -8t-12 -13.5t-27.5 -9.5q-176 -73 -221 -268q-6 -31 -6 -68l-2 -2q-56 -11 -115 13.5t-83.5 68z" />
<glyph unicode="&#xbc;" horiz-adv-x="2410" d="M33 72q9 13 24 38t58 116t83 196.5t88.5 281.5t84.5 369q31 158 35 275q-85 -95 -199 -179q-2 0 -4 2q-51 16 -2 89q32 46 57.5 81t53 70t51.5 59.5t49.5 46.5t49 34.5t49 20t51 6.5t52.5 -9q78 -26 62 -342q-12 -276 -92 -670.5t-166 -515.5q-37 -52 -90 -68 t-102.5 -1.5t-94 36.5t-71.5 43zM694 16q45 459 161.5 921.5t215.5 637.5q21 38 67.5 50t97.5 2t99 -25.5t79 -30.5l32 -15q-20 -30 -47 -77q-76 -127 -135 -231.5t-143 -267.5t-144.5 -304.5t-116.5 -312.5t-82 -322q-7 -42 -28 -48t-38 9zM1302 400q-24 38 3 87 q46 85 176 134q43 92 73 219.5t42 222.5t24.5 220t17.5 163q9 66 2 100l2 2q42 11 91.5 4.5t93.5 -28.5t78.5 -58.5t46 -84.5t-3.5 -107q-24 -79 -112 -268.5t-179 -348.5q107 13 229 13q81 230 127 473q6 33 19.5 49t29 15t30.5 -7.5t24.5 -14.5t9.5 -9q-13 -231 -60 -510 q24 0 74 -4q38 -3 69.5 3.5t50 18t31.5 23t18 19.5l5 9q11 -2 13 -10q29 -49 31.5 -110t-21 -117.5t-64 -102.5t-102 -67.5t-129.5 -8.5l-41 9q-56 -228 -100 -287q-37 -53 -90 -69t-102.5 -1.5t-94 36.5t-71.5 43l-27 22q5 4 13.5 11.5t34.5 35.5t53 61t65 89t73 118 q-136 40 -201 70q-73 -90 -162 -95q-64 -3 -90 38z" />
<glyph unicode="&#xbd;" horiz-adv-x="2588" d="M33 72q9 13 24 38t58 116t83 196.5t88.5 281.5t84.5 369q31 158 35 275q-85 -95 -199 -179q-2 0 -4 2q-51 16 -2 89q32 46 57.5 81t53 70t51.5 59.5t49.5 46.5t49 34.5t49 20t51 6.5t52.5 -9q78 -26 62 -342q-12 -276 -92 -670.5t-166 -515.5q-37 -52 -90 -68 t-102.5 -1.5t-94 36.5t-71.5 43zM694 16q45 459 161.5 921.5t215.5 637.5q21 38 67.5 50t97.5 2t99 -25.5t79 -30.5l32 -15q-20 -30 -47 -77q-76 -127 -135 -231.5t-143 -267.5t-144.5 -304.5t-116.5 -312.5t-82 -322q-7 -42 -28 -48t-38 9zM1294 68q25 66 122.5 119 t240.5 87q197 203 330.5 385t183.5 349q48 172 -8 284.5t-203 112.5q-140 0 -230 -81.5t-112 -217.5q-12 -77 13.5 -117t70 -40.5t94.5 21t88 58.5q3 -6 8 -17t16.5 -43.5t18 -63.5t8 -71.5t-8 -73.5t-36.5 -63.5t-71 -46.5q-50 -19 -104 -18t-103.5 20t-92.5 55.5t-71 88.5 t-39 118.5t4 145.5q20 115 86 214.5t156.5 165t193 103.5t199.5 41q114 3 214.5 -36.5t166 -110.5t94 -168t-1.5 -209q-12 -46 -28.5 -90t-41 -86.5t-47 -78.5t-58 -78t-61 -71.5t-71 -71.5t-72 -66.5t-78.5 -68t-77.5 -64t-81.5 -65.5q117 11 196 13h17q83 -1 145 -25.5 t94 -62.5t47 -85.5t9.5 -95.5t-23.5 -92t-47 -75q-2 -3 -5.5 -4.5t-5.5 -1.5l-3 -1q-18 9 -50.5 24t-140 50t-221.5 57q-226 45 -272 50q-80 -119 -193 -136q-83 -12 -134 33q-47 42 -24 101z" />
<glyph unicode="&#xbe;" horiz-adv-x="2902" d="M46 196q-21 83 2 170t93 148q36 31 79 40t84 -0.5t82.5 -28.5t75.5 -44t61 -47t42 -38l15 -15q-131 -37 -224 -140q-80 -88 -76 -162q3 -49 46 -73q100 -53 188.5 -15.5t152.5 129.5t87 206q52 229 -49 323q-119 -18 -191 4q-59 19 -59 62q-1 43 51 72q49 27 121 24 q85 -8 127 -18q138 102 184 284q19 74 19 138.5t-19.5 115t-65.5 80t-114 29.5q-102 0 -170 -43t-88 -127q-16 -62 14.5 -99t90 -25.5t114.5 75.5q3 -5 8.5 -13.5t17.5 -34t19 -51t8.5 -59t-8.5 -62.5t-38.5 -58.5t-74.5 -49.5q-64 -30 -128.5 -15.5t-107.5 65t-61 128 t11 174.5q48 162 175 247t308 91q87 2 164.5 -21t132.5 -66t93 -103t46.5 -131.5t-8.5 -151.5q-31 -129 -124 -227t-222 -158q110 -62 165.5 -155.5t30.5 -217.5q-24 -114 -91.5 -207t-160 -149t-198.5 -85t-212.5 -23t-195.5 44q-83 35 -142 108t-80 156zM1184 16 q45 459 161.5 921.5t215.5 637.5q21 38 67.5 50t97.5 2t99 -25.5t79 -30.5l31 -15q-20 -30 -47 -77q-76 -127 -135.5 -231.5t-142.5 -267.5t-144 -305t-116.5 -312.5t-81.5 -321.5q-7 -42 -28 -48t-38 9zM1794 399q-26 38 2 88q46 85 176 134q55 119 86 266.5t51 351 t21 207.5q9 66 2 100l2 2q42 11 91.5 4.5t93.5 -28.5t78 -58.5t45.5 -84.5t-3.5 -107q-24 -79 -112 -268.5t-179 -348.5q107 13 230 13q81 230 127 473q6 33 19.5 49t29 15t30 -7.5t24 -14.5t9.5 -9q-14 -240 -59 -510q24 0 74 -4q38 -3 69.5 3.5t50 18t31.5 23t18 19.5l5 9 q10 -2 12 -10q29 -49 31.5 -110t-21 -117.5t-64 -102.5t-102 -67.5t-129.5 -8.5l-41 9q-56 -228 -100 -287q-37 -53 -90 -69t-102.5 -1.5t-94 36.5t-71.5 43l-27 22q5 4 13.5 11.5t35 35.5t53.5 61t65 89t73 118q-136 40 -201 70q-73 -90 -161 -95q-64 -4 -91 37z" />
<glyph unicode="&#xbf;" horiz-adv-x="886" d="M88 134q1 52 18 102q28 82 82.5 154t114 120t125.5 95.5t119 84.5t92 84t47 96q6 34 19.5 50t29 14t30.5 -8t25 -14l9 -9q-8 -63 -35.5 -126.5t-64 -113.5t-80 -104t-81.5 -99t-70.5 -97.5t-45.5 -100.5q-85 -312 149 -336q101 -9 170.5 41.5t79.5 145.5q5 41 -7 74.5 t-34.5 53.5t-50.5 30.5t-57.5 6t-53.5 -21.5q1 1 -0.5 14.5t2 37.5t7 52t15.5 58t28 54.5t44 42.5t64 22q68 10 118.5 -20.5t73 -88t30.5 -131.5t-9 -150q-19 -98 -71.5 -174t-125 -120t-155.5 -63.5t-170 -14.5q-76 5 -139.5 27.5t-108 57t-76 79t-45 94t-12.5 101.5z M617.5 1213q1.5 38 19.5 73q31 60 101 91t145 18q81 -16 123 -83.5t28 -135.5q-20 -92 -102 -134.5t-178 -11.5q-47 16 -79 45.5t-45.5 64.5t-12 73z" />
<glyph unicode="&#xc0;" horiz-adv-x="1947" d="M-12.5 37.5q6.5 60.5 41.5 118.5q56 91 156 159t215 103t230.5 48t217.5 3q139 214 334 586q136 260 239 379q37 140 76 196q27 38 62.5 56.5t70 18t70 -9.5t65.5 -26t54 -33t37 -28l14 -11q-11 -26 -31 -81t-77 -268t-109 -476q-27 -133 -35 -197q97 46 170 95 q3 -11 7.5 -29.5t11.5 -69t5.5 -93t-18.5 -87.5t-51 -67q-52 -34 -146 -50q16 -156 99 -165q75 -10 158.5 76.5t123.5 195.5h2q30 11 45.5 -10.5t-0.5 -67.5q-17 -43 -35.5 -80.5t-44 -77.5t-53 -69.5t-62.5 -56t-73 -38t-84 -15t-96 13.5q-78 21 -142 96.5t-100 193.5 q-120 7 -387 49q-274 -450 -536 -546q-73 -28 -138 -24.5t-120.5 24.5t-94 63t-58.5 91.5t-13.5 110zM258.5 112.5q-2.5 -40.5 18 -63t56.5 -31t85 10.5q154 52 346 315q-156 16 -288 -21t-187 -124q-28 -46 -30.5 -86.5zM1030 459q151 0 268 20q-7 141 15 279 q19 133 51 354q-39 -73 -70 -139q-136 -289 -264 -514zM1381.5 2064.5q13.5 44.5 48.5 78t81 42.5h2q18 -46 39 -80q86 -132 198.5 -216t234.5 -99q-1 0 0.5 -5t-2 -12.5t-9 -15.5t-19.5 -14t-34 -8q-122 -9 -255.5 30t-217.5 109q-48 41 -64 93.5t-2.5 97z" />
<glyph unicode="&#xc1;" horiz-adv-x="1947" d="M-12.5 37.5q6.5 60.5 41.5 118.5q56 91 156 159t215 103t230.5 48t217.5 3q139 214 334 586q136 260 239 379q37 140 76 196q27 38 62.5 56.5t70 18t70 -9.5t65.5 -26t54 -33t37 -28l14 -11q-11 -26 -31 -81t-77 -268t-109 -476q-27 -133 -35 -197q97 46 170 95 q3 -11 7.5 -29.5t11.5 -69t5.5 -93t-18.5 -87.5t-51 -67q-52 -34 -146 -50q16 -156 99 -165q75 -10 158.5 76.5t123.5 195.5h2q30 11 45.5 -10.5t-0.5 -67.5q-17 -43 -35.5 -80.5t-44 -77.5t-53 -69.5t-62.5 -56t-73 -38t-84 -15t-96 13.5q-78 21 -142 96.5t-100 193.5 q-120 7 -387 49q-274 -450 -536 -546q-73 -28 -138 -24.5t-120.5 24.5t-94 63t-58.5 91.5t-13.5 110zM258.5 112.5q-2.5 -40.5 18 -63t56.5 -31t85 10.5q154 52 346 315q-156 16 -288 -21t-187 -124q-28 -46 -30.5 -86.5zM1030 459q151 0 268 20q-7 141 15 279 q19 133 51 354q-39 -73 -70 -139q-136 -289 -264 -514zM1350 1780q116 30 198 124t152 248q21 40 29 82h2q48 -1 98.5 -29.5t82 -72t35.5 -96t-42 -101.5q-70 -78 -213.5 -135t-268.5 -65q-34 -3 -52 8.5t-19 24.5z" />
<glyph unicode="&#xc2;" horiz-adv-x="1947" d="M-12.5 37.5q6.5 60.5 41.5 118.5q56 91 156 159t215 103t230.5 48t217.5 3q139 214 334 586q136 260 239 379q37 140 76 196q27 38 62.5 56.5t70 18t70 -9.5t65.5 -26t54 -33t37 -28l14 -11q-11 -26 -31 -81t-77 -268t-109 -476q-27 -133 -35 -197q97 46 170 95 q3 -11 7.5 -29.5t11.5 -69t5.5 -93t-18.5 -87.5t-51 -67q-52 -34 -146 -50q16 -156 99 -165q75 -10 158.5 76.5t123.5 195.5h2q30 11 45.5 -10.5t-0.5 -67.5q-17 -43 -35.5 -80.5t-44 -77.5t-53 -69.5t-62.5 -56t-73 -38t-84 -15t-96 13.5q-78 21 -142 96.5t-100 193.5 q-120 7 -387 49q-274 -450 -536 -546q-73 -28 -138 -24.5t-120.5 24.5t-94 63t-58.5 91.5t-13.5 110zM258.5 112.5q-2.5 -40.5 18 -63t56.5 -31t85 10.5q154 52 346 315q-156 16 -288 -21t-187 -124q-28 -46 -30.5 -86.5zM1030 459q151 0 268 20q-7 141 15 279 q19 133 51 354q-39 -73 -70 -139q-136 -289 -264 -514zM1325 1860q-8 45 6 88l2 2q25 -8 68 0q52 11 74.5 16.5t77 24t95.5 48t72 70.5q4 25 14.5 37.5t19.5 12.5h9q11 -108 41 -152.5t88 -60.5q16 -4 31 -4t26 2l11 2q2 0 2 -2q13 -66 -5.5 -127t-56.5 -88t-77 -3 q-51 31 -78 106.5t-29 166.5q-47 -85 -112 -160t-125 -104q-40 -18 -74.5 -4t-53 49t-26.5 80z" />
<glyph unicode="&#xc3;" horiz-adv-x="1947" d="M-12.5 37.5q6.5 60.5 41.5 118.5q56 91 156 159t215 103t230.5 48t217.5 3q139 214 334 586q136 260 239 379q37 140 76 196q27 38 62.5 56.5t70 18t70 -9.5t65.5 -26t54 -33t37 -28l14 -11q-11 -26 -31 -81t-77 -268t-109 -476q-27 -133 -35 -197q97 46 170 95 q3 -11 7.5 -29.5t11.5 -69t5.5 -93t-18.5 -87.5t-51 -67q-52 -34 -146 -50q16 -156 99 -165q75 -10 158.5 76.5t123.5 195.5h2q30 11 45.5 -10.5t-0.5 -67.5q-17 -43 -35.5 -80.5t-44 -77.5t-53 -69.5t-62.5 -56t-73 -38t-84 -15t-96 13.5q-78 21 -142 96.5t-100 193.5 q-120 7 -387 49q-274 -450 -536 -546q-73 -28 -138 -24.5t-120.5 24.5t-94 63t-58.5 91.5t-13.5 110zM258.5 112.5q-2.5 -40.5 18 -63t56.5 -31t85 10.5q154 52 346 315q-156 16 -288 -21t-187 -124q-28 -46 -30.5 -86.5zM1030 459q151 0 268 20q-7 141 15 279 q19 133 51 354q-39 -73 -70 -139q-136 -289 -264 -514zM1272 1874q70 77 167.5 105.5t196.5 -1.5q95 -29 172.5 -1.5t124.5 89.5l13 17q44 -19 60.5 -76t6.5 -117.5t-49 -112t-96 -61.5q-49 -7 -97 10t-110.5 57t-77.5 48q-43 20 -75.5 29.5t-77.5 7t-89 -24.5 q-25 -14 -40.5 -5.5t-22 19.5t-6.5 17z" />
<glyph unicode="&#xc4;" horiz-adv-x="1947" d="M-12.5 37.5q6.5 60.5 41.5 118.5q56 91 156 159t215 103t230.5 48t217.5 3q139 214 334 586q136 260 239 379q37 140 76 196q27 38 62.5 56.5t70 18t70 -9.5t65.5 -26t54 -33t37 -28l14 -11q-11 -26 -31 -81t-77 -268t-109 -476q-27 -133 -35 -197q97 46 170 95 q3 -11 7.5 -29.5t11.5 -69t5.5 -93t-18.5 -87.5t-51 -67q-52 -34 -146 -50q16 -156 99 -165q75 -10 158.5 76.5t123.5 195.5h2q30 11 45.5 -10.5t-0.5 -67.5q-17 -43 -35.5 -80.5t-44 -77.5t-53 -69.5t-62.5 -56t-73 -38t-84 -15t-96 13.5q-78 21 -142 96.5t-100 193.5 q-120 7 -387 49q-274 -450 -536 -546q-73 -28 -138 -24.5t-120.5 24.5t-94 63t-58.5 91.5t-13.5 110zM258.5 112.5q-2.5 -40.5 18 -63t56.5 -31t85 10.5q154 52 346 315q-156 16 -288 -21t-187 -124q-28 -46 -30.5 -86.5zM1030 459q151 0 268 20q-7 141 15 279 q19 133 51 354q-39 -73 -70 -139q-136 -289 -264 -514zM1229 1964q20 91 102.5 133t177.5 10q47 -15 79 -44.5t45.5 -64.5t12 -73.5t-19.5 -73.5q-30 -59 -100 -90t-146 -16q-81 16 -123 83.5t-28 135.5zM1681 1964q20 91 103 133t178 10q47 -15 79 -44.5t45.5 -64.5 t12 -73.5t-19.5 -73.5q-30 -59 -100 -90t-146 -16q-81 16 -123.5 83.5t-28.5 135.5z" />
<glyph unicode="&#xc5;" horiz-adv-x="1947" d="M-12.5 37.5q6.5 60.5 41.5 118.5q56 91 156 159t215 103t230.5 48t217.5 3q139 214 334 586q136 260 239 379q37 140 76 196q27 38 62.5 56.5t70 18t70 -9.5t65.5 -26t54 -33t37 -28l14 -11q-11 -26 -31 -81t-77 -268t-109 -476q-27 -133 -35 -197q97 46 170 95 q3 -11 7.5 -29.5t11.5 -69t5.5 -93t-18.5 -87.5t-51 -67q-52 -34 -146 -50q16 -156 99 -165q75 -10 158.5 76.5t123.5 195.5h2q30 11 45.5 -10.5t-0.5 -67.5q-17 -43 -35.5 -80.5t-44 -77.5t-53 -69.5t-62.5 -56t-73 -38t-84 -15t-96 13.5q-78 21 -142 96.5t-100 193.5 q-120 7 -387 49q-274 -450 -536 -546q-73 -28 -138 -24.5t-120.5 24.5t-94 63t-58.5 91.5t-13.5 110zM258.5 112.5q-2.5 -40.5 18 -63t56.5 -31t85 10.5q154 52 346 315q-156 16 -288 -21t-187 -124q-28 -46 -30.5 -86.5zM1030 459q151 0 268 20q-7 141 15 279 q19 133 51 354q-39 -73 -70 -139q-136 -289 -264 -514zM1452 1995q22 95 108 131.5t207 1.5q58 -17 94.5 -45t49.5 -62t9.5 -70t-22.5 -73q-32 -66 -105 -93.5t-171 -2.5q-93 23 -139 83.5t-31 129.5zM1639.5 1910q2.5 -32 15.5 -38q27 -11 69 51q15 27 19 69t-14 54 q-24 10 -48 -15t-36 -63q-8 -26 -5.5 -58z" />
<glyph unicode="&#xc6;" horiz-adv-x="2428" d="M-12.5 37.5q6.5 60.5 41.5 118.5q56 91 156 159t215 103t230.5 48t217.5 3q139 214 334 586q136 260 239 379q37 140 76 196q27 38 62.5 56.5t70 18t70 -9.5t65.5 -26t54 -33t37 -28l14 -11v-2q115 66 242 84.5t243 -16.5q89 -31 144.5 -100t67 -148.5t-19.5 -163.5 t-102 -145q-48 -42 -103 -48t-98.5 15.5t-80.5 49t-57 51.5l-21 24q123 36 207 142q73 92 67 172q-4 60 -59 83q-109 41 -216 -47t-145 -254q-21 -86 -16.5 -168.5t33.5 -138.5q83 3 172 -22q56 -18 58.5 -69.5t-47.5 -89.5t-126 -34q-73 3 -145 35q-69 -61 -112.5 -153 t-55.5 -199q-14 -85 -4 -160.5t39 -132.5t88.5 -90t144.5 -33q90 0 190 43.5t182.5 122.5t115.5 172q2 0 4 2q30 11 45.5 -10t-0.5 -70q-70 -174 -257.5 -276.5t-404.5 -102.5q-143 0 -266 60q-77 21 -140.5 95.5t-99.5 190.5q-132 0 -391 51q-276 -450 -534 -544 q-73 -28 -138 -24.5t-120.5 24.5t-94 63t-58.5 91.5t-13.5 110zM258.5 112.5q-2.5 -40.5 18 -63t56.5 -31t85 10.5q154 52 346 315q-156 16 -288 -21t-187 -124q-28 -46 -30.5 -86.5zM1030 459q162 0 268 33q-6 121 15 266q19 133 51 354q-39 -73 -70 -139 q-136 -289 -264 -514zM1677 905l29 15l-18 22q-1 -8 -11 -37z" />
<glyph unicode="&#xc7;" horiz-adv-x="993" d="M-12.5 514q-11.5 132 24.5 293q21 97 54 186.5t74 163.5t89.5 140t101.5 117.5t110 94.5t114 73.5t114 51.5t111 30.5t103 9.5t92 -11q61 -15 108.5 -62t74 -111t32 -141t-10.5 -151t-61 -143t-114 -115q-61 -41 -118 -58.5t-98.5 -12t-78 21.5t-61 40.5t-42 46.5 t-25.5 38l-8 16q184 55 310 201q99 114 111 220q10 97 -64 126l-10 4q-142 43 -297.5 -158.5t-255.5 -586.5q-51 -210 -43.5 -377t68.5 -276.5t161 -129.5q130 -27 274.5 74t196.5 248q2 0 2 2q30 11 46.5 -11t0.5 -69q-56 -139 -180.5 -240t-274.5 -127l-51 -96 q75 -5 124.5 -55t56 -123t-32.5 -158q-32 -62 -89.5 -106t-121 -61.5t-130.5 -4.5t-116 58q-36 35 -49 91t-0.5 113.5t62.5 107.5t130 69q-2 -12 -4 -32t7.5 -63.5t35.5 -66.5q52 -42 91.5 -33.5t62.5 57.5q25 56 -5 95t-114 40q0 3 -2 3q-16 19 -10 38l55 121q-52 4 -90 11 q-78 17 -149.5 59.5t-137 114.5t-104 171.5t-50 231.5z" />
<glyph unicode="&#xc8;" horiz-adv-x="1079" d="M-8 451q23 149 123 274t241 195q-66 72 -94.5 162t-7.5 186q15 71 57.5 137t101.5 116.5t133 89t151.5 58t158 19t150.5 -24.5q89 -31 144.5 -100t67.5 -148.5t-19 -163.5t-103 -145q-48 -42 -103 -48t-98.5 15.5t-80 49t-56.5 51.5l-21 24q122 36 206 142q73 92 66 172 q-4 60 -59 83q-108 41 -214 -47t-146 -254q-21 -85 -16.5 -168t34.5 -139q84 3 170 -22q56 -18 59 -70t-47 -90q-50 -37 -124 -33q-76 3 -148 35q-69 -61 -112.5 -153t-55.5 -199q-8 -69 -6.5 -130.5t20.5 -114t50.5 -90.5t84.5 -59.5t122 -21.5q139 0 287.5 99t199.5 239 l2 2q30 11 45.5 -10t-0.5 -70q-46 -116 -150.5 -203.5t-237 -131.5t-273.5 -44q-164 0 -287.5 70t-180.5 191.5t-34 269.5zM546 2064.5q14 44.5 49 78t81 42.5h2q18 -46 39 -80q86 -132 198 -216t234 -99q-1 0 0.5 -5t-2 -12.5t-9 -15.5t-19.5 -14t-34 -8q-122 -9 -255.5 30 t-217.5 109q-48 41 -64 93.5t-2 97z" />
<glyph unicode="&#xc9;" horiz-adv-x="1079" d="M-8 451q23 149 123 274t241 195q-66 72 -94.5 162t-7.5 186q15 71 57.5 137t101.5 116.5t133 89t151.5 58t158 19t150.5 -24.5q89 -31 144.5 -100t67.5 -148.5t-19 -163.5t-103 -145q-48 -42 -103 -48t-98.5 15.5t-80 49t-56.5 51.5l-21 24q122 36 206 142q73 92 66 172 q-4 60 -59 83q-108 41 -214 -47t-146 -254q-21 -85 -16.5 -168t34.5 -139q84 3 170 -22q56 -18 59 -70t-47 -90q-50 -37 -124 -33q-76 3 -148 35q-69 -61 -112.5 -153t-55.5 -199q-8 -69 -6.5 -130.5t20.5 -114t50.5 -90.5t84.5 -59.5t122 -21.5q139 0 287.5 99t199.5 239 l2 2q30 11 45.5 -10t-0.5 -70q-46 -116 -150.5 -203.5t-237 -131.5t-273.5 -44q-164 0 -287.5 70t-180.5 191.5t-34 269.5zM514 1745q116 30 198 124t152 249q21 40 29 82h2q48 -1 98.5 -29.5t82 -72t35.5 -96t-42 -101.5q-71 -79 -213.5 -136t-267.5 -65q-34 -3 -52.5 8.5 t-19.5 23.5z" />
<glyph unicode="&#xca;" horiz-adv-x="1079" d="M-8 451q23 149 123 274t241 195q-66 72 -94.5 162t-7.5 186q15 71 57.5 137t101.5 116.5t133 89t151.5 58t158 19t150.5 -24.5q89 -31 144.5 -100t67.5 -148.5t-19 -163.5t-103 -145q-48 -42 -103 -48t-98.5 15.5t-80 49t-56.5 51.5l-21 24q122 36 206 142q73 92 66 172 q-4 60 -59 83q-108 41 -214 -47t-146 -254q-21 -85 -16.5 -168t34.5 -139q84 3 170 -22q56 -18 59 -70t-47 -90q-50 -37 -124 -33q-76 3 -148 35q-69 -61 -112.5 -153t-55.5 -199q-8 -69 -6.5 -130.5t20.5 -114t50.5 -90.5t84.5 -59.5t122 -21.5q139 0 287.5 99t199.5 239 l2 2q30 11 45.5 -10t-0.5 -70q-46 -116 -150.5 -203.5t-237 -131.5t-273.5 -44q-164 0 -287.5 70t-180.5 191.5t-34 269.5zM479 1841q-8 45 6 88l2 2q25 -8 68 0q129 26 195 60q78 39 124 100q4 25 15 37.5t20 11.5h9q11 -108 41 -152.5t88 -60.5q16 -4 30.5 -4t25.5 2l11 2 q2 0 2 -2q8 -40 3.5 -80t-18 -69.5t-33.5 -51.5t-43.5 -25.5t-47.5 9.5q-51 31 -78 106t-29 166q-47 -85 -112 -160t-125 -104q-40 -18 -74.5 -4t-53 49t-26.5 80z" />
<glyph unicode="&#xcb;" horiz-adv-x="1079" d="M-8 451q23 149 123 274t241 195q-66 72 -94.5 162t-7.5 186q15 71 57.5 137t101.5 116.5t133 89t151.5 58t158 19t150.5 -24.5q89 -31 144.5 -100t67.5 -148.5t-19 -163.5t-103 -145q-48 -42 -103 -48t-98.5 15.5t-80 49t-56.5 51.5l-21 24q122 36 206 142q73 92 66 172 q-4 60 -59 83q-108 41 -214 -47t-146 -254q-21 -85 -16.5 -168t34.5 -139q84 3 170 -22q56 -18 59 -70t-47 -90q-50 -37 -124 -33q-76 3 -148 35q-69 -61 -112.5 -153t-55.5 -199q-8 -69 -6.5 -130.5t20.5 -114t50.5 -90.5t84.5 -59.5t122 -21.5q139 0 287.5 99t199.5 239 l2 2q30 11 45.5 -10t-0.5 -70q-46 -116 -150.5 -203.5t-237 -131.5t-273.5 -44q-164 0 -287.5 70t-180.5 191.5t-34 269.5zM379 1929q20 91 102.5 133.5t177.5 10.5q47 -15 79 -44.5t45.5 -64.5t12 -73.5t-19.5 -73.5q-30 -59 -100 -90.5t-146 -16.5q-81 16 -123 83.5 t-28 135.5zM831 1929q20 91 103 133.5t178 10.5q47 -15 79 -44.5t45.5 -64.5t12 -73.5t-19.5 -73.5q-30 -59 -100 -90.5t-146 -16.5q-81 16 -123.5 83.5t-28.5 135.5z" />
<glyph unicode="&#xcc;" horiz-adv-x="1171" d="M1.5 247q-9.5 75 3 147t54.5 142t109 121q46 35 95 48t90 6t79.5 -24t68 -41t52 -45.5t33.5 -36.5l12 -15q-187 -55 -301 -199q-88 -113 -89 -220q-1 -99 77 -132l6 -2q163 -62 306.5 141t197.5 608q21 160 34 251.5t35 206.5t45 188q-89 -70 -198 -179 q-52 -52 -94.5 -108t-66.5 -98.5t-40 -77.5t-22 -54l-5 -18q-47 17 -89 60.5t-65.5 102t-26 120.5t33.5 123t110 102q241 134 601 231q79 41 151.5 31.5t122 -47.5t41.5 -74q-7 -3 -15.5 -10t-32.5 -48.5t-47.5 -106t-57.5 -198.5t-66 -311q-29 -160 -76 -298t-105.5 -241.5 t-128 -183t-144 -128t-152.5 -72t-155.5 -19.5t-150.5 33q-61 24 -110.5 74t-79.5 113t-39.5 138zM818.5 2013.5q13.5 44.5 48.5 78t81 42.5h2q18 -46 39 -80q86 -132 198 -216t234 -99q0 -2 0.5 -5.5t-2 -12.5t-8 -16t-19.5 -13.5t-34 -8.5q-122 -9 -255 30.5t-218 109.5 q-48 41 -64 93.5t-2.5 97z" />
<glyph unicode="&#xcd;" horiz-adv-x="1171" d="M1.5 247q-9.5 75 3 147t54.5 142t109 121q46 35 95 48t90 6t79.5 -24t68 -41t52 -45.5t33.5 -36.5l12 -15q-187 -55 -301 -199q-88 -113 -89 -220q-1 -99 77 -132l6 -2q163 -62 306.5 141t197.5 608q21 160 34 251.5t35 206.5t45 188q-89 -70 -198 -179 q-52 -52 -94.5 -108t-66.5 -98.5t-40 -77.5t-22 -54l-5 -18q-47 17 -89 60.5t-65.5 102t-26 120.5t33.5 123t110 102q241 134 601 231q79 41 151.5 31.5t122 -47.5t41.5 -74q-7 -3 -15.5 -10t-32.5 -48.5t-47.5 -106t-57.5 -198.5t-66 -311q-29 -160 -76 -298t-105.5 -241.5 t-128 -183t-144 -128t-152.5 -72t-155.5 -19.5t-150.5 33q-61 24 -110.5 74t-79.5 113t-39.5 138zM686 1661q116 30 198 124t152 249q21 40 29 82h2q48 -1 98.5 -29.5t82 -72t35.5 -96t-42 -101.5q-71 -79 -213.5 -136t-267.5 -65q-34 -3 -52.5 8.5t-19.5 23.5z" />
<glyph unicode="&#xce;" horiz-adv-x="1171" d="M1.5 247q-9.5 75 3 147t54.5 142t109 121q46 35 95 48t90 6t79.5 -24t68 -41t52 -45.5t33.5 -36.5l12 -15q-187 -55 -301 -199q-88 -113 -89 -220q-1 -99 77 -132l6 -2q163 -62 306.5 141t197.5 608q21 160 34 251.5t35 206.5t45 188q-89 -70 -198 -179 q-52 -52 -94.5 -108t-66.5 -98.5t-40 -77.5t-22 -54l-5 -18q-47 17 -89 60.5t-65.5 102t-26 120.5t33.5 123t110 102q241 134 601 231q79 41 151.5 31.5t122 -47.5t41.5 -74q-7 -3 -15.5 -10t-32.5 -48.5t-47.5 -106t-57.5 -198.5t-66 -311q-29 -160 -76 -298t-105.5 -241.5 t-128 -183t-144 -128t-152.5 -72t-155.5 -19.5t-150.5 33q-61 24 -110.5 74t-79.5 113t-39.5 138zM782 1813q-8 45 6 88l3 2q25 -8 67 0q125 26 187 55q85 40 133 104q4 25 14.5 37.5t19.5 12.5l9 -1q11 -108 41 -152.5t88 -60.5q16 -4 30.5 -4t25.5 2l11 2q2 0 2 -2 q8 -40 3.5 -80t-18 -69.5t-33.5 -51.5t-43.5 -25.5t-47.5 9.5q-51 30 -77.5 105.5t-28.5 167.5q-47 -84 -112.5 -159.5t-125.5 -104.5q-40 -18 -74.5 -4t-53 49t-26.5 80z" />
<glyph unicode="&#xcf;" horiz-adv-x="1171" d="M1.5 247q-9.5 75 3 147t54.5 142t109 121q46 35 95 48t90 6t79.5 -24t68 -41t52 -45.5t33.5 -36.5l12 -15q-187 -55 -301 -199q-88 -113 -89 -220q-1 -99 77 -132l6 -2q163 -62 306.5 141t197.5 608q21 160 34 251.5t35 206.5t45 188q-89 -70 -198 -179 q-52 -52 -94.5 -108t-66.5 -98.5t-40 -77.5t-22 -54l-5 -18q-47 17 -89 60.5t-65.5 102t-26 120.5t33.5 123t110 102q241 134 601 231q79 41 151.5 31.5t122 -47.5t41.5 -74q-7 -3 -15.5 -10t-32.5 -48.5t-47.5 -106t-57.5 -198.5t-66 -311q-29 -160 -76 -298t-105.5 -241.5 t-128 -183t-144 -128t-152.5 -72t-155.5 -19.5t-150.5 33q-61 24 -110.5 74t-79.5 113t-39.5 138zM649 1903q20 91 103 133t178 10q47 -15 79 -44.5t45.5 -64.5t12 -73.5t-19.5 -73.5q-30 -59 -100 -90.5t-146 -16.5q-81 16 -123.5 84t-28.5 136zM1102 1903q20 91 102.5 133 t177.5 10q47 -15 79 -44.5t45.5 -64.5t12 -73.5t-19.5 -73.5q-30 -59 -100 -90.5t-146 -16.5q-81 16 -123 83.5t-28 136.5z" />
<glyph unicode="&#xd0;" horiz-adv-x="1699" d="M-27 969.5q-11 88.5 21 185.5q36 122 139.5 222t240 161t285 94t287.5 33q137 0 258.5 -30.5t225 -97.5t174 -165t101 -242.5t9.5 -320.5q-17 -139 -70.5 -263.5t-133 -221t-182 -173.5t-216.5 -126t-236.5 -73t-242.5 -20q-159 6 -286 53.5t-203 138.5t-68 212 q4 70 43.5 123t101 79.5t139.5 34.5t158 -12q12 162 21 383q-34 26 -64 60q-23 25 -28 48.5t1 34.5l7 11q37 -22 90 -39q6 107 24 172t58 119q37 47 88 67.5t99.5 15.5t91.5 -22t69 -43.5t26 -50.5q-2 -1 -6 -4.5t-15.5 -20.5t-22.5 -41.5t-25 -71.5t-25 -106q38 10 84 31 q70 29 82 41l4 -2q35 -38 46.5 -100.5t-1 -122.5t-62 -104t-126.5 -44q-24 0 -60 4q-10 -105 -10 -289q-6 -567 -395 -331q17 32 25 102l12 145q-80 39 -136.5 12t-70.5 -100q-8 -52 10.5 -98.5t56 -80.5t88 -59t105.5 -38t109 -14q236 -6 418 196.5t231 538.5 q55 379 -53.5 568.5t-399.5 189.5q-143 0 -269 -39.5t-219.5 -121t-125.5 -192.5q-18 -64 -11.5 -111.5t32.5 -78.5t62 -46.5t78 -15t81 16.5q1 -6 2.5 -15.5t2.5 -37t-2 -53t-14 -56t-29.5 -52.5t-53.5 -36.5t-81 -13.5q-98 1 -174.5 41t-117.5 107t-52 155.5z" />
<glyph unicode="&#xd1;" horiz-adv-x="1153" d="M-18 0q12 30 24 100q23 160 42 416t31 439.5t43 353t81 229.5q51 62 122.5 81t130.5 2.5t102.5 -49t45.5 -65.5v-2q51 -855 178 -1290q40 690 81.5 993t101.5 387q37 52 91 68t105.5 1.5t98 -36.5t74.5 -44l28 -21q-10 -16 -27.5 -46.5t-64 -135.5t-85 -222.5t-77.5 -305 t-55 -384.5q-11 -135 -35 -235t-56.5 -157.5t-72 -85t-81.5 -24t-85 32.5q-23 13 -43 49q-84 141 -155 382t-101 536q-35 -180 -59 -480q-11 -134 -40.5 -236.5t-69 -161.5t-87 -89t-95 -29t-91.5 29zM412 1870q70 77 167.5 105.5t196.5 -1.5q95 -29 172.5 -1.5t124.5 89.5 l12 17q44 -19 61 -76t7 -117.5t-49 -112t-96 -61.5q-49 -7 -97 10t-110.5 57t-77.5 48q-43 20 -75.5 29.5t-77.5 7t-89 -24.5q-25 -14 -40.5 -5.5t-22 19.5t-6.5 17z" />
<glyph unicode="&#xd2;" horiz-adv-x="1464" d="M-9 474q-18 129 3 288q20 149 75.5 282t130 228t163.5 166.5t176.5 110t167.5 46.5l53 2q42 36 106 66q78 32 156 31t145 -32t127 -86t101.5 -131.5t69 -168.5t29.5 -196.5t-17 -215.5q-47 -219 -166 -407q97 43 170 105.5t104 135.5l2 2q31 6 44 -16.5t-7 -67.5 q-43 -85 -151 -160t-238 -110q-156 -200 -356.5 -314.5t-380.5 -99.5q-91 8 -173.5 45t-152.5 104.5t-116.5 165.5t-64.5 227zM329 415.5q32 -164.5 110 -256.5t184 -98q189 -14 346 269q-101 19 -176 69q-106 73 -174 216.5t-85 303.5t19 324.5t125 276.5 q-95 -34 -197.5 -228t-148.5 -483q-35 -229 -3 -393.5zM622 2091.5q14 44.5 49 78t81 42.5h2q18 -46 39 -80q86 -132 198 -216t234 -99q-1 0 0.5 -5t-2 -13t-9 -15.5t-19.5 -14t-34 -8.5q-122 -9 -255 30.5t-218 109.5q-48 41 -64 93.5t-2 97zM664 1049.5 q-5 -126.5 16 -241.5t68.5 -210.5t113.5 -140.5q53 -40 142 -54q87 194 135 459q25 149 27.5 281.5t-18 235.5t-74.5 155t-136 33q-86 -21 -148 -99.5t-91.5 -185t-34.5 -233z" />
<glyph unicode="&#xd3;" horiz-adv-x="1464" d="M-9 474q-18 129 3 288q20 149 75.5 282t130 228t163.5 166.5t176.5 110t167.5 46.5l53 2q42 36 106 66q78 32 156 31t145 -32t127 -86t101.5 -131.5t69 -168.5t29.5 -196.5t-17 -215.5q-47 -219 -166 -407q97 43 170 105.5t104 135.5l2 2q31 6 44 -16.5t-7 -67.5 q-43 -85 -151 -160t-238 -110q-156 -200 -356.5 -314.5t-380.5 -99.5q-91 8 -173.5 45t-152.5 104.5t-116.5 165.5t-64.5 227zM329 415.5q32 -164.5 110 -256.5t184 -98q189 -14 346 269q-101 19 -176 69q-106 73 -174 216.5t-85 303.5t19 324.5t125 276.5 q-95 -34 -197.5 -228t-148.5 -483q-35 -229 -3 -393.5zM541 1716q116 30 198 124t152 249q21 40 29 82h2q48 -1 98.5 -29.5t82 -72t35.5 -96t-42 -101.5q-71 -78 -214 -135.5t-268 -65.5q-34 -3 -52 8.5t-20 24.5zM664 1049.5q-5 -126.5 16 -241.5t68.5 -210.5t113.5 -140.5 q53 -40 142 -54q87 194 135 459q25 149 27.5 281.5t-18 235.5t-74.5 155t-136 33q-86 -21 -148 -99.5t-91.5 -185t-34.5 -233z" />
<glyph unicode="&#xd4;" horiz-adv-x="1464" d="M-9 474q-18 129 3 288q20 149 75.5 282t130 228t163.5 166.5t176.5 110t167.5 46.5l53 2q42 36 106 66q78 32 156 31t145 -32t127 -86t101.5 -131.5t69 -168.5t29.5 -196.5t-17 -215.5q-47 -219 -166 -407q97 43 170 105.5t104 135.5l2 2q31 6 44 -16.5t-7 -67.5 q-43 -85 -151 -160t-238 -110q-156 -200 -356.5 -314.5t-380.5 -99.5q-91 8 -173.5 45t-152.5 104.5t-116.5 165.5t-64.5 227zM329 415.5q32 -164.5 110 -256.5t184 -98q189 -14 346 269q-101 19 -176 69q-106 73 -174 216.5t-85 303.5t19 324.5t125 276.5 q-95 -34 -197.5 -228t-148.5 -483q-35 -229 -3 -393.5zM594 1866q-8 45 6 88l2 2q25 -8 68 0q129 26 195 60q78 39 124 100q4 25 14.5 37.5t19.5 12.5l9 -1q11 -108 41 -152.5t88 -60.5q16 -4 31 -4t26 2l11 2q2 0 2 -2q8 -40 3.5 -80t-18 -69.5t-33.5 -51.5t-43.5 -25.5 t-47.5 9.5q-51 31 -78 106t-29 166q-47 -85 -112 -160t-125 -104q-40 -18 -74.5 -4t-53 49t-26.5 80zM664 1049.5q-5 -126.5 16 -241.5t68.5 -210.5t113.5 -140.5q53 -40 142 -54q87 194 135 459q25 149 27.5 281.5t-18 235.5t-74.5 155t-136 33q-86 -21 -148 -99.5 t-91.5 -185t-34.5 -233z" />
<glyph unicode="&#xd5;" horiz-adv-x="1464" d="M-9 474q-18 129 3 288q20 149 75.5 282t130 228t163.5 166.5t176.5 110t167.5 46.5l53 2q42 36 106 66q78 32 156 31t145 -32t127 -86t101.5 -131.5t69 -168.5t29.5 -196.5t-17 -215.5q-47 -219 -166 -407q97 43 170 105.5t104 135.5l2 2q31 6 44 -16.5t-7 -67.5 q-43 -85 -151 -160t-238 -110q-156 -200 -356.5 -314.5t-380.5 -99.5q-91 8 -173.5 45t-152.5 104.5t-116.5 165.5t-64.5 227zM329 415.5q32 -164.5 110 -256.5t184 -98q189 -14 346 269q-101 19 -176 69q-106 73 -174 216.5t-85 303.5t19 324.5t125 276.5 q-95 -34 -197.5 -228t-148.5 -483q-35 -229 -3 -393.5zM571 1872q70 77 168 105.5t197 -1.5q95 -29 172.5 -1.5t124.5 89.5l12 17q44 -19 60.5 -76t6.5 -117.5t-49 -112t-96 -61.5q-49 -7 -96.5 10t-110 57t-77.5 48q-43 20 -75.5 29.5t-77.5 7t-89 -24.5 q-25 -14 -40.5 -5.5t-22.5 19.5t-7 17zM664 1049.5q-5 -126.5 16 -241.5t68.5 -210.5t113.5 -140.5q53 -40 142 -54q87 194 135 459q25 149 27.5 281.5t-18 235.5t-74.5 155t-136 33q-86 -21 -148 -99.5t-91.5 -185t-34.5 -233z" />
<glyph unicode="&#xd6;" horiz-adv-x="1464" d="M-9 474q-18 129 3 288q20 149 75.5 282t130 228t163.5 166.5t176.5 110t167.5 46.5l53 2q42 36 106 66q78 32 156 31t145 -32t127 -86t101.5 -131.5t69 -168.5t29.5 -196.5t-17 -215.5q-47 -219 -166 -407q97 43 170 105.5t104 135.5l2 2q31 6 44 -16.5t-7 -67.5 q-43 -85 -151 -160t-238 -110q-156 -200 -356.5 -314.5t-380.5 -99.5q-91 8 -173.5 45t-152.5 104.5t-116.5 165.5t-64.5 227zM329 415.5q32 -164.5 110 -256.5t184 -98q189 -14 346 269q-101 19 -176 69q-106 73 -174 216.5t-85 303.5t19 324.5t125 276.5 q-95 -34 -197.5 -228t-148.5 -483q-35 -229 -3 -393.5zM438 1970q20 91 103 133.5t178 10.5q47 -15 79 -44.5t45.5 -64.5t12 -73.5t-19.5 -73.5q-30 -59 -100 -90.5t-146 -16.5q-81 16 -123.5 83.5t-28.5 135.5zM664 1049.5q-5 -126.5 16 -241.5t68.5 -210.5t113.5 -140.5 q53 -40 142 -54q87 194 135 459q25 149 27.5 281.5t-18 235.5t-74.5 155t-136 33q-86 -21 -148 -99.5t-91.5 -185t-34.5 -233zM891 1970q20 91 102.5 133.5t177.5 10.5q47 -15 79 -44.5t45.5 -64.5t12 -73.5t-19.5 -73.5q-30 -59 -100 -90.5t-146 -16.5q-81 16 -123 83.5 t-28 135.5z" />
<glyph unicode="&#xd7;" horiz-adv-x="819" d="M14 733q4 4 12 11.5t32 27.5t47.5 36.5t56 33t61.5 24t59.5 2.5t53.5 -26q78 -72 170 -269q71 99 162 254l41 80q4 -1 10.5 -4t26 -11.5t38 -18t42.5 -23.5t43 -28.5t36 -33.5t25 -37t7 -39.5t-15 -41.5q-72 -103 -324 -303q18 -43 60.5 -146.5t66.5 -159.5q1 0 -3 -9 t-11.5 -17.5t-18 -14t-24 2t-27.5 30.5q-62 100 -160 230q-230 -169 -418 -265q0 -1 -9 2.5t-18 11t-15 17.5t1 25t29 30q175 125 328 306q-118 136 -293 268z" />
<glyph unicode="&#xd8;" horiz-adv-x="1464" d="M-11.5 495q-14.5 121 5.5 267q20 149 75.5 282t130 228t163.5 166.5t176.5 110t167.5 46.5l53 2q42 36 106 66q8 3 64 20q40 94 63 136q21 38 67.5 50t97.5 2t99 -25.5t79 -30.5l32 -15q-18 -31 -47 -78q-12 -19 -35.5 -61t-30.5 -53q137 -107 201.5 -308.5t20.5 -435.5 q-47 -219 -166 -407q97 43 170 105.5t104 135.5l2 2q31 6 44 -16.5t-7 -67.5q-43 -85 -151 -160t-238 -110q-153 -196 -349.5 -310t-375.5 -104q-14 -66 -16 -82q-5 -26 -15.5 -38.5t-22 -11.5t-22 6t-17.5 12l-7 6q9 85 14 121q-82 18 -153.5 60.5t-131.5 111.5t-98 163 t-52.5 215zM331 402.5q36 -173.5 126 -263.5q47 243 133 543q-50 135 -59.5 287.5t28 300t119.5 250.5q-95 -34 -197.5 -228t-148.5 -483q-37 -233 -1 -406.5zM551 78q39 -17 72 -17q189 -14 346 269q-101 19 -176 69q-53 35 -93 84q-89 -213 -149 -405zM664 936 q114 359 208 604q-114 -66 -167.5 -236t-40.5 -368zM748 596q50 -95 114 -139q53 -40 142 -54q87 194 135 459q57 335 4 541q-230 -428 -395 -807z" />
<glyph unicode="&#xd9;" horiz-adv-x="1193" d="M-18 467q0 308 66.5 640t166.5 466q39 52 92.5 75t103 17t92.5 -24.5t69 -47t26 -53.5q-7 -13 -20 -38t-48.5 -118t-67 -202.5t-67 -294t-57.5 -389.5q-6 -54 -9 -84.5t-7 -81.5t-2.5 -82.5t5.5 -65.5t15.5 -53t28.5 -25q30 -9 60 27t59 112t54.5 165.5t53.5 207.5v5 q2 37 14 133q45 296 122 516.5t147 322.5q37 52 89 68t100 1.5t90 -36.5t68 -44l25 -21q-7 -8 -20 -25t-51 -83.5t-73 -148t-79.5 -225t-77.5 -309.5q-65 -304 -62 -469.5t89 -187.5q61 -14 134.5 70t113.5 194l2 2q30 11 46 -11.5t-1 -68.5q-23 -58 -53.5 -109t-71 -96.5 t-87 -71.5t-102 -34.5t-116.5 14.5q-101 36 -167 149t-79 291l-6 -20q-5 -18 -15.5 -65.5t-21 -86t-27 -90t-38 -90.5t-49 -73.5t-66.5 -52t-84 -15.5q-74 4 -134 51.5t-97 121.5t-56.5 162.5t-19.5 180.5zM499 2064.5q14 44.5 49 78t81 42.5h2q18 -46 39 -80 q86 -132 198 -216t234 -99q-1 0 0.5 -5t-2 -12.5t-9 -15.5t-19.5 -14t-34 -8q-122 -9 -255.5 30t-217.5 109q-48 41 -64 93.5t-2 97z" />
<glyph unicode="&#xda;" horiz-adv-x="1193" d="M-18 467q0 308 66.5 640t166.5 466q39 52 92.5 75t103 17t92.5 -24.5t69 -47t26 -53.5q-7 -13 -20 -38t-48.5 -118t-67 -202.5t-67 -294t-57.5 -389.5q-6 -54 -9 -84.5t-7 -81.5t-2.5 -82.5t5.5 -65.5t15.5 -53t28.5 -25q30 -9 60 27t59 112t54.5 165.5t53.5 207.5v5 q2 37 14 133q45 296 122 516.5t147 322.5q37 52 89 68t100 1.5t90 -36.5t68 -44l25 -21q-7 -8 -20 -25t-51 -83.5t-73 -148t-79.5 -225t-77.5 -309.5q-65 -304 -62 -469.5t89 -187.5q61 -14 134.5 70t113.5 194l2 2q30 11 46 -11.5t-1 -68.5q-23 -58 -53.5 -109t-71 -96.5 t-87 -71.5t-102 -34.5t-116.5 14.5q-101 36 -167 149t-79 291l-6 -20q-5 -18 -15.5 -65.5t-21 -86t-27 -90t-38 -90.5t-49 -73.5t-66.5 -52t-84 -15.5q-74 4 -134 51.5t-97 121.5t-56.5 162.5t-19.5 180.5zM551 1776q116 30 198 124t152 248q21 40 29 82h2q48 -1 98.5 -29.5 t82 -72t35.5 -96t-42 -101.5q-71 -78 -213.5 -135t-267.5 -65q-34 -3 -52.5 8.5t-20.5 24.5z" />
<glyph unicode="&#xdb;" horiz-adv-x="1193" d="M-18 467q0 308 66.5 640t166.5 466q39 52 92.5 75t103 17t92.5 -24.5t69 -47t26 -53.5q-7 -13 -20 -38t-48.5 -118t-67 -202.5t-67 -294t-57.5 -389.5q-6 -54 -9 -84.5t-7 -81.5t-2.5 -82.5t5.5 -65.5t15.5 -53t28.5 -25q30 -9 60 27t59 112t54.5 165.5t53.5 207.5v5 q2 37 14 133q45 296 122 516.5t147 322.5q37 52 89 68t100 1.5t90 -36.5t68 -44l25 -21q-7 -8 -20 -25t-51 -83.5t-73 -148t-79.5 -225t-77.5 -309.5q-65 -304 -62 -469.5t89 -187.5q61 -14 134.5 70t113.5 194l2 2q30 11 46 -11.5t-1 -68.5q-23 -58 -53.5 -109t-71 -96.5 t-87 -71.5t-102 -34.5t-116.5 14.5q-101 36 -167 149t-79 291l-6 -20q-5 -18 -15.5 -65.5t-21 -86t-27 -90t-38 -90.5t-49 -73.5t-66.5 -52t-84 -15.5q-74 4 -134 51.5t-97 121.5t-56.5 162.5t-19.5 180.5zM459.5 1909.5q-0.5 36.5 7.5 70.5l2 2q25 -8 68 0q129 26 195 60 q78 39 124 100q4 25 14.5 37.5t19.5 12.5l9 -1q11 -108 41 -152.5t88 -60.5q16 -4 31 -4t26 2l11 2q2 0 2 -2q13 -66 -6 -127t-57 -87.5t-77 -2.5q-51 30 -77.5 105.5t-28.5 167.5q-47 -85 -112.5 -160.5t-125.5 -104.5q-32 -15 -61 -8.5t-47.5 29t-32 54t-14 68z" />
<glyph unicode="&#xdc;" horiz-adv-x="1193" d="M-18 467q0 308 66.5 640t166.5 466q39 52 92.5 75t103 17t92.5 -24.5t69 -47t26 -53.5q-7 -13 -20 -38t-48.5 -118t-67 -202.5t-67 -294t-57.5 -389.5q-6 -54 -9 -84.5t-7 -81.5t-2.5 -82.5t5.5 -65.5t15.5 -53t28.5 -25q30 -9 60 27t59 112t54.5 165.5t53.5 207.5v5 q2 37 14 133q45 296 122 516.5t147 322.5q37 52 89 68t100 1.5t90 -36.5t68 -44l25 -21q-7 -8 -20 -25t-51 -83.5t-73 -148t-79.5 -225t-77.5 -309.5q-65 -304 -62 -469.5t89 -187.5q61 -14 134.5 70t113.5 194l2 2q30 11 46 -11.5t-1 -68.5q-23 -58 -53.5 -109t-71 -96.5 t-87 -71.5t-102 -34.5t-116.5 14.5q-101 36 -167 149t-79 291l-6 -20q-5 -18 -15.5 -65.5t-21 -86t-27 -90t-38 -90.5t-49 -73.5t-66.5 -52t-84 -15.5q-74 4 -134 51.5t-97 121.5t-56.5 162.5t-19.5 180.5zM332 1937q20 91 102.5 133.5t177.5 10.5q47 -15 79 -44.5 t45.5 -64.5t12 -73.5t-19.5 -73.5q-30 -59 -100 -90.5t-146 -16.5q-81 16 -123 83.5t-28 135.5zM784 1937q20 91 103 133.5t178 10.5q47 -15 79 -44.5t45.5 -64.5t12 -73.5t-19.5 -73.5q-30 -59 -100 -90.5t-146 -16.5q-81 16 -123.5 83.5t-28.5 135.5z" />
<glyph unicode="&#xdd;" horiz-adv-x="1251" d="M21.5 -530q10.5 75 55 148t120.5 124q78 55 174 78t185.5 20t193.5 -8q11 62 55 352q-85 -239 -238 -229q-74 4 -134 51t-97 121t-56.5 162t-19.5 180q0 309 66.5 640.5t167.5 463.5q39 52 92.5 75.5t103 18t92.5 -24t69 -46.5t26 -54q-8 -13 -20.5 -38t-48.5 -118 t-67.5 -202t-67.5 -293t-57 -389q-10 -87 -13.5 -130.5t-5 -113t11 -105.5t38.5 -44q27 -8 55.5 23.5t56 100t51.5 149t52 191.5l27 187q45 296 122 517t146 318q37 52 89 68t100 2t90.5 -36t67.5 -43l26 -21q-7 -8 -20 -25t-50 -83.5t-72 -148.5t-80 -225.5t-79 -308.5 q-134 -654 -225 -952q190 10 335 86q2 -12 4 -31.5t3 -73.5t-4 -100.5t-24.5 -96t-51.5 -75.5q-35 -27 -95.5 -33t-122 2.5t-147.5 28.5q-100 -243 -230 -363t-311 -116q-85 2 -155.5 40t-113.5 96.5t-61.5 133.5t-8 150zM194 -713.5q13 -61.5 64.5 -103.5t130.5 -43 q114 0 185 104.5t124 331.5q-91 20 -156.5 27t-131 -3.5t-105.5 -45.5q-68 -59 -96 -132.5t-15 -135zM803 1743q116 30 198 124t152 249q21 40 29 82h2q48 -1 98.5 -30t82 -72.5t35.5 -96t-42 -101.5q-71 -78 -213.5 -135t-267.5 -65q-34 -3 -52.5 8.5t-20.5 23.5z" />
<glyph unicode="&#xde;" horiz-adv-x="1785" d="M-1 350.5q2 88.5 45.5 175t123.5 148.5q46 35 95 48.5t90 7.5t80 -21t68.5 -37t52 -42t34.5 -34l12 -14q-185 -54 -299 -201q-90 -116 -92 -228q-2 -102 73 -138q6 -3 11 -5q78 -29 156 7.5t145.5 130t120.5 252t80 360.5q22 168 36.5 266t37.5 218t49.5 194.5 t58.5 113.5q44 52 101 75t107.5 17.5t94 -23.5t66.5 -46.5t18 -52.5q-60 -30 -129 -273q103 49 210.5 62.5t197.5 -11t156.5 -78t92.5 -143.5t0 -202q-27 -115 -96 -214t-163 -168t-206.5 -116.5t-232.5 -66t-236 -9.5q-57 -103 -126.5 -181t-143 -126t-151.5 -71.5 t-155 -20t-151 32.5q-73 29 -129 94t-80.5 148t-22.5 171.5zM1014 412q190 -14 328.5 103.5t187.5 311.5q36 142 9.5 236.5t-111 117t-226.5 -47.5q-8 -36 -59 -285q-45 -249 -129 -436z" />
<glyph unicode="&#xdf;" horiz-adv-x="1245" d="M-41 -6q19 28 25 98q23 272 62 491t85 367.5t106 258.5t117 172.5t126.5 99.5t126.5 48t124 11q93 0 174.5 -25.5t141 -72.5t85.5 -122t5 -165q-23 -100 -79 -193.5t-134 -160.5q129 -62 206.5 -181.5t59.5 -261.5q-11 -82 -42.5 -154.5t-75 -125.5t-96.5 -95.5 t-110.5 -67.5t-114.5 -38t-109.5 -12t-94.5 16q-63 22 -106 65.5t-60.5 96t-14 110.5t28.5 113q24 53 67.5 99.5t91 72t94.5 33t79 -17.5q27 -20 32.5 -51.5t-5.5 -62t-27.5 -57.5t-32.5 -42.5t-20 -12.5q-44 30 -89 20.5t-71 -54.5q-48 -75 -27 -145t103 -77 q72 -6 128.5 88.5t84.5 270.5q40 262 -92 364q-113 -43 -230 2q-65 24 -68 72q-2 46 56 76q45 24 109 26q40 0 67 -6q96 92 139 260q70 275 -106 275q-138 0 -224.5 -264t-86.5 -811q0 -102 -31 -186.5t-85.5 -134t-129.5 -56.5t-162 47z" />
<glyph unicode="&#xe0;" d="M-2 504q27 145 114.5 254.5t204.5 153.5t228 10q32 -8 63 -35q74 68 163 66t151 -64q-9 -18 -23.5 -51.5t-48 -138.5t-53.5 -212q-16 -89 -23 -137t-12.5 -108.5t3 -89.5t30.5 -33q48 -10 105 66t97 192h4q31 10 46.5 -10.5t-0.5 -69.5q-62 -157 -162.5 -241.5 t-216.5 -55.5q-146 39 -172 293q-14 -46 -25 -77.5t-32.5 -72.5t-45 -66t-60.5 -44.5t-81 -22.5q-85 -6 -153 57.5t-97 181t-4 255.5zM263.5 1349.5q13.5 44.5 48.5 78t81 42.5h2q17 -43 39 -79q87 -133 198.5 -217t233.5 -99q0 -2 0.5 -5.5t-2 -12t-8 -15.5t-19.5 -13.5 t-34 -8.5q-122 -9 -255.5 30t-217.5 109q-48 41 -64 93.5t-2.5 97zM306.5 375.5q-6.5 -75.5 4 -132.5t41.5 -65q39 -13 67 52.5t75 261.5q7 110 22 190q11 74 41 135q-4 0 -14 2t-15 2q-129 8 -196 -286q-19 -84 -25.5 -159.5z" />
<glyph unicode="&#xe1;" d="M-2 504q27 145 114.5 254.5t204.5 153.5t228 10q32 -8 63 -35q74 68 163 66t151 -64q-9 -18 -23.5 -51.5t-48 -138.5t-53.5 -212q-16 -89 -23 -137t-12.5 -108.5t3 -89.5t30.5 -33q48 -10 105 66t97 192h4q31 10 46.5 -10.5t-0.5 -69.5q-62 -157 -162.5 -241.5 t-216.5 -55.5q-146 39 -172 293q-14 -46 -25 -77.5t-32.5 -72.5t-45 -66t-60.5 -44.5t-81 -22.5q-85 -6 -153 57.5t-97 181t-4 255.5zM215 1030q116 30 198 124t152 249q21 40 29 82h2q48 -1 98.5 -29.5t82 -72t35.5 -96t-42 -101.5q-71 -79 -213.5 -136t-267.5 -65 q-34 -3 -52.5 8.5t-20.5 24.5zM306.5 375.5q-6.5 -75.5 4 -132.5t41.5 -65q39 -13 67 52.5t75 261.5q7 110 22 190q11 74 41 135q-4 0 -14 2t-15 2q-129 8 -196 -286q-19 -84 -25.5 -159.5z" />
<glyph unicode="&#xe2;" d="M-2 504q27 145 114.5 254.5t204.5 153.5t228 10q32 -8 63 -35q74 68 163 66t151 -64q-9 -18 -23.5 -51.5t-48 -138.5t-53.5 -212q-16 -89 -23 -137t-12.5 -108.5t3 -89.5t30.5 -33q48 -10 105 66t97 192h4q31 10 46.5 -10.5t-0.5 -69.5q-62 -157 -162.5 -241.5 t-216.5 -55.5q-146 39 -172 293q-14 -46 -25 -77.5t-32.5 -72.5t-45 -66t-60.5 -44.5t-81 -22.5q-85 -6 -153 57.5t-97 181t-4 255.5zM215 1126q-8 45 6 88l2 3q25 -8 68 0q52 11 74.5 16.5t77 24t95.5 48t72 70.5q4 25 14.5 37.5t19.5 12.5l9 -1q11 -108 41 -152.5 t88 -60.5q16 -4 31 -4t26 2l11 2q2 0 2 -2q8 -40 3.5 -80t-18 -69.5t-33.5 -51.5t-43.5 -25.5t-47.5 9.5q-51 31 -78 106.5t-29 166.5q-48 -85 -112.5 -160.5t-124.5 -104.5q-40 -18 -74.5 -4t-53 49t-26.5 80zM306.5 375.5q-6.5 -75.5 4 -132.5t41.5 -65q39 -13 67 52.5 t75 261.5q7 110 22 190q11 74 41 135q-4 0 -14 2t-15 2q-129 8 -196 -286q-19 -84 -25.5 -159.5z" />
<glyph unicode="&#xe3;" d="M-2 504q27 145 114.5 254.5t204.5 153.5t228 10q32 -8 63 -35q74 68 163 66t151 -64q-9 -18 -23.5 -51.5t-48 -138.5t-53.5 -212q-16 -89 -23 -137t-12.5 -108.5t3 -89.5t30.5 -33q48 -10 105 66t97 192h4q31 10 46.5 -10.5t-0.5 -69.5q-62 -157 -162.5 -241.5 t-216.5 -55.5q-146 39 -172 293q-14 -46 -25 -77.5t-32.5 -72.5t-45 -66t-60.5 -44.5t-81 -22.5q-85 -6 -153 57.5t-97 181t-4 255.5zM172 1159q70 77 168 106t197 -1q95 -29 172.5 -1.5t124.5 89.5l12 16q44 -19 60.5 -76t6.5 -117.5t-49 -112t-96 -61.5q-49 -7 -97 10 t-110.5 57t-77.5 48q-43 20 -75.5 29.5t-77 7t-88.5 -24.5q-25 -14 -40.5 -5.5t-22.5 19.5t-7 17zM306.5 375.5q-6.5 -75.5 4 -132.5t41.5 -65q39 -13 67 52.5t75 261.5q7 110 22 190q11 74 41 135q-4 0 -14 2t-15 2q-129 8 -196 -286q-19 -84 -25.5 -159.5z" />
<glyph unicode="&#xe4;" d="M-2 504q27 145 114.5 254.5t204.5 153.5t228 10q32 -8 63 -35q74 68 163 66t151 -64q-9 -18 -23.5 -51.5t-48 -138.5t-53.5 -212q-16 -89 -23 -137t-12.5 -108.5t3 -89.5t30.5 -33q48 -10 105 66t97 192h4q31 10 46.5 -10.5t-0.5 -69.5q-62 -157 -162.5 -241.5 t-216.5 -55.5q-146 39 -172 293q-14 -46 -25 -77.5t-32.5 -72.5t-45 -66t-60.5 -44.5t-81 -22.5q-85 -6 -153 57.5t-97 181t-4 255.5zM80 1233q20 91 102.5 133t177.5 10q47 -15 79 -44.5t45.5 -64.5t12 -73.5t-19.5 -73.5q-30 -59 -100 -90t-146 -16q-81 16 -123 83.5 t-28 135.5zM306.5 375.5q-6.5 -75.5 4 -132.5t41.5 -65q39 -13 67 52.5t75 261.5q7 110 22 190q11 74 41 135q-4 0 -14 2t-15 2q-129 8 -196 -286q-19 -84 -25.5 -159.5zM532 1233q20 91 103 133t178 10q47 -15 79 -44.5t45.5 -64.5t12 -73.5t-19.5 -73.5q-30 -59 -100 -90 t-146 -16q-81 16 -123.5 83.5t-28.5 135.5z" />
<glyph unicode="&#xe5;" d="M-2 504q27 145 114.5 254.5t204.5 153.5t228 10q32 -8 63 -35q74 68 163 66t151 -64q-9 -18 -23.5 -51.5t-48 -138.5t-53.5 -212q-16 -89 -23 -137t-12.5 -108.5t3 -89.5t30.5 -33q48 -10 105 66t97 192h4q31 10 46.5 -10.5t-0.5 -69.5q-62 -157 -162.5 -241.5 t-216.5 -55.5q-146 39 -172 293q-14 -46 -25 -77.5t-32.5 -72.5t-45 -66t-60.5 -44.5t-81 -22.5q-85 -6 -153 57.5t-97 181t-4 255.5zM306.5 375.5q-6.5 -75.5 4 -132.5t41.5 -65q39 -13 67 52.5t75 261.5q7 110 22 190q11 74 41 135q-4 0 -14 2t-15 2q-129 8 -196 -286 q-19 -84 -25.5 -159.5zM319 1221q22 95 108.5 131.5t207.5 1.5q58 -17 94.5 -45t49.5 -62t9.5 -70t-22.5 -73q-32 -66 -105.5 -93.5t-171.5 -2.5q-93 23 -139 83.5t-31 129.5zM506.5 1136q2.5 -32 15.5 -38q27 -11 70 51q15 26 18.5 68.5t-14.5 54.5q-24 10 -48 -15t-36 -63 q-8 -26 -5.5 -58z" />
<glyph unicode="&#xe6;" horiz-adv-x="1282" d="M-2 504q27 145 114.5 254.5t204.5 153.5t228 10q64 -16 110 -86q170 150 412 108q197 -37 236 -147q40 -109 -89 -249q-126 -136 -378 -259q-1 -1 -17 -6q42 -167 137 -183q70 -14 141 4.5t127 60t99 97t63 115.5h5q31 10 45.5 -10.5t-2.5 -69.5q-26 -64 -82 -126.5 t-133.5 -112t-181 -72t-208.5 -4.5q-44 8 -91.5 29.5t-96 56t-89 89t-60.5 119.5q-16 -54 -33 -92.5t-45 -80.5t-69 -65.5t-93 -27.5q-85 -6 -153 57.5t-97 181t-4 255.5zM306.5 375.5q-6.5 -75.5 4 -132.5t41.5 -65q34 -10 59 38.5t60 186.5q0 43 10 101q33 165 125 278 q-29 36 -78 39q-129 8 -196 -286q-19 -84 -25.5 -159.5zM807 377q61 50 109 116.5t74 129.5t38.5 119t6.5 92.5t-27 42.5q-30 8 -59 -22t-54 -89.5t-42 -112.5t-34 -118q-18 -74 -12 -158z" />
<glyph unicode="&#xe7;" horiz-adv-x="817" d="M-6 504q27 145 122 257.5t216 160.5t229 22q73 -18 127 -65t77.5 -107.5t13 -132.5t-59.5 -135q-28 -38 -62.5 -56.5t-67 -18t-65.5 9.5t-60.5 25.5t-49 32t-33.5 27.5l-12 11q97 47 153 145q47 83 30 134q-8 24 -30 30q-59 19 -110.5 -71t-81.5 -238q-18 -98 -15 -189.5 t39 -161.5t97 -82q55 -11 125 12t130.5 65.5t109 96t65.5 101.5h4q31 10 45.5 -10.5t-2.5 -69.5q-42 -107 -176.5 -201.5t-284.5 -115.5l-61 -119q115 -8 162 -110.5t-15 -225.5q-32 -62 -89.5 -106t-121 -61.5t-130.5 -5t-116 57.5q-36 35 -49 91t0 113.5t63 107.5t130 69 q-2 -12 -4 -32t7.5 -63.5t35.5 -66.5q52 -42 91 -33.5t62 58.5q25 56 -5 95t-114 40q0 2 -2 2q-16 20 -10 39l66 143q-35 4 -60 9q-61 14 -122.5 56.5t-112 107.5t-74 159.5t-4.5 198.5z" />
<glyph unicode="&#xe8;" horiz-adv-x="870" d="M-6 504q43 217 216 346t370 94q197 -37 236 -147q39 -109 -90 -249q-127 -136 -378 -259q-2 -1 -16 -6q42 -167 137 -183q70 -14 141 4.5t127 60t99 97t63 115.5h4q31 10 45.5 -10.5t-2.5 -69.5q-26 -64 -82 -126.5t-133 -112t-180.5 -72t-208.5 -4.5q-48 9 -101 37 t-104 76t-88.5 107.5t-53.5 139t-1 162.5zM232.5 1349.5q13.5 44.5 48.5 78t81 42.5h3q19 -48 38 -79q86 -132 198.5 -216.5t234.5 -99.5q-1 0 0.5 -5t-2 -12.5t-9 -15.5t-19.5 -14t-34 -8q-122 -9 -255.5 30t-217.5 109q-48 41 -64 93.5t-2.5 97zM319 377q61 50 109 116.5 t74 129.5t38.5 119t6.5 92.5t-27 42.5q-30 8 -59 -22t-53.5 -90t-41.5 -112t-34 -118q-19 -77 -13 -158z" />
<glyph unicode="&#xe9;" horiz-adv-x="870" d="M-6 504q43 217 216 346t370 94q197 -37 236 -147q39 -109 -90 -249q-127 -136 -378 -259q-2 -1 -16 -6q42 -167 137 -183q70 -14 141 4.5t127 60t99 97t63 115.5h4q31 10 45.5 -10.5t-2.5 -69.5q-26 -64 -82 -126.5t-133 -112t-180.5 -72t-208.5 -4.5q-48 9 -101 37 t-104 76t-88.5 107.5t-53.5 139t-1 162.5zM166 1030q116 30 198 124t152 249q21 40 29 82h2q48 -1 98.5 -29.5t82 -72t35.5 -96t-42 -101.5q-71 -79 -213.5 -136t-267.5 -65q-34 -3 -52.5 8.5t-19.5 24.5zM319 377q61 50 109 116.5t74 129.5t38.5 119t6.5 92.5t-27 42.5 q-30 8 -59 -22t-53.5 -90t-41.5 -112t-34 -118q-19 -77 -13 -158z" />
<glyph unicode="&#xea;" horiz-adv-x="870" d="M-6 504q43 217 216 346t370 94q197 -37 236 -147q39 -109 -90 -249q-127 -136 -378 -259q-2 -1 -16 -6q42 -167 137 -183q70 -14 141 4.5t127 60t99 97t63 115.5h4q31 10 45.5 -10.5t-2.5 -69.5q-26 -64 -82 -126.5t-133 -112t-180.5 -72t-208.5 -4.5q-48 9 -101 37 t-104 76t-88.5 107.5t-53.5 139t-1 162.5zM164.5 1127.5q-0.5 36.5 7.5 70.5l2 2q25 -8 68 0q129 26 195 60q78 39 124 100q4 25 14.5 37.5t19.5 12.5l9 -1q11 -108 41 -152.5t88 -60.5q16 -4 31 -4t26 2l11 2q2 0 2 -2q8 -40 3.5 -80t-18 -69.5t-33.5 -51.5t-43.5 -25.5 t-47.5 9.5q-51 31 -78 106t-29 166q-47 -84 -112.5 -159.5t-125.5 -104.5q-32 -15 -61 -8.5t-47.5 29t-32 54t-14 68zM319 377q61 50 109 116.5t74 129.5t38.5 119t6.5 92.5t-27 42.5q-30 8 -59 -22t-53.5 -90t-41.5 -112t-34 -118q-19 -77 -13 -158z" />
<glyph unicode="&#xeb;" horiz-adv-x="870" d="M-6 504q43 217 216 346t370 94q197 -37 236 -147q39 -109 -90 -249q-127 -136 -378 -259q-2 -1 -16 -6q42 -167 137 -183q70 -14 141 4.5t127 60t99 97t63 115.5h4q31 10 45.5 -10.5t-2.5 -69.5q-26 -64 -82 -126.5t-133 -112t-180.5 -72t-208.5 -4.5q-48 9 -101 37 t-104 76t-88.5 107.5t-53.5 139t-1 162.5zM47 1233q20 91 103 133t178 10q47 -15 79 -44.5t45 -64.5t11.5 -73.5t-19.5 -73.5q-30 -59 -99.5 -90t-145.5 -16q-81 16 -123.5 83.5t-28.5 135.5zM319 377q61 50 109 116.5t74 129.5t38.5 119t6.5 92.5t-27 42.5q-30 8 -59 -22 t-53.5 -90t-41.5 -112t-34 -118q-19 -77 -13 -158zM500 1233q20 91 102.5 133t177.5 10q47 -15 79 -44.5t45.5 -64.5t12 -73.5t-19.5 -73.5q-30 -59 -100 -90t-146 -16q-81 16 -123 83.5t-28 135.5z" />
<glyph unicode="&#xec;" horiz-adv-x="518" d="M-4 326.5q-16 137.5 20 304.5q22 91 72 155.5t111 92.5t129 22.5t127 -47.5q-10 -16 -25.5 -45.5t-50.5 -121t-55 -183.5q-24 -109 -33.5 -195t-1.5 -144.5t37 -64.5q41 -12 93.5 39t93.5 123t71 150h2q31 10 46 -10.5t-1 -69.5q-32 -77 -78 -146t-101.5 -121 t-121.5 -75.5t-129 -7.5q-77 21 -133 114t-72 230.5zM40 1314.5q14 44.5 49 78.5t81 43h2q18 -46 39 -80q87 -133 198.5 -217t233.5 -99q0 -2 0.5 -5.5t-2 -12t-8 -15.5t-19.5 -13.5t-34 -8.5q-122 -9 -256 30t-218 109q-48 41 -64 93.5t-2 97z" />
<glyph unicode="&#xed;" horiz-adv-x="518" d="M-25 979q116 30 198.5 124.5t152.5 248.5q19 37 28 82h2q48 -1 98.5 -29.5t82 -72t35.5 -96t-42 -101.5q-71 -79 -213.5 -136t-267.5 -65q-34 -3 -52.5 8.5t-20.5 23.5zM-4 326.5q-16 137.5 20 304.5q22 91 72 155.5t111 92.5t129 22.5t127 -47.5q-10 -16 -25.5 -45.5 t-50.5 -121t-55 -183.5q-24 -109 -33.5 -195t-1.5 -144.5t37 -64.5q41 -12 93.5 39t93.5 123t71 150h2q31 10 46 -10.5t-1 -69.5q-32 -77 -78 -146t-101.5 -121t-121.5 -75.5t-129 -7.5q-77 21 -133 114t-72 230.5z" />
<glyph unicode="&#xee;" horiz-adv-x="518" d="M-9.5 1092.5q-0.5 36.5 7.5 70.5l2 2q25 -8 68 0q129 26 195 60q78 39 124 100q4 25 14.5 37.5t19.5 11.5h9q11 -108 41 -152.5t88 -60.5q16 -4 31 -4t26 2l11 2q2 0 2 -2q13 -66 -6 -127t-57 -87.5t-77 -2.5q-51 30 -77.5 105t-28.5 167q-47 -84 -112.5 -159.5 t-125.5 -104.5q-32 -15 -61 -8.5t-47.5 29t-32 54t-14 68zM-4 326.5q-16 137.5 20 304.5q22 91 72 155.5t111 92.5t129 22.5t127 -47.5q-10 -16 -25.5 -45.5t-50.5 -121t-55 -183.5q-24 -109 -33.5 -195t-1.5 -144.5t37 -64.5q41 -12 93.5 39t93.5 123t71 150h2 q31 10 46 -10.5t-1 -69.5q-32 -77 -78 -146t-101.5 -121t-121.5 -75.5t-129 -7.5q-77 21 -133 114t-72 230.5z" />
<glyph unicode="&#xef;" horiz-adv-x="518" d="M-129 1180q20 91 103 133t178 10q47 -15 79 -44.5t45 -64.5t11.5 -73.5t-19.5 -73.5q-30 -59 -99.5 -90t-145.5 -16q-81 16 -123.5 83.5t-28.5 135.5zM-4 326.5q-16 137.5 20 304.5q22 91 72 155.5t111 92.5t129 22.5t127 -47.5q-10 -16 -25.5 -45.5t-50.5 -121 t-55 -183.5q-24 -109 -33.5 -195t-1.5 -144.5t37 -64.5q41 -12 93.5 39t93.5 123t71 150h2q31 10 46 -10.5t-1 -69.5q-32 -77 -78 -146t-101.5 -121t-121.5 -75.5t-129 -7.5q-77 21 -133 114t-72 230.5zM324 1180q20 91 102.5 133t177.5 10q47 -15 79 -44.5t45.5 -64.5 t12 -73.5t-19.5 -73.5q-30 -59 -100 -90t-146 -16q-81 16 -123 83.5t-28 135.5z" />
<glyph unicode="&#xf0;" horiz-adv-x="1097" d="M18.5 310.5q-12.5 86.5 6.5 193.5q27 146 110 255t195 153t223 10q46 -13 76 -43q-8 65 -31 135q-105 17 -174 49q-31 15 -45 35t-12 32l2 13q73 -11 163 12q-72 119 -190 246q9 8 25.5 20.5t65 38t93.5 36.5t102 -2t101 -60q52 -58 86 -134q20 14 62 56q47 47 59 71 q2 0 4 -2q45 -20 77.5 -72t41.5 -111t-16 -116.5t-85 -85.5q-24 -12 -69 -22q25 -207 -12 -420q-19 -115 -58 -211t-89.5 -160.5t-108.5 -112t-118.5 -71.5t-116.5 -32.5t-107 -0.5q-65 11 -119 49.5t-91.5 101.5t-50 149.5zM316.5 190q6.5 -77 41.5 -86q30 -9 69.5 19 t77.5 83t70 146t46 197q16 122 16 205q-38 64 -98 67q-24 1 -45 -8.5t-37.5 -33t-29 -45.5t-25.5 -62t-20.5 -65t-19.5 -72q-24 -88 -38 -178t-7.5 -167z" />
<glyph unicode="&#xf1;" horiz-adv-x="1001" d="M2 115q-2 401 5 510q14 234 80 312q15 16 32 28q38 25 85.5 29.5t88.5 -7t77.5 -27.5t57 -29.5t21.5 -15.5q-41 -41 -80 -260q86 164 192.5 242.5t186.5 58.5q47 -13 76.5 -69t34.5 -156.5t-30 -243.5q-49 -205 -55 -256q-13 -103 29 -112q50 -11 119.5 68.5t107.5 189.5 h4q31 10 46 -10.5t-1 -69.5q-58 -149 -171.5 -242.5t-217.5 -79.5q-114 15 -176 146t-10 325q61 236 63 282q2 40 -20 44q-31 8 -75.5 -69.5t-137.5 -303.5q-20 -140 -53 -229.5t-74.5 -127t-92 -44.5t-106.5 18q-6 29 -6 99zM137 1159q70 77 168 106t197 -1 q95 -29 172.5 -1.5t124.5 89.5l12 16q44 -19 60.5 -76t6.5 -117.5t-49 -112t-96 -61.5q-49 -7 -96.5 10t-110 57t-77.5 48q-43 20 -75.5 29.5t-77.5 7t-89 -24.5q-25 -14 -40.5 -5.5t-22.5 19.5t-7 17z" />
<glyph unicode="&#xf2;" horiz-adv-x="942" d="M-10 473q26 196 177.5 328.5t350.5 140.5q30 37 57 49q40 23 86.5 17.5t89 -39t74.5 -95.5t43.5 -151.5t-4.5 -206.5q-5 -45 -22 -104q77 16 145 100t107 190h2q30 11 45.5 -10t-0.5 -67q-120 -301 -336 -312q-43 -98 -106 -173.5t-155 -123.5t-196 -43q-174 9 -280 148 t-78 352zM251 1368.5q14 44.5 49 78t81 42.5h2q18 -46 39 -80q86 -132 198 -216t234 -99q0 -2 0.5 -5.5t-2 -12.5t-8 -16t-19.5 -13.5t-34 -8.5q-122 -9 -256 30.5t-218 109.5q-48 41 -64 93.5t-2 97zM328 520q-41 -355 141 -364q65 -6 124 40t101 132q-58 17 -105 58 t-75.5 96t-43.5 118.5t-14 127t17 118.5q-57 -40 -96 -127t-49 -199zM608 559.5q5 -40.5 37 -79t86 -56.5q19 69 23 92q13 81 -4 132t-46.5 55t-56.5 -11q-23 -18 -33.5 -55t-5.5 -77.5z" />
<glyph unicode="&#xf3;" horiz-adv-x="942" d="M-10 473q26 196 177.5 328.5t350.5 140.5q30 37 57 49q40 23 86.5 17.5t89 -39t74.5 -95.5t43.5 -151.5t-4.5 -206.5q-5 -45 -22 -104q77 16 145 100t107 190h2q30 11 45.5 -10t-0.5 -67q-120 -301 -336 -312q-43 -98 -106 -173.5t-155 -123.5t-196 -43q-174 9 -280 148 t-78 352zM186 1049q61 16 112.5 49.5t94 84t76.5 107.5t68 131q19 37 28 82h2q48 -1 98.5 -29.5t82 -72t35.5 -96t-42 -101.5q-71 -78 -213.5 -135t-267.5 -65q-34 -3 -52.5 8.5t-19.5 23.5zM328 520q-41 -355 141 -364q65 -6 124 40t101 132q-58 17 -105 58t-75.5 96 t-43.5 118.5t-14 127t17 118.5q-57 -40 -96 -127t-49 -199zM608 559.5q5 -40.5 37 -79t86 -56.5q19 69 23 92q13 81 -4 132t-46.5 55t-56.5 -11q-23 -18 -33.5 -55t-5.5 -77.5z" />
<glyph unicode="&#xf4;" horiz-adv-x="942" d="M-10 473q26 196 177.5 328.5t350.5 140.5q30 37 57 49q40 23 86.5 17.5t89 -39t74.5 -95.5t43.5 -151.5t-4.5 -206.5q-5 -45 -22 -104q77 16 145 100t107 190h2q30 11 45.5 -10t-0.5 -67q-120 -301 -336 -312q-43 -98 -106 -173.5t-155 -123.5t-196 -43q-174 9 -280 148 t-78 352zM201.5 1178.5q-0.5 36.5 7.5 70.5l2 2q25 -8 68 0q129 26 195 60q78 39 124 100q4 25 14.5 37.5t19.5 11.5h9q11 -108 41 -152.5t88 -60.5q16 -4 31 -4t26 2l11 2q2 0 2 -2q13 -66 -6 -127t-57 -87.5t-77 -2.5q-51 30 -77.5 105t-28.5 167q-47 -84 -112.5 -159.5 t-125.5 -104.5q-32 -15 -61 -8.5t-47.5 29t-32 54t-14 68zM328 520q-41 -355 141 -364q65 -6 124 40t101 132q-58 17 -105 58t-75.5 96t-43.5 118.5t-14 127t17 118.5q-57 -40 -96 -127t-49 -199zM608 559.5q5 -40.5 37 -79t86 -56.5q19 69 23 92q13 81 -4 132t-46.5 55 t-56.5 -11q-23 -18 -33.5 -55t-5.5 -77.5z" />
<glyph unicode="&#xf5;" horiz-adv-x="942" d="M-10 473q26 196 177.5 328.5t350.5 140.5q30 37 57 49q40 23 86.5 17.5t89 -39t74.5 -95.5t43.5 -151.5t-4.5 -206.5q-5 -45 -22 -104q77 16 145 100t107 190h2q30 11 45.5 -10t-0.5 -67q-120 -301 -336 -312q-43 -98 -106 -173.5t-155 -123.5t-196 -43q-174 9 -280 148 t-78 352zM176 1178q70 77 168 105.5t197 -1.5q95 -29 172.5 -1.5t124.5 89.5l12 16q44 -19 60.5 -75.5t6.5 -117t-49 -112t-96 -61.5q-49 -7 -97 10t-110.5 57t-77.5 48q-43 20 -75.5 29.5t-77 7t-88.5 -24.5q-25 -14 -40.5 -5.5t-22.5 19.5t-7 17zM328 520 q-41 -355 141 -364q65 -6 124 40t101 132q-58 17 -105 58t-75.5 96t-43.5 118.5t-14 127t17 118.5q-57 -40 -96 -127t-49 -199zM608 559.5q5 -40.5 37 -79t86 -56.5q19 69 23 92q13 81 -4 132t-46.5 55t-56.5 -11q-23 -18 -33.5 -55t-5.5 -77.5z" />
<glyph unicode="&#xf6;" horiz-adv-x="942" d="M-10 473q26 196 177.5 328.5t350.5 140.5q30 37 57 49q40 23 86.5 17.5t89 -39t74.5 -95.5t43.5 -151.5t-4.5 -206.5q-5 -45 -22 -104q77 16 145 100t107 190h2q30 11 45.5 -10t-0.5 -67q-120 -301 -336 -312q-43 -98 -106 -173.5t-155 -123.5t-196 -43q-174 9 -280 148 t-78 352zM66 1268q20 91 102.5 133t177.5 10q47 -15 79 -44.5t45.5 -64.5t12 -73.5t-19.5 -73.5q-30 -59 -100 -90t-146 -16q-81 16 -123 83.5t-28 135.5zM328 520q-41 -355 141 -364q65 -6 124 40t101 132q-58 17 -105 58t-75.5 96t-43.5 118.5t-14 127t17 118.5 q-57 -40 -96 -127t-49 -199zM518 1268q20 91 103 133t178 10q47 -15 79 -44.5t45 -64.5t11.5 -73.5t-19.5 -73.5q-30 -59 -99.5 -90t-145.5 -16q-81 16 -123.5 83.5t-28.5 135.5zM608 559.5q5 -40.5 37 -79t86 -56.5q19 69 23 92q13 81 -4 132t-46.5 55t-56.5 -11 q-23 -18 -33.5 -55t-5.5 -77.5z" />
<glyph unicode="&#xf7;" horiz-adv-x="1073" d="M94.5 553.5q-2.5 13.5 0.5 23.5t18 17t41 4q130 -17 255 -17.5t243.5 14.5t203 31.5t197.5 43.5l88 22q2 -7 4 -18t7 -44t7 -63t-0.5 -67.5t-11.5 -65.5t-30 -49t-52 -25q-124 -19 -398 32t-563 134q-2 3 -4.5 8.5t-5 19zM313 176q20 91 103 133t178 10q47 -15 79 -44.5 t45.5 -64.5t12 -73.5t-19.5 -73.5q-31 -59 -101.5 -90t-144.5 -16q-81 16 -123.5 83.5t-28.5 135.5zM451 899q20 91 102.5 133t177.5 10q47 -15 79 -44.5t45.5 -64.5t12 -73.5t-19.5 -73.5q-31 -59 -101.5 -90t-144.5 -18q-81 18 -123 85.5t-28 135.5z" />
<glyph unicode="&#xf8;" horiz-adv-x="942" d="M-10 473q16 125 89 229.5t182.5 166.5t234.5 71q56 159 100 236q21 37 67 48.5t97 1.5t99 -25.5t79 -30.5l31 -15q-18 -29 -47 -78q-19 -30 -111 -178q88 -142 53 -383q-5 -45 -22 -104q77 16 145 100t107 190h2q30 11 45.5 -10t-0.5 -67q-120 -301 -336 -312 q-62 -140 -166.5 -234t-239.5 -104q-8 -35 -10 -55q-4 -26 -14.5 -38.5t-21.5 -11.5t-21.5 6t-17.5 12l-7 6q3 50 8 83q-161 21 -256.5 157t-68.5 339zM328 520q-22 -184 18 -276q51 348 121 598q-55 -41 -91.5 -126.5t-47.5 -195.5zM444 158q4 0 12.5 -1t12.5 -1 q65 -6 124 40t101 132q-85 22 -147 104q-54 -117 -103 -274zM608 557q8 -43 38.5 -79t84.5 -54q19 69 23 92q14 88 -6 137t-56 54q-44 -73 -84 -150z" />
<glyph unicode="&#xf9;" horiz-adv-x="950" d="M2.5 151q-49.5 144 3.5 353q36 138 47 236.5t5 127.5l-7 29q201 67 276.5 -31.5t10.5 -330.5q-5 -17 -14 -50q-28 -101 -39.5 -146t-22 -99.5t-4 -77t26.5 -27.5q21 -6 42.5 18.5t44 79t45 129t48.5 177.5q8 94 16 143q17 106 69.5 174.5t116 87.5t128.5 5t110 -60 q-10 -20 -25.5 -55.5t-50.5 -141t-53 -205.5q-16 -78 -25 -136t-12.5 -115t7 -88.5t34.5 -34.5q48 -4 103.5 72t97.5 192h2q31 10 46 -10.5t-1 -69.5q-68 -171 -173 -254t-204 -43q-75 30 -125 116t-63 232q-13 -43 -23.5 -75t-29.5 -80t-41 -81.5t-50 -65t-63.5 -45.5 t-75.5 -9q-128 15 -177.5 159zM204 1333.5q14 44.5 49 78t81 42.5h2q18 -46 39 -80q86 -132 198 -216t234 -99q-1 0 0.5 -5t-2 -12.5t-9 -15.5t-19.5 -14t-34 -8q-122 -9 -255.5 30t-217.5 109q-48 41 -64 93.5t-2 97z" />
<glyph unicode="&#xfa;" horiz-adv-x="950" d="M2.5 151q-49.5 144 3.5 353q36 138 47 236.5t5 127.5l-7 29q201 67 276.5 -31.5t10.5 -330.5q-5 -17 -14 -50q-28 -101 -39.5 -146t-22 -99.5t-4 -77t26.5 -27.5q21 -6 42.5 18.5t44 79t45 129t48.5 177.5q8 94 16 143q17 106 69.5 174.5t116 87.5t128.5 5t110 -60 q-10 -20 -25.5 -55.5t-50.5 -141t-53 -205.5q-16 -78 -25 -136t-12.5 -115t7 -88.5t34.5 -34.5q48 -4 103.5 72t97.5 192h2q31 10 46 -10.5t-1 -69.5q-68 -171 -173 -254t-204 -43q-75 30 -125 116t-63 232q-13 -43 -23.5 -75t-29.5 -80t-41 -81.5t-50 -65t-63.5 -45.5 t-75.5 -9q-128 15 -177.5 159zM223 1014q116 30 198 124t152 248q21 40 29 82h2q48 -1 98.5 -29.5t82 -72t35.5 -96t-42 -101.5q-71 -78 -213.5 -135t-267.5 -65q-34 -3 -52.5 8.5t-20.5 24.5z" />
<glyph unicode="&#xfb;" horiz-adv-x="950" d="M2.5 151q-49.5 144 3.5 353q36 138 47 236.5t5 127.5l-7 29q201 67 276.5 -31.5t10.5 -330.5q-5 -17 -14 -50q-28 -101 -39.5 -146t-22 -99.5t-4 -77t26.5 -27.5q21 -6 42.5 18.5t44 79t45 129t48.5 177.5q8 94 16 143q17 106 69.5 174.5t116 87.5t128.5 5t110 -60 q-10 -20 -25.5 -55.5t-50.5 -141t-53 -205.5q-16 -78 -25 -136t-12.5 -115t7 -88.5t34.5 -34.5q48 -4 103.5 72t97.5 192h2q31 10 46 -10.5t-1 -69.5q-68 -171 -173 -254t-204 -43q-75 30 -125 116t-63 232q-13 -43 -23.5 -75t-29.5 -80t-41 -81.5t-50 -65t-63.5 -45.5 t-75.5 -9q-128 15 -177.5 159zM172 1126q-8 45 6 88l2 3q25 -8 68 0q52 11 74.5 16.5t77 24t95.5 48t72 70.5q4 25 14.5 37.5t19.5 12.5l9 -1q11 -108 41 -152.5t88 -60.5q16 -4 31 -4t26 2l11 2q2 0 2 -2q8 -40 3.5 -80t-18 -69.5t-33.5 -51.5t-43.5 -25.5t-47.5 9.5 q-51 31 -78 106.5t-29 166.5q-48 -85 -112.5 -160.5t-124.5 -104.5q-40 -18 -74.5 -4t-53 49t-26.5 80z" />
<glyph unicode="&#xfc;" horiz-adv-x="950" d="M2.5 151q-49.5 144 3.5 353q36 138 47 236.5t5 127.5l-7 29q201 67 276.5 -31.5t10.5 -330.5q-5 -17 -14 -50q-28 -101 -39.5 -146t-22 -99.5t-4 -77t26.5 -27.5q21 -6 42.5 18.5t44 79t45 129t48.5 177.5q8 94 16 143q17 106 69.5 174.5t116 87.5t128.5 5t110 -60 q-10 -20 -25.5 -55.5t-50.5 -141t-53 -205.5q-16 -78 -25 -136t-12.5 -115t7 -88.5t34.5 -34.5q48 -4 103.5 72t97.5 192h2q31 10 46 -10.5t-1 -69.5q-68 -171 -173 -254t-204 -43q-75 30 -125 116t-63 232q-13 -43 -23.5 -75t-29.5 -80t-41 -81.5t-50 -65t-63.5 -45.5 t-75.5 -9q-128 15 -177.5 159zM70 1233q20 91 102.5 133t177.5 10q47 -15 79 -44.5t45.5 -64.5t12 -73.5t-19.5 -73.5q-30 -59 -100 -90t-146 -16q-81 16 -123 83.5t-28 135.5zM522 1233q20 91 103 133t178 10q47 -15 79 -44.5t45.5 -64.5t12 -73.5t-19.5 -73.5 q-30 -59 -100 -90t-146 -16q-81 16 -123.5 83.5t-28.5 135.5z" />
<glyph unicode="&#xfd;" horiz-adv-x="917" d="M-112 -499.5q-20 63.5 8 145.5q14 42 39 78.5t63.5 67t76.5 54t94 47.5t99 40t109 38q34 187 41 230q-92 -192 -236 -174q-125 15 -175 149t-1 328q36 138 47.5 236.5t5.5 127.5l-6 29q201 67 276.5 -31.5t10.5 -330.5q-64 -228 -70 -255q-20 -97 12 -109q2 -1 3 -1 q46 -12 90 66t90 251l29 195q13 86 49 147.5t83 89.5t99.5 35t101 -11t84.5 -54q-3 -3 -9 -10t-22.5 -37t-31.5 -70.5t-33.5 -116.5t-32.5 -168q-29 -211 -80 -393q180 99 244 283h4q31 10 46 -10.5t-1 -69.5q-46 -118 -125 -192t-202 -123q-85 -253 -202 -413t-249 -204 q-75 -26 -146 -16.5t-117 49t-66 103zM165 -536q9 -35 42 -25q37 11 71 102.5t78 315.5q-106 -76 -161 -219q-45 -116 -30 -174zM193 1030q116 30 198 124t152 249q19 37 28 82h2q48 -1 98.5 -29.5t82.5 -72t36 -96t-42 -101.5q-71 -78 -214 -135.5t-268 -65.5 q-34 -3 -52 8.5t-20 24.5z" />
<glyph unicode="&#xfe;" horiz-adv-x="942" d="M-279 -471q5 5 14.5 14t37 45t53 80.5t58.5 122t58 166t45.5 216.5t28.5 271v48q16 365 59.5 598.5t125.5 336.5q29 37 65.5 55t72.5 18t72.5 -9t67.5 -25.5t55 -31.5t38 -26l14 -11q-7 -7 -18 -23t-43 -77t-61 -137t-63.5 -209.5t-58.5 -288.5q16 53 33 92.5t44 81.5 t65.5 66t86.5 28q85 6 154 -48.5t101 -166t-3 -279.5l-6 -24q80 28 132 66t75 100h2q30 11 46.5 -11t0.5 -67q-61 -151 -299 -213q-70 -157 -186 -234.5t-205 -36.5q-56 27 -71.5 83.5t17.5 115.5t105 92q10 5 35 15l20 84q49 223 51 288q2 76 -34 86q-87 21 -189 -391 q-52 -689 -208 -891q-39 -50 -93.5 -65.5t-104.5 -1.5t-93.5 35.5t-69.5 41.5zM372.5 151q1.5 -13 9 -21.5t17.5 -10.5q16 -4 27 23t25 89q-5 -2 -29 -8q-19 -7 -31.5 -19.5t-16 -26t-2 -26.5z" />
<glyph unicode="&#xff;" horiz-adv-x="917" d="M-112 -499.5q-20 63.5 8 145.5q14 42 39 78.5t63.5 67t76.5 54t94 47.5t99 40t109 38q34 187 41 230q-92 -192 -236 -174q-125 15 -175 149t-1 328q36 138 47.5 236.5t5.5 127.5l-6 29q201 67 276.5 -31.5t10.5 -330.5q-64 -228 -70 -255q-20 -97 12 -109q2 -1 3 -1 q46 -12 90 66t90 251l29 195q13 86 49 147.5t83 89.5t99.5 35t101 -11t84.5 -54q-3 -3 -9 -10t-22.5 -37t-31.5 -70.5t-33.5 -116.5t-32.5 -168q-29 -211 -80 -393q180 99 244 283h4q31 10 46 -10.5t-1 -69.5q-46 -118 -125 -192t-202 -123q-85 -253 -202 -413t-249 -204 q-75 -26 -146 -16.5t-117 49t-66 103zM53 1233q20 91 103 133t178 10q47 -15 79 -44.5t45.5 -64.5t12 -73.5t-19.5 -73.5q-30 -59 -100 -90t-146 -16q-81 16 -123.5 83.5t-28.5 135.5zM165 -536q9 -35 42 -25q37 11 71 102.5t78 315.5q-106 -76 -161 -219q-45 -116 -30 -174 zM506 1233q20 91 102.5 133t177.5 10q47 -15 79 -44.5t45.5 -64.5t12 -73.5t-19.5 -73.5q-30 -59 -100 -90t-146 -16q-81 16 -123 83.5t-28 135.5z" />
<glyph unicode="&#x152;" horiz-adv-x="1976" d="M-6 762q19 142 73.5 270t128 220.5t162 164.5t175.5 113.5t169 56.5q66 66 164 111q155 62 258.5 -8.5t145.5 -241.5q109 141 294.5 205t348.5 10q89 -31 136.5 -100t49 -148.5t-36.5 -163.5t-110 -145q-35 -31 -70 -42.5t-63 -5t-53.5 21t-44 35t-32.5 39t-21 31.5 l-7 13q64 19 119.5 60.5t88 90.5t47 98.5t-0.5 89.5t-57 58q-51 18 -92 18.5t-76 -21.5t-61.5 -51.5t-47.5 -73t-35 -85.5t-24 -88q-6 -30 -24 -103.5t-25 -114t-5 -72.5q96 0 164 -23q55 -17 59 -75q5 -58 -43 -105q-50 -50 -128 -45q-93 7 -154 45q-64 -61 -106 -151.5 t-56 -194.5q-7 -69 -5.5 -130.5t20.5 -114t50.5 -90.5t84 -59.5t121.5 -21.5q89 0 189 43.5t182.5 122.5t115.5 172q2 0 4 2q29 12 46 -11t-1 -69q-70 -174 -257 -276.5t-404 -102.5q-136 0 -244.5 47.5t-175.5 132.5q-200 -219 -432 -202q-113 10 -214 72t-175.5 168.5 t-107 269t-7.5 354.5zM315 515q8 -123 48.5 -203.5t101 -120t141.5 -44.5q133 -6 252 97q-16 58 -16 94q-111 0 -224 78q-114 77 -161.5 237t-27 344t98.5 349q-144 -216 -196 -537q-25 -171 -17 -294zM551.5 782.5q1.5 -97.5 36 -182t100.5 -129.5q74 -52 154 -55l4 35 q23 135 107.5 254t207.5 196q16 112 19 184q-8 57 -2 129q-14 126 -74 182.5t-166 30.5q-86 -21 -160.5 -88t-124 -156.5t-76.5 -196t-25.5 -204z" />
<glyph unicode="&#x153;" horiz-adv-x="1470" d="M-10 473q18 135 107 246t210.5 168.5t243.5 52.5q10 10 22 16q32 18 68 20t71.5 -11t68 -44.5t53.5 -78.5q83 66 182 93t198 9q197 -37 237 -147q40 -109 -90 -249q-126 -136 -378 -259q-2 -2 -7.5 -4t-6.5 -2q42 -167 137 -183q68 -14 133.5 4.5t115.5 60.5t87.5 96.5 t58.5 115.5h2q31 10 46 -10.5t-1 -69.5q-27 -66 -77.5 -127t-121.5 -111.5t-168 -72.5t-202 -4q-66 13 -139.5 60t-126.5 118q-71 -94 -163.5 -145.5t-195.5 -41.5q-79 8 -150.5 46t-124.5 100.5t-78 155t-11 198.5zM328 520q-26 -162 12.5 -252t132.5 -96q104 -6 180 92 q-20 57 -24 92q-59 35 -100 96.5t-58 130t-14.5 140t26.5 129.5q-52 -37 -94.5 -126.5t-60.5 -205.5zM606.5 636q-5.5 -65 26.5 -126q20 106 84 207q-35 35 -72 10q-33 -26 -38.5 -91zM954 377q61 50 109 116.5t74 129.5t38.5 119t6.5 92.5t-27 42.5q-29 8 -58 -22.5 t-53.5 -88.5t-41.5 -113t-33 -118q-20 -83 -15 -158z" />
<glyph unicode="&#x178;" horiz-adv-x="1251" d="M21.5 -530q10.5 75 55 148t120.5 124q78 55 174 78t185.5 20t193.5 -8q11 62 55 352q-85 -239 -238 -229q-74 4 -134 51t-97 121t-56.5 162t-19.5 180q0 309 66.5 640.5t167.5 463.5q39 52 92.5 75.5t103 18t92.5 -24t69 -46.5t26 -54q-8 -13 -20.5 -38t-48.5 -118 t-67.5 -202t-67.5 -293t-57 -389q-10 -87 -13.5 -130.5t-5 -113t11 -105.5t38.5 -44q27 -8 55.5 23.5t56 100t51.5 149t52 191.5l27 187q45 296 122 517t146 318q37 52 89 68t100 2t90.5 -36t67.5 -43l26 -21q-7 -8 -20 -25t-50 -83.5t-72 -148.5t-80 -225.5t-79 -308.5 q-134 -654 -225 -952q190 10 335 86q2 -12 4 -31.5t3 -73.5t-4 -100.5t-24.5 -96t-51.5 -75.5q-35 -27 -95.5 -33t-122 2.5t-147.5 28.5q-100 -243 -230 -363t-311 -116q-85 2 -155.5 40t-113.5 96.5t-61.5 133.5t-8 150zM194 -713.5q13 -61.5 64.5 -103.5t130.5 -43 q114 0 185 104.5t124 331.5q-91 20 -156.5 27t-131 -3.5t-105.5 -45.5q-68 -59 -96 -132.5t-15 -135zM612 1972q20 91 103 133.5t178 10.5q47 -15 79 -44.5t45.5 -64.5t12 -73.5t-19.5 -73.5q-30 -59 -100 -90.5t-146 -16.5q-81 16 -123.5 83.5t-28.5 135.5zM1065 1972 q20 91 103 133.5t178 10.5q47 -15 79 -44.5t45 -64.5t11.5 -73.5t-19.5 -73.5q-30 -59 -99.5 -90.5t-145.5 -16.5q-81 16 -123.5 83.5t-28.5 135.5z" />
<glyph unicode="&#x2c6;" horiz-adv-x="575" d="M19.5 1127.5q-0.5 36.5 7.5 70.5l2 2q25 -8 67 0q128 26 194 59q80 40 126 101q4 25 14.5 37.5t19.5 12.5l9 -1q11 -108 41 -152.5t88 -60.5q16 -4 30.5 -4t25.5 2l11 2q2 0 2 -2q8 -40 3.5 -80t-18 -69.5t-33.5 -51.5t-43.5 -25.5t-47.5 9.5q-51 30 -77.5 105t-28.5 167 q-47 -84 -112.5 -159.5t-125.5 -104.5q-32 -15 -61 -8.5t-47.5 29t-32 54t-14 68z" />
<glyph unicode="&#x2dc;" horiz-adv-x="675" d="M16 1143q70 77 168 105.5t197 -1.5q95 -29 172.5 -1.5t124.5 89.5l12 17q44 -19 60.5 -76t6.5 -117.5t-49 -112t-96 -61.5q-49 -7 -96.5 10t-110 57t-77.5 48q-43 20 -75.5 29.5t-77.5 7t-89 -24.5q-25 -14 -40.5 -5.5t-22.5 19.5t-7 17z" />
<glyph unicode="&#x2000;" horiz-adv-x="1117" />
<glyph unicode="&#x2001;" horiz-adv-x="2234" />
<glyph unicode="&#x2002;" horiz-adv-x="1117" />
<glyph unicode="&#x2003;" horiz-adv-x="2234" />
<glyph unicode="&#x2004;" horiz-adv-x="744" />
<glyph unicode="&#x2005;" horiz-adv-x="558" />
<glyph unicode="&#x2006;" horiz-adv-x="372" />
<glyph unicode="&#x2007;" horiz-adv-x="372" />
<glyph unicode="&#x2008;" horiz-adv-x="279" />
<glyph unicode="&#x2009;" horiz-adv-x="446" />
<glyph unicode="&#x200a;" horiz-adv-x="124" />
<glyph unicode="&#x2010;" horiz-adv-x="774" d="M55 495q-5 24 1 35l7 11q115 -62 256 -58t281 64q70 29 82 41l4 -2q35 -38 46.5 -100.5t-1.5 -122.5t-63 -104t-127 -44q-118 0 -242.5 67.5t-214.5 163.5q-24 25 -29 49z" />
<glyph unicode="&#x2011;" horiz-adv-x="774" d="M55 495q-5 24 1 35l7 11q115 -62 256 -58t281 64q70 29 82 41l4 -2q35 -38 46.5 -100.5t-1.5 -122.5t-63 -104t-127 -44q-118 0 -242.5 67.5t-214.5 163.5q-24 25 -29 49z" />
<glyph unicode="&#x2012;" horiz-adv-x="774" d="M55 495q-5 24 1 35l7 11q115 -62 256 -58t281 64q70 29 82 41l4 -2q35 -38 46.5 -100.5t-1.5 -122.5t-63 -104t-127 -44q-118 0 -242.5 67.5t-214.5 163.5q-24 25 -29 49z" />
<glyph unicode="&#x2013;" horiz-adv-x="921" d="M55 495q-5 24 1 35l7 11q114 -62 334.5 -57.5t360.5 63.5q65 28 82 41l2 -2q34 -37 42 -98.5t-9 -120.5t-64 -103.5t-113 -48.5q-116 -5 -326 71t-288 160q-24 25 -29 49z" />
<glyph unicode="&#x2014;" horiz-adv-x="940" d="M20 495q-5 24 2 35l7 11q69 -41 244.5 -53.5t355.5 5t268 54.5q65 28 82 41l2 -2q34 -37 42 -98.5t-8.5 -120.5t-63.5 -103.5t-113 -48.5q-76 -3 -241.5 29.5t-331 90t-216.5 111.5q-24 25 -29 49z" />
<glyph unicode="&#x2018;" horiz-adv-x="290" d="M-4 1126q14 106 109 204.5t219 164.5q25 13 39.5 12t20.5 -9l5 -7q-41 -36 -66.5 -91t-33 -113t-6 -111t11.5 -97q9 -44 22 -63h-2q-43 -36 -102 -42.5t-108 11t-81.5 56t-27.5 85.5z" />
<glyph unicode="&#x2019;" horiz-adv-x="290" d="M16 950q42 36 68 90.5t34 113t6.5 111.5t-11.5 97q-11 49 -23 61q0 2 2 2q43 36 102 42.5t108.5 -11t82 -56t27.5 -85.5q-14 -106 -109 -204.5t-219 -164.5q-25 -13 -40 -12t-22 8z" />
<glyph unicode="&#x201a;" horiz-adv-x="290" d="M16 -94q42 36 68 90.5t34 112.5t6.5 111t-11.5 97q-11 50 -23 62q0 2 2 2q43 36 102 42.5t108.5 -11.5t82 -56.5t27.5 -85.5q-14 -106 -109 -204t-219 -164q-25 -13 -40 -12t-22 8z" />
<glyph unicode="&#x201c;" horiz-adv-x="587" d="M-49 1110q8 64 57 139t115 136.5t137 108.5t125 62q27 7 41 3t18 -11l5 -8q-99 -63 -157.5 -211.5t-39.5 -284.5q7 -48 18 -65l-2 -2q-44 -39 -103 -49t-108.5 6.5t-81 63t-24.5 112.5zM299 1130q14 106 109 204.5t219 164.5q25 12 39.5 10.5t19.5 -9.5l6 -7 q-41 -36 -66.5 -91t-33 -113t-6 -110.5t11.5 -95.5q9 -41 23 -63q-1 -2 -3 -2q-43 -35 -102 -41.5t-108 11.5t-81.5 56.5t-27.5 85.5z" />
<glyph unicode="&#x201d;" horiz-adv-x="587" d="M16 950q42 36 68 90.5t34 113t6.5 111.5t-11.5 97q-11 49 -23 61q0 2 2 2q43 36 102 42.5t108.5 -11t82 -56t27.5 -85.5q-14 -106 -109 -204.5t-219 -164.5q-25 -13 -40 -12t-22 8zM260 903q100 64 158.5 212.5t40.5 283.5q-5 39 -19 67l2 2q60 51 139 53t133.5 -49.5 t45.5 -138.5q-11 -84 -89.5 -183.5t-175 -170.5t-169.5 -92q-27 -6 -41.5 -2.5t-19.5 11.5z" />
<glyph unicode="&#x201e;" horiz-adv-x="587" d="M16 -94q42 36 68 90.5t34 112.5t6.5 111t-11.5 97q-11 50 -23 62q0 2 2 2q43 36 102 42.5t108.5 -11.5t82 -56.5t27.5 -85.5q-14 -106 -109 -204t-219 -164q-25 -13 -40 -12t-22 8zM260 -141q100 64 158 212t41 283q-5 40 -19 68l2 2q60 51 139 53t133.5 -49.5 t45.5 -138.5q-11 -84 -89.5 -183.5t-175 -171t-169.5 -92.5q-27 -6 -41.5 -2t-19.5 12z" />
<glyph unicode="&#x2022;" horiz-adv-x="389" d="M-1.5 547q-2.5 46 9.5 88q13 59 49.5 99t85.5 56.5t105.5 14t109.5 -24.5q75 -30 111 -83t32 -111.5t-40 -116.5q-49 -81 -129 -118t-178 -9q-55 16 -91 48.5t-49 71.5t-15.5 85z" />
<glyph unicode="&#x2026;" horiz-adv-x="1167" d="M-18 188q20 91 102.5 133.5t177.5 10.5q47 -15 79 -44.5t45.5 -64.5t12 -73.5t-19.5 -73.5q-30 -59 -100 -90.5t-146 -16.5q-81 16 -123 83.5t-28 135.5zM469 188q20 91 103 133.5t178 10.5q47 -15 79 -44.5t45 -64.5t11.5 -73.5t-19.5 -73.5q-30 -59 -99.5 -90.5 t-145.5 -16.5q-81 16 -123.5 83.5t-28.5 135.5zM956 188q20 91 103 133.5t178 10.5q47 -15 79 -44.5t45.5 -64.5t12 -73.5t-19.5 -73.5q-30 -59 -100 -90.5t-146 -16.5q-81 16 -123.5 83.5t-28.5 135.5z" />
<glyph unicode="&#x202f;" horiz-adv-x="446" />
<glyph unicode="&#x2039;" horiz-adv-x="382" d="M16 457q0 3 2 7.5t13 12.5t28 10q48 20 84.5 50t59.5 68t36 73t23 78q5 19 6.5 42t-0.5 25q2 0 4 2q41 8 89.5 -4.5t82 -39t49 -62.5t-9.5 -74q-35 -60 -124.5 -107.5t-194.5 -70.5q83 -32 149 -92.5t88 -122.5q16 -42 -12 -84.5t-87.5 -66.5t-125.5 -15l-2 2l1 16 q1 16 1 35t-2 35q-10 108 -21 145q-31 101 -137 138z" />
<glyph unicode="&#x203a;" horiz-adv-x="382" d="M36 196q-15 36 9 74q36 60 126 108t194 71q-83 31 -149.5 91.5t-88.5 123.5q-15 42 13 84t87.5 66t126.5 15v-2v-86q10 -108 21 -145q31 -100 137 -137q0 -3 -2 -8t-13 -13.5t-28 -9.5q-163 -68 -203 -268q-6 -29 -6 -68l-2 -2q-42 -8 -90 4.5t-82.5 39t-49.5 62.5z" />
<glyph unicode="&#x205f;" horiz-adv-x="558" />
<glyph unicode="&#x20ac;" horiz-adv-x="1214" d="M-0.5 575.5q-2.5 24.5 2.5 33.5l6 9q39 -32 111 -67q-2 32 2 96q-43 28 -66 53q-24 24 -29.5 48t0.5 36l7 11q41 -26 102 -35q2 16 10 47q23 108 61 206t85 177t103.5 149t117 120.5t125 93t127.5 66.5t124.5 40.5t116.5 14.5t103 -11q72 -18 125.5 -80.5t74 -147.5 t14 -176t-54.5 -177.5t-130 -141.5q-61 -41 -117.5 -58.5t-98.5 -12t-78.5 21.5t-60.5 40.5t-41.5 46.5t-25.5 38l-8 16q183 55 309 201q98 114 109 220q10 97 -64 126l-10 4q-142 43 -296.5 -158t-254.5 -587q-4 -10 -13 -47q100 23 191 61q41 16 82 41v-4q34 -36 42 -97.5 t-8.5 -120.5t-63.5 -103.5t-112 -47.5q-71 -3 -163 12q-3 -34 0 -67q175 -15 268 18l22 11l3 -2q17 -24 17.5 -74t-16 -101.5t-67.5 -87t-127 -28.5q-19 0 -43 6q61 -131 174 -152q130 -27 273.5 74t195.5 248q2 0 4 2q30 11 45.5 -10t-0.5 -70q-48 -120 -147.5 -213 t-232 -135.5t-263.5 -13.5q-92 21 -175 74t-153 151.5t-98 226.5q-88 74 -117 131q-16 31 -18.5 55.5z" />
<glyph unicode="&#x2122;" horiz-adv-x="649" d="M35 633v45h223v-45h-86v-221h-51v221h-86zM272 412l21 266h80l45 -131l16 -66h2l19 66l47 131h73l23 -266h-53l-10 155q0 29 -3 76h-4l-20 -80l-49 -147h-53l-50 151l-16 76h-4q0 -13 -1 -38t-1 -38l-10 -155h-52z" />
</font>
</defs>
</svg>
