<?xml version="1.0" standalone="no"?>
<!DOCTYPE svg PUBLIC "-//W3C//DTD SVG 1.1//EN" "http://www.w3.org/Graphics/SVG/1.1/DTD/svg11.dtd" >
<svg xmlns="http://www.w3.org/2000/svg">
<metadata></metadata>
<defs>
<font id="no._seven_ornamentsregular" horiz-adv-x="1705" >
<font-face units-per-em="2048" ascent="1536" descent="-512" />
<missing-glyph horiz-adv-x="651" />
<glyph horiz-adv-x="0" />
<glyph horiz-adv-x="682" />
<glyph unicode=" "  horiz-adv-x="651" />
<glyph unicode="&#x09;" horiz-adv-x="651" />
<glyph unicode="&#xa0;" horiz-adv-x="651" />
<glyph unicode="!" horiz-adv-x="2459" d="M20 451v376q0 13 2 15.5t11 -2.5q10 -5 44 -8t79 4.5t69 27.5q39 31 64 48.5t68 36t81 18.5q53 0 82 -15t29 -43q0 -18 -15.5 -29.5t-37.5 -11.5q-13 0 -55 10.5t-64 10.5q-31 0 -42 -15.5t-11 -46.5v-290q0 -2 1 -10.5t1 -13.5t-2 -5q-63 -56 -115.5 -85.5t-106.5 -29.5 q-56 0 -73 17q-9 9 -9 41zM20 868q0 12 18.5 24.5t39.5 12.5h8q65 0 94 8q10 3 25.5 11.5t15.5 1.5v-45q0 -7 -13.5 -15t-42.5 -15t-63 -7q-82 0 -82 24zM86 918v53q4 0 8 -4q9 -9 21 -9q5 0 12.5 2.5t19.5 7t21 7.5q24 8 33 8q20 0 20 -20q0 -19 -23.5 -32t-62.5 -13h-49z M336 238q0 24 0.5 59.5t1 69t1 63.5t1 49.5t0.5 20.5l-4 321q6 -22 70 -22q29 0 68.5 14t118.5 47t148 58q193 65 488 65q290 0 491 -65q69 -25 148 -58t118 -47t66 -14q54 0 70 24v-585q0 -58 -62 -58q-64 0 -168 49q-14 7 -20 13q-74 35 -128 58t-141.5 53.5t-182 47 t-191.5 17.5q-97 -1 -192 -18t-180.5 -46.5t-141.5 -53.5t-125 -58q-16 -8 -21 -13q-104 -49 -172 -49q-61 0 -61 58zM336 852q0 9 9.5 15t30.5 7.5t54 -6.5q69 -12 94 -4q5 2 9.5 6t7.5 7t5 7l3 3v-31q0 -4 -4 -8q-20 -6 -49.5 -17.5t-49 -15.5t-49.5 -4t-45.5 13t-15.5 28 zM1909 856v33q12 -17 28 -25q26 -9 91 4q33 8 54 6.5t30.5 -7.5t9.5 -15q0 -15 -15.5 -28t-46.5 -13q-28 0 -46.5 4.5t-48 15t-52.5 17.5q-4 4 -4 8zM1913 909q0 28 28 43t78 15q40 0 83.5 -19t65 -34.5t64.5 -49.5q26 -20 71.5 -27.5t79.5 -4.5t42 8q10 4 11 3.5t1 -8.5v-4 v-4v-376q0 -33 -8 -41q-17 -17 -70 -17q-56 0 -106 28.5t-115 86.5q-4 0 -4 29v290q0 31 -10 46.5t-39 15.5q-24 0 -66 -10.5t-57 -10.5q-22 0 -35.5 11t-13.5 30zM2236 881v45q0 3 2 4t6 -1t8.5 -4.5t12.5 -6t16 -5.5q25 -8 91 -8h12q18 0 35.5 -12.5t17.5 -24.5 q0 -8 -3.5 -12t-23 -8t-55.5 -4q-34 0 -63 7t-42.5 15t-13.5 15zM2236 963q0 20 25 20q9 0 33 -8q42 -17 49 -17q11 0 20 9l9 4v-53h-50q-39 0 -62.5 13t-23.5 32z" />
<glyph unicode="&#x22;" horiz-adv-x="4585" d="M22 627.5q-1 76.5 25 150t69 133t118 96.5t169 37h3875q128 0 152 44q16 28 -22 54q-11 8 -27 13q-2 2 1 9t10.5 11.5t16.5 0.5q38 -12 69 -44.5t49.5 -78.5t29 -101.5t5.5 -114t-18.5 -116t-45 -108.5t-74 -90t-104.5 -62t-136 -23h-3879q-127 0 -149 -44 q-15 -29 23 -54l24 -12q8 -4 -3 -16q-9 -12 -22 -9q-50 16 -87 65.5t-52.5 116t-16.5 143z" />
<glyph unicode="#" horiz-adv-x="1167" d="M20 563q0 21 11 33t67 49q33 22 109 38.5t136 22.5l60 5q37 25 64 37l86 45q-21 2 -66 -2q-36 -3 -53.5 -8.5t-75.5 -32.5q-108 -48 -133 -33q-12 9 -17 52t5 62q13 28 152 72q23 9 107.5 57.5t86.5 53.5q-2 9 -55 10q-9 0 -59 -28.5t-64 -22.5q-16 6 -17 57.5t3 59.5 q3 10 40.5 29.5t77.5 31.5q31 8 121.5 71t93.5 64q59 21 62 0q0 -6 -5 -6t-13 2.5t-17 -0.5q-10 -3 -21.5 -38.5t-17.5 -39.5q-16 -8 6 -9q12 -1 31 1q8 1 20 3.5t17.5 3t12 1t10.5 -1.5t6 -6q4 -6 2 -7q-1 0 -4 1q-8 2 -13 2q-11 -1 -54.5 -25t-53.5 -32q-5 -5 4.5 -8 t34.5 -7q12 -3 58.5 16t61.5 19q26 0 34.5 -10.5t8.5 -46.5v-16v-16v-15v-14.5t-0.5 -12.5t-1.5 -11.5t-2 -8.5t-2.5 -7t-3.5 -4q-5 -4 -28 -5t-44 0l-20 1q-93 -51 -113 -61q-9 -4 -17.5 -10t-12.5 -10l-4 -3q63 -8 92 -18q81 39 155 39q33 0 51.5 -13.5t18.5 -38.5 q0 -7 0.5 -22.5t0.5 -26.5t-0.5 -24t-3 -21t-7.5 -10q-17 -12 -74 -12l-72 6q-100 -45 -108 -47l-15 -8q64 -7 93 -15q160 51 256 51q33 0 48 -0.5t39 -3.5t35.5 -11t12.5 -21q6 -103 -4 -111q-5 -3 -30 -9.5t-65 -14t-73 -9.5q-32 -1 -79.5 0t-79.5 3l-32 1 q-71 -24 -118 -53q78 -6 96 -14q45 22 119 22q18 0 30.5 -3.5t19 -6.5t10 -12t4 -11.5t-0.5 -14.5v-13q0 -5 0.5 -17.5t0.5 -22.5t-0.5 -21.5t-3 -19.5t-7.5 -11q-7 -4 -42 -5.5t-66 -1.5l-31 1q-109 -64 -136 -80l-28 -17q55 -2 69 -12q1 0 3 1t7.5 3l11 4t13.5 4t14.5 3 t13.5 1.5t12.5 -0.5t9.5 -4t5 -8q7 -27 9 -68.5t-9 -50.5q-12 -6 -112 -6q-6 0 -38.5 -22.5t-77 -52.5t-71.5 -42q-66 -30 -84 -18q-3 3 -2 6q2 4 26.5 6t35.5 13q10 11 19 26t13.5 26.5t0.5 12.5q-3 1 -21.5 -5.5t-42 -13.5t-35.5 -8q-19 -1 -22 15q-2 13 10 13q3 0 6 -1 q9 -2 13 -3t11.5 3t11.5 7t12.5 10t15.5 12q58 40 59 41l-13 2q-13 2 -29 4t-23 2q-23 0 -64 -23q-19 -14 -47 -27t-41 -12q-15 0 -21.5 14t-9.5 48q-3 30 2.5 44.5t26.5 33.5q11 9 40 18t52 14l23 5q25 16 45 30l137 80l-96 8q-201 -106 -230 -108q-19 -3 -26.5 11.5 t-10.5 55.5q-5 68 4 82q7 20 72 52q25 11 51.5 17t39.5 7h14q26 23 67 43l74 41q-39 -4 -72 -4q-119 0 -176 -41q-55 -40 -138.5 -78.5t-115.5 -27.5q-29 10 -29 112zM45 463q4 -5 17 -5.5t39 8t55 23.5l133 68q29 15 36 24q1 2 -1 1h-2q-171 -39 -224 -66q-57 -32 -53 -53z M233 733q-4 -8 9 -9q12 -2 32 3q35 8 77 29l44 22q54 17 51 19q-44 0 -110 -17q-94 -23 -103 -47zM252 313q1 -6 7.5 -7t20.5 3.5t24.5 8.5t33.5 14q131 64 131 65q-3 1 -9.5 2t-36 -4.5t-73.5 -17.5q-54 -12 -77.5 -30t-20.5 -34zM293 125q-1 -2 2.5 -4t9.5 -3t14 1 q9 4 44.5 24t37.5 21q6 2 2 2l-49 -10q-17 -5 -39 -16t-22 -15zM383 987q-4 -7 6 -6q10 0 29 10q49 22 53 29q1 1 -3 1.5t-14.5 -0.5t-23.5 -5q-44 -15 -47 -29zM392 78q3 -7 38 2l6 2q68 21 80 16q3 -4 2 -6t-8 -10.5t-10 -15.5q-22 -39 -27 -41l16 4q34 13 64 34 q14 10 39.5 28t40.5 28.5t18 11.5q6 4 -7 8q-12 3 -42 6q-23 3 -41 7t-26 6.5t-11 1.5q-4 -1 -20 -13t-35 -27t-23 -18q-38 -22 -49 -22zM424 918l16 -1q4 1 11 1q44 3 65 2q17 -1 39.5 -3t38 -4t16.5 -2q2 0 32 18t62.5 38t38.5 22q9 4 10 5q0 1 -22 3h-1h-1q-12 1 -57 12 t-58 11q-27 0 -47 -10zM431.5 289.5q-1.5 -2.5 0.5 -3.5t6 -1q55 0 92 2q22 0 52.5 -7t35.5 -6q9 2 50 29l104 64q4 4 -53 10q-18 1 -57 8.5t-44 7.5t-10.5 -2t-10 -4.5t-16 -8.5t-22.5 -11q-19 -10 -68 -40t-53 -32q-5 -3 -6.5 -5.5zM442 528q-3 -2 8 -3q11 0 49 2l52 1 q18 0 44 -2t42 -3.5t18 -0.5q4 3 51 25t52 24q3 1 -7 3q-4 1 -69 12q-75 16 -107 16q-2 0 -13.5 -7t-26.5 -16t-23 -12q-45 -18 -70 -39zM449 723h104q14 0 36 -2.5t38 -5t18 -2.5q4 0 53 24q64 28 58 31q-4 0 -35 3.5t-49 4.5q-19 1 -54 9t-38 8q-8 0 -68 -31 q-47 -20 -63 -37q-2 -2 0 -2zM508 1151q-12 -4 15 -7q18 -1 46 -1q14 -1 35 -3.5t35.5 -4.5t15.5 -2q13 13 41 30q11 7 39 19q21 10 21 12q-2 1 -10.5 0t-22 -2t-25.5 0q-22 0 -26 4t6 16q7 6 15 22t11.5 30t0.5 14t-9.5 -4.5t-25 -17t-35.5 -23.5zM715 254q1 0 14.5 -2 t20.5 -2q28 3 27 11.5t-19 6.5q-24 -1 -43 -14zM733 888q-1 -2 2 -3t10 -2q113 -9 115 -9q70 0 70 21q-3 11 -24.5 18t-49.5 7q-32 0 -113 -27q-9 -3 -10 -5zM733 1115q0 -2 4 -3q36 -6 60 -6q42 -3 61 16q4 5 3.5 11t-9 11t-23.5 5q-17 0 -48.5 -13.5t-32.5 -13.5 q-15 -3 -15 -7zM778 690q59 -7 185 -4q53 1 105.5 11.5t57.5 19.5q3 10 -37.5 17t-89.5 7q-40 0 -116 -17.5t-101 -25.5q-15 -5 -4 -8zM782 502q39 -13 72 -15q15 -1 26.5 -1t24 0.5t19.5 3.5t6 8q0 20 -66 20q-16 0 -36.5 -4t-33.5 -8z" />
<glyph unicode="$" horiz-adv-x="6363" d="M28 449.5q-16 65.5 2.5 145.5t73.5 155q66 89 176.5 153t261.5 94t324 22t377 -68t406 -169q1063 -578 1331 -32q71 148 78 323q0 5 13 15q14 7 15 -11q0 -180 -90 -344q-102 -192 -301 -261.5t-498 -2.5t-667 276q-200 113 -419.5 168.5t-407.5 49t-341.5 -65.5 t-232.5 -164q-55 -75 -69.5 -160t7.5 -153.5t73.5 -118t119.5 -59.5q-44 56 -63 121t-3 144t74 152q71 87 205 131.5t310.5 41.5t403 -70.5t462.5 -196.5q199 -108 380.5 -172t349.5 -81t305 18.5t244.5 136t170.5 262.5q41 115 41 217l2.5 2.5t5 5.5t6.5 6t6.5 2.5 t5.5 -3.5t2 -13q0 -110 -45 -225q-82 -202 -237.5 -318.5t-362 -140.5t-461.5 44t-532 226q-249 141 -503 205t-449.5 39.5t-284.5 -133.5q-50 -64 -65 -137t3.5 -136.5t56.5 -115t96.5 -79.5t121.5 -23q65 5 115.5 31.5t79 64t42.5 82.5t11 86.5t-20.5 76.5t-47.5 52 l-12 16q0 16 24 4q43 -24 64.5 -75t13.5 -110.5t-37.5 -115.5t-93 -95.5t-147.5 -45.5q-56 -3 -113 22.5t-102 71.5q-57 1 -111 30.5t-91 83t-53 119zM1685 1260.5q4 101.5 38.5 190t99 160.5t149.5 109q10 3 22 3t10 -7t-24 -16q-63 -28 -116 -85.5t-87 -132t-38.5 -163.5 t20.5 -176t98.5 -173t188.5 -151q146 -83 278 -122.5t234.5 -36t184.5 40t134.5 102.5t77.5 155q35 118 -2.5 222.5t-124.5 162.5q-21 12 4 14q17 2 25 -1q85 -59 121.5 -163.5t1.5 -238.5q-26 -98 -85 -174.5t-150.5 -124t-205 -59t-258.5 24t-301 120.5 q-104 56 -173.5 142.5t-97.5 181t-24 196zM2413.5 748q-14.5 31 1.5 59q19 31 58.5 41.5t76.5 -4.5q37 -12 52.5 -43.5t-3.5 -59.5q-19 -27 -58.5 -37.5t-76.5 1.5q-36 12 -50.5 43zM2654.5 754q-7.5 16 1.5 28q9 15 30 21t40 0t26 -22t-2 -31q-21 -34 -69 -21 q-19 9 -26.5 25zM2740.5 1270q-7.5 16 1.5 28q9 15 28.5 21t41.5 0q19 -6 26 -22t-2 -31t-29.5 -21t-39.5 0q-19 9 -26.5 25zM2762 837q-8 16 1 31t29.5 21t39.5 0q21 -6 28 -22t-3 -31q-6 -15 -26.5 -21t-39.5 0q-21 6 -29 22zM2814.5 1181q-7.5 16 1.5 31q9 12 30 17.5 t40 -0.5t26 -22t-2 -31t-29.5 -20.5t-39.5 3.5q-19 6 -26.5 22zM2826.5 952q-7.5 16 1.5 31q9 12 28.5 17t41.5 -1q19 -6 26 -22t-2 -31t-29.5 -20t-39.5 4q-19 6 -26.5 22zM2843 1066.5q-7 16.5 2 31.5t29.5 20t39.5 -4q19 -6 26.5 -22t-1.5 -31q-9 -12 -30 -17.5t-40 0.5 t-26 22.5zM2897 1375.5q5 10.5 17 13.5q13 3 25.5 -0.5t15.5 -12.5q12 -17 -12 -33q-12 -3 -25.5 0.5t-19.5 12.5t-1 19.5zM2943 1298q-12 17 12 33q32 8 45 -12q6 -9 1 -19.5t-17 -13.5q-28 -7 -41 12zM2987 1252.5q5 10.5 17 13.5q28 7 41 -13q12 -18 -16 -32 q-10 -3 -22.5 0t-18.5 12t-1 19.5zM3010.5 1340q-27.5 59 6.5 114q33 55 109 75t149 -5q71 -25 99 -83t-5 -114q-33 -57 -110.5 -78.5t-147.5 4.5q-73 28 -100.5 87zM3039 1144.5q-10 21.5 2 43.5q12 21 40.5 29.5t53.5 -0.5q27 -9 38 -32t-1 -42q-12 -21 -41 -29.5t-57 0.5 q-25 9 -35 30.5zM3117 1021.5q-10 21.5 2 43.5q12 21 39.5 28t54.5 -3q27 -9 36.5 -30.5t-3.5 -43.5q-12 -19 -39 -26.5t-55 1.5q-25 9 -35 30.5zM3193 934q0 16 7.5 22t14.5 4l7 -2q7 -138 45 -229q61 -162 168 -262.5t243.5 -136t304 -18.5t349 81.5t380.5 171.5 q237 129 464.5 196.5t404 70.5t309.5 -41.5t203 -131.5q58 -73 74.5 -151.5t-2 -143.5t-62.5 -120q68 10 119 59t73 117.5t7.5 153t-70.5 159.5q-62 84 -172.5 140t-254 76t-303.5 8t-335.5 -66.5t-335.5 -145.5q-368 -209 -667 -276t-498 2.5t-301 261.5q-84 152 -90 332 q0 15 7 20.5t14 4t7 -4.5q8 -192 82 -335q262 -547 1327 32q202 109 406 169t377 68t324 -22t261.5 -94t176.5 -153q47 -63 68.5 -130t17 -124.5t-27 -109.5t-58.5 -88.5t-82 -58.5t-94 -22q-46 -46 -104 -71.5t-114 -22.5q-71 5 -127 34t-88 71t-48.5 92.5t-13 97.5t24 87 t56.5 60q9 6 16.5 4t7.5 -8l-12 -16q-47 -26 -62.5 -88t2.5 -127t81.5 -118t158.5 -60q62 -5 120 23t96 79.5t56.5 115t3 136.5t-66.5 137q-87 109 -282.5 133.5t-450.5 -39.5t-504 -205q-277 -158 -532 -226t-461.5 -44t-362 140.5t-237.5 318.5q-39 99 -45 213z M3201.5 1144.5q-9.5 21.5 3.5 43.5q12 22 39 30t55 -1q25 -9 35 -32t-2 -42q-12 -22 -39 -30t-55 1q-27 9 -36.5 30.5zM3327 1252.5q5 10.5 17 13.5q28 7 41 -13q12 -18 -16 -32q-10 -3 -22.5 0t-18.5 12t-1 19.5zM3377 1298q-12 18 17 33q10 3 22 0t18 -12t1 -19.5 t-17 -13.5q-28 -7 -41 12zM3394 954q-38 141 0.5 245.5t130.5 160.5q8 4 19 -5q8 -7 1 -12q-89 -57 -126.5 -161t-4.5 -224q33 -113 109 -186t189.5 -100.5t272.5 8.5t342 139q114 65 187 151t98 173t20.5 176t-38 163.5t-86 132t-115.5 85.5q-29 11 -27 18q1 8 24 4 q4 -1 7 -2q86 -37 151 -109t99.5 -160.5t38 -190t-24.5 -196t-98 -181t-174 -142.5q-155 -85 -299.5 -120.5t-257.5 -23.5t-204.5 58.5t-150 123.5t-83.5 175zM3429 1375.5q5 10.5 14 13.5q12 3 25.5 -0.5t19.5 -12.5q12 -18 -17 -33q-13 -3 -25.5 0.5t-15.5 12.5 q-6 9 -1 19.5zM3429.5 1092q8.5 16 29.5 22q19 9 38 4t28 -20q10 -15 3 -31.5t-28 -22.5q-19 -6 -40 -0.5t-30 17.5q-9 15 -0.5 31zM3447.5 977q6.5 16 27.5 22q19 6 40 1t30 -17q9 -15 2 -31t-26 -22q-22 -9 -41.5 -4t-28.5 20q-10 15 -3.5 31zM3457.5 1207q7.5 16 26.5 22 q22 6 41 0.5t28 -17.5q10 -15 3.5 -31t-27.5 -22q-19 -9 -40 -3.5t-30 20.5t-1.5 31zM3510.5 867q7.5 16 26.5 22t40 0t30 -21t1.5 -31t-26.5 -22t-40 0t-30 21t-1.5 31zM3533.5 1297q6.5 16 27.5 22q19 6 40 0t30 -21q9 -12 0.5 -28t-29.5 -25q-19 -6 -37.5 0t-27.5 21 q-10 15 -3.5 31zM3617 781q7 16 26 22q22 6 41.5 0t28.5 -21q9 -12 1.5 -28t-26.5 -25q-19 -6 -39.5 0t-29.5 21t-2 31zM3763 738q-15 30 3 61q19 28 58.5 38.5t76.5 -1.5q36 -12 51 -43.5t-1 -59.5q-19 -31 -59 -41.5t-77 4.5q-37 12 -52 42z" />
<glyph unicode="%" horiz-adv-x="520" d="M24 1039l11 28q139 255 284 207q45 -16 73.5 -41.5t46.5 -70.5t10 -119t-43 -175q-29 -85 -78 -231.5t-90 -265.5q-26 -73 -40 -119t-21.5 -85t-3 -61t17.5 -37t38 -24q104 -33 222 191q20 41 38 38q17 -2 7 -35q-4 -12 -11 -26q-139 -255 -284 -205q-44 15 -72.5 40.5 t-46 70.5t-10 119.5t42.5 175.5q14 40 69.5 203t100.5 292q25 73 38.5 119t21 84.5t3 61t-17.5 37.5t-37 24q-106 36 -221 -191q-22 -40 -41 -38q-16 1 -7 33z" />
<glyph unicode="&#x26;" horiz-adv-x="1990" d="M22 487q-1 76 25 149t69 132.5t118 96t169 36.5h1184q94 0 169 -36.5t118 -96t69 -132.5t25 -149t-16.5 -142.5t-52.5 -115.5t-87 -65q-18 -7 -25 10q-4 8 1 10q45 17 50 48q6 36 -51 54q-40 13 -101 13h-1381q-125 0 -149 -46q-15 -30 22 -56q11 -8 25 -13q7 -3 -1 -14 q-10 -12 -24 -6q-50 16 -87 65t-52.5 115.5t-16.5 142.5z" />
<glyph unicode="'" horiz-adv-x="1005" d="M31 627q-29 20 21 29l26 3h311q97 291 105 320q6 27 24 2q10 -13 19 -37q19 -48 94 -285q299 0 336 3q43 0 -15 -52l-2 -2q-25 -21 -124 -92.5t-124 -87.5q0 -1 24.5 -76.5t51 -156.5t31.5 -93q8 -22 -10 -20q-16 2 -45 20q-18 12 -79.5 56.5t-116 84.5t-58.5 42 q-19 -15 -139 -102t-130 -95q-24 -17 -22 17q1 14 6 36q12 53 92 287q-2 2 -72.5 53.5t-132 95.5t-71.5 50zM51 639l268 -190l162 49l-415 145zM233 121l265 196l2 170l-267 -350v-16zM408 641l96 -139l10 440l-10 12zM508 494l250 -363l14 -4l-106 311zM514 504l422 127 l8 12l-330 -4z" />
<glyph unicode="(" horiz-adv-x="2027" d="M21 788.5q-1 20.5 17.5 39.5t59.5 30q527 141 865 141q101 0 206.5 -13t183 -31.5t140.5 -37.5t96 -32l33 -13q19 61 112 89t273 30v-827q-74 2 -303 2q-31 0 -53 16.5t-31.5 42t-13.5 47.5t-4 43q-164 -55 -234 -55q-30 0 -64.5 3t-53.5 6l-19 3q0 -47 -49.5 -82.5 t-87.5 -35.5q-19 0 -35.5 6t-23.5 12l-7 6q-57 -20 -102 -20q-21 0 -42 10t-32 20l-10 11q-133 -47 -205 -47q-48 0 -70 34.5t-22 67.5q0 7 5 16.5t11.5 18t15.5 18t16 16t13.5 12.5t7.5 7q-86 43 -86 129q0 42 35.5 105t70.5 105l36 42q-19 0 -42 5.5t-36 11.5l-14 5 q-56 -28 -97 -28l-127 6q-94 -31 -157 -31q-128 0 -160 53q-15 23 -16 43.5zM49 798q0 -25 30 -46q32 -23 85 -23t97.5 19t70 38t33.5 19q10 0 37 -16.5t59 -16.5q26 0 50.5 14t43 27.5t27.5 13.5q7 0 31.5 -10.5t75 -21.5t122.5 -11q71 0 124 13t77 26t28 13q12 0 9 -23 q-4 -35 -38 -49q-6 -3 -12 -4l-149 -35q0 -22 24 -46.5t46 -37.5q9 -5 26 -25.5t30 -38.5l13 -18l31 21q-14 43 -14 84q0 45 14 42q3 -1 6 -4t5 -24.5t7 -40.5t15 -19q7 0 92 52.5t121 52.5q26 0 25.5 -12.5t-25.5 -12.5q-26 0 -103.5 -44.5t-118.5 -88.5t-120.5 -91 t-147.5 -73q-37 -13 -74.5 -32.5t-59 -34.5t-21.5 -19q3 -4 16 -1t35.5 1t34.5 -14q17 -20 16.5 -49t-12.5 -43q-7 -9 9 -10q48 -3 141 53q13 7 26 16q34 22 79 35.5t101.5 17.5t98 4.5t108 -1.5t94.5 -2q50 0 93 8t86.5 31t74 59.5t49.5 97t19 139.5q0 72 -118 146.5 t-288 121t-319 46.5q-136 0 -320 -28t-303.5 -56t-128.5 -37l-15 -20q-14 -19 -29.5 -29t-35.5 -10h-14.5h-13h-11h-10t-8.5 0.5t-8 1.5l-6 2t-5 2.5t-4 3.5q-4 5 -4 -3zM72 821q0 -8 65 -8q10 0 18.5 9.5t11.5 18.5l3 9q-18 0 -58 -11.5t-40 -17.5zM549 469q0 -21 21.5 -47 t43.5 -42l21 -15q144 72 201 86q-29 37 -54 49q-6 4 0.5 11.5t21 18t30 23.5t27 30.5t11.5 34.5q-69 64 -69 101q-70 -8 -101 2q-17 -23 -42.5 -58t-68 -103.5t-42.5 -90.5zM582 240q3 -27 36 -40t50 -3q28 20 28 61q0 17 -15.5 27t-31.5 10q-32 0 -51 -13t-16 -42zM834 516 l55 -33l41 21q-2 2 -6 5.5t-11.5 10.5t-11 13t-0.5 8q4 3 9 10.5t8 13.5l4 6l-19 27q-2 -16 -19 -36.5t-34 -33.5zM883 219q10 -20 63 -20q39 0 93.5 32.5t54.5 51.5q-18 -2 -46 -7t-85 -21.5t-80 -35.5zM1067 199q7 -2 17.5 -3t35.5 5.5t41 25.5l39 47q-45 7 -57 7 q-39 -47 -76 -82zM1688 887q1 -2 8 -20t14 -40.5t15 -53t13 -70t5 -80.5q0 -65 -12.5 -167t-25.5 -172l-13 -69l84 8q16 238 16 400q0 71 -14 144t-28 111l-15 37q-1 0 -3 -0.5t-7.5 -1.5t-10 -2.5t-10.5 -4t-9.5 -5t-5.5 -6.5t-1 -8z" />
<glyph unicode=")" horiz-adv-x="1441" d="M20 301q0 48 38 86.5t96 38.5q102 0 102 -72q0 -29 -28 -51t-56 -22q-19 0 -32 -26q-17 -36 14 -57q21 -14 65 -14q89 0 157 75t68 140v4q-188 52 -188 209q0 117 60 192.5t122 88.5q44 8 70 -25q22 -27 6 -46q-7 -6 -18 -9q-1 0 -17.5 -4.5t-22.5 -6t-23 -7.5 t-25.5 -10.5t-24 -14t-23.5 -19t-19.5 -23.5t-17 -29.5t-10 -36.5t-4.5 -44q70 -5 123.5 -46.5t67.5 -116.5q48 -6 86 -9v11q0 34 9.5 60t34 50t75 36.5t124.5 12.5q146 0 279 -35t223 -107t90 -165q0 -139 -82 -139q-67 0 -67 53q0 31 15 45t36 8q55 -13 55 41 q0 21 -16 37.5t-47 16.5q-33 0 -71.5 -22.5t-78.5 -54.5t-85.5 -63.5t-109 -54t-132.5 -22.5q-263 0 -263 159q0 39 19 68q-60 4 -88 8q-6 -108 -91 -182t-206 -74q-59 0 -99 16.5t-58 44.5t-25 53.5t-7 53.5zM317 565q24 -66 113 -94q-16 37 -46 63.5t-67 30.5z" />
<glyph unicode="*" horiz-adv-x="2027" d="M20 184v828q179 -2 273 -30t113 -89q12 5 34 13.5t93 30.5t144 39t179 30.5t207 13.5q339 0 866 -141q41 -11 60 -30t18 -39.5t-16 -43.5q-34 -53 -160 -53q-29 0 -69 7.5t-66 15.5l-25 7q-86 -6 -127 -6q-17 0 -41 7.5t-39 14.5l-16 7q-47 -23 -92 -23q6 -6 15.5 -17.5 t34 -43.5t43.5 -61.5t34.5 -66t15.5 -62.5q0 -31 -12 -57.5t-29 -41t-29.5 -22.5t-17.5 -9l7 -6q6 -5 13.5 -12t17 -16.5t17 -18.5t12.5 -18.5t5 -16.5q0 -33 -23 -67.5t-69 -34.5q-32 0 -83.5 12t-86.5 24l-35 11q-39 -41 -84 -41q-21 0 -46.5 5t-41.5 11l-15 5 q-22 -25 -65 -25q-38 0 -87.5 36t-49.5 83q-70 -12 -140 -12q-30 0 -88 13.5t-101 27.5l-42 14q0 -21 -4 -43t-13.5 -48t-31.5 -42.5t-53 -16.5q-232 0 -304 -2zM233 643q0 -72 4.5 -172t8.5 -163l4 -64l84 -8q-49 260 -49 407q0 41 4.5 80.5t12.5 70t14.5 52.5t13.5 40.5 t8 20.5q3 9 -8.5 16t-23.5 10l-13 3q-7 -15 -17 -41.5t-26.5 -103.5t-16.5 -148zM336 678q0 -79 19 -140t49.5 -97t74 -59t86.5 -31.5t92 -8.5q29 0 95.5 2t109 1.5t98.5 -4t100.5 -17t78.5 -35.5q102 -67 163 -70q18 -1 17 7q-1 1 -2 3q-12 14 -12.5 43.5t16.5 49.5 q11 12 33.5 14t36 -1t16.5 1q0 4 -21.5 19t-60 34.5t-76.5 32.5q-68 26 -147 73t-119 91q-42 44 -119 88.5t-104 44.5q-24 0 -24 12t24 12q29 0 77 -26t88.5 -52t49.5 -26q13 0 18 41t8 43q9 12 16 -5q5 -13 5 -34q0 -18 -3.5 -39t-6.5 -33l-4 -12l28 -20q52 70 72 82 q23 14 46.5 37.5t23.5 45.5q-93 23 -150 35q-39 9 -49 45q-5 27 8 31q4 0 20.5 -8t39 -17.5t68.5 -17.5t102 -8q72 0 122.5 10.5t74 21.5t30.5 11q10 0 28.5 -14t43 -27.5t49.5 -13.5q34 0 61 16t35 16q9 0 35 -18.5t70 -37.5t96 -19q84 0 109 49q10 18 4 23q-1 1 -3 -1 t-4 -3.5t-5 -2.5t-5.5 -2t-7.5 -1.5t-8.5 -0.5h-10h-11h-12.5h-14q-21 0 -36.5 10.5t-28.5 29t-14 19.5q-9 9 -129 37t-304.5 56t-320.5 28q-149 0 -319 -46t-288 -120.5t-118 -146.5zM827 295q2 -6 37 -47q16 -19 39.5 -26.5t38.5 -5.5l16 3q-16 16 -34 36.5t-28 32.5 l-11 13zM934 303q0 -19 54 -51.5t93 -32.5q24 0 39.5 5.5t19.5 10.5l3 5q-22 19 -74 35t-93 22zM1098 524l39 -20l57 33q-7 5 -18.5 13.5t-30.5 30t-21 37.5l-18 -26q12 -25 20 -31q4 -3 -3 -12t-16 -17zM1153 639q0 -27 28 -54t49.5 -43.5t12.5 -21.5q-10 -5 -23 -17.5 t-20 -22.5l-8 -9q24 -6 74.5 -27.5t88.5 -39.5l38 -19q10 6 24 17t38 38.5t24 48.5q0 22 -38.5 85t-76.5 115l-39 52q-14 -4 -39 -4.5t-43 1.5l-18 1q0 -16 -18 -41t-36 -42zM1331 279q0 -41 29 -62q17 -10 50 3t36 40q1 29 -17.5 42t-50.5 13q-17 0 -32 -9.5t-15 -26.5z M1855 870q10 -36 35 -36q64 0 64 8q0 6 -40.5 17t-58.5 11z" />
<glyph unicode="+" horiz-adv-x="919" d="M21 1078q1 25 16 69q23 59 92 75t221 -16q5 -1 15.5 -4t27.5 -8.5t31 -9.5q-12 122 -66 194q-12 16 -17.5 26t-5.5 15.5t4 7.5t13 3q37 2 68 -44q58 -79 61 -223q171 -59 207 -67q129 -34 143 -2q32 99 48 110q21 15 20 -15q-1 -26 -18 -69q-26 -74 -129 -80l6 -6 q55 -61 48.5 -143.5t-83.5 -147.5q-93 -77 -152.5 -163t-81.5 -157.5t-23 -143t10 -119.5t30 -88q14 -28 14 -41q6 -8 -12 -17q-29 -11 -76 19q-42 33 -67 63q-18 17 -57.5 67.5t-93.5 132.5t-94 172t-59.5 184.5t9.5 170.5q23 64 80.5 96.5t121.5 8.5q30 -11 50 -34.5 t24 -55.5q8 22 27 61q50 100 53 207q-215 73 -240 78q-88 17 -98 -10q-4 -9 -10 -26t-10.5 -28.5t-9.5 -24.5t-10 -21t-9 -11q-19 -14 -18 15zM72 720.5q-1 -49.5 12 -100t32.5 -101t47 -101.5t54 -92.5t56.5 -83.5q-91 226 9 497q22 63 12.5 110t-41.5 58q-50 19 -97 -8.5 t-69 -87.5q-15 -41 -16 -90.5zM285 514q-4 -79 7.5 -138.5t35 -113.5t49.5 -90t57 -66q-16 43 -22.5 94.5t1 121.5t32.5 139.5t82 149t141 149.5q51 42 75 92t20 94t-32 78l-16 16q-31 0 -99 11q-81 -30 -169 -146.5t-134 -226.5q-24 -85 -28 -164zM440 932q68 88 140 127 l-84 22q-5 0 -17 6q-9 -79 -39 -155z" />
<glyph unicode="," horiz-adv-x="1017" d="M20 1087q0 113 69 177.5t202 64.5q74 0 133 -24t95 -65t54.5 -92.5t18.5 -109.5q0 19 34 45.5t82 56.5t96 63.5t82 77.5t34 89q0 27 -7.5 50t-18 37t-23.5 25t-24 12t-18 -1q-5 -3 -15 -21t-21.5 -35.5t-37.5 -32.5t-61 -15q-66 0 -95 59q-27 58 1 115q41 73 141 75 q130 0 193 -61t63 -211q0 -57 -41 -109t-99.5 -91t-117 -75.5t-99.5 -77.5t-42 -83q135 -28 223 -122t88 -183q0 -59 -19.5 -104t-47 -66.5t-55 -35t-47.5 -15.5l-19 -3q0 -107 -25.5 -197t-76.5 -147t-119 -57q-221 0 -221 414q-5 0 -13 2t-28.5 12.5t-36 27t-28.5 51 t-13 79.5q0 61 23 121t65.5 111.5t113 84.5t156.5 35q-2 46 -6 81t-17 80.5t-33.5 74.5t-57.5 50t-87 21q-77 0 -109 -38.5t-7 -119.5q10 -33 -17.5 -69.5t-70.5 -36.5q-42 0 -67.5 25.5t-25.5 80.5zM274 514q0 -35 11.5 -45t42.5 -10q11 0 19.5 15t18 36.5t23.5 42.5t44 36 t73 15q47 0 80 -14.5t48.5 -35t25.5 -40.5t18 -34.5t18 -14.5q49 0 49 51q0 80 -64.5 145.5t-172.5 65.5q-54 0 -101 -26t-74.5 -62.5t-43 -70.5t-15.5 -54z" />
<glyph unicode="-" horiz-adv-x="993" d="M23 637q3 51 56.5 54.5t246.5 -27.5q73 -14 120 -25q-29 36 -84 125q-113 168 -124 206.5t45 65.5q44 23 71.5 -18.5t100.5 -231.5q38 -107 41 -116q15 44 63 135q90 183 118.5 212.5t78.5 -5.5q35 -23 28 -53q-9 -36 -101 -153l-56 -69q-53 -65 -80 -94q57 6 149 12 q202 13 241 4t34 -71q-3 -50 -56 -53t-245 28q-83 12 -123 23q12 -15 86 -123q114 -170 125 -208t-45 -65q-44 -23 -71.5 18.5t-100.5 229.5q-34 86 -43 119q-5 -12 -64 -137q-91 -183 -117 -210.5t-77 5.5q-35 23 -28 52q8 36 99 150q19 24 58 72q36 47 80 95 q-62 -10 -150 -13q-202 -13 -240.5 -3.5t-35.5 69.5z" />
<glyph unicode="." horiz-adv-x="1241" d="M25 764q-9 7 0.5 14.5t33.5 9.5q179 11 473 17l-151 143q-34 33 -40 49t5 50q5 15 8 20t7 6t12.5 -7.5t20.5 -22.5q7 -8 11 -12.5t12 -13t15 -16.5l141 -153q-1 88 -8 360q-3 73 6.5 96t57.5 46q40 17 45.5 9.5t1.5 -69.5q-1 -15 -1.5 -24t-1 -25t-1.5 -31 q-7 -193 -15 -366q126 131 150 157q33 36 47 42t49 -5q26 -9 26 -15t-35 -38q-20 -18 -36 -33l-151 -143q357 10 360 10q72 3 94.5 -6t44.5 -57q18 -40 10.5 -45.5t-69.5 -1.5q-15 1 -24 1.5t-25 1t-31 1.5q-120 2 -381 14q32 -36 207 -227q15 -19 9.5 -25.5t-25.5 10.5 q-78 66 -226 207q-5 -117 -13 -287.5t-9 -203.5q-1 -23 -8.5 -32.5t-15 0t-9.5 34.5q-5 64 -18 489q-156 -142 -222 -200q-7 -6 -12.5 -8.5t-9 -2t-4.5 3.5t2 9t10 14q67 76 207 223q-403 20 -492 25q-23 1 -32 8z" />
<glyph unicode="/" horiz-adv-x="1443" d="M20 771.5q0 13.5 39 16.5q176 10 576 17l-152 143q-36 33 -42 49t5 50q9 26 16 26t41 -38q19 -20 32 -34l141 -155q-9 423 -10 444q-3 72 7 95.5t56 46.5q40 17 45.5 9.5t2.5 -69.5q0 -15 -0.5 -23.5t-1.5 -25t-1 -31.5l-14 -448q88 91 147 157q33 36 49 42t50 -5 q19 -7 23 -10.5t-1.5 -11.5t-26.5 -26q-8 -7 -13 -11t-13.5 -12t-16.5 -15l-153 -143q441 9 465 10q74 3 96 -6t43 -57q18 -40 11 -45.5t-69 -1.5q-15 1 -24 1.5t-25.5 1t-31.5 1.5l-486 14q58 -62 209 -227q18 -19 11.5 -25.5t-27.5 10.5q-76 67 -223 207l-25 -573 q-1 -23 -8 -32.5t-14 0t-9 34.5q-11 137 -18 571q-134 -123 -223 -200q-18 -16 -24.5 -10t11.5 26q67 76 207 223q-374 12 -596 25q-35 2 -35 15.5z" />
<glyph unicode="0" horiz-adv-x="2430" d="M62 736.5q0 193.5 25.5 359t70.5 180.5q54 20 122.5 16.5t125.5 -19t132.5 -39.5t143.5 -46.5t159 -38.5t179 -16q91 0 135 45.5t33 109.5q-3 16 5 30.5t24 14.5q18 0 24 -14t2 -31q-11 -64 33 -109.5t135 -45.5q88 0 179 16t159 38.5t143.5 46.5t132.5 39.5t125.5 19 t122.5 -16.5q45 -15 70.5 -180.5t25.5 -359t-25.5 -359t-70.5 -180.5q-54 -20 -122.5 -16.5t-125.5 19t-132.5 39.5t-143.5 46.5t-159 38.5t-179 16q-91 0 -135 -46t-33 -110q3 -20 -4.5 -33.5t-24.5 -13.5q-14 0 -21.5 16t-4.5 31q11 64 -33 110t-135 46q-88 0 -179 -16 t-159 -38.5t-143.5 -46.5t-132.5 -39.5t-125.5 -18.5t-122.5 16q-45 15 -70.5 180.5t-25.5 359z" />
<glyph unicode="1" horiz-adv-x="1406" d="M66 852l6 12q184 23 458 33q-154 157 -192 225q-9 19 -5 35t17.5 28.5t27.5 21.5t25 13l11 5q8 -14 20 -37q50 -95 168 -238q3 336 31 430q7 24 25.5 35.5t40 10t42 -6t33.5 -10.5l14 -6l-16 -49q-40 -127 -63 -402q217 217 295 260q28 16 53.5 -3t36.5 -45l12 -27 q-14 -7 -39 -19q-101 -53 -293 -217q407 3 524 -29q24 -7 35.5 -25.5t10 -40.5t-6 -43t-10.5 -35l-6 -13q-18 8 -49 18q-151 48 -549 76q194 -222 326 -336q14 -16 11.5 -24t-12.5 -12.5t-10 -2.5q-145 110 -348 303q-19 -328 -6 -557q2 -25 -9 -31.5t-23 -0.5l-11 6 q-32 225 -39 596q-172 -161 -248 -246q-15 -15 -24.5 -13t-13.5 13l-3 10q100 129 265 301q-294 13 -480 4q-25 -1 -31.5 10.5t-0.5 22.5z" />
<glyph unicode="2" horiz-adv-x="1404" d="M66 829.5q-6 11.5 0 22.5l6 12q222 27 477 33q-102 105 -119 141q-11 19 1.5 37t30.5 27l19 8q5 -11 13 -27q29 -56 106 -153q3 353 31 450q8 24 26.5 35.5t40.5 10t42.5 -6t33.5 -10.5l14 -6l-16 -49q-42 -128 -65 -406q129 129 174 152q19 11 36.5 -1.5t24.5 -30.5 l8 -19q-10 -5 -24 -13q-75 -41 -185 -135q435 3 555 -29q25 -7 36.5 -25.5t10.5 -40.5t-5.5 -43t-10.5 -35l-6 -13q-20 8 -51 18q-168 52 -565 76q125 -139 206 -211q10 -10 8.5 -16.5t-7.5 -9.5l-7 -3q-83 64 -213 187q-20 -357 -8 -576q1 -25 -10.5 -31.5t-23.5 -0.5 l-11 6q-34 248 -37 624q-104 -94 -164 -160q-10 -10 -15.5 -8.5t-8.5 8.5l-2 7q54 69 166 190q-294 13 -482 4q-24 -1 -30 10.5z" />
<glyph unicode="3" horiz-adv-x="1404" d="M66 862.5q-6 11.5 0 23.5l6 11q184 23 456 33q-81 84 -106 133q-14 24 2.5 46t39.5 32l23 10q5 -13 15 -33q41 -78 98 -151q3 349 31 446q8 24 26.5 35.5t40.5 10t42.5 -6t33.5 -10.5l14 -6l-16 -50q-40 -125 -63 -385q113 113 163 140q24 14 46 -2.5t32 -40.5l11 -23 q-13 -4 -33 -14q-89 -49 -187 -127q435 3 555 -29q25 -7 36.5 -25.5t10.5 -40.5t-5.5 -43t-10.5 -34l-6 -14q-20 8 -51 18q-167 52 -568 76q106 -119 209 -209q13 -12 11 -19.5t-10 -10.5l-9 -3q-69 51 -211 174q-20 -346 -8 -561q1 -25 -10.5 -32t-23.5 -1l-11 6 q-34 248 -37 627q-73 -68 -160 -162q-13 -13 -19.5 -11t-10.5 10.5t-2 8.5q108 139 155 191q-266 12 -469 2q-24 -1 -30 10.5z" />
<glyph unicode="4" horiz-adv-x="1624" d="M64.5 840.5q5.5 11.5 7.5 11.5q227 27 557 33q-87 93 -107 133q-13 24 3.5 46t39.5 32l23 10l16 -33q32 -66 98 -151q3 452 31 548q7 24 26 35.5t40.5 10t42.5 -6t35 -10.5l14 -6q-9 -18 -19 -49q-41 -127 -65 -490q114 114 166 142q24 14 46 -2t32 -39l10 -23l-33 -16 q-81 -43 -186 -127q240 2 430 -6t244 -23q38 -11 44 -50.5t-7 -73.5l-13 -34q-20 9 -51 19q-161 49 -684 78q108 -121 209 -209q15 -13 11 -21t-11 -11t-10 -3q-87 67 -211 174q-20 -420 -7 -653q1 -25 -10.5 -32t-23.5 -1l-11 6q-32 238 -39 719q-75 -70 -157 -162 q-13 -13 -21 -11t-11 11l-3 8q85 109 156 191q-374 13 -570 4q-24 -2 -30.5 9t-1 22.5z" />
<glyph unicode="5" horiz-adv-x="1624" d="M64.5 840.5q5.5 11.5 7.5 11.5q220 27 538 33q-131 134 -166 200q-11 22 -6 41t20.5 33.5t32.5 25t31 15.5l13 6q8 -18 22 -45q47 -92 145 -221q3 434 31 530q7 24 26 35.5t40.5 10t42.5 -6t35 -10.5l14 -6q-9 -18 -19 -49q-37 -112 -65 -477q174 177 260 227 q34 18 64 -4.5t43 -53.5l14 -32l-45 -23q-128 -65 -279 -192q232 2 415.5 -6t236.5 -23q38 -11 44 -50.5t-7 -73.5l-13 -34q-20 9 -51 19q-165 51 -670 76q140 -158 303 -305q17 -17 14.5 -28t-14.5 -16l-12 -4q-145 109 -317 267q-20 -409 -7 -635q1 -25 -10.5 -32 t-23.5 -1l-11 6q-32 237 -36 701q-131 -121 -232 -234q-17 -18 -27.5 -15t-15.5 15l-4 12q129 165 231 277q-333 15 -561 4q-24 -2 -30.5 9t-1 22.5z" />
<glyph unicode="6" horiz-adv-x="1662" d="M64.5 833.5q-5.5 10.5 4 21t31.5 15.5q26 5 54 7t76 2t75 -0.5t105 -3t112 -3.5q73 -4 201 -8q-145 166 -234 215q-45 25 -84.5 37t-56.5 11l-16 -1q1 40 32 73t79.5 38t107.5 -39q102 -78 227 -268q2 182 -6.5 283t-32.5 173q-22 65 -50 112.5t-45 61.5l-17 15 q27 28 69.5 38t85.5 0t80 -53t49 -112q31 -178 -28 -539q140 124 194 215q25 45 37 84.5t11 56.5l-1 17q40 -1 72.5 -32t37.5 -79.5t-38 -107.5q-69 -90 -231 -203q280 -3 401 39q42 14 77 31t55 31t34 26.5t19 19.5l5 7q28 -27 38 -70t0 -86.5t-52.5 -80t-111.5 -48.5 q-183 -31 -541 27q63 -95 78 -115q118 -163 184 -219q5 -4 10 -5.5t7 -0.5h3q11 -19 -0.5 -26.5t-31.5 7.5q-8 6 -16.5 13.5t-16 14t-18.5 17.5t-18 18.5t-20 22.5t-20.5 23.5t-23.5 27.5l-24 28.5t-27.5 32.5t-28.5 34l-76 88q-2 -13 -13.5 -88t-15.5 -111 q-15 -114 -18.5 -225.5t4.5 -159.5q1 -10 4 -17t5 -8l3 -2q-4 -18 -14 -23t-20.5 5t-14.5 31q-8 42 -9 111.5t0.5 118.5t6.5 192l6 194q-100 -63 -135 -88q-158 -112 -219 -184q-4 -6 -6 -11.5t-2 -7.5v-2q-19 -11 -26.5 1t7.5 32q20 25 56.5 60t67.5 61.5t108 91.5l110 94 q-147 25 -235 37q-262 33 -385 15q-10 -2 -17 -5.5t-8 -6.5l-2 -3q-18 4 -23.5 14.5z" />
<glyph unicode="7" horiz-adv-x="1185" d="M63 750.5q-1 76.5 25 150t69 133t118 96.5t169 37h394q128 0 152 44q15 28 -23 54q-11 8 -27 13q-2 2 1 8.5t11 11t17 0.5q38 -12 69 -44.5t49.5 -78.5t28.5 -101t5.5 -113.5t-18.5 -116t-45.5 -108.5t-74 -90t-104.5 -62t-136 -23h-397q-127 0 -149 -44q-15 -29 23 -54 l24 -12q8 -4 -3 -16q-9 -12 -22 -9q-50 16 -87 65.5t-52.5 116t-16.5 143z" />
<glyph unicode="8" horiz-adv-x="1595" d="M63 750.5q-1 76.5 25 150t69 133t118 96.5t169 37h803q128 0 152 44q16 28 -22 54q-11 8 -27 13q-2 2 1 8.5t10.5 11t16.5 0.5q49 -15 85.5 -63.5t52 -115t16.5 -142.5t-24.5 -149.5t-68 -133t-117.5 -96.5t-169 -37h-807q-127 0 -149 -44q-15 -29 23 -54l24 -12 q8 -4 -3 -16q-9 -12 -22 -9q-50 16 -87 65.5t-52.5 116t-16.5 143z" />
<glyph unicode="9" horiz-adv-x="2209" d="M63 750.5q-1 76.5 25 150t69 133t118 96.5t169 37h1418q128 0 152 44q15 28 -23 54q-11 8 -27 13q-2 2 1 8.5t11 11t17 0.5q38 -12 69 -44.5t49.5 -78.5t28.5 -101t5.5 -113.5t-18.5 -116t-45.5 -108.5t-74 -90t-104.5 -62t-136 -23h-1421q-127 0 -149 -44 q-15 -29 23 -54l24 -12q8 -4 -3 -16q-9 -12 -22 -9q-50 16 -87 65.5t-52.5 116t-16.5 143z" />
<glyph unicode=":" d="M63 143q0 2 3 4t8 4.5t14 6.5q17 8 39 18.5t37 17.5t20 9q13 7 13 4q0 -1 3 -70t3 -71t11.5 -17t18.5 -20q12 -14 9 -17q-2 0 -25 -10q-31 -12 -57 -23.5t-35.5 -15.5t-11.5 -4t-3 1t-1 4.5t1.5 10t4.5 17.5q3 13 9.5 32t10.5 31.5t4 14.5t-10 10q-14 11 -36 31.5 t-25 23.5t-4 4.5t-1 3.5zM63 368q0 2 3 4t8 4.5t14 6.5q17 8 38.5 18.5t36 17.5t19.5 9q15 8 15 6l2 -74q-4 -1 -4 -32v-68v-12v-9.5t0.5 -7t0 -5.5t-0.5 -3.5t-1 -2.5l-1.5 -1.5t-2.5 -1.5q-67 -33 -77 -33q-2 0 -3 1t-1 4.5t1.5 10t4.5 17.5q3 13 9.5 32t10.5 31.5t4 14.5 t-10 10q-14 11 -36 31.5t-25 23.5t-4 4.5t-1 3.5zM201 266v80q0 4 1.5 5.5t10.5 4.5q35 11 570 228.5t552 222.5q11 4 17.5 5.5t9 1.5t2.5 -1t1 -52.5t2 -107t1 -65.5q0 -47 -4 -49q-1 0 -266 -108.5t-551 -225t-334 -133.5q-6 -4 -6 0q0 1 -1.5 42.5t-3 89t-1.5 62.5z M201 557v80q0 5 1.5 6t10.5 4q35 11 570 228.5t552 222.5q11 4 17.5 5.5t9 1.5t2.5 -1t1 -52.5t2 -107t1 -65.5q0 -48 -4 -50q-1 0 -266 -108.5t-551 -225t-334 -133.5q-6 -4 -6 0q0 1 -1.5 42.5t-3 89.5t-1.5 63zM209 63q0 3 6 5q16 8 25 8q3 2 3.5 1t0.5 -5v-43 q0 -6 -4 -2zM1323 477v41q0 2 18 8t19 4q0 -1 -2 -4l-31 -47q-4 -6 -4 -2zM1333 479q33 52 35 56q4 6 4 14q0 2 -1 57t-1 58v16q84 18 94 20q13 2 13 0q0 -1 -2 -4.5t-6 -10t-7 -13.5q-37 -59 -37 -68q-1 -3 3 -6q3 -1 4 -2q7 -7 73 -51q13 -10 13 -13q-2 0 -39 -12 q-92 -25 -101 -28q-18 -5 -36 -11zM1370 819q2 3 2 15v40l92 19q13 2 13 0q0 -1 -2 -4.5t-6 -11t-7 -13.5q-37 -59 -37 -67q-2 -3 7 -9q7 -7 73 -51q13 -10 13 -12q-2 0 -39 -12q-6 -1 -32 -8t-48.5 -12t-26.5 -5z" />
<glyph unicode=";" d="M63 143q0 2 3 4t8 4.5t14 6.5q17 8 39 18.5t37 17.5t20 9q13 7 13 4q0 -1 3 -70t3 -71t11.5 -17t18.5 -20q12 -14 9 -17q-2 0 -25 -10q-31 -12 -57 -23.5t-35.5 -15.5t-11.5 -4t-3 1t-1 4.5t1.5 10t4.5 17.5q3 13 9.5 32t10.5 31.5t4 14.5t-10 10q-14 11 -36 31.5 t-25 23.5t-4 4.5t-1 3.5zM63 368q0 2 3 4t8 4.5t14 6.5q17 8 38.5 18.5t36 17.5t19.5 9q15 8 15 6l2 -74q-4 -1 -4 -32v-68v-12v-9.5t0.5 -7t0 -5.5t-0.5 -3.5t-1 -2.5l-1.5 -1.5t-2.5 -1.5q-67 -33 -77 -33q-2 0 -3 1t-1 4.5t1.5 10t4.5 17.5q3 13 9.5 32t10.5 31.5t4 14.5 t-10 10q-14 11 -36 31.5t-25 23.5t-4 4.5t-1 3.5zM63.5 596.5q-0.5 1.5 0.5 3t4 3.5t8 4t12 5q17 8 38.5 18.5t36 17.5t19.5 9q4 2 9.5 5t7.5 4t2 0v-13q-6 -2 -6 -96v-68v-12v-9.5t0.5 -7t0 -5.5t-0.5 -3.5t-1 -2.5l-1.5 -1.5t-2.5 -1.5q-65 -32 -77 -32q-2 0 -3 1t-1 4.5 t1.5 9t4.5 17.5q3 13 9.5 32t10.5 31.5t4 14.5q0 3 -10 11q-14 11 -36 31.5t-25 23.5q-2 2 -3 3.5t-1.5 3zM201 266v80q0 4 1.5 5.5t10.5 4.5q35 11 570 228.5t552 222.5q11 4 17.5 5.5t9 1.5t2.5 -1t1 -52.5t2 -107t1 -65.5q0 -47 -4 -49q-1 0 -266 -108.5t-551 -225 t-334 -133.5q-6 -4 -6 0q0 1 -1.5 42.5t-3 89t-1.5 62.5zM201 557v80q0 5 1.5 6t10.5 4q35 11 570 228.5t552 222.5q11 4 17.5 5.5t9 1.5t2.5 -1t1 -52.5t2 -107t1 -65.5q0 -48 -4 -50q-1 0 -266 -108.5t-551 -225t-334 -133.5q-6 -4 -6 0q0 1 -1.5 42.5t-3 89.5t-1.5 63z M201 848v80q0 4 1.5 5.5t10.5 4.5q35 11 570 228.5t552 222.5q11 4 17.5 5.5t9 1.5t2.5 -1t1 -53t2 -107.5t1 -65.5q0 -47 -4 -49q-1 0 -266 -108.5t-551 -225t-334 -133.5q-6 -4 -6 0q0 1 -1.5 42.5t-3 89.5t-1.5 63zM209 63q0 3 6 5q16 8 25 8q3 2 3.5 1t0.5 -5v-43 q0 -6 -4 -2zM1323 477v41q0 2 18 8t19 4q0 -1 -2 -4l-31 -47q-4 -6 -4 -2zM1333 479q33 52 35 56q4 6 4 14q0 2 -1 57t-1 58v16q84 18 94 20q13 2 13 0q0 -1 -2 -4.5t-6 -10t-7 -13.5q-37 -59 -37 -68q-1 -3 3 -6q3 -1 4 -2q7 -7 73 -51q13 -10 13 -13q-2 0 -39 -12 q-92 -25 -101 -28q-18 -5 -36 -11zM1370 819q2 3 2 15v40l92 19q13 2 13 0q0 -1 -2 -4.5t-6 -11t-7 -13.5q-37 -59 -37 -67q-2 -3 7 -9q7 -7 73 -51q13 -10 13 -12q-2 0 -39 -12q-6 -1 -32 -8t-48.5 -12t-26.5 -5zM1370 1055v16q86 14 96 16q13 2 13 0q0 -1 -2 -4.5t-6 -10 t-7 -13.5q-37 -59 -37 -68q-1 -3 7 -8q7 -7 73 -51q13 -10 13 -12q-2 -1 -39 -13q-99 -22 -105 -22q-2 31 -2 90q0 13 -2 39t-2 41z" />
<glyph unicode="&#x3c;" horiz-adv-x="1282" d="M63.5 1008q1.5 10 12.5 20q78 70 226.5 -13.5t371.5 -361.5q103 -130 182 -212.5t119 -113t94 -63.5q41 -24 77 -35t52 -11l16 1q-2 -37 -31.5 -66.5t-74.5 -34t-98 37.5q-61 50 -120.5 124.5t-145.5 201.5t-109 159q-83 114 -159.5 196t-134 124t-106.5 60t-81.5 14 t-55.5 -23q-5 -4 -7.5 -8.5t-2.5 -6.5v-2q-12 -4 -19 -0.5t-5.5 13.5zM70 883q2 37 31 66.5t74 34t99 -37.5q61 -50 120.5 -124.5t145.5 -201.5t109 -159q83 -115 159 -197t133.5 -123.5t107 -59.5t82 -14t55.5 23q5 4 7.5 8t2.5 6v2q12 4 19 0t5 -13t-14 -19 q-29 -27 -68 -32.5t-92.5 14t-117 65.5t-145.5 129.5t-173 198.5q-149 186 -232 263.5t-163 123.5q-42 24 -78 36t-51 12z" />
<glyph unicode="=" horiz-adv-x="1484" d="M-55 1032q-1 47 30 86.5t76 57t99.5 3t93.5 -66.5q46 -64 84 -151t88 -233t63 -181q37 -95 75 -173.5t72 -133t68 -94.5t63 -62t56.5 -33t49 -11t40.5 9q6 3 10 6.5t5 5.5v2q13 1 19 -5t1.5 -14.5t-18.5 -14.5q-28 -17 -61.5 -14.5t-69 19t-77 57.5t-84 101t-91.5 150 t-99 203q-95 221 -177.5 322t-166.5 139q-44 18 -81 24.5t-53 3.5zM136 1225q-1 14 20 24q94 48 215 -71t266 -445q95 -221 177.5 -322t166.5 -139q44 -18 81 -24.5t52 -3.5l16 2q1 -47 -30.5 -86.5t-76.5 -57t-99 -3t-93 66.5q-46 64 -84 151t-88 233t-63 181 q-37 95 -75 173.5t-72 133t-68 94.5t-63 62t-56.5 33t-49 11t-40.5 -9q-6 -4 -9.5 -7.5t-4.5 -5.5v-2q-21 -3 -22 11z" />
<glyph unicode="&#x3e;" horiz-adv-x="1288" d="M61 872q2 37 32 67t77 36.5t106 -29.5q54 -35 110.5 -98t94 -118.5t93.5 -141.5t85 -127q130 -180 227 -281t159.5 -131.5t111.5 -13.5q6 2 10.5 5t5.5 5l1 2q20 0 20 -13q-1 -14 -23 -22q-61 -24 -127.5 6t-164 130t-256.5 301q-103 129 -179 208.5t-114 108t-92 59.5 q-42 24 -86 36t-68 11h-23zM75.5 1008q1.5 10 12.5 20q77 70 226.5 -14t371.5 -361q103 -130 182 -212.5t119 -113t94 -63.5q41 -24 77.5 -35t52.5 -11l16 1q-2 -37 -32 -66.5t-75 -33.5t-98 37q-61 50 -120.5 124.5t-145.5 201.5t-109 159q-83 114 -159.5 196t-133.5 124 t-106 60t-81.5 14t-55.5 -23q-5 -4 -8 -8.5t-3 -6.5v-2q-12 -4 -19 -0.5t-5.5 13.5z" />
<glyph unicode="?" horiz-adv-x="2820" d="M61 1341q75 75 177 118t221.5 59t280.5 6t328 -36.5t390 -72.5q112 -24 181 -37.5t163 -29t158 -20t147.5 -7t152 6.5t150 24.5t163.5 43.5t171 66q-98 -229 -123.5 -428t9.5 -366.5t129 -348.5q-65 -70 -143.5 -115.5t-177.5 -66.5t-203.5 -25.5t-244.5 12t-277.5 41.5 t-323.5 66q-431 95 -716.5 95t-551.5 -103l-12 -2q80 124 110.5 268.5t14 291t-59.5 284t-113 276.5z" />
<glyph unicode="@" horiz-adv-x="647" d="M63.5 238.5q7.5 74.5 42.5 175.5q16 45 143.5 413.5t170.5 491.5q25 73 38.5 119t21 84.5t3 61t-17.5 37.5t-37 24q-106 36 -221 -191q-22 -40 -41 -38q-16 1 -7 33l11 28q139 254 285 206q45 -16 73.5 -41.5t46 -70.5t9.5 -118.5t-43 -174.5l-312 -907 q-32 -91 -47 -143.5t-17.5 -92.5t11.5 -59.5t45 -30.5q103 -32 221 191q18 36 36 38q15 2 12 -22q-1 -17 -13 -39q-139 -255 -284 -205q-44 15 -72.5 40.5t-46.5 70.5t-10.5 119.5z" />
<glyph unicode="A" horiz-adv-x="1488" d="M63 352q4 37 35.5 71t87.5 50q96 29 318 31h77q197 0 454 -10q309 -12 384 -13q1 0 3 -3.5t3 -10.5q0 -4 0.5 -7.5t-0.5 -6.5q0 -31 -32 -31h-89q-316 0 -586 -18q-308 -22 -454 -72q-55 -18 -93.5 -44.5t-50.5 -43.5l-11 -17q-25 20 -37 54q-9 26 -10 53q0 9 1 18z" />
<glyph unicode="B" horiz-adv-x="2820" d="M61 727q147 82 317 118q135 28 306 28q44 1 92 -1q228 -10 518 -71q153 -32 280 -53q126 -20 258 -34q115 -12 223 -12h31q122 2 232 21q103 18 209.5 49.5t161.5 53.5l55 22q-16 -43 -58 -116.5t-76 -125.5l-34 -53q38 -35 84 -93.5t72 -99.5l27 -41 q-266 -143 -634 -153q-28 -1 -57 -1q-350 0 -823 107q-217 48 -367 66q-95 12 -183 11q-50 1 -97 -3q-130 -10 -229 -37.5t-248 -85.5l-12 -2q24 42 61.5 118t63.5 131l26 56q-47 38 -97 88.5t-76 81.5z" />
<glyph unicode="C" horiz-adv-x="2781" d="M61 621q125 65 305 95q161 27 327 27q19 -1 39 -1q186 -4 351.5 -22.5t309.5 -49.5q413 -87 698 -87q111 0 203 13q103 15 209.5 45t161.5 53l55 23q-16 -42 -57.5 -104.5t-74.5 -104.5l-34 -41q37 -34 77.5 -83t62.5 -82l22 -32q-130 -72 -300 -106q-158 -32 -341 -32 h-26q-197 2 -394.5 26t-431.5 69q-294 58 -478 69q-54 3 -104 3q-119 -1 -215 -19q-136 -26 -328 -100l-14 -2l154 264q-48 38 -92.5 83t-64.5 71z" />
<glyph unicode="D" horiz-adv-x="686" d="M61 176v328q33 0 56.5 23.5t23.5 56.5h404q0 -34 23 -57t57 -23v-328q-33 0 -56.5 -23.5t-23.5 -56.5h-404q0 32 -24 56t-56 24zM88 190q29 0 49.5 -20t20.5 -49h368q0 29 20.5 49t49.5 20v297q-29 0 -49.5 21t-20.5 49h-368q0 -28 -20.5 -49t-49.5 -21v-297z" />
<glyph unicode="E" horiz-adv-x="1214" d="M61 227v226q34 0 57 22.5t23 56.5h932q0 -33 23.5 -56t56.5 -23v-226q-32 0 -56 -24t-24 -56h-932q0 33 -23.5 56.5t-56.5 23.5zM90 242q29 0 49.5 -20.5t20.5 -49.5h897q0 29 20 49.5t49 20.5v194q-29 0 -49 21t-20 49h-897q0 -28 -20.5 -49t-49.5 -21v-194z" />
<glyph unicode="F" horiz-adv-x="3516" d="M66 834q-4 14 -4 29q0 25 10 53q16 44 63 79q64 49 165 81q100 32 206 44q74 8 149 8q32 0 65 -1q107 -5 191 -27q135 -38 258 -121l70 149l-201 107q-95 48 -158 115q-64 68 -88 138q-18 53 -18 108q0 18 2 36q8 73 46.5 133.5t110 105.5t165.5 62q55 9 103 9 q121 0 191 -56q88 -71 88 -230q0 -16 -1 -34q-10 -184 -131 -459q100 -57 802 -473q14 25 37 58q43 62 56 86q-155 77 -262.5 185t-141.5 230q-27 99 -27 185q0 83 26 150q26 68 65 120t93.5 83t112.5 41q25 5 51 5q32 1 68 -7q62 -14 115 -52q113 -82 149 -222 q17 -67 17 -140q0 -81 -21 -171q-39 -171 -143 -356q113 -53 238 -76q133 -25 244 -25q320 0 448 209q31 49 41 95q7 31 7 51q0 9 -2 16l-5 21h10q38 0 74 -28q40 -32 52 -88q2 -11 3 -22q0 -46 -35 -102q-52 -81 -154 -136q-104 -56 -226 -78q-115 -21 -236 -22h-16 q-130 2 -248 29q-128 27 -242 80l-55 -84q-23 -33 -43 -66l227 -133q70 -41 116.5 -103t64.5 -129q12 -47 12 -96q0 -22 -2 -42q-8 -70 -39 -128t-88.5 -101t-133.5 -56q-37 -7 -72 -7q-107 0 -187 64q-106 84 -116 256q-1 12 -1 26q0 164 120 396q-34 21 -325.5 201.5 t-462.5 277.5l-15 -28q-31 -60 -61 -125q105 -84 181.5 -183.5t105.5 -195.5q21 -68 20 -131q0 -108 -60 -203q-70 -108 -188 -152q-56 -21 -107 -21q-57 0 -106 27q-115 62 -121 241v12q0 47 7 100q22 160 155 457q-131 111 -258 139q-85 18 -169 18q-81 0 -161 -16 q-164 -34 -282 -131q-44 -36 -68.5 -75.5t-27.5 -61.5l-2 -21q-31 7 -55.5 34.5t-34.5 64.5zM890 1613q0 -4 -1 -7q-1 -56 21 -111q22 -58 74.5 -113t127.5 -92q66 -32 162 -86q56 134 78 244q16 78 15 139q-1 25 -3 47q-10 76 -44 126t-90 70q-41 15 -92 15q-18 0 -36 -2 q-65 -7 -114 -40t-72.5 -81.5t-25.5 -108.5zM1069 444q-5 -38 -5 -72q0 -128 66 -198q48 -51 110 -50q14 0 29 2q78 14 120 94q31 59 31 137q0 47 -11 100q-19 83 -78.5 182.5t-144.5 185.5q-101 -230 -117 -381zM1957 1524q-4 -29 -5 -61q0 -57 14 -128q25 -127 108 -236.5 t214 -183.5q128 253 128 444v11q-4 194 -122 299q-42 37 -96 49q-22 5 -43 5q-31 0 -60 -10q-49 -17 -87.5 -64t-50.5 -125zM2090 217q13 -74 46.5 -129t89.5 -81q42 -19 92 -20q17 0 35 3q61 9 105 48q44 38 60 94q9 34 10 71q0 23 -4 48q-10 62 -62.5 124.5t-139.5 105.5 q-53 26 -168 92q-44 -96 -60 -189q-9 -52 -10 -98q0 -36 6 -69z" />
<glyph unicode="G" horiz-adv-x="3643" d="M66 793q-4 14 -4 28q0 25 10 53q17 45 63 80q64 49 164.5 81.5t206.5 44.5q75 8 149 8q33 0 65 -2q107 -5 191 -27q135 -38 267 -127q12 22 35 58t28 44q47 80 51 90q-150 20 -266 90q-71 42 -112.5 109t-43.5 139q-1 6 -1 12q0 66 25 128q26 68 93 119t162 67q40 9 76 9 q10 0 20 -1q45 -3 84 -13.5t68.5 -36.5t49.5 -60.5t27 -85.5q3 -27 3 -56q0 -27 -3 -56q-6 -61 -30 -139.5t-64 -168.5q17 -1 35 -1q316 0 754 240q509 282 799 415.5t440 133.5q58 0 99 -21t57 -53q16 -30 16 -63q0 -36 -19 -64q-6 5 -17.5 11.5t-58 18t-104.5 11.5 q-156 0 -445 -112t-749 -338q-247 -121 -449 -186q-176 -55 -337 -55q-24 0 -49 1l-54 -102q-13 -23 -36.5 -68t-28.5 -55q106 -83 183.5 -183.5t107.5 -197.5q21 -68 21 -131q0 -109 -61 -203q-70 -108 -188 -152q-56 -21 -107 -21q-57 0 -106 27q-115 62 -121 241v12 q0 47 7 100q25 197 159 453q-124 108 -262 143q-85 18 -168 18q-82 0 -162 -17q-164 -35 -282 -130q-44 -36 -68.5 -75.5t-27.5 -60.5l-2 -22q-32 7 -56.5 34.5t-33.5 64.5zM952 1510q-2 -16 -2 -32q0 -32 9 -62q13 -47 52.5 -91.5t100.5 -75.5q96 -51 209 -63 q48 111 57 212q2 27 2 52q0 68 -18 119q-25 69 -80 105q-42 29 -96 29q-16 0 -33 -3q-55 -8 -99 -36t-69.5 -67t-32.5 -87zM1067 403q-5 -37 -5 -71q0 -129 68 -200q48 -51 110 -51q13 0 28 3q78 14 120 95q30 58 30 135q0 48 -11 102q-17 84 -77.5 183.5t-147.5 186.5 q-94 -215 -115 -383z" />
<glyph unicode="H" horiz-adv-x="5419" d="M64 914q-3 13 -3 27q0 25 11 53q17 44 63 79q64 50 163.5 82.5t206.5 44.5q76 8 151 8q32 0 64 -1q108 -5 191 -27q139 -38 269 -127l61 102q18 26 23 39q-152 82 -228 121q-99 50 -159 120q-60 69 -77 141q-9 39 -9 80q0 34 6 66q14 74 55 132.5t105.5 101.5t140.5 55 q56 9 104 9q50 0 92 -9q84 -18 136 -77q50 -58 64 -150q4 -26 4 -56q0 -76 -24 -176q-34 -138 -120 -309q444 -244 790 -457l33 52q45 65 86 141q-168 94 -271 175.5t-153 172.5q-58 106 -67 206q-2 22 -2 42q0 73 26 131q32 74 94 128q60 53 136 74q47 13 97 13q31 0 63 -5 q84 -13 157 -65q106 -76 142 -203q20 -69 19 -146q0 -64 -13 -134q-30 -152 -117 -324q76 -45 346 -190q245 -133 338 -192q41 72 88 145q14 21 22 37q-124 70 -227 123q-99 50 -159 120q-60 69 -77 141q-9 40 -9 81q0 33 6 65q14 74 54.5 133t104 102t139.5 56q55 9 104 9 q50 0 92 -10q84 -18 136.5 -76.5t65.5 -151.5q4 -25 3 -54q0 -76 -25 -178q-35 -140 -120 -313q235 -134 797 -469q11 20 37 57q38 55 55 86q-154 77 -261 185.5t-142 230.5q-27 92 -27 171q-1 20 1 39q8 95 42 169t92 122t124 69q42 14 88 13q25 0 50 -4q72 -12 134 -55 q112 -81 148 -221q17 -67 18 -140q0 -80 -21 -170q-39 -170 -143 -356q107 -53 237 -77q133 -25 244 -25q320 0 448 209q31 49 41 95q7 31 8 50q0 9 -2 16l-6 21h10q38 0 74 -28q40 -33 52 -87q2 -12 3 -23q0 -46 -34 -101q-52 -81 -155 -136q-104 -56 -226 -78 q-115 -21 -236 -22h-16q-130 2 -248 29q-128 27 -242 80l-55 -84q-23 -32 -43 -66q125 -74 230 -133q70 -41 116 -103t63 -129q12 -46 12 -95q-1 -21 -3 -43q-8 -70 -38.5 -128t-88 -101t-133.5 -56q-37 -7 -72 -7q-108 0 -188 64q-106 84 -115 256q-1 12 -1 26 q0 164 120 396q-62 37 -340.5 210t-446.5 269l-14 -29q-58 -103 -86 -163q143 -94 228.5 -187.5t121.5 -204.5q23 -71 23 -136q0 -103 -58 -192q-71 -107 -194 -149q-57 -19 -108 -19q-65 0 -122 30q-124 64 -141 239q-3 27 -3 56q0 45 7 96q21 173 142 417 q-111 77 -363 205q-114 56 -330 168q-34 -56 -88 -135l-39 -57l234 -150q109 -74 165 -161q57 -88 57 -168q-1 -78 -35 -147q-34 -70 -103.5 -117.5t-155.5 -63.5q-38 -7 -74 -7q-41 0 -79 9q-70 16 -122 57.5t-81 109.5t-31 154q0 6 -1 13q0 81 29 184q31 111 97 231 q-17 10 -163.5 100.5t-209.5 128.5t-184 109.5t-221 126.5q-2 -3 -6 -8.5t-6.5 -10.5l-4.5 -9q-13 -22 -35 -66.5t-30 -58.5q105 -80 182.5 -181t108.5 -198q20 -68 21 -131q0 -109 -62 -204q-70 -108 -187 -152q-57 -21 -108 -21q-58 0 -107 27q-115 63 -120 243v21 q0 42 6 88q28 201 159 454q-128 109 -260 142q-87 19 -173 19q-81 -1 -159 -17q-162 -34 -280 -129q-45 -36 -70 -76t-28 -62l-2 -22q-31 8 -55.5 36.5t-34.5 64.5zM884 1690q0 -6 1 -13q0 -53 19 -104q22 -57 75 -111.5t131 -91.5q100 -49 195 -100q61 129 76 255 q5 44 5 85q0 74 -18 133q-28 92 -97 143q-55 40 -128 40q-20 0 -41 -3q-65 -9 -114.5 -43.5t-75.5 -82t-28 -107.5zM1067 522q-5 -38 -4 -72q0 -128 65 -197q48 -51 110 -50q14 0 29 2q78 15 120 96q31 59 31 137q0 46 -11 99q-17 84 -77.5 183.5t-147.5 186.5 q-94 -219 -115 -385zM1923 1604q0 -82 41 -189q35 -87 120.5 -167t229.5 -169q95 212 95 375q-1 13 -1 27q-8 172 -116 268q-57 49 -123 65q-28 7 -54 7q-35 0 -65 -12q-53 -21 -90 -72t-37 -133zM2085 302q14 -76 48 -132q33 -58 91 -84q42 -19 90 -19q18 0 37 3 q45 6 83 32t62 64t28 88q1 10 1 20q0 40 -13 82q-16 52 -64.5 106t-125.5 99q-29 16 -90.5 53.5t-85.5 51.5q-44 -96 -60 -192q-8 -50 -8 -95q0 -41 7 -77zM2788 1343q0 -6 1 -12q0 -53 19 -105q22 -58 75 -112t132 -92q45 -23 192 -102q82 174 84 334v8q0 154 -75 242 q-64 75 -166 74q-21 0 -44 -3q-65 -9 -114.5 -43t-75.5 -82t-28 -107zM2972 176q-4 -37 -5 -70q0 -131 69 -211q57 -66 133 -66h9q82 5 127 80q35 58 35 142q0 40 -8 86q-23 123 -85 216.5t-173 178.5q-83 -195 -102 -356zM3860 1256q-4 -29 -4 -61q0 -57 13 -128 q25 -126 108 -236t213 -184q128 253 128 444v11q-4 194 -122 299q-42 37 -96 49q-22 5 -43 5q-31 0 -60 -10q-49 -17 -87 -64t-50 -125zM3993 -51q13 -74 47 -129q34 -56 90 -82q42 -19 91 -20q17 0 35 3q51 7 90.5 36t61.5 71t24 94v8q0 48 -18 95q-19 51 -67.5 101.5 t-121.5 86.5q-53 26 -168 92q-45 -95 -61 -189q-9 -52 -9 -98q0 -36 6 -69z" />
<glyph unicode="I" horiz-adv-x="3594" d="M63 167q6 24 13 23q62 -14 117 -14q17 0 34 1q69 6 154 38q214 81 328 236q-141 37 -217 120q-40 41 -58 98q-15 48 -15 96q1 9 1 19q4 58 28.5 114.5t65.5 98.5q42 43 104 65q48 17 100 17q17 0 34 -2q97 -11 149 -89q48 -73 48 -179v-17q-4 -118 -62 -241 q113 13 258 53q344 93 591 149q247 57 478 91q213 32 382 31h30q180 -3 350 -35.5t336 -102.5q107 -45 163 -119q57 -76 57 -152q0 -71 -30 -134q-31 -65 -86 -99q-2 6 -6 16.5t-25 40.5t-49.5 58t-83.5 62.5t-123 60.5q-111 43 -238 74t-315 51q-161 18 -336 18h-60 q-208 -4 -483 -41.5t-571 -111.5q-128 -32 -241 -32q-35 0 -68 3q-145 -206 -399 -305q-127 -48 -232 -48q-26 0 -51 3q-46 6 -62 34q-12 20 -12 38q0 6 2 13zM560 720q2 -41 32 -75q67 -84 176 -94q30 75 30 139q0 28 -6 56q-20 86 -87 102q-14 3 -27 3q-25 0 -48 -11 q-36 -17 -54 -48q-16 -27 -16 -62v-10z" />
<glyph unicode="J" horiz-adv-x="3155" d="M64 716q3 23 14 44q25 46 76.5 70.5t131.5 27.5q28 1 55 1q49 0 93 -3q69 -6 174 -20q183 -25 989 -213q30 -8 66 -15q243 150 365 178q38 8 73 8q11 0 21 -1q44 -3 77 -20t51.5 -40.5t17.5 -54.5t-25 -62q-59 -74 -197 -92q-46 -5 -102 -5q-116 0 -279 24 q-17 -9 -45.5 -28.5t-38.5 -25.5q16 -4 25 -4q76 -14 226 -43t235.5 -45t197 -35t191 -28.5t137.5 -11.5h30q65 0 119 7q67 9 111 25.5t78 42t53 51t33 56.5l6.5 -6.5t15 -18t20 -28t18.5 -35t13 -40.5q2 -12 2 -26v-17q-3 -23 -14 -44q-17 -31 -46.5 -52.5t-71.5 -32 t-86 -14.5q-23 -2 -51 -2q-24 0 -51 2q-59 3 -108.5 8.5t-115.5 14.5q-183 25 -989 213l-60 12q-129 -77 -221.5 -122.5t-159.5 -53.5q-27 -4 -52 -4q-52 0 -98 16q-67 23 -84 64q-6 13 -6 27q0 31 27 67q67 79 209 95q41 5 90 5q121 0 293 -28q17 9 47 29t37 24l-31 6 q-72 14 -277 53t-297 56t-217 35t-196 20q-18 1 -35 1q-81 0 -144 -12q-77 -14 -124.5 -42t-75 -58.5t-45.5 -70.5l-6.5 6.5t-15 18t-20 28t-18.5 35t-13 40.5q-2 12 -2 26v17zM982 378q4 -28 42 -46q30 -14 65 -14q11 0 23 1q97 10 305 136q-131 23 -225 23 q-126 0 -182 -42q-29 -26 -29 -51q0 -3 1 -7zM1745 592q108 -17 190 -17q127 0 191 41q39 25 39 57q0 29 -33 47q-25 15 -61 15q-13 0 -27 -2q-89 -12 -299 -141z" />
<glyph unicode="K" horiz-adv-x="1212" d="M61 125v430q33 0 56.5 23.5t23.5 56.5h930q0 -33 23.5 -56.5t56.5 -23.5v-430q-32 0 -56 -24t-24 -56h-930q0 32 -24 56t-56 24zM88 139q29 0 49.5 -20t20.5 -49h897q0 29 20 49t49 20v400q-29 0 -49 20.5t-20 48.5h-897q0 -28 -20.5 -48.5t-49.5 -20.5v-400z" />
<glyph unicode="L" horiz-adv-x="735" d="M61 291q7 7 20.5 16.5t58.5 26.5t93 18h24q97 0 214 -28q81 -17 131 -17q42 0 62 12q6 6 6 -3q-1 -3 -2 -9q-4 -18 -4 -76q0 -22 4 -51l4 -28q1 -5 -8 -13q-10 -7 -38 -15q-24 -7 -56 -7h-9q-51 1 -151.5 28t-161.5 29h-8q-42 0 -78 -10q-40 -10 -57 -18t-17 -7 q2 10 2 24q0 27 -6 70q-3 29 -23 58z" />
<glyph unicode="M" horiz-adv-x="755" d="M61 305q9 9 21 17q2 -4 16 -89q4 -26 5.5 -72t-1.5 -63q0 -1 18 8q16 8 58 20q38 11 81 11h7q59 -2 158 -31t151 -30h14q48 0 77 18q2 -8 -7 -16t-36 -14q-18 -4 -42 -4q-12 0 -26 1q-46 4 -137 30.5t-154 27.5h-6q-44 0 -86 -13q-46 -14 -68 -25.5t-22 -10.5q3 18 4 64 v22q0 31 -2 49q-10 81 -23 100zM82 346q7 7 20.5 17t58.5 27t93 18q15 1 29 1q36 0 70 -4q48 -5 69 -9.5t70 -16.5q56 -13 109 -15q8 0 16 -1q42 0 67 12q5 5 6 -2q0 -4 -2 -11q-4 -18 -4 -116q0 -22 4 -70l4 -49q1 -5 -8.5 -14t-37.5 -17q-25 -8 -58 -8h-8q-51 1 -151 29 t-161 30h-4q-76 0 -147 -35q-4 -2 -4 -1q1 8 1 23.5t-1 40.5q-2 49 -7 71q-3 11 -7.5 35.5t-8.5 42t-8 22.5z" />
<glyph unicode="N" d="M78 1026q0 34 40 63t99 29h6q3 33 43 59.5t96 26.5q63 0 180 -54t253.5 -131.5t280 -155t293 -131.5t259.5 -54q69 0 118 30q50 30 68 74q12 29 12 62q0 16 -3 32q-9 50 -47 89q-50 50 -108 59q-16 2 -31 2q-39 0 -71 -16q-44 -24 -71 -70q-21 -37 -22 -78q0 -11 2 -22 q1 -16 -13 -16q-15 0 -19 16l-1 4q-2 12 -2 24q0 33 12 63q16 41 50 67q32 26 74 40q32 11 69 10h21q48 -4 89 -26q5 106 109 172q72 46 150 46q34 0 69 -9q105 -27 174 -132.5t70 -254.5v-8q0 -130 -31 -248q-32 -122 -100 -223.5t-164 -170.5q-96 -70 -232 -96 q-68 -13 -142 -13q-73 0 -151 13q-98 16 -211 79t-219 150.5t-213.5 190.5t-205.5 202.5t-183.5 181t-158.5 131.5t-121 50q-34 0 -59 -16.5t-25 -36.5q0 -18 -16 -20q-14 2 -17 16zM256 1112q78 -17 198.5 -105t252.5 -204t273 -232.5t299.5 -208t293.5 -114.5 q69 -12 134 -12q85 0 163 21q136 37 226 120.5t140 201.5q49 116 48 247v5q-1 144 -63 243t-157 126q-28 8 -56 8q-36 0 -74 -14q-66 -24 -107 -76t-41 -112v-2q20 -16 31 -27q32 -33 45 -80q10 -35 10 -71q0 -12 -2 -25q-4 -49 -27 -98t-59.5 -87t-92 -62t-120.5 -24 q-115 0 -266 66t-292 160t-272.5 187.5t-239.5 159.5t-161 66q-34 0 -59 -16.5t-25 -36.5v-4z" />
<glyph unicode="O" d="M-305 592q-1 20 -1 39q0 105 32 207q38 122 115 223.5t192 174t264 100.5q74 14 156 13q83 0 174 -14q97 -16 210 -79.5t218.5 -151t213 -190.5t205.5 -202t183.5 -180.5t158.5 -131.5t121 -50q35 0 60.5 16t25.5 37q0 17 16 19q16 0 17 -14q0 -34 -40.5 -63.5 t-100.5 -29.5h-4q-5 -33 -45 -59.5t-97 -26.5q-62 0 -179 54.5t-253 131.5t-280 154.5t-293.5 132t-259.5 54.5q-77 0 -128 -34t-66 -82q-8 -27 -8 -55q0 -23 5 -47q12 -54 51 -92t85 -52q24 -7 46 -8q19 0 39 6q40 12 72 40q32 26 48 70q12 32 13 67q0 12 -2 25 q-3 15 11 14q15 0 19 -15l1 -3q2 -14 2 -27q0 -35 -12 -67q-16 -45 -47.5 -75.5t-72.5 -48.5q-36 -16 -78 -16h-12q-48 2 -93 27q-9 -120 -119 -187q-78 -48 -160 -48q-33 0 -67 8q-145 34 -236.5 154t-99.5 282zM-252 606q8 -159 87 -272t212 -146q30 -7 59 -8q72 0 141 46 q96 64 99 175q-23 17 -39 35q-38 39 -54 99q-9 34 -9 68q0 27 6 55q12 62 47 117t104 90.5t160 35.5q97 0 221 -47t239 -118t237.5 -153.5t220 -153.5t183 -118t130.5 -47q34 0 60 17t26 36v2q-58 12 -138 62t-166.5 121.5t-182.5 156.5t-200 170.5t-206.5 159t-213.5 127 t-210 70.5q-82 12 -157 12q-64 0 -122 -8q-128 -20 -229.5 -77t-171 -136.5t-103.5 -175.5q-30 -84 -31 -170q0 -12 1 -25z" />
<glyph unicode="P" horiz-adv-x="2940" d="M66 98q81 12 144 43.5t130 91.5q94 88 152 195q-115 27 -213 115q-59 51 -87 114q-26 58 -26 112v9q2 58 28 114.5t68 96.5q42 41 99 63q47 18 95 18q11 0 21 -1q78 -7 130 -56.5t71 -126.5q13 -52 13 -114q0 -28 -3 -60q-9 -98 -47 -200h6q242 0 715 242 q306 157 544 249.5t403 120.5q103 17 185 16q50 0 90 -6q110 -16 185 -73q81 -62 101 -153q8 -34 8 -67q0 -56 -22 -110q-34 -86 -108 -145q-2 6 -7 16t-21 38.5t-34 54.5t-46.5 56.5t-59.5 51.5t-57 36t-82 35q-55 18 -115 24q-30 3 -69 3q-39 -1 -86 -3 q-95 -6 -200.5 -30.5t-252 -78t-311.5 -132.5q-510 -244 -786 -244q-13 0 -25 1q-72 -141 -188 -248q-131 -120 -248 -148q-15 -4 -29 -4q-25 0 -41 14q-26 20 -26 42t2 28zM316 718q4 -44 42 -81q85 -85 177 -111q25 71 25 131q0 41 -12 76q-28 87 -118 88q-56 1 -88 -29 q-28 -26 -27 -63q0 -6 1 -11z" />
<glyph unicode="Q" d="M131 157.5q0 1.5 12 10.5q11 9 10.5 13.5t-12.5 8.5q-8 3 -9 5q-1 1 -1 2t1 2q1 2 9 6q12 6 12 10t-12 10q-8 3 -9 5q-1 1 -1 2t1 2q1 2 9 6q12 6 12 10t-12 10q-8 3 -9 4t-1 2t1 2q1 2 9 6q12 6 12 10.5t-12 10.5q-8 3 -9 5q-1 0 -1 1t1 2q1 2 9 6q24 12 0 21q-5 9 9 10 h452q13 0 13 -1.5t-11 -10.5q-12 -9 -11.5 -12.5t11.5 -8.5q12 -6 12 -8t-12 -8q-20 -11 0 -21q12 -4 12 -6t-12 -8q-7 -4 -9.5 -7t-0.5 -6t10 -7q12 -5 12 -7t-12 -8q-7 -4 -9.5 -7t-0.5 -6t10 -7q12 -5 12 -7t-12 -8q-7 -4 -9 -7t0 -6t9 -7q17 -9 2 -10h-10h-451 q-14 0 -14 1.5z" />
<glyph unicode="R" horiz-adv-x="2187" d="M63 750q-3 15 17 22q17 7 39 18t37 18t20 9q12 6 12 4q0 -1 3 -275t3.5 -276t12 -17t18.5 -20q11 -13 8 -16q-1 0 -24 -10q-32 -13 -57.5 -23t-35.5 -14.5t-12 -5.5q-8 -4 -12 -4q-2 0 -3 1q-3 5 -1 17l41 320q0 1 -1 3.5t-2.5 7l-2.5 7.5q-59 230 -60 234zM193 881v80 q0 5 1.5 6t10.5 4q35 10 877.5 330t859.5 325q11 4 17.5 5.5t8.5 1.5t2 -1t1 -155t2 -312t1 -168q0 -47 -4 -49q-1 0 -419 -160t-858 -327.5t-488 -184.5q-6 -4 -6 0q0 1 -1.5 145t-3 294.5t-1.5 165.5zM201 268q0 2 6 4q18 9 24 9q5 -1 5 -5v-43q0 -4 -2 -4q-1 0 -3 2z M1929 887v41q0 2 19 8q17 6 18 4q0 -1 -2 -4l-31 -47q-2 -4 -3 -4t-1 2zM1939 889q33 51 35 55q4 6 4 14q0 2 -1 262t-1 263v16q85 19 95 21q8 2 12.5 2t5.5 -2q4 -4 -2 -31q-10 -43 -22 -100.5t-20 -95t-13 -54.5q-2 -8 6 -29q1 -3 14.5 -38.5t34 -93t35.5 -103.5 q2 -6 2 -33q-2 0 -39 -12q-75 -20 -100 -29z" />
<glyph unicode="S" horiz-adv-x="1165" d="M68 560q4 2 16 7q17 7 39 18t37 18t20 9q13 6 13 4q0 -1 3 -172.5t3 -173.5t11.5 -17t18.5 -20q11 -14 9 -16q-2 0 -25 -10q-32 -13 -57 -23t-35 -14.5t-12 -5.5h-1q-2 0 -2 3l3 30l24 198q0 2 -6 17q-4 12 -29.5 66t-29.5 67q-1 2 -3 5q-2 2 -2 4q0 3 5 6zM197 676v80 q0 4 1.5 5.5t10.5 4.5q33 10 364 125.5t349 120.5q11 4 17.5 5.5t8.5 1.5t2 -1t1 -104t2 -209.5t1 -116.5q0 -47 -4 -49l-741 -263q-6 -4 -6 0q0 1 -1.5 94t-3 192t-1.5 114zM205 268q0 2 6 4q18 9 25 9q3 1 3.5 0.5t0.5 -5.5v-43q0 -4 -1 -4t-3 2zM909 477v41q0 2 19 8 q17 6 18 4q0 -1 -2 -4l-31 -47q-2 -4 -3 -4t-1 2zM920 479q32 52 34 56q4 6 4 14q0 2 -1 159t-1 160v17q85 18 95 20q6 1 9 1t3 -1t-1 -5l-3 -12t-4 -14l-43 -147q-3 -13 6 -29l69 -133q3 -6 7.5 -14.5t7 -13t2.5 -5.5q-2 0 -39 -12q-87 -24 -100 -28q-18 -5 -36 -11z" />
<glyph unicode="T" horiz-adv-x="800" d="M61 1479q0 54 5 59q3 8 55 8q171 0 239 2q38 0 172.5 -1t147.5 -1t29 1t22 1t6 -2l1 -17q0 -17 0.5 -51t0.5 -75v-1124q0 -60 -2 -64q-2 -2 -168 -75.5t-170 -73.5q-5 0 -170.5 69t-165.5 72q-2 1237 -2 1272z" />
<glyph unicode="U" horiz-adv-x="800" d="M61 1356q0 54 5 59q3 8 55 8q171 0 239 2q38 0 172.5 -1t147.5 -1t29 1t22 1t6 -2l1 -17q0 -17 0.5 -51t0.5 -75v-1124q0 -64 -2 -64q-3 0 -84 42q-83 44 -167 88t-87 44q-2 0 -87 -46q-84 -46 -166 -92q-79 -44 -83 -44q-2 0 -2 1272z" />
<glyph unicode="V" horiz-adv-x="3547" d="M61 90l351 295l-346 289h489l-2 321q148 51 496 82t723 31q377 0 724.5 -31t497.5 -82l-4 -321h492l-347 -289l351 -295h-504v246q-150 49 -493.5 78.5t-716.5 29.5q-370 0 -713 -29t-494 -77v-248h-504z" />
<glyph unicode="W" horiz-adv-x="2113" d="M61 305l64 141l-62 136h185l-2 157q328 113 809 113q483 0 811 -113l-4 -157h186l-59 -136l63 -141h-197l-2 166q-329 107 -798 107q-470 0 -799 -107v-166h-195z" />
<glyph unicode="X" horiz-adv-x="1169" d="M63 348q0 2 1 2q1 2 4 3.5t8 3.5t12 5q17 8 39 18.5t37 18t20 9.5q13 6 13 4q0 -1 3 -70.5t3 -71.5t11.5 -17t18.5 -20q11 -14 9 -16q-2 0 -25 -10q-31 -12 -57 -23.5t-35.5 -15.5t-11.5 -4t-3 1t-1 4.5t1.5 10t4.5 17.5q3 13 9.5 32t10.5 31t4 14q0 3 -10 11 q-14 11 -36 31.5t-25 23.5q-2 2 -3 4q-2 2 -2 4zM201 471v80q0 5 1.5 6t10.5 4q33 10 364 125.5t349 120.5q11 4 17.5 5.5t8.5 1.5t2 -1t1 -52.5t2 -107t1 -65.5q0 -47 -4 -49l-741 -263q-6 -4 -6 0q0 1 -1.5 42.5t-3 89.5t-1.5 63zM209 268q0 2 6 4q18 9 25 9q3 1 3.5 0.5 t0.5 -5.5v-43q0 -4 -1 -4t-3 2zM913 477v41q0 2 19 8q17 6 18 4q0 -1 -2 -4l-30 -47q-3 -5 -4 -5t-1 3zM924 479q32 52 34 56q5 7 5 14q0 2 -1 57t-1 58v16q84 18 94 20q6 1 9 1t3 -1l-14 -28q-37 -59 -37 -68q-2 -3 6 -8q5 -5 74 -51q12 -10 12 -13q-2 0 -39 -12 q-87 -24 -100 -28q-18 -5 -36 -11z" />
<glyph unicode="Y" horiz-adv-x="1169" d="M63 307q0 2 3 4.5t8 5.5t14 7q17 8 39 18.5t37 17.5t20 9q13 7 13 4q0 -1 3 -70.5t3 -71.5q0 -8 30 -38q12 -12 9 -15l-27 -10q-31 -12 -57 -23.5t-35.5 -15.5t-11.5 -4q-5 0 -2 9q0 2 2 9q2 9 4 15q3 13 9.5 31.5t10.5 30.5t4 13q0 5 -10 13q-12 9 -32.5 28t-28.5 25 q-3 3 -4 4.5t-1 3.5zM201 432v80q0 6 12 8q39 12 372 128.5t341 119.5q11 4 17.5 5.5t8.5 1.5t2 -1t2 -106.5t2 -120.5q-2 -46 -4 -47q-6 -2 -164.5 -58t-343 -122t-233.5 -84q-6 -2 -6 2q0 1 -1.5 42t-3 88.5t-1.5 63.5zM201 879v79q0 5 12 9q39 12 372 128t341 119 q24 5 27 5h1q0 -1 1 -53t2 -107.5t1 -65.5q-2 -48 -4 -49l-741 -262q-6 -2 -6 2q0 1 -1.5 42t-3 89t-1.5 64zM209 229q-1 0 -1 0.5t2 1.5l5 2q4 1 13.5 5t11.5 4q3 2 3.5 1t0.5 -7v-41q0 -5 -2 -6q-1 0 -2 1zM211 674q-1 0 -1 0.5t2 1.5l5 2q3 1 13 4.5t12 3.5l364 129h1 q12 0 149 -15q145 -15 164 -18q16 -1 17 -2q0 -1 -13 -6q-15 -3 -165.5 -56t-170.5 -59q-17 -6 -33 -7h-5q-18 0 -63 3q-276 15 -276 19zM913 883v41q0 2 19 8q17 6 18 4q0 -1 -2 -4q-4 -4 -30 -47q-3 -3 -4 -3t-1 1zM924 885q0 1 16 27t18 28q5 8 5 16l-1 55q-1 55 -1 58 v16q0 2 94 21q6 1 9 1t3 -1q-6 -11 -14 -27l-39 -69q0 -3 6 -9l76 -51l12 -10q-2 -2 -39 -12q-17 -6 -52.5 -16.5t-47.5 -14.5q-16 -4 -33 -10z" />
<glyph unicode="Z" horiz-adv-x="1331" d="M63 266q-1 0 22 41t46 83t23 44q0 1 -22 43t-43.5 83.5t-20.5 41.5q0 2 30 2h160h25.5t21.5 -0.5t16.5 -1t12.5 -0.5h4q2 0 2 -22q0 -19 -4 -19q-19 2 -21 0q-1 0 -40 -89.5t-39 -92.5q0 -1 36 -84q13 -31 -2 -31zM250 379q0 3 34 85.5t35 82.5q291 2 338 2h349 q2 -2 37.5 -84.5t35.5 -85.5q0 -2 -34 -85t-35 -83h-686q0 1 -37 84t-37 84zM991 580v22q1 0 12 0.5t30.5 1t39.5 0.5h160q29 0 31 -2q1 0 -20.5 -41.5t-43.5 -83.5t-22 -43q0 -2 23 -44t45 -83q22 -39 22 -41t-207 -2q-15 0 -2 31q6 16 15.5 37t15.5 33.5t6 13.5l-80 182 h-23q-2 1 -2 19z" />
<glyph unicode="[" horiz-adv-x="4823" d="M67.5 526.5q10.5 63.5 67 125t152.5 96.5q116 43 297 50.5t442 -22t569 -84t727 -143.5q336 -64 652.5 -91t532 -22.5t404.5 26.5t281 43t152 42q69 24 124.5 56.5t86 62t51 55.5t26.5 41l7 16q41 -26 70.5 -70t43.5 -95.5t6 -107t-37 -104t-91.5 -88t-151.5 -57.5 q-165 -33 -447.5 -25.5t-731 63.5t-1074.5 163q-350 61 -644 93.5t-471.5 39t-327.5 -4.5t-212 -23.5t-125 -31.5q-70 -21 -127 -50.5t-88.5 -57.5t-53.5 -52.5t-29 -39.5l-7 -15q-45 33 -64.5 90.5t-9 121z" />
<glyph unicode="]" horiz-adv-x="3727" d="M62 584.5q-2 57.5 20 106.5t61 83q3 -5 9.5 -13t32 -31.5t58.5 -45.5t92 -51t128 -51q92 -29 202.5 -54.5t292 -51t376.5 -36t456.5 0.5t531.5 48.5t601.5 117.5t666.5 198q78 27 74 -25q-3 -40 -42 -96q-4 -6 -5 -6q-434 -152 -882 -255.5t-813 -148.5t-691 -55.5 t-550 10t-355 62.5q-90 29 -151 78t-86 103.5t-27 112z" />
<glyph unicode="a" horiz-adv-x="1316" d="M64 440q-1 8 -1 16q0 28 10 56q13 34 40 53q1 -3 3.5 -8t14 -19t26.5 -27t43.5 -28.5t63.5 -25.5q39 -11 98 -11q70 0 169 16q182 30 366 81q41 10 80 10q17 0 33 -2q25 43 71 86q66 60 123 74q8 2 14 2q12 0 22 -7q13 -9 13 -20q0 -12 -2 -14q-72 -11 -135 -68 q-37 -32 -57 -65q55 -22 96 -80q27 -39 31 -87q1 -11 0 -21q0 -36 -11 -68q-15 -41 -49.5 -69t-78.5 -28q-56 0 -85 46q-25 40 -25 99q1 9 1 19q4 71 39 144q-6 0 -31 -5q-26 -5 -83 -25.5t-119.5 -45t-142 -51t-149.5 -43t-144 -21.5q-15 -1 -29 -1q-54 0 -95 15 q-55 17 -85.5 52t-34.5 71zM1006 400q-1 -7 -1 -13q0 -31 14 -53q17 -26 52 -25q31 0 45 37q7 18 7 34q0 17 -7 32q-26 59 -86 75q-20 -47 -24 -87z" />
<glyph unicode="b" horiz-adv-x="2404" d="M63 180v6q-1 8 1 14q2 9 8 13l4 4q70 -55 179 -55h27q128 8 271 62.5t287 149.5t254 208q-157 137 -205 290q-16 55 -16 105q0 101 66 182q73 91 192 118q38 9 73 8q74 0 130 -39q85 -61 85 -188q0 -27 -4 -57q-26 -197 -198 -403q149 -114 319 -152q86 -18 170 -18 q81 0 161 16q163 34 281 131q45 36 70.5 75.5t27.5 61.5l3 21q31 -7 55 -35q24 -27 34 -64q3 -13 4 -27q0 -27 -12 -55q-18 -44 -63 -79q-64 -49 -163 -81q-100 -32 -206 -44q-72 -8 -145 -8q-35 0 -69 2q-107 6 -191 27q-183 48 -336 161q-95 -100 -213 -187.5t-238 -148.5 q-120 -62 -233 -96q-103 -31 -190 -31q-9 1 -18 1q-95 4 -152 47q-24 18 -36.5 35.5t-13.5 29.5zM985 920q27 -137 172 -269q147 178 158 332q1 14 1 27q0 114 -71 160q-35 23 -76 23q-31 0 -64 -13q-77 -30 -109 -109q-17 -42 -17 -90q0 -30 6 -61z" />
<glyph unicode="c" horiz-adv-x="1531" d="M62 760v13q0 59 26 107q28 54 76 72q35 13 67 13q39 0 73 -20q62 -37 83 -122q8 -34 8 -74q0 -60 -18 -133q85 9 223 47t254.5 75.5t247.5 62.5q91 17 160 18q30 0 57 -4q58 -7 95 -35q38 -28 48 -64q6 -22 6 -45q0 -13 -2 -27q-6 -36 -28 -58q-2 3 -5.5 7.5t-17.5 16.5 t-31.5 21.5t-48.5 19.5t-67 13q-32 3 -70 3q-67 1 -150 -9q-129 -14 -238.5 -37.5t-239 -44t-214.5 -21.5q-29 -76 -75 -147q-18 -22 -30 -22q-3 0 -5 2q-13 6 -21 24t-6 20q43 69 66 127q-127 13 -181 86q-39 49 -42 115zM146 780q-6 -19 -6 -38q0 -33 20 -64 q38 -63 143 -66q22 69 22 121q0 34 -9 60q-19 54 -72 54q-13 0 -29 -3q-51 -10 -69 -64z" />
<glyph unicode="d" horiz-adv-x="3158" d="M64 724q2 23 14 44q26 46 78 70q50 26 130 28q25 1 49 1q53 -1 101 -5q70 -6 174 -20q126 -16 989 -211l27 -6q287 144 404 170q36 7 70 7h23q44 -4 77 -21t51.5 -40.5t17.5 -54.5t-26 -61q-56 -71 -185 -91q-51 -8 -116 -7q-101 0 -236 18l-94 -53q69 -13 223.5 -43 t236 -44.5t194.5 -34t191.5 -29t135.5 -11.5q18 -1 35 0q80 0 144 11q77 14 124.5 41.5t75 58t45.5 69.5l6.5 -6.5t15.5 -18t20.5 -27.5t18.5 -34q10 -20 14 -40q2 -12 2 -26v-17q-2 -23 -14 -44q-26 -46 -78 -71q-54 -25 -132 -28q-28 -1 -54 -1q-49 -1 -95 3 q-71 6 -173 21q-149 21 -989 211l-39 8q-281 -156 -402 -170q-29 -3 -55 -3q-20 -1 -39 1q-44 4 -76.5 21.5t-51 39.5t-17 51.5t25.5 59.5q75 96 311 95q95 0 216 -15l100 55q-74 14 -273 52t-290 54t-213 33.5t-191 18.5q-19 1 -36 1q-80 0 -143 -12q-77 -14 -125 -41 t-75.5 -57.5t-46.5 -70.5l-6.5 6.5t-15 18t-20 28t-18.5 35t-13 40.5q-2 12 -2 26q-1 8 0 17zM1017 404q3 -18 29 -28q18 -8 41 -8q8 0 17 1q44 2 235 104q-78 9 -138 9q-124 0 -169 -40q-16 -17 -16 -32q0 -3 1 -6zM1796 592q83 -12 147 -12q124 0 175 45q19 20 19 38 q0 19 -26 29q-17 7 -39 6q-13 0 -28 -2q-76 -13 -248 -104z" />
<glyph unicode="e" horiz-adv-x="1736" d="M61 1274q1 73 58 134t147 72q11 1 22 1q81 0 179 -70q84 -64 170.5 -158.5t168 -208t150.5 -217.5t152 -231t139 -205q90 -124 187 -189.5t172 -68.5q15 0 24.5 3t11.5 6l3 3q25 -10 29 -25q1 -3 0 -6q0 -11 -12 -21q-16 -12 -46 -13q-97 0 -203 64.5t-242 220.5 q-375 431 -533 593.5t-284 231.5q-84 45 -158 66q-70 20 -101 20h-3z" />
<glyph unicode="f" horiz-adv-x="3737" d="M66 362q-3 16 -3 32q0 23 5 46q10 38 46.5 68t94.5 35q35 3 75 3q117 0 270 -24q204 -33 472 -92t395 -80q56 -10 99 -10q30 0 54 5q59 12 84.5 33.5t29.5 53.5q2 6 2 17q34 40 43 7q3 -9 3 -22q0 -18 -5 -43q-8 -59 -99 -93q-61 -24 -152 -24q-43 0 -91 5q-67 7 -161 20 t-178.5 24.5t-180.5 24.5t-181 22.5t-165 15.5q-68 4 -126 4h-21q-66 -1 -112 -9q-57 -11 -99.5 -31t-56.5 -34l-14 -15q-22 23 -28 61zM1772 418q12 52 49 68q17 8 35 8q22 0 47 -11q50 -21 63 -57q4 -12 4 -25q0 -24 -16 -49q-20 -32 -54 -47q-21 -9 -41 -9q-12 0 -24 3 q-40 11 -55 45q-11 22 -11 47q0 13 3 27zM2005 391q-4 26 -4 43q0 36 17 36h1q12 -1 29 -21q0 -11 2 -17q4 -32 29.5 -53.5t83.5 -33.5q24 -5 54 -5q43 0 99 10q127 20 395.5 79.5t472.5 92.5q153 24 270 24q40 0 75 -3q76 -6 113 -55q35 -44 35 -92q0 -5 -1 -10 q-3 -53 -33 -85q-5 6 -15 16t-54 31.5t-101 32.5q-46 8 -113 9h-20q-58 0 -126 -4q-79 -6 -164 -15.5t-181 -22.5t-181 -24.5t-178.5 -24.5t-160.5 -20q-48 -5 -91 -5q-91 0 -152 24q-91 34 -101 93z" />
<glyph unicode="g" horiz-adv-x="3506" d="M67 292q-3 16 -3 32q0 22 6 44q9 39 46 69.5t95 35.5q33 3 71 3q86 0 198 -14q162 -21 303.5 -51t332 -70.5t307.5 -59.5q58 -10 102 -10q29 0 51 4q59 11 84.5 33t29.5 54q0 11 2 15q31 38 42 11q3 -9 3 -25q0 -18 -4 -44q-10 -59 -100 -93q-61 -22 -151 -22 q-43 0 -93 5q-83 9 -370 49.5t-471 55.5q-83 7 -149 7q-79 0 -133 -10q-57 -11 -99.5 -31t-56.5 -34l-14 -15q-22 22 -29 61zM1665 541q10 52 47 69q17 7 34 7q23 0 48 -13q50 -20 63 -56q4 -13 4 -25q0 -24 -16 -48q-20 -32 -53 -47q-20 -9 -40 -9q-11 0 -23 3 q-41 11 -57 44q-10 23 -10 48q0 13 3 27zM1774 319q-4 26 -4 43q0 36 16 36h2q12 -1 29 -21q0 -9 2 -15q4 -32 29.5 -54t83.5 -33q23 -4 51 -4q44 0 100 10q117 19 307.5 59.5t332 70.5t303.5 51q113 14 200 14q38 0 71 -3q58 -5 94.5 -35.5t46.5 -69.5q5 -21 5 -43 q0 -17 -3 -33q-8 -39 -30 -61q-5 6 -15 16t-53.5 31.5t-99.5 32.5q-54 10 -133 10q-66 0 -150 -7q-184 -15 -471 -55.5t-370 -49.5q-49 -5 -92 -5q-90 0 -152 22q-90 34 -100 93z" />
<glyph unicode="h" horiz-adv-x="4081" d="M64 375q4 37 36 71.5t88 51.5q96 27 428 29h94q300 0 688 -10q450 -12 494 -13q6 -13 6 -29q-2 -31 -32 -31q-63 1 -128 1q-374 0 -815 -20q-518 -23 -657 -71q-55 -18 -93.5 -44t-50.5 -43l-11 -17q-27 20 -39 54q-9 26 -9 53q0 9 1 18zM1946 494q10 52 47 69q17 8 35 8 q22 0 47 -12q51 -21 63 -57q4 -12 4 -25q0 -24 -16 -49q-20 -32 -53 -47q-21 -9 -40 -9q-12 0 -24 3q-41 11 -57 45q-10 21 -10 45q0 14 4 29zM2183 475l6 29q45 0 495 13q388 11 687 10h94q332 -2 428 -29q56 -17 88 -52q33 -34 37 -71q1 -10 1 -19q1 -26 -9 -52 q-12 -34 -39 -54q-1 3 -4 7.5t-15.5 17.5t-28.5 25t-45 27.5t-63 26.5q-139 48 -657 71q-441 20 -814 20q-65 0 -128 -1q-31 0 -33 31z" />
<glyph unicode="i" horiz-adv-x="4491" d="M64 375q4 37 36 71.5t88 51.5q96 27 475 29h107q344 0 786 -10q514 -12 541 -13q6 -13 6 -29q-2 -31 -32 -31q-66 1 -136 1q-401 0 -921 -20q-610 -23 -748 -71q-55 -18 -93.5 -44t-50.5 -43l-11 -17q-27 20 -39 54q-9 26 -9 53q0 9 1 18zM2150 494q10 52 47 69 q17 8 35 8q22 0 47 -12q50 -21 63 -57q5 -13 4 -26q0 -24 -15 -48q-20 -32 -53 -47q-21 -9 -40 -9q-12 0 -24 3q-42 11 -58 45q-10 21 -10 45q0 14 4 29zM2388 475l6 29q28 0 542 13q443 11 785 10h107q379 -2 475 -29q56 -17 88 -52q33 -34 37 -71q1 -10 1 -19 q1 -26 -9 -52q-12 -34 -39 -54q-1 3 -4 7.5t-15.5 17.5t-28.5 25t-45 27.5t-63 26.5q-137 48 -747 71q-519 20 -921 20q-70 0 -136 -1q-31 0 -33 31z" />
<glyph unicode="j" horiz-adv-x="4485" d="M61 325q0 36 27 73q27 39 80 63q188 83 570 125q267 28 539 28q118 0 237 -5q394 -18 600 -95q1 -15 -5 -29q-11 -27 -43 -18q-168 63 -420 81q-107 7 -213 7l-293 -14q-252 -24 -489.5 -80t-388.5 -131q-51 -25 -86 -56t-44 -49l-9 -18q-28 16 -45 48q-17 33 -17 70z M2146 422q-1 10 -1 20q0 37 22 59q26 25 71 25h7q54 -1 79 -30q17 -22 17 -51q0 -11 -2 -23q-7 -38 -33.5 -63t-58.5 -27h-9q-36 0 -60 23q-27 26 -32 67zM2372 498v7q0 9 2 9q206 77 598 95q119 5 237 5q272 0 538 -28q382 -42 570 -125q53 -24 80 -63q27 -37 27 -73 q0 -37 -18 -70q-16 -32 -44 -48q-1 3 -3 7.5t-12 19t-24 28.5t-40.5 33t-59.5 35q-151 75 -388.5 131t-490.5 80q-146 14 -292 14l-212 -7q-253 -18 -421 -81q-30 -10 -43 18q-3 6 -4 13z" />
<glyph unicode="k" horiz-adv-x="4485" d="M63 424q4 36 36 71t87 52q53 17 125 17q31 0 67 -4q116 -10 248 -42.5t300.5 -70t347 -67.5t389.5 -36q31 -1 62 0q181 0 366 27q8 -11 10 -27q2 -30 -28 -35q-169 -26 -347 -29h-58q-144 0 -268 12q-150 15 -296 37t-268.5 45t-228.5 39q-103 16 -189 16q-4 -1 -6 -1 q-88 0 -148 -22q-34 -13 -63 -28t-45 -28.5t-27.5 -24.5t-15.5 -17l-4 -7q-26 19 -38 53q-9 26 -9 52q0 9 1 18zM2146 346q-1 11 -1 20q-1 38 21 60q25 25 69 26q5 0 10 -1q54 -1 78 -31q18 -22 18 -52q0 -10 -2 -22q-7 -36 -34 -61.5t-58 -28.5h-9q-36 0 -60 23 q-27 26 -32 67zM2388 358q2 7 4 10l2 3q144 -22 290 -26q42 -1 82 -2q102 0 192 8q128 10 254 29t237 43t215 49t195 45.5t170 33.5t148.5 13t121.5 -17q55 -17 87 -51q32 -36 36 -72q1 -10 2 -19q0 -26 -9 -51q-12 -34 -38 -53q-1 2 -4 6.5t-15.5 17.5t-28.5 25t-45 27.5 t-63 28.5q-61 23 -153 23q-12 -1 -26 -1q-110 -4 -235.5 -26.5t-286 -50t-332 -49.5t-371.5 -22q-3 0 -7 -1q-197 0 -397 30q-29 5 -29 31q0 8 4 18z" />
<glyph unicode="l" horiz-adv-x="2740" d="M68 518q2 -1 7 -3t22.5 -6t37.5 -5.5t52.5 1t68.5 11.5q104 24 218 36q88 9 186 8h62q134 -4 262.5 -43.5t221.5 -113.5q1 -1 6.5 -4.5t7 -5.5t5.5 -7.5t3 -10t-1 -13.5q-2 -6 -5.5 -11.5t-6.5 -8.5l-3 -2q-98 66 -198.5 98t-181.5 33h-10q-76 1 -156 -13 q-86 -14 -149 -36.5t-133.5 -43t-115.5 -24.5q-18 -2 -35 -2q-89 0 -133 46q-38 38 -38 82q0 18 6 38zM1274 350q-1 11 -1 20q0 38 21 60q25 26 71 25h7q54 -3 78 -32q18 -22 18 -52q0 -10 -2 -21q-7 -37 -33.5 -63t-58.5 -29h-8q-36 0 -60 24q-26 27 -32 68zM1511 378 q0 4 3 8q4 5 6 7t7 5.5t7 4.5q93 74 222 113q128 40 262 44q31 1 62 0q98 0 186 -8q114 -12 218 -36q61 -14 102 -14h2q42 0 62 8l21 8q7 -20 7 -39q0 -43 -38 -81q-46 -46 -134 -46q-16 0 -34 2q-46 4 -116.5 24.5t-133.5 42.5q-62 23 -148 37q-80 14 -156 13h-10 q-80 -1 -181 -33t-199 -98q-11 8 -15 22z" />
<glyph unicode="m" horiz-adv-x="5005" d="M64 428q-1 9 -1 19q0 60 48 131q95 132 309 193q176 50 403 50q49 0 99 -2q290 -13 657 -108t752 -265q21 -9 29 -30q9 -21 -15 -20q-15 1 -41 12q-271 116 -529 193q-257 77 -473 111q-204 32 -381 32h-21q-186 -2 -321.5 -40.5t-223.5 -110.5t-117 -173 q-12 -38 -17 -74t-5 -53l1 -17q-54 1 -99 43t-54 109zM430 149q-1 9 -1 19q0 60 48 131q91 126 271 188q169 58 403 58h31q254 -4 590.5 -85.5t721.5 -236.5q10 -5 13 -8q4 4 12 8q385 155 721.5 236.5t590.5 85.5h31q234 0 403 -58q180 -62 271 -188q48 -72 49 -131 q0 -10 -2 -19q-9 -67 -54.5 -109t-98.5 -42q1 8 1 16q0 53 -22 127q-34 116 -129 193.5t-255 111.5q-114 24 -255 23q-56 1 -118 -3q-214 -14 -497 -85.5t-611 -198.5l-21 -8q-2 -2 -16 -2q-10 -2 -19 2q-12 4 -18 8q-328 127 -611.5 198.5t-496.5 85.5q-61 4 -118 3 q-142 1 -256 -23q-160 -34 -255 -111.5t-129 -193.5q-11 -38 -16 -74t-4 -53v-16q-53 0 -99 42t-55 109zM2277 580q-1 11 -1 20q0 37 22 59q26 25 71 25h7q54 -4 78 -32q18 -21 18 -51q0 -10 -2 -21q-7 -38 -34 -64t-58 -29h-8q-37 1 -61 25q-27 28 -32 68zM2406 360 q-1 10 -1 20q0 38 22 60q26 26 71 25h7q55 -3 79 -32q18 -21 18 -50q0 -11 -3 -23q-7 -38 -33.5 -63t-58.5 -27q-6 -1 -11 -1q-35 -1 -58 23q-27 26 -32 68zM2527 584q-1 10 -1 20q0 38 22 59q26 25 73 25h7q54 -4 78 -32q17 -21 17 -49q0 -11 -3 -23q-7 -38 -33 -63.5 t-59 -28.5h-8q-36 0 -61 24q-27 27 -32 68zM2643 408q1 17 23 33q5 3 9 5q385 170 752 265t657 108q51 2 99 2q227 0 403 -50q214 -61 309 -193q48 -72 48 -131q0 -10 -1 -19q-9 -67 -54 -109t-98 -43q1 10 1 20q0 52 -21 124q-36 122 -153.5 201t-308.5 107 q-108 16 -233 16q-97 0 -201 -10q-242 -22 -545 -104.5t-628 -221.5q-29 -12 -43.5 -12t-14.5 12z" />
<glyph unicode="n" horiz-adv-x="3123" d="M64 511q2 23 14 44q34 62 120 88q71 21 152 21h36q102 -6 224 -33q1152 -259 1452 -318q455 -90 658 -90q24 0 45 1q100 7 157 40q50 31 50 70q0 37 -52 50q-18 4 -42 4q-26 0 -58 -5q-20 -4 -24 9t2 28l6 14q42 8 79 8q76 0 129 -33q49 -30 49 -74q0 -9 -2 -19 q-8 -31 -40 -60q-66 -60 -239 -71q-49 -3 -102 -3q-132 0 -287 20q-216 28 -484 75t-504.5 97.5t-471.5 93.5t-366 54q-38 3 -72 3q-268 0 -352 -185l-6.5 6.5t-15.5 18t-20.5 28t-19 35t-13.5 40.5q-2 12 -2 26q-1 8 0 17zM2570 367q-1 11 -1 20q0 39 22 61q26 26 71 25h7 q55 -3 79 -32q18 -21 18 -50q0 -11 -3 -22q-7 -38 -33 -64t-59 -29h-8q-36 0 -61 24q-27 27 -32 67z" />
<glyph unicode="o" horiz-adv-x="6381" d="M64 329q2 23 14 44q34 62 120 88q71 21 152 21h36q102 -6 224 -33q1152 -259 1452 -318q455 -90 658 -90q24 0 45 1q100 7 157 40q29 17 29 42q0 8 -3 18q-10 31 -42 37q-6 1 -12 1q-45 0 -82 -63q-3 -6 -6 -11q-12 -17 -23.5 -12.5t-19.5 18.5l-8 15q46 86 141 90h7 q68 0 113 -39q29 -26 29 -53q0 -15 -9 -31q-6 -10 -17 -20q-66 -60 -239 -71q-49 -3 -102 -3q-132 0 -287 20q-216 28 -484 75t-504.5 97.5t-471.5 93.5t-366 54q-38 3 -73 3q-269 0 -351 -185l-6.5 6.5t-15.5 18t-20.5 28t-19 35t-13.5 40.5q-2 12 -2 26q-1 8 0 17z M536 728q-1 9 -1 19q1 19 5 39q8 32 29 56q49 52 139 56h17q81 0 169 -28q98 -32 210 -90q594 -309 987 -419q296 -83 556 -83q85 0 167 9q29 3 45.5 -13.5t-20.5 -26.5l-15 -3q-102 -16 -216 -16q-242 0 -539 73q-437 108 -1037 385q-117 55 -214 55q-145 0 -243 -123 q-3 6 -8.5 16t-16 39t-14.5 55zM2886 340q-1 9 -1 18q1 39 23 61q26 25 71 25h7q54 0 78 -30q17 -21 17 -51q0 -11 -3 -23q-8 -37 -34 -63t-58 -27h-9q-36 0 -59 23q-26 26 -32 67zM3086 193q-1 11 -1 20q0 39 22 61q26 26 73 25h7q53 -3 77 -32q17 -21 18 -49q0 -11 -3 -23 q-7 -38 -33 -64t-59 -29h-8q-36 0 -61 24q-27 27 -32 67zM3101 422q-1 9 -1 17q0 33 20 53q22 22 60 23q5 0 9 -1q48 0 69 -26q15 -18 15 -45q0 -10 -2 -21q-6 -32 -29.5 -54.5t-52.5 -25.5h-8q-31 0 -51 20q-24 24 -29 60zM3291 340q-1 11 -1 20q0 37 22 59q26 25 72 25h7 q54 -4 78 -32q17 -21 18 -49q0 -11 -3 -23q-7 -38 -33.5 -63.5t-59.5 -28.5h-8q-37 0 -61 24q-26 27 -31 68zM3354 164q33 43 103 51q14 2 27 2q74 0 122 -57q13 -15 23 -33q-1 -3 -3.5 -6.5t-8.5 -12t-12.5 -13t-14.5 -2.5t-14 13q-40 74 -90 74h-5q-35 -4 -47 -35 q-4 -11 -4 -20q0 -23 25 -41l4 -2q71 -42 219 -42q125 0 305 30q392 66 1591 335q129 29 197 44q123 27 225 33q18 1 34 0q83 0 154 -22q86 -26 120 -87q15 -30 15 -60q0 -31 -13 -60q-12 -28 -26.5 -49t-25.5 -34l-12 -12q-19 41 -46.5 73t-75.5 62q-46 31 -124 43 q-47 8 -104 7q-36 0 -76 -3q-151 -13 -449.5 -70.5t-592.5 -117t-590 -107.5q-279 -45 -493 -45h-26q-222 3 -300 74q-27 24 -27 50q0 20 16 40zM3499 267q4 15 35 19q9 2 17 1q81 -9 166 -9q259 0 555 83q392 110 987 419q111 58 209 90q88 28 170 28h18q90 -4 138 -56 q22 -24 30 -56q5 -19 5 -36q-1 -12 -3 -24q-6 -28 -13.5 -53t-16.5 -40l-8 -15q-99 123 -243 123q-97 0 -214 -55q-600 -277 -1037 -385q-297 -73 -539 -73q-114 0 -216 16q-43 7 -40 23z" />
<glyph unicode="p" horiz-adv-x="3235" d="M62 320q-1 4 -1 9q0 41 39 87q96 104 290 120q31 2 63 2q176 0 417 -71q284 -84 609 -264q15 -9 13 -27q-1 -22 -32 -10q-7 2 -14 6q-260 140 -479.5 216t-374.5 84q-26 2 -49 2q-123 0 -209 -37q-101 -44 -141 -138q-10 -25 -16.5 -48.5t-7.5 -34.5l-1 -11 q-37 4 -69 36.5t-37 78.5zM1450 307q-1 9 -1 16q0 29 17 46q20 20 55 20h7q40 -1 58.5 -24t12.5 -58q-6 -29 -26 -48t-45 -21q-33 -3 -54 17.5t-24 51.5zM1544 139q-1 9 -1 16q0 29 17 46q20 20 55 20h7q41 -1 59.5 -24t12.5 -58q-6 -29 -26.5 -48t-45.5 -21h-8 q-28 0 -45 17q-20 20 -25 52zM1636 305q-1 9 -1 17q0 28 16 44q19 19 54 19h7q42 -1 61 -24t11 -56q-4 -29 -24.5 -49t-45.5 -23q-34 -1 -54.5 19.5t-23.5 52.5zM1744 172q-1 4 -1 7q0 13 11 22q2 1 3 2q325 180 609 264q240 71 415 71q33 0 63 -2q194 -16 289 -120 q40 -46 40 -87q0 -5 -1 -9q-5 -46 -36.5 -78.5t-67.5 -36.5q-2 37 -25 94q-40 94 -141 138q-86 37 -209 37q-23 0 -49 -2q-155 -8 -375 -84t-481 -216q-19 -10 -30 -10t-14 10z" />
<glyph unicode="q" horiz-adv-x="2342" d="M68 524q-4 17 -4 35.5t4 36.5q8 37 45.5 68.5t99.5 42.5q50 8 121 8q98 0 238 -15q241 -27 513 -82q6 -1 207 -42.5t273.5 -54.5t230 -41t262.5 -38q95 -10 169 -10h14q2 0 7 1t7 1q27 -17 27 -29q0 -8 -11 -14q-18 -8 -58 -8h-9q-388 11 -1166 143q-209 35 -438 38h-53 q-187 0 -279 -19q-57 -11 -99.5 -31t-56.5 -34l-14 -15q-22 23 -30 59z" />
<glyph unicode="r" horiz-adv-x="2338" d="M62 308q3 36 32 69t80 51q-2 6 -2 18q-2 18 -2 35q0 214 246 283q146 41 401 41q207 0 486 -27q138 -11 267 -11q88 0 172 5q206 13 329 47q56 15 97 38t54 39l12 15q22 -21 33 -54q9 -27 9 -55v-13q-2 -35 -31 -68t-80 -51q0 -13 2 -19q2 -18 2 -35q1 -214 -245 -283 q-146 -41 -402 -41q-207 0 -486 27q-136 11 -264 11q-88 0 -174 -6q-208 -12 -330 -45q-56 -15 -97 -38t-54 -39l-13 -16q-23 20 -34 53q-9 26 -9 53q0 8 1 16zM223 440q109 18 258 18q53 0 111 -2q222 -8 485 -42q335 -42 557 -42h51q233 6 337 74q94 62 95 185q0 12 -1 24 q-110 -16 -254 -16q-56 1 -116 3q-218 8 -484 40q-332 43 -554 43q-28 0 -54 -1q-234 -6 -338 -74q-94 -62 -94 -186q0 -11 1 -24z" />
<glyph unicode="s" horiz-adv-x="2957" d="M69 141q-7 21 -7 42q0 24 9 50q17 48 72 80q49 26 115 39q-2 8 -2 27v16q0 54 18 100q20 52 56.5 91t98.5 69t130.5 50.5t166 34.5t191.5 22t220 12t238 6t260 4q124 1 188 2q583 6 835 164q48 31 80 65.5t40 52.5l7 19q31 -15 59 -50.5t44 -79.5q8 -21 7 -44 q-1 -25 -9 -49q-16 -48 -70 -80q-49 -27 -117 -41q5 -14 8 -55v-12q0 -191 -213 -279q-194 -78 -645 -92q-137 -4 -420 -4h-119h-173q-594 -3 -838 -156q-49 -31 -81.5 -65t-39.5 -52l-8 -18q-30 15 -58 51t-43 80zM307 362q223 41 612 41q117 0 250 -4q54 -2 159 -5 q238 -12 448 -12q45 0 88 1q247 3 427 27q179 22 277 100q88 70 89 187q0 12 -1 24q0 2 -1 6t-1 6q-154 -30 -391 -41q-163 -8 -324 -8q-73 0 -147 2q-458 8 -632 8h-59q-439 -6 -619 -84q-175 -76 -175 -237v-11z" />
<glyph unicode="t" horiz-adv-x="1294" d="M61 752v14q1 54 29 98q32 50 90 66q21 5 40 6q38 0 66 -22q44 -32 64 -96.5t21 -155.5q22 11 107.5 57.5t145 75.5t143.5 63q85 36 157 48q39 7 72 6q30 0 57 -5q57 -11 91.5 -41.5t42.5 -66.5q4 -17 4 -35q-1 -18 -5 -36q-8 -34 -31 -56l-5 7.5t-16.5 17.5t-30.5 23.5 t-47.5 22t-66.5 17.5q-18 3 -40 3q-83 1 -223 -41q-176 -52 -353 -128q-2 -2 -6 -2q0 -10 -5 -60q-11 -84 -47 -137q-13 -18 -29 -18.5t-25.5 7.5t-6.5 11q49 55 61 140q2 14 2 40q-28 -6 -54 -6q-92 0 -157 76q-41 45 -45 107zM100 347q5 49 37 79l5 -7.5t16.5 -17.5 t30.5 -23.5t47.5 -22t66.5 -17.5q19 -3 41 -3q84 -1 223 41q176 52 353 128q1 0 3 1t3 1l6 59q7 76 45 137q14 18 30 18.5t25 -7.5t6 -11q-51 -60 -59 -141l-4 -39q27 5 53 5q95 0 160 -74q40 -47 44 -109v-11q0 -55 -30 -100q-32 -50 -90 -65q-22 -6 -42 -6q-62 0 -98 58 q-46 76 -48 216q-26 -13 -108 -58t-144.5 -75.5t-144.5 -64.5t-155 -47q-38 -7 -72 -7q-31 0 -58 6q-75 14 -111 61q-32 41 -32 84q0 6 1 12zM132 758q-3 -13 -3 -24q0 -21 10 -38q27 -46 75 -60q21 -6 44 -7q28 0 59 10q-6 93 -44 139q-26 32 -64 32q-17 0 -37 -7 q-31 -10 -40 -45zM975 457q5 -91 43 -137q26 -32 64 -32q18 0 38 7q31 11 40 45q3 12 3 23q0 20 -10 38q-27 46 -75 61q-22 7 -45 7q-27 0 -56 -10z" />
<glyph unicode="u" horiz-adv-x="1832" d="M62 876v12q0 56 30 104q32 53 90 69q22 5 41 6q63 -1 97 -59q44 -76 47 -222q163 56 275 93t236.5 74t216.5 56.5t186 32.5q84 12 157 12h17q80 -2 155 -16q57 -11 92.5 -41.5t43.5 -66.5q4 -17 4 -35q0 -17 -4 -35q-8 -34 -32 -57l-5 7.5t-16.5 17t-30.5 23t-47.5 22.5 t-66.5 18q-132 19 -276 19h-34q-162 -2 -383.5 -48.5t-479.5 -136.5q-2 -2 -8 -2q0 -10 -1 -30.5t-1 -30.5q-9 -151 -38 -256.5t-51 -135.5q-14 -18 -30 -18.5t-25 7.5t-6 11q34 38 63 136t37 260v43q-35 -7 -65 -7q-91 0 -144 64q-40 46 -44 110zM88 168q-4 17 -4 33 q0 19 5 37q9 35 32 57l5 -7.5t16 -17.5t30 -23.5t47 -22t66 -17.5q133 -19 277 -19h34q162 2 384 48.5t480 136.5q4 0 6 2q0 21 4 61q8 149 36 252t50 139q14 18 30 18.5t25.5 -7.5t6.5 -11q-33 -38 -62 -136t-38 -259q-2 -16 -2 -43q34 7 64 7q93 0 146 -64q41 -46 45 -110 q0 -7 1 -14q0 -56 -30 -103q-33 -53 -91 -68q-23 -6 -43 -6q-60 0 -94 57q-44 76 -48 223q-163 -56 -274.5 -93t-236.5 -74t-216 -56.5t-185 -32.5q-85 -12 -159 -12q-9 1 -17 1q-80 2 -155 15q-57 11 -92 42t-43 67zM133 884q-4 -14 -4 -27q0 -23 12 -40q25 -45 73 -57 q18 -4 37 -4q31 0 64 12q-8 96 -43 142q-24 31 -61 31q-17 0 -37 -7q-31 -10 -41 -50zM1518 328q6 -94 42 -140q24 -31 61 -31q18 0 38 7q31 10 41 50q4 15 4 29q0 22 -10 38q-28 43 -76 55q-18 4 -35 5q-32 0 -65 -13z" />
<glyph unicode="v" horiz-adv-x="1265" d="M61 1006q2 37 32 66.5t75 33.5h8q42 0 90 -37q47 -39 111 -115.5t110.5 -141t117 -166.5t95.5 -136q117 -161 200 -251q84 -89 131 -113q24 -12 43 -12q18 0 32 11q4 4 6.5 9t3.5 8v2q12 4 18.5 -1t4.5 -14.5t-13 -19.5q-20 -18 -47 -18q-45 1 -111 53q-104 84 -306 334 q-284 361 -455 460q-41 24 -77.5 36t-52.5 12h-16zM141 1155q20 18 47 18q46 0 112 -53q105 -84 304 -334q288 -363 455 -460q42 -24 78 -35t51 -11l16 1q-2 -37 -31.5 -67t-74.5 -34q-4 0 -9 -1q-41 0 -90 38q-47 38 -110.5 114t-110 141t-116 165.5t-95.5 136.5 q-272 376 -375 376q-17 0 -30 -11q-5 -4 -7.5 -8.5t-2.5 -6.5v-2q-12 -4 -20 0q-6 3 -5 9q0 13 14 24z" />
<glyph unicode="w" horiz-adv-x="1441" d="M61 1067q2 37 32 66t75 33h8q42 0 90 -38q28 -24 43 -41l6 7q20 18 47 18q46 0 112 -52q106 -84 306 -335q283 -357 455 -461q41 -24 77 -35t52 -11l16 1q-2 -37 -32 -67q-29 -30 -74 -34h-9q-41 0 -89 38q-8 6 -46 39q0 -1 -4 -5q-20 -18 -48 -18q-46 0 -112 52 q-105 84 -304 335q-290 365 -455 461q-42 24 -78.5 36t-52.5 12zM330 1069q56 -59 121.5 -147t144 -201.5t104.5 -149.5q269 -375 373 -375q18 0 31 11l8 8q-56 60 -118 141.5t-152.5 212t-100.5 144.5q-117 161 -201 251t-130 113q-23 12 -41.5 11.5t-32.5 -11.5 q-6 -6 -6 -8z" />
<glyph unicode="x" horiz-adv-x="1521" d="M61 1028q2 37 32 67t75 34h8q42 0 90 -37q1 -1 4.5 -4t6 -5.5t4.5 -5.5q3 7 12 17q37 34 85 34t115.5 -37.5t160 -129.5t206.5 -236q288 -361 455 -461q42 -24 78 -35t51 -11l16 1q-2 -37 -32 -66.5t-75 -33.5h-8q-42 0 -90 37l-14 12q-2 -6 -12 -16q-36 -33 -84 -33 q-55 1 -127 43q-134 80 -356 358q-290 365 -455 461q-42 24 -78.5 36t-52.5 11h-15zM301 1059q59 -57 126 -143.5t164 -226.5t109 -157q84 -115 157 -195.5t125.5 -121.5t97.5 -58q36 -13 61 -14q7 -1 13 1q29 4 52 24q5 4 8 8.5t3 7.5v2h2q-45 44 -105 120t-99 130 t-109 154.5t-85 122.5q-84 115 -157 196t-125.5 122t-97.5 57q-35 13 -61 13q-7 -1 -13 -1q-29 -4 -52 -23q-5 -4 -7.5 -8t-2.5 -6v-2q-1 0 -2 -1t-2 -1z" />
<glyph unicode="y" horiz-adv-x="1400" d="M61 883q1 37 30.5 66.5t74.5 33.5h8q42 0 92 -37l15 -12q2 4 12 14q32 29 59 40q18 8 42 8q13 0 27 -2q42 -6 92 -42t122 -110t164 -189q103 -130 181.5 -212t119.5 -113.5t96 -63.5q41 -24 76.5 -35t51.5 -11l15 1q-1 -37 -30 -66.5t-74 -33.5h-8q-42 0 -92 37l-15 12 q-3 -10 -12 -16q-32 -29 -59 -40q-17 -8 -41 -8q-13 0 -28 2q-42 7 -92 42.5t-122 110t-164 190.5q-149 186 -232 263.5t-163 123.5q-42 24 -78.5 36t-52.5 12zM301 913q53 -52 109 -125t129 -181t100 -146q83 -115 151 -188.5t110.5 -105t81.5 -35.5q12 -2 22 -2q22 0 36 6 q20 10 47 32q5 4 8 8.5t3 7.5v2h2q-54 52 -110.5 127t-127.5 181t-100 147q-83 115 -151 188t-111 104.5t-82 36.5q-11 1 -22 1q-22 0 -36 -7q-20 -10 -47 -32q-5 -4 -7.5 -8t-2.5 -6v-3z" />
<glyph unicode="z" horiz-adv-x="1396" d="M63 698q-1 5 -1 10q0 32 22 62q24 34 69 48q16 5 35 5q33 0 74 -16q117 -51 266 -207q71 61 193 139q-13 30 -16 41q-158 393 -265 500q-34 34 -65.5 54.5t-46.5 23.5l-15 4q8 25 28 40.5t46 17.5q3 0 6 1q24 -1 52 -17q32 -18 61 -58q46 -62 85.5 -153t86.5 -227.5 t65 -183.5q2 -8 9 -22l6 4q361 227 446 348q27 40 41.5 75t15.5 51l1 15q36 -5 57 -31q15 -19 15 -47q0 -11 -2 -23q-8 -44 -52 -91q-54 -56 -133.5 -110t-211.5 -129.5t-167 -96.5l-2 -2q35 -84 71.5 -153.5t69 -117t64.5 -83t59.5 -54.5t53.5 -28.5t46.5 -8.5t38.5 9 q6 3 10 6.5t5 5.5v2q13 1 18.5 -5.5t1 -15.5t-17.5 -16q-27 -14 -58 -14q-1 0 -2 -1q-30 0 -65 14q-36 14 -75 48.5t-80 86t-85 130t-86 177.5q-105 -66 -182 -130q13 -14 76 -81.5t96 -98.5q233 -227 363 -300q84 -48 144 -47q32 0 56 13q5 3 8 6.5t4 6.5v2q13 2 19.5 -3.5 t2.5 -14.5t-17 -17q-35 -21 -71 -23h-7q-35 0 -77 15q-48 17 -113 61.5t-148 112t-199 170.5q-86 77 -188 155q-62 -55 -100 -105q-38 -51 -52 -89q-12 -34 -12 -60v-8q2 -30 18 -51q4 -5 8 -8t6 -3l3 -1q3 -12 -2 -18.5t-14.5 -4t-18.5 14.5q-21 27 -26 63q-1 10 -1 20 q-1 28 9 60q14 44 53 98t102 113q-115 87 -231 129q-44 17 -90 21q-20 2 -36 2q-20 0 -32 -3z" />
<glyph unicode="{" horiz-adv-x="5015" d="M62 500.5q-3 47.5 14 96.5t49.5 90t92.5 71.5t138 40.5q154 20 465.5 -16.5t610 -93t713 -137t638.5 -116.5q227 -37 448 -61.5t469 -33.5t456 6.5t394.5 66.5t299.5 137l24 20q82 6 79 -31q-2 -40 -101 -110q-86 -61 -212 -103.5t-263 -65.5t-311.5 -32t-332 -7.5 t-350.5 13.5t-340.5 25.5t-328.5 32.5q-134 14 -321.5 39t-357 48.5t-361 49t-361.5 44t-328.5 30.5t-292.5 10t-225 -18q-72 -13 -133 -34.5t-97 -42.5t-62 -40t-36 -31l-10 -12q-30 30 -47 73.5t-20 91z" />
<glyph unicode="}" horiz-adv-x="2328" d="M71.5 427q-18.5 39 2 52t98.5 -28q184 -105 380 -166.5t373.5 -75t343 14t294.5 91.5t221 165t129 229q23 78 33 149.5t9 103.5l-1 33q51 0 103.5 -22.5t97 -62t73.5 -97t37 -122t-16.5 -142.5t-83.5 -154q-99 -127 -253 -214t-355 -123t-428 -20.5t-488 99.5t-518 232 q-33 19 -51.5 58z" />
<glyph unicode="&#xa1;" horiz-adv-x="4747" d="M63 482q-3 62 16.5 123t77.5 115t148 83q131 42 285.5 54.5t389 -7t570 -86t791.5 -182.5q334 -77 640 -115t510.5 -40.5t382 15t262 37.5t144.5 41q69 24 124.5 56.5t86 62t51 55t26.5 40.5l7 16q42 -28 71.5 -78t35.5 -112t-10.5 -123.5t-72 -118.5t-143.5 -91 q-242 -93 -757.5 -46t-1453.5 249q-336 72 -623 109t-462.5 43t-330 -9t-217 -30t-132.5 -36q-10 -4 -15 -5q-70 -21 -127 -50.5t-88.5 -57.5t-53.5 -52.5t-29 -39.5l-7 -15q-41 30 -67.5 81.5t-29.5 113.5z" />
<glyph unicode="&#xa2;" horiz-adv-x="1531" d="M64 338q-9 41 9.5 85t65.5 69q-10 20 -4 67q12 137 105.5 207.5t269.5 64.5q99 -3 290.5 -14.5t329.5 -19t285.5 -5t222.5 22.5q56 15 96.5 38t53.5 39l12 15q28 -25 37.5 -66t-9 -84.5t-65.5 -68.5q10 -20 4 -67q-12 -138 -105.5 -208.5t-270.5 -64.5q-99 3 -289.5 14.5 t-329 19.5t-286 5.5t-222.5 -22.5q-56 -15 -97 -38t-54 -39l-13 -16q-27 25 -36 66zM180 508q12 4 17 4q53 11 141 11.5t185.5 -6.5t220.5 -20t231.5 -26.5t233.5 -27.5t212 -21q151 -13 221 46.5t78 190.5v13q-8 -4 -16 -4q-52 -11 -140 -12t-185 6.5t-220.5 20t-231.5 26 t-234 27.5t-212 22q-152 13 -222.5 -47.5t-78.5 -190.5v-12z" />
<glyph unicode="&#xa7;" d="M64 338q-9 41 9.5 85t65.5 69q-10 20 -4 67q12 137 105.5 207.5t269.5 64.5q99 -3 290.5 -14.5t329.5 -19t285.5 -5t222.5 22.5q56 15 97 38t54 39l13 15q27 -25 36 -66t-9.5 -84.5t-65.5 -68.5q10 -20 4 -67q-12 -138 -105.5 -208.5t-270.5 -64.5q-99 3 -289.5 14.5 t-329 19.5t-286 5.5t-222.5 -22.5q-56 -15 -97 -38t-54 -39l-13 -16q-27 25 -36 66z" />
<glyph unicode="&#xab;" horiz-adv-x="3358" d="M71.5 500.5q-18.5 39.5 2 52t98.5 -28.5q224 -128 462.5 -216t461 -129t442 -48t410 21.5t359.5 85.5t297 138.5t215.5 185.5t121.5 222q23 77 33 149t9 105l-1 33q51 0 103.5 -23.5t97.5 -63t74 -96.5t37 -121.5t-16.5 -142t-84.5 -153.5q-86 -111 -222 -205.5 t-319 -164t-396.5 -109t-467 -35t-518.5 51.5t-561.5 157t-585.5 276q-33 19 -51.5 58.5z" />
<glyph unicode="&#xad;" horiz-adv-x="993" d="M23 637q3 51 56.5 54.5t246.5 -27.5q73 -14 120 -25q-29 36 -84 125q-113 168 -124 206.5t45 65.5q44 23 71.5 -18.5t100.5 -231.5q38 -107 41 -116q15 44 63 135q90 183 118.5 212.5t78.5 -5.5q35 -23 28 -53q-9 -36 -101 -153l-56 -69q-53 -65 -80 -94q57 6 149 12 q202 13 241 4t34 -71q-3 -50 -56 -53t-245 28q-83 12 -123 23q12 -15 86 -123q114 -170 125 -208t-45 -65q-44 -23 -71.5 18.5t-100.5 229.5q-34 86 -43 119q-5 -12 -64 -137q-91 -183 -117 -210.5t-77 5.5q-35 23 -28 52q8 36 99 150q19 24 58 72q36 47 80 95 q-62 -10 -150 -13q-202 -13 -240.5 -3.5t-35.5 69.5z" />
<glyph unicode="&#xb0;" d="M62 196.5q0 2.5 12 8.5q7 4 9.5 7t0.5 6t-10 7q-12 5 -12 7t12 8q7 4 9.5 7t0.5 6t-10 7q-12 4 -12 6t12 8q20 11 0 21q-12 5 -12 6.5t12 7.5q21 12 0 21q-17 9 -2 10h10h592q14 0 14 -1.5t-12 -10.5q-7 -6 -9 -9.5t0 -6t9 -5.5q12 -6 12 -8t-12 -8q-20 -11 0 -21 q12 -4 12 -6t-12 -8q-7 -4 -9.5 -7t-0.5 -6t10 -7q12 -5 12 -7t-12 -8q-7 -4 -9.5 -7t-0.5 -6t10 -7q12 -5 12 -7t-12 -8q-7 -4 -9 -7t0.5 -6t10.5 -7q15 -9 0 -10h-10h-590q-14 0 -14 1.5t10 10.5q12 9 11.5 13t-11.5 9q-12 4 -12 6.5z" />
<glyph unicode="&#xbb;" horiz-adv-x="3956" d="M70 505q-21 38 9 48q29 9 99 -18q380 -148 725 -249t623.5 -150.5t525.5 -62t438 10t352.5 72.5t277 119t204 155.5t141 176t80.5 186.5q23 78 33 149.5t9 103.5l-1 33q62 0 123.5 -30.5t107 -87.5t67.5 -129t1.5 -165t-88.5 -186q-79 -109 -202.5 -202t-308.5 -168.5 t-410.5 -118.5t-522 -43t-628 47t-742.5 162.5t-854 294.5q-39 15 -59 52z" />
<glyph unicode="&#xbf;" horiz-adv-x="3069" d="M61.5 453q-2.5 48 14 97t49.5 90t93 71.5t138 40.5q137 18 296.5 10.5t313 -34.5t325 -63t331.5 -76t333.5 -72.5t330 -52.5t322 -16.5t308.5 35.5q18 4 29 9q29 -11 46 -32t16.5 -46t-14 -49.5t-46.5 -44.5t-80 -29q-169 -30 -324.5 -27.5t-335.5 23.5t-344 53.5 t-349.5 63.5t-351.5 53t-350.5 21.5t-346.5 -29.5q-72 -13 -133 -34.5t-97 -42.5t-62 -40t-36 -31l-10 -12q-29 30 -46 73t-19.5 91z" />
<glyph unicode="&#xc0;" horiz-adv-x="1644" d="M63 352q4 37 35.5 71t87.5 50q97 28 355.5 30.5t615 -10t420.5 -12.5q6 -12 6 -28q-2 -31 -33 -31q-386 4 -765 -18.5t-521 -71.5q-55 -18 -93.5 -44.5t-50.5 -43.5l-11 -17q-25 20 -37.5 54t-8.5 71z" />
<glyph unicode="&#xc1;" horiz-adv-x="1802" d="M63 352q4 37 35.5 71t87.5 50q97 28 391.5 30.5t699 -10t458.5 -12.5q1 -1 2 -3.5t2 -10t0 -14.5q0 -31 -33 -31q-405 4 -853.5 -18.5t-588.5 -71.5q-55 -18 -93.5 -44.5t-50.5 -43.5l-11 -17q-25 20 -37.5 54t-8.5 71z" />
<glyph unicode="&#xc2;" horiz-adv-x="1957" d="M63 352q4 37 35.5 71t87.5 50q97 28 427.5 30.5t783.5 -10t493 -12.5q6 -12 6 -28q-2 -31 -32 -31q-424 4 -942.5 -19t-657.5 -71q-55 -18 -93.5 -44.5t-50.5 -43.5l-11 -17q-25 20 -37.5 54t-8.5 71z" />
<glyph unicode="&#xc7;" horiz-adv-x="4009" d="M61 621q123 63 326 98.5t423 41.5t451 -5t421.5 -34t324.5 -52q376 -80 806 -98.5t710 24.5q103 15 209.5 45t161.5 53l55 23q-16 -42 -57.5 -104.5t-75.5 -104.5l-33 -41q37 -34 77.5 -83t61.5 -82l22 -32q-152 -82 -407 -122t-546.5 -36.5t-587.5 33.5t-566 82 q-502 102 -954 92.5t-785 -139.5l-14 -2l154 264q-48 38 -92.5 83t-64.5 71z" />
<glyph unicode="&#xc8;" horiz-adv-x="686" d="M61 125v430q33 0 56.5 23.5t23.5 56.5h404q0 -34 23 -57t57 -23v-430q-33 0 -56.5 -23.5t-23.5 -56.5h-404q0 32 -24 56t-56 24zM88 139q29 0 49.5 -20t20.5 -49h368q0 29 21 49t49 20v400q-28 0 -49 20.5t-21 48.5h-368q0 -28 -20.5 -48.5t-49.5 -20.5v-400z" />
<glyph unicode="&#xc9;" horiz-adv-x="1081" d="M61 227v226q33 0 56.5 23t23.5 56h799q0 -33 23.5 -56t56.5 -23v-226q-32 0 -56 -24t-24 -56h-799q0 32 -24 56t-56 24zM88 242q29 0 49.5 -20.5t20.5 -49.5h766q0 29 19.5 49.5t47.5 20.5v194q-27 0 -47 21t-20 49h-766q0 -28 -20.5 -49t-49.5 -21v-194z" />
<glyph unicode="&#xca;" horiz-adv-x="686" d="M61 227v226q33 0 56.5 23t23.5 56h404q0 -34 23 -56.5t57 -22.5v-226q-33 0 -56.5 -23.5t-23.5 -56.5h-404q0 32 -24 56t-56 24zM88 242q29 0 49.5 -20.5t20.5 -49.5h368q0 29 20.5 49.5t49.5 20.5v194q-29 0 -49.5 21t-20.5 49h-368q0 -28 -20.5 -49t-49.5 -21v-194z " />
<glyph unicode="&#xcb;" horiz-adv-x="1081" d="M61 176v328q33 0 56.5 23.5t23.5 56.5h799q0 -33 23.5 -56.5t56.5 -23.5v-328q-32 0 -56 -24t-24 -56h-799q0 32 -24 56t-56 24zM88 190q29 0 49.5 -20t20.5 -49h766q0 29 19.5 49t47.5 20v297q-27 0 -47 21t-20 49h-766q0 -28 -20.5 -49t-49.5 -21v-297z" />
<glyph unicode="&#xcc;" horiz-adv-x="6666" d="M64.5 63.5q0.5 22.5 1.5 26.5q83 14 146 45t128 92q96 86 158 207q-142 32 -219 103q-71 61 -97.5 137.5t-9.5 145t59 126.5t108.5 89.5t137.5 25.5q75 -7 126.5 -53.5t71.5 -119t14.5 -164.5t-38.5 -189q224 -9 650 60.5t1163 231.5q275 61 661 147t625.5 139.5 t554.5 122.5t514.5 108.5t435 83.5t386.5 62.5t299.5 30t243 1.5t150.5 -37q116 -56 183 -141t80.5 -175.5t-11.5 -186.5t-83 -176t-144.5 -141t-185.5 -85q-2 6 -7.5 16t-28.5 38t-53.5 53.5t-88 56t-127.5 51.5q-60 18 -166 36t-283.5 34.5t-389 25t-494.5 1t-586.5 -31.5 t-679.5 -77t-760 -132q-760 -156 -1213.5 -209.5t-695.5 -25.5q-78 -152 -192 -258q-128 -117 -248 -146q-44 -11 -70 9t-25.5 42.5zM315.5 711.5q4.5 -43.5 42.5 -82.5q58 -61 185 -82q33 109 2.5 187.5t-115.5 78.5q-57 0 -88 -29t-26.5 -72.5z" />
<glyph unicode="&#xcd;" horiz-adv-x="3319" d="M64.5 108q0.5 23 1.5 27q82 12 145 43t129 92q91 85 147 191q-200 25 -270 139q-50 76 -51 167t36.5 165t111.5 124t163 50q75 -1 126.5 -45t71.5 -117t14.5 -166.5t-38.5 -193.5q92 12 219 49q344 93 591 149t478 90.5t411.5 31.5t350.5 -35.5t336 -102.5 q87 -36 140.5 -91.5t68.5 -114.5t7.5 -118t-38 -106t-73.5 -74q-2 6 -6 16.5t-25 40.5t-49.5 58t-83.5 63.5t-123 61.5q-111 42 -237.5 73t-316 51t-396.5 16.5t-482 -41.5t-571 -112q-136 -34 -256 -34q-73 -145 -188 -252q-131 -120 -248 -148q-44 -11 -70 9.5t-25.5 43.5 zM301.5 733q-2.5 -32 15.5 -59q59 -104 222 -101q39 115 9.5 199t-118.5 84q-38 0 -68.5 -18.5t-44 -45.5t-16 -59z" />
<glyph unicode="&#xce;" horiz-adv-x="4409" d="M65 63.5q1 22.5 3 26.5q82 14 144 45t128 92q95 85 156 201q-127 31 -215 109q-59 51 -87.5 114t-25.5 121.5t28 114t67 95.5t99 62t117 17q78 -7 129.5 -56.5t70.5 -125.5t10 -173t-46 -198q357 -36 1262 237q709 213 1154 309.5t699 94.5t412 -74q80 -36 125 -106 t50 -143.5t-14 -141t-57 -104.5q-4 6 -12 16t-35.5 38t-58 53.5t-79 56t-99.5 51.5q-53 21 -97.5 36t-141.5 34.5t-198.5 25.5t-264.5 0.5t-343.5 -30.5t-431 -78t-531.5 -132q-528 -149 -858 -204t-524 -35q-77 -147 -192 -254q-125 -117 -246 -146q-45 -11 -71.5 9 t-25.5 42.5zM317.5 711.5q4.5 -43.5 42.5 -82.5q67 -70 179 -103q39 117 10 202t-119 85q-56 0 -86.5 -29t-26 -72.5z" />
<glyph unicode="&#xcf;" horiz-adv-x="5718" d="M64.5 63.5q0.5 22.5 1.5 26.5q83 14 146 45t128 92q96 86 158 207q-142 32 -219 103q-71 61 -97.5 137.5t-9.5 145t59 126.5t108.5 89.5t137.5 25.5q78 -7 129.5 -55.5t71 -124t11 -171.5t-45.5 -196q459 -56 1759 231q740 163 1237 254.5t841.5 125.5t552 20t380.5 -70 q90 -29 148 -81t77.5 -109.5t16.5 -117t-29.5 -108.5t-67.5 -79q-2 6 -7.5 16t-28.5 38t-53.5 53.5t-88 56t-127.5 51.5q-73 21 -133.5 36t-193 34.5t-271.5 25.5t-361 0.5t-469 -30.5t-589 -78t-727 -132q-760 -156 -1213.5 -209.5t-695.5 -25.5q-78 -152 -192 -258 q-128 -117 -248 -146q-44 -11 -70 9t-25.5 42.5zM315.5 711.5q4.5 -43.5 42.5 -82.5q65 -65 181 -97q37 116 7.5 198.5t-116.5 82.5q-57 0 -88 -29t-26.5 -72.5z" />
<glyph unicode="&#xd9;" horiz-adv-x="1619" d="M61 1561q0 54 5 59q3 8 55 8q581 0 649 2q38 0 377 -1t352 -1t29 1t22 1t6 -2l1 -17q1 -17 1.5 -51t0.5 -75v-1774q0 -60 -3 -63q-1 -2 -186.5 92.5t-372 189.5t-188.5 95t-189 -97t-372 -193.5t-185 -94.5q-2 1886 -2 1921z" />
<glyph unicode="&#xda;" horiz-adv-x="800" d="M61 946q0 55 5 60q3 8 55 8q171 0 239 2q38 0 172.5 -1t147.5 -1t29 1t22 1t6 -2l1 -18q0 -17 0.5 -51t0.5 -75v-671q0 -62 -2 -64q-1 -2 -84 41t-167.5 87t-86.5 44t-86.5 -46t-167 -91t-82.5 -43q-2 784 -2 819z" />
<glyph unicode="&#xdb;" horiz-adv-x="1210" d="M61 1561q0 54 5 59q3 8 55 8q376 0 444 2q38 0 275 -1t250 -1t29 1t22 1t6 -2l1 -17q0 -17 0.5 -51t0.5 -75v-1774q0 -61 -2 -63q-1 -2 -135.5 41t-270 87t-137.5 44t-137.5 -46t-269.5 -91t-134 -43q-2 1886 -2 1921z" />
<glyph unicode="&#xdc;" horiz-adv-x="1210" d="M61 1561q0 54 5 59q3 8 55 8q376 0 444 2q38 0 275 -1t250 -1t29 1t22 1t6 -2l1 -17q0 -17 0.5 -51t0.5 -75v-1774q0 -61 -2 -63q-1 -2 -135.5 92.5t-270 189.5t-137.5 95q-3 0 -138 -97t-269 -193.5t-134 -94.5q-2 1886 -2 1921z" />
<glyph unicode="&#xdd;" horiz-adv-x="1173" d="M63 305q0 2 3 4.5t8 5.5t14 7q24 10 57.5 27t36.5 18q15 6 15 4q0 -1 2 -70.5t2 -71.5q0 -1 30 -39q13 -10 9 -14q-1 0 -3.5 -1t-8.5 -4t-13 -5q-31 -12 -57 -23.5t-35.5 -15.5t-11.5 -4q-5 0 -2 9q0 2 2 9q2 9 4 15q3 13 9.5 31.5t10.5 30.5t4 13q0 3 -10 13 q-12 9 -32.5 28t-28.5 25q-3 3 -4 4.5t-1 3.5zM203 432v80q0 6 10 8q39 12 373 128.5t342 119.5q11 4 17.5 5.5t8.5 1.5t2 -1t0.5 -34.5t1 -71.5t1 -75.5t-0.5 -45.5q0 -44 -2 -46q-1 -1 -2 -1q-1 -1 -162 -58t-346 -122.5t-233 -83.5q-6 -3 -6 2q0 1 -1 42t-2 88.5t-1 63.5 zM203 879v79q0 5 10 9q39 12 373 128.5t342 118.5q28 6 28 5v-23q1 -22 1.5 -52t1 -62t0.5 -57.5t-1 -31.5v-25q0 -16 -0.5 -19.5t-3.5 -4.5l-741 -262q-6 -3 -6 2q0 1 -1 42t-2 89t-1 64zM203 1325v80q0 6 10 8q33 10 365 126.5t350 121.5q11 4 17.5 5.5t8.5 1.5t2 -1v-22 q1 -22 1.5 -52.5t1 -62.5t0.5 -57.5t-1 -32.5v-24q0 -21 -4 -23q-1 -1 -161.5 -58t-346 -123t-233.5 -84q-6 -3 -6 2q0 1 -1 42t-2 89t-1 64zM211 227q0 2 8 4q2 1 7.5 3t10 4t5.5 2q4 -3 4 -7v-40q0 -5 -0.5 -5.5t-3.5 0.5zM215 672q0 2 8 4q2 1 8 3t10 3.5t5 1.5 q38 14 199 71t167 58q4 1 145.5 -13.5t160.5 -17.5q16 -1 16 -2t-12 -6q-15 -3 -165.5 -56t-170.5 -59q-19 -6 -32 -6.5t-65 2.5q-271 14 -274 17zM215 1118q-2 2 3 3q2 1 3 1q3 1 8.5 3t9.5 3.5t5 1.5q235 86 366 130q3 1 74.5 -5.5t152.5 -15t85 -8.5q16 -1 16 -3t-12 -5 q-13 -4 -161 -55.5t-175 -59.5q-20 -7 -33.5 -7.5t-67.5 1.5q-47 3 -118 7t-113.5 6t-42.5 3zM913 1327v41q0 2 19 8q4 1 10 3q8 3 8 2t-2 -3l-30 -47zM926 1329l37 57q4 6 4 15q0 1 -1 56t-1 59v16q84 18 94 20q12 2 12 0t-16 -28l-37 -68q-1 -3 2 -5t4 -3l76 -51 q12 -12 12 -13q-2 0 -39 -12q-75 -20 -100 -29z" />
<glyph unicode="&#xe0;" horiz-adv-x="1118" d="M62 264.5q2 34.5 16 67.5q39 77 129 41q32 -13 39 -23q-35 -69 -1 -122.5t120 -63.5q129 -15 239 37.5t170 158.5l-18 5q-58 12 -96.5 56t-50.5 101.5t-7 117.5t31.5 110.5t66.5 72.5q29 16 59 18t60.5 -13t50 -54t27 -104.5t-7.5 -165.5q-5 -35 -19 -78q50 20 90 71.5 t64 114.5q18 6 27 -6t0 -39q-28 -75 -81.5 -129t-121.5 -71q-46 -105 -132.5 -179.5t-191 -106.5t-211.5 -22q-60 5 -109 25t-78.5 48.5t-47.5 63t-16 69zM683.5 615.5q-11.5 -69.5 18.5 -131t97 -68.5q15 42 24 86q26 153 -16 210q-28 39 -72 5q-40 -32 -51.5 -101.5z" />
<glyph unicode="&#xe1;" horiz-adv-x="1249" d="M64.5 323.5q11.5 47.5 48.5 73.5q1 -3 3.5 -8t14 -19t26.5 -27t43.5 -28.5t63.5 -25.5q135 -41 549 63q-4 40 -4 66q0 242 84 395q31 57 75.5 64.5t74 -13t22.5 -28.5q-65 -97 -93 -192t-28 -222v-37q138 16 213 -92q26 -39 29.5 -87.5t-11.5 -90t-49.5 -69.5t-78.5 -28 q-78 1 -138 76.5t-86 188.5q-235 -91 -347 -119q-187 -48 -292 -14q-73 24 -102 75t-17.5 98.5zM950 324q12 -81 44.5 -131t76.5 -50q32 0 45.5 37t-0.5 66q-21 49 -65 69t-101 9z" />
<glyph unicode="&#xe2;" horiz-adv-x="2031" d="M63.5 409q3.5 39 34.5 75.5t86 54.5q89 28 201 30.5t314 -31t503 -110.5q25 -7 45 -10q-45 139 -29 270.5t89 220.5q46 54 100 90t106.5 49.5t106 12t97.5 -22t81 -52.5t57 -79.5t25.5 -103t-14.5 -123.5q-38 -138 -155 -235t-298 -113q138 -249 485 -312q48 -9 63.5 -31 t2.5 -47t-32.5 -49t-38.5 -39l-19 -16q-216 64 -366.5 196t-227.5 298q-66 6 -127 20q-201 43 -362 62t-264.5 13.5t-151.5 -13t-97 -21.5q-10 -3 -14 -4q-35 -10 -63.5 -25t-44 -29t-26 -26.5t-14.5 -20.5l-3 -7q-27 19 -40 54t-9.5 74zM1345 610q-2 -100 33 -202 q148 6 249.5 82t129.5 194q18 75 13 132t-24.5 98t-53 61.5t-72 23.5t-82.5 -16.5t-84 -58.5q-48 -49 -77.5 -131.5t-31.5 -182.5z" />
<glyph unicode="&#xe3;" horiz-adv-x="1114" d="M66 569q11 61 65.5 103.5t123 50.5t138.5 -16q63 -23 52 -64q-7 -27 -36 -37q-20 -7 -34 4q-36 28 -84 34.5t-87.5 -16t-47.5 -71.5q-11 -66 50.5 -112t196.5 -50q131 -3 244 67t179.5 192.5t66.5 267.5q0 6 37 39q85 77 112 38q11 -16 11 -49q0 -115 -50.5 -226.5 t-137 -198.5t-214 -138t-270.5 -45q-173 6 -253.5 67.5t-61.5 159.5z" />
<glyph unicode="&#xe4;" horiz-adv-x="790" d="M68 414q5 33 23 48.5t40 13.5t43.5 -9t36 -15.5t14.5 -9.5q-15 -97 8 -154.5t78 -60.5q67 -6 125 72q-6 0 -8 2q-58 12 -96.5 56t-49.5 102t-6 118.5t31.5 111t65.5 73.5q29 16 59 17.5t60 -14t50 -54.5t27 -105t-8 -166q-4 -25 -20 -80q99 39 155 189h2q17 7 26 -5.5 t-1 -39.5q-30 -78 -85 -133t-122 -70q-44 -86 -110 -137t-146 -43q-96 10 -153.5 90t-38.5 203zM356 552.5q-12 -68.5 17.5 -130.5t95.5 -70q17 36 27 86q26 153 -16 210q-28 39 -72 5q-40 -32 -52 -100.5z" />
<glyph unicode="&#xe5;" horiz-adv-x="1628" d="M63 733q3 43 31 74q20 18 45 9t47 -28l21 -20q-28 -28 -31.5 -63.5t22.5 -65t76 -39.5q74 -13 186 5t233 52t245 68t252.5 53.5t224.5 7.5q58 -7 95.5 -35.5t47.5 -64t4 -71t-28 -58.5q-2 3 -5.5 7.5t-17.5 16.5t-31.5 21.5t-49 19.5t-68.5 13q-128 12 -293 -5 t-295.5 -44t-275.5 -44t-240 -5q-65 9 -112 41t-66.5 72t-16.5 83z" />
<glyph unicode="&#xe7;" horiz-adv-x="2904" d="M62 408l1 6q115 -15 226 19.5t196 107.5q-65 108 -79 211q-19 122 62 200q63 60 142 58q81 -1 114 -69q26 -52 13 -132q-23 -144 -139 -270q91 -123 257 -231.5t359 -184t408.5 -126.5t408.5 -66t357 6t256 81q48 32 77 69t33 58l5 21q31 -11 53 -39.5t29 -64.5 t-12.5 -78.5t-67.5 -75.5q-86 -60 -256.5 -81.5t-378.5 -6t-445.5 69t-452.5 134t-403 199t-295 254.5q-90 -73 -191.5 -109t-188.5 -24q-31 4 -51 12.5t-27 18t-9.5 18.5t-0.5 15zM494 801q6 -96 57 -191q68 88 86 193q14 90 -31 118q-34 22 -71 -7q-46 -36 -41 -113z" />
<glyph unicode="&#xe9;" horiz-adv-x="1394" d="M61 1083q0 45 34 82t88.5 43.5t121.5 -41.5q80 -61 199.5 -220.5t294.5 -421t235 -345.5q41 -56 79.5 -90.5t69.5 -45.5t54.5 -9t42.5 16l12 10q43 3 39 -17q-3 -20 -49 -54q-49 -34 -137.5 5.5t-186.5 160.5q-62 76 -177.5 229t-199 262.5t-181.5 219.5t-162 155 q-48 33 -92.5 48t-64.5 14z" />
<glyph unicode="&#xea;" horiz-adv-x="3155" d="M72 1460q-27 84 24 169t145 108q139 34 285 -98q32 -29 62 -64q149 -175 317.5 -338.5t371 -321t410 -281.5t440 -215.5t456.5 -129.5q162 -27 273.5 -17t166.5 54q12 10 17.5 19t5.5 13l-1 4q39 11 47.5 -13t-24.5 -56q-51 -42 -115.5 -64.5t-168 -28t-242.5 18.5 q-215 34 -425 97.5t-381.5 135.5t-348.5 172t-305.5 185.5t-275 200.5t-235.5 191.5t-206 182.5q-37 34 -81 54t-80 25t-66.5 5t-47.5 -4z" />
<glyph unicode="&#x152;" horiz-adv-x="1214" d="M61 227v226q34 0 57 22.5t23 56.5h932q0 -33 23.5 -56t56.5 -23v-226q-32 0 -56 -24t-24 -56h-932q0 33 -23.5 56.5t-56.5 23.5zM90 242q29 0 49.5 -20.5t20.5 -49.5h897q0 29 20 49.5t49 20.5v194q-29 0 -49 21t-20 49h-897q0 -28 -20.5 -49t-49.5 -21v-194z" />
<glyph unicode="&#x178;" horiz-adv-x="1173" d="M63 305q0 2 3 4.5t8 5.5t14 7q24 10 57.5 27t36.5 18q15 6 15 4q0 -1 2 -70.5t2 -71.5q0 -1 30 -39q13 -10 9 -14q-1 0 -3.5 -1t-8.5 -4t-13 -5q-31 -12 -57 -23.5t-35.5 -15.5t-11.5 -4q-5 0 -2 9q0 2 2 9q2 9 4 15q3 13 9.5 31.5t10.5 30.5t4 13q0 3 -10 13 q-12 9 -32.5 28t-28.5 25q-3 3 -4 4.5t-1 3.5zM203 432v80q0 6 10 8q39 12 373 128.5t342 119.5q11 4 17.5 5.5t8.5 1.5t2 -1t0.5 -34.5t1 -71.5t1 -75.5t-0.5 -45.5q0 -44 -2 -46q-1 -1 -2 -1q-1 -1 -162 -58t-346 -122.5t-233 -83.5q-6 -3 -6 2q0 1 -1 42t-2 88.5t-1 63.5 zM203 879v79q0 5 10 9q39 12 373 128.5t342 118.5q28 6 28 5v-23q1 -22 1.5 -52t1 -62t0.5 -57.5t-1 -31.5v-25q0 -16 -0.5 -19.5t-3.5 -4.5l-741 -262q-6 -3 -6 2q0 1 -1 42t-2 89t-1 64zM203 1325v80q0 6 10 8q33 10 365 126.5t350 121.5q11 4 17.5 5.5t8.5 1.5t2 -1v-22 q1 -22 1.5 -52.5t1 -62.5t0.5 -57.5t-1 -32.5v-24q0 -21 -4 -23q-1 -1 -161.5 -58t-346 -123t-233.5 -84q-6 -3 -6 2q0 1 -1 42t-2 89t-1 64zM203 1778v80q0 6 10 8q33 10 365 126.5t350 121.5q11 4 17.5 5.5t8.5 1.5t2 -1v-22q1 -23 1.5 -53.5t1 -62.5t0.5 -57.5t-1 -32.5 v-24q0 -21 -4 -23q-1 -1 -162 -58t-346 -122.5t-233 -83.5q-6 -3 -6 2q0 1 -1 42t-2 89t-1 64zM203 2226v80q0 6 10 8q33 10 365 126.5t350 121.5q11 4 17.5 5.5t8.5 1.5t2 -1v-22q1 -22 1.5 -52.5t1 -62.5t0.5 -57.5t-1 -32.5q0 -44 -2 -46q-1 -1 -2 -1q-1 -1 -162 -58 t-346 -122.5t-233 -83.5q-6 -3 -6 2q0 1 -1 42t-2 88.5t-1 63.5zM211 227q0 2 8 4q2 1 7.5 3t10 4t5.5 2q4 -3 4 -7v-40q0 -5 -0.5 -5.5t-3.5 0.5zM215 672q0 2 8 4q2 1 8 3t10 3.5t5 1.5q38 14 199 71t167 58q4 1 145.5 -13.5t160.5 -17.5q16 -1 16 -2t-12 -6 q-15 -3 -165.5 -56t-170.5 -59q-19 -6 -32 -6.5t-65 2.5q-271 14 -274 17zM215 1118q-2 2 3 3q2 1 3 1q3 1 8.5 3t9.5 3.5t5 1.5q235 86 366 130q3 1 74.5 -5.5t152.5 -15t85 -8.5q16 -1 16 -3t-12 -5q-13 -4 -161 -55.5t-175 -59.5q-20 -7 -33.5 -7.5t-67.5 1.5 q-47 3 -118 7t-113.5 6t-42.5 3zM215 1571q-2 2 3 3q2 1 3 1q3 1 8.5 3t9.5 3.5t5 1.5q206 76 366 129q3 1 74.5 -5.5t152.5 -15t85 -8.5q16 -1 16 -3t-12 -5q-13 -4 -161 -55t-175 -59q-34 -11 -101 -7q-46 3 -117.5 7t-114 6.5t-42.5 3.5zM215 2019q-2 2 3 3q2 1 3 1 q3 1 8.5 3t9.5 4t5 2q206 76 366 129q3 1 74.5 -5.5t152.5 -15t85 -8.5q16 -1 16 -3t-12 -5q-13 -4 -161 -55.5t-175 -59.5q-20 -7 -33.5 -7.5t-67.5 1.5q-47 3 -118 7t-113.5 6t-42.5 3zM926 2230l37 58q4 6 4 14l-1 56q-1 56 -1 59v16q84 19 94 21q12 2 12 0q0 -3 -16 -29 l-37 -68q-1 -3 2 -5t4 -3l76 -51l4 -4t3.5 -3t2.5 -2l1.5 -1.5t0.5 -1.5h-2q-1 -1 -2.5 -1.5t-3.5 -1t-5 -1.5t-6.5 -2.5t-8.5 -3t-11 -3.5q-87 -24 -100 -28z" />
<glyph unicode="&#x2000;" horiz-adv-x="1284" />
<glyph unicode="&#x2001;" horiz-adv-x="2569" />
<glyph unicode="&#x2002;" horiz-adv-x="1284" />
<glyph unicode="&#x2003;" horiz-adv-x="2569" />
<glyph unicode="&#x2004;" horiz-adv-x="856" />
<glyph unicode="&#x2005;" horiz-adv-x="642" />
<glyph unicode="&#x2006;" horiz-adv-x="428" />
<glyph unicode="&#x2007;" horiz-adv-x="428" />
<glyph unicode="&#x2008;" horiz-adv-x="321" />
<glyph unicode="&#x2009;" horiz-adv-x="513" />
<glyph unicode="&#x200a;" horiz-adv-x="142" />
<glyph unicode="&#x2010;" horiz-adv-x="993" d="M23 637q3 51 56.5 54.5t246.5 -27.5q73 -14 120 -25q-29 36 -84 125q-113 168 -124 206.5t45 65.5q44 23 71.5 -18.5t100.5 -231.5q38 -107 41 -116q15 44 63 135q90 183 118.5 212.5t78.5 -5.5q35 -23 28 -53q-9 -36 -101 -153l-56 -69q-53 -65 -80 -94q57 6 149 12 q202 13 241 4t34 -71q-3 -50 -56 -53t-245 28q-83 12 -123 23q12 -15 86 -123q114 -170 125 -208t-45 -65q-44 -23 -71.5 18.5t-100.5 229.5q-34 86 -43 119q-5 -12 -64 -137q-91 -183 -117 -210.5t-77 5.5q-35 23 -28 52q8 36 99 150q19 24 58 72q36 47 80 95 q-62 -10 -150 -13q-202 -13 -240.5 -3.5t-35.5 69.5z" />
<glyph unicode="&#x2011;" horiz-adv-x="993" d="M23 637q3 51 56.5 54.5t246.5 -27.5q73 -14 120 -25q-29 36 -84 125q-113 168 -124 206.5t45 65.5q44 23 71.5 -18.5t100.5 -231.5q38 -107 41 -116q15 44 63 135q90 183 118.5 212.5t78.5 -5.5q35 -23 28 -53q-9 -36 -101 -153l-56 -69q-53 -65 -80 -94q57 6 149 12 q202 13 241 4t34 -71q-3 -50 -56 -53t-245 28q-83 12 -123 23q12 -15 86 -123q114 -170 125 -208t-45 -65q-44 -23 -71.5 18.5t-100.5 229.5q-34 86 -43 119q-5 -12 -64 -137q-91 -183 -117 -210.5t-77 5.5q-35 23 -28 52q8 36 99 150q19 24 58 72q36 47 80 95 q-62 -10 -150 -13q-202 -13 -240.5 -3.5t-35.5 69.5z" />
<glyph unicode="&#x2012;" horiz-adv-x="993" d="M23 637q3 51 56.5 54.5t246.5 -27.5q73 -14 120 -25q-29 36 -84 125q-113 168 -124 206.5t45 65.5q44 23 71.5 -18.5t100.5 -231.5q38 -107 41 -116q15 44 63 135q90 183 118.5 212.5t78.5 -5.5q35 -23 28 -53q-9 -36 -101 -153l-56 -69q-53 -65 -80 -94q57 6 149 12 q202 13 241 4t34 -71q-3 -50 -56 -53t-245 28q-83 12 -123 23q12 -15 86 -123q114 -170 125 -208t-45 -65q-44 -23 -71.5 18.5t-100.5 229.5q-34 86 -43 119q-5 -12 -64 -137q-91 -183 -117 -210.5t-77 5.5q-35 23 -28 52q8 36 99 150q19 24 58 72q36 47 80 95 q-62 -10 -150 -13q-202 -13 -240.5 -3.5t-35.5 69.5z" />
<glyph unicode="&#x2013;" horiz-adv-x="1066" d="M22 637q3 51 61 54.5t266 -27.5q79 -14 130 -25q-32 36 -91 125q-122 168 -134 206.5t49 65.5q47 23 77 -18.5t108 -231.5q41 -107 45 -116q16 44 68 135q97 183 127.5 212.5t84.5 -5.5q38 -23 31 -53q-10 -36 -109 -153l-61 -69q-57 -65 -86 -94q61 6 161 12 q218 13 260 4t36 -71q-3 -50 -60 -53t-264 28q-90 12 -133 23q13 -15 93 -123q123 -170 134.5 -208t-48.5 -65q-48 -23 -77.5 18.5t-108.5 229.5q-36 86 -46 119q-6 -12 -69 -137q-98 -183 -126.5 -210.5t-83.5 5.5q-37 23 -30 52q9 36 107 150l63 72q39 47 86 95 q-67 -10 -162 -13q-218 -13 -259.5 -3.5t-38.5 69.5z" />
<glyph unicode="&#x2014;" horiz-adv-x="2090" d="M22 637q7 51 122.5 54.5t532.5 -27.5q157 -14 259 -25q-63 36 -182 125q-244 168 -267.5 206.5t97.5 65.5q95 23 154 -18.5t217 -231.5q82 -107 88 -116q33 44 136 135q195 183 256.5 212.5t169.5 -5.5q75 -23 60 -53q-19 -36 -218 -153l-121 -69q-114 -65 -172 -94 q123 6 321 12q436 13 520.5 4t73.5 -71q-7 -50 -121.5 -53t-528.5 28q-179 12 -265 23q25 -15 185 -123q246 -170 270 -208t-97 -65q-95 -23 -154.5 18.5t-216.5 229.5q-74 86 -93 119q-11 -12 -138 -137q-197 -183 -253 -210.5t-166 5.5q-76 23 -61 52q18 36 214 150 q41 24 125 72q78 47 173 95q-134 -10 -324 -13q-436 -13 -519 -3.5t-77 69.5z" />
<glyph unicode="&#x2018;" horiz-adv-x="890" d="M62 264q0 2 12 8q10 6 10 10.5t-10 10.5q-17 9 -2 10h10h731q13 0 14 -1.5t-10 -10.5q-12 -9 -11.5 -13t11.5 -10q15 -5 3 -12l-1.5 -1.5t-1.5 -0.5q-20 -11 0 -21q8 -3 9.5 -4.5t0 -3.5t-9.5 -6t-9.5 -6t0 -4t9.5 -6q15 -10 0 -10h-743q-6 0 -8.5 0.5t-2 2.5t3 4t7.5 5 q7 4 9 6.5t0 5t-9 6.5l-4 2q-9 5 -5 8q1 1 9 5q7 4 9.5 7t0.5 6t-10 7q-12 4 -12 6z" />
<glyph unicode="&#x2019;" horiz-adv-x="890" d="M62 196.5q0 2.5 12 8.5q7 4 9.5 7t0.5 6t-10 7q-12 5 -12 7t12 8q7 4 9 7t0 6t-9 7q-12 4 -12 6t12 8q20 11 0 21q-12 5 -12 6.5t12 7.5q21 12 -2 21q-15 9 0 10h10h731q13 0 13.5 -1.5t-11.5 -10.5q-11 -9 -10.5 -13t12.5 -8q8 -4 9.5 -6t0 -4t-9.5 -6q-12 -6 -12 -10.5 t12 -10.5q8 -3 9.5 -4.5t0 -3.5t-9.5 -6q-12 -6 -12 -10t12 -10q8 -3 9.5 -5t0 -4t-9.5 -6q-12 -6 -12 -10t12 -10q8 -3 9.5 -5t0 -4t-9.5 -6q-12 -6 -12 -10t12 -10q17 -9 2 -10h-10h-733q-13 0 -13.5 1.5t11.5 10.5q7 6 9 9.5t0 6.5t-9 6q-12 4 -12 6.5z" />
<glyph unicode="&#x201a;" horiz-adv-x="610" d="M63.5 196q0.5 2 3 4t7.5 5q7 4 9 6.5t0 5t-9 6.5t-8.5 4.5t-1.5 3t1.5 3t8.5 4.5q12 6 12 10t-12 10q-8 3 -9.5 4.5t0 3.5t9.5 6q20 10 0 21q-17 9 -2 10h10h450q10 0 12.5 -0.5t1 -3t-10.5 -8.5q-11 -9 -10.5 -13t12.5 -10q8 -3 9.5 -4.5t0 -3.5t-9.5 -6 q-12 -6 -12 -10.5t12 -10.5q8 -3 9.5 -4.5t0 -3.5t-9.5 -6t-9.5 -6t-0.5 -4t8 -6q17 -10 2 -10h-463q-6 0 -8.5 0.5t-2 2.5z" />
<glyph unicode="&#x201e;" horiz-adv-x="751" d="M64 230.5q0 2.5 1.5 3t8.5 4.5q12 6 12 10t-12 10q-8 3 -9.5 4.5t0 3.5t9.5 6q12 6 12 10.5t-12 10.5q-17 9 -2 10h10h592q14 0 14 -1.5t-10 -10.5q-12 -9 -12 -13t12 -10q8 -3 9.5 -4.5t0 -3.5t-9.5 -6q-12 -6 -12 -10.5t12 -10.5q8 -3 9.5 -4.5t0 -3.5t-9.5 -6t-9.5 -6 t-0.5 -4t8 -6q17 -10 2 -10h-604q-19 0 2 12q5 3 7 5t2.5 4t-2.5 4t-9 5q-7 4 -8.5 4.5t-1.5 3z" />
<glyph unicode="&#x202f;" horiz-adv-x="513" />
<glyph unicode="&#x205f;" horiz-adv-x="642" />
<glyph unicode="&#x25fc;" horiz-adv-x="1126" d="M0 0v1126h1126v-1126h-1126z" />
</font>
</defs>
</svg>
